G04 DipTrace 3.3.1.3*
G04 Bottom.gbr*
%MOIN*%
G04 #@! TF.FileFunction,Copper,L2,Bot*
G04 #@! TF.Part,Single*
G04 #@! TA.AperFunction,Conductor*
%ADD13C,0.01*%
%ADD14C,0.03*%
%ADD15C,0.02*%
G04 #@! TA.AperFunction,CopperBalancing*
%ADD16C,0.025*%
G04 #@! TA.AperFunction,ComponentPad*
%ADD17C,0.059055*%
%ADD18R,0.031496X0.07874*%
G04 #@! TA.AperFunction,ComponentPad*
%ADD19R,0.059055X0.059055*%
%ADD20C,0.059055*%
%ADD22R,0.05X0.025*%
%ADD24R,0.062992X0.070866*%
G04 #@! TA.AperFunction,ComponentPad*
%ADD25C,0.0591*%
%ADD26C,0.059*%
%ADD27C,0.05*%
%ADD28C,0.05*%
%ADD29R,0.0591X0.0591*%
%ADD30C,0.0591*%
%ADD31C,0.1*%
G04 #@! TA.AperFunction,ViaPad*
%ADD32C,0.04*%
%FSLAX26Y26*%
G04*
G70*
G90*
G75*
G01*
G04 Bottom*
%LPD*%
X619708Y2343700D2*
D13*
X642236Y2366228D1*
X1143700D1*
Y2307480D1*
X1094952Y2243700D2*
X1193700D1*
Y2307480D1*
X1243700Y2143700D2*
Y2307480D1*
X1218739Y2043700D2*
X1293700Y2118661D1*
Y2307480D1*
X1343700Y1991228D2*
Y2307480D1*
X4618700Y2041700D2*
D14*
Y1848700D1*
X3318700Y993700D2*
X3240700D1*
Y1104172D1*
X3268700Y2664704D2*
Y2343700D1*
X5041700Y2041700D2*
Y2508700D1*
X4945704Y2604696D1*
Y2763704D1*
X4902704Y2806704D1*
X3076235D1*
X1415704Y1618228D2*
Y1386082D1*
X4218700Y993700D2*
Y1181204D1*
X4618700Y1848700D2*
X4556700Y1786700D1*
Y1298700D1*
X4618700D1*
X3240700Y1104172D2*
X3293700Y1157172D1*
Y1293700D1*
X1393700Y1843700D2*
D13*
Y2307480D1*
X1468700Y1168700D2*
X1837161D1*
X1860161Y1191700D1*
Y1718228D1*
X1883161Y1741228D1*
X2284228D1*
X2307228Y1764228D1*
Y2470700D1*
X2330228Y2493700D1*
X2443700D1*
X1803409Y1053133D2*
X1339251D1*
X1316251Y1076133D1*
Y1221149D1*
X1268700Y1268700D1*
X2193700Y1318700D2*
D14*
Y1418700D1*
X806200Y793700D2*
X748672Y851228D1*
Y1311172D1*
X806200Y1368700D1*
X4332700Y1293700D2*
Y1157149D1*
X4318700Y1143149D1*
Y993700D1*
X4332700Y1993700D2*
X4201200D1*
X4151200Y1943700D1*
X4093700D1*
X2443700Y2593700D2*
X2276228D1*
X2251228Y2568700D1*
X2193700D1*
X4918700Y993700D2*
X4976228D1*
X5001228Y1018700D1*
X5168700D1*
X1511700Y1703228D2*
D3*
X3468700Y2343700D2*
Y2493700D1*
X2335228Y936172D2*
Y1318700D1*
X5218700Y2218700D2*
Y2161172D1*
X5175700Y2118172D1*
X5095228D1*
X1493700Y2659074D2*
Y2543700D1*
X2193700Y843700D2*
Y743700D1*
Y1418700D2*
X2060157Y1552243D1*
Y1627184D1*
X1984113Y1703228D1*
X806200Y2518700D2*
X966582Y2679082D1*
X1043700D1*
X806200Y1943700D2*
X548708Y2201192D1*
Y2475700D1*
X591708Y2518700D1*
X806200D1*
Y1368700D2*
X748672Y1426228D1*
Y1886172D1*
X806200Y1943700D1*
X3447228Y1446700D2*
Y1840172D1*
X3293700Y1993700D1*
X3418700Y993700D2*
Y1365172D1*
X3447228Y1393700D1*
Y1446700D1*
X4018700Y993700D2*
X3961172Y936172D1*
X3476228D1*
X3418700Y993700D1*
X4318700D2*
X4261172Y936172D1*
X4076228D1*
X4018700Y993700D1*
X2193700Y2468700D2*
X2251228Y2411172D1*
Y2051228D1*
X2193700Y1993700D1*
Y2568700D2*
Y2468700D1*
X1511700Y1703228D2*
X1516700Y1698228D1*
Y1386086D1*
X1468700Y1338086D1*
Y1268700D1*
X3468700Y2493700D2*
X3760696D1*
X3893700Y2626704D1*
X4993700Y2460700D2*
D13*
X4904700D1*
X4881700Y2483700D1*
Y2750704D1*
X4858700Y2773704D1*
X3190231D1*
X3167231Y2750704D1*
Y2316700D1*
X3144231Y2293700D1*
X3043700D1*
X4231700Y2314228D2*
X4593700D1*
X3686700Y2284716D2*
Y2216700D1*
X3663700Y2193700D1*
X3043700D1*
X3724700Y2172200D2*
X3709700Y2157200D1*
X3107200D1*
X3043700Y2093700D1*
X3981700Y1393700D2*
Y1668200D1*
X4004700Y1691200D1*
X4118200D1*
X4141200Y1714200D1*
Y1796200D1*
X4093700Y1843700D1*
X2506228Y1493700D2*
X2443700D1*
X2256228Y1684180D2*
X2307228D1*
X2330228Y1707180D1*
Y2118228D1*
X2353228Y2141228D1*
X2771653D1*
X2506228Y1993700D2*
X2743700D1*
X854200Y2096700D2*
Y1216700D1*
X806200Y1168700D1*
X1727409Y1896176D2*
X2014145D1*
X2037145Y1919176D1*
Y2618228D1*
X2060145Y2641228D1*
X2491228D1*
X2514228Y2618228D1*
Y2364228D1*
X2491228Y2341228D1*
X2419172D1*
X2396172Y2318228D1*
Y2264228D1*
X2419172Y2241228D1*
X2820700D1*
X2843700Y2218228D1*
Y1993700D1*
X892200Y1896176D2*
Y679700D1*
X806200Y593700D1*
X2443700Y2293700D2*
X2835121D1*
X2882649Y2341228D1*
X2968228D1*
X2991228Y2318228D1*
Y1664228D1*
X3014228Y1641228D1*
X3068228D1*
X3091228Y1618228D1*
Y1464228D1*
X3068228Y1441228D1*
X3014228D1*
X2991228Y1418228D1*
Y1226231D1*
X3166228Y1051231D1*
Y541228D1*
X3118700Y493700D1*
X1627708Y1231893D2*
Y2219700D1*
Y691228D2*
X2218228D1*
X2241228Y668228D1*
Y614228D1*
X2218228Y591228D1*
X2157487D1*
X2134487Y568228D1*
Y464700D1*
X2157487Y441700D1*
X2966700D1*
X3018700Y493700D1*
X3087917Y1741228D2*
X3114228Y1714917D1*
Y1464228D1*
X3137228Y1441228D1*
X3318228D1*
X3341228Y1464228D1*
Y1518228D1*
X3318228Y1541228D1*
X3193228D1*
X3170228Y1564228D1*
Y2018228D1*
X3193228Y2041228D1*
X3553952D1*
X3601480Y1993700D1*
X3793700D1*
X2734172Y2093700D2*
X2443700D1*
X2929228Y1541228D2*
Y1918228D1*
X2906228Y1941228D1*
X2496172D1*
X2443700Y1993700D1*
X3622700Y1641228D2*
Y1722700D1*
X3793700Y1893700D1*
X3066228Y771208D2*
Y1028231D1*
X2891228Y1203231D1*
Y1818228D1*
X2868228Y1841228D1*
X2685463D1*
X2632991Y1893700D1*
X2443700D1*
X2666231Y826704D2*
X2320228D1*
X2297228Y849704D1*
Y1418228D1*
X2320228Y1441228D1*
X2540397D1*
X2563397Y1464228D1*
Y1674003D1*
X2443700Y1793700D1*
X2012157Y1248617D2*
Y1564228D1*
X3043700Y1393700D2*
X3189228Y1248172D1*
Y464700D1*
X3212228Y441700D1*
X3866700D1*
X3918700Y493700D1*
X2918700D2*
X2818700D1*
X3793700Y1793700D2*
Y1693700D1*
X4718700Y493700D2*
X4618700D1*
X4843700Y1132235D2*
D15*
Y2680204D1*
X4851700Y708204D2*
X5238228D1*
X5271228Y741204D1*
Y2432176D1*
X5043700Y2659704D1*
X2761700Y824204D2*
Y886440D1*
X2728700Y919440D1*
X2692960D1*
X2618700Y993700D1*
X3341700Y2416700D2*
Y2679704D1*
X3374700Y2712704D1*
X4034200D1*
X4097200Y2649704D1*
X4461700D1*
X4761700Y1132231D2*
Y2649704D1*
X3369228Y1132231D2*
Y1618172D1*
X3293700Y1693700D1*
X4065700Y2393550D2*
X4610700D1*
X4643700Y2426550D1*
Y2697704D1*
X3231176Y2115716D2*
D3*
Y1843700D2*
Y1656224D1*
X3293700Y1593700D1*
X3231176Y2115716D2*
X3244660Y2129200D1*
X3762700D1*
X3284176Y2231700D2*
X3228231D1*
X3195231Y2264700D1*
Y2712704D1*
X3228231Y2745704D1*
X4708696D1*
X4743700Y2710700D1*
X3284176Y2082716D2*
X3270688Y2069228D1*
X3175228D1*
X3142228Y2036228D1*
Y1526700D1*
X3175228Y1493700D1*
X3293700D1*
X4022700Y2659704D2*
Y2350550D1*
X4105361D1*
X4112039Y2357228D1*
X4685700D1*
X4718700Y2324228D1*
Y993700D1*
X4546700Y2448625D2*
Y2659704D1*
X4513700Y2692704D1*
X4143700D1*
X4546700Y2271228D2*
X4671228D1*
Y1069228D1*
X4618700Y1016700D1*
Y993700D1*
X4370704Y2144161D2*
X4485700D1*
X4518700Y2111161D1*
Y993700D1*
X4418700Y2049932D2*
Y993700D1*
X3571228Y1089231D2*
Y1836700D1*
X3889228Y2185704D2*
Y1211228D1*
X3856228Y1178228D1*
X3751700D1*
X3718700Y1145228D1*
Y993700D1*
X3846228Y1245357D2*
Y2246464D1*
X3936700Y2336936D1*
Y2669704D1*
X3843700D1*
X3618700Y1241228D2*
Y993700D1*
X3979700Y2327716D2*
Y2616704D1*
X3584700Y1922700D2*
X3518700Y1856700D1*
Y993700D1*
X3693700Y1581199D2*
X3614239D1*
Y1479199D1*
X3637239Y1456199D1*
X3614239Y1433199D1*
Y1331199D1*
X3671228Y1274210D1*
Y1046231D1*
X3266176Y933204D2*
Y814204D1*
X3299179Y781201D1*
X3443700D1*
X1133464Y743700D2*
Y650133D1*
X1156464Y627133D1*
X1383464D1*
Y743700D1*
X3774483Y1046231D2*
X3866169D1*
X3918700Y993700D1*
X3018700D2*
Y814202D1*
X2985699Y781201D1*
X2893700D1*
X1168700Y1168700D2*
Y1037090D1*
X1133464Y1001854D1*
Y918700D1*
X2136145Y1841810D2*
Y2211145D1*
X2193700Y2268700D1*
X4461700Y1423251D2*
Y2068161D1*
X4428700Y2101161D1*
X4146200D1*
Y2073200D1*
X4116700Y2043700D1*
X4093700D1*
X4593700Y781201D2*
X4659727D1*
X4682728Y804202D1*
X4745700D1*
X4818700Y877202D1*
Y993700D1*
X3749483Y2046228D2*
X3805700Y2102445D1*
Y2294716D1*
X3772700Y2327716D1*
X3643700D1*
Y2243700D1*
X3129231Y2541700D2*
D3*
X1383464Y627133D2*
Y568700D1*
X3637239Y1456199D2*
X3693700D1*
X5047228Y1848700D2*
X5218700D1*
X3614239Y1331199D2*
X3693700D1*
X1156464Y627133D2*
X1133464D1*
Y568700D1*
X4818700Y993700D2*
X4886700Y1061700D1*
Y1466251D1*
X4745700Y804202D2*
Y781201D1*
X4793700D1*
X4393700D2*
X4593700D1*
X3843700D2*
X4280704D1*
X4393700D1*
X3643700D2*
X3762700D1*
X3843700D1*
X3443700D2*
X3562700D1*
X3643700D1*
X2193700Y1118700D2*
X2246228Y1171228D1*
Y1486967D1*
X2193700Y1539495D1*
Y1693700D1*
X2027153Y977133D2*
X2160700D1*
X2193700Y1010133D1*
Y1118700D1*
X1383464Y918700D2*
Y977133D1*
X2027153D1*
X1383464Y743700D2*
Y918700D1*
X3918700Y993700D2*
X3971231Y1046231D1*
X3985231D1*
X4332700Y1393700D1*
X2493700Y781201D2*
X2302229D1*
X2269228Y748200D1*
Y543700D1*
X2193700D1*
X2693700Y781201D2*
X2493700D1*
X2893700D2*
X2693700D1*
X1133464Y918700D2*
Y860267D1*
X1328968D1*
Y918700D1*
X1383464D1*
X4093700Y2043700D2*
X4041196Y1991196D1*
Y1796204D1*
X4093700Y1743700D1*
Y2043700D2*
D3*
X4793700Y781201D2*
X4961691D1*
X4980759Y762133D1*
X5218700D1*
X3643700Y2243700D2*
X3427700D1*
X3394700Y2276700D1*
Y2541700D1*
X3129231D2*
X3134228Y2536703D1*
Y2393700D1*
X3043700D1*
X3843700Y743700D2*
D13*
X3731109D1*
X3618700Y631291D1*
Y493700D1*
X3643700Y743700D2*
X3541700D1*
X3518700Y720700D1*
Y493700D1*
X3443700Y743700D2*
X3400700D1*
Y605397D1*
X3418700Y587397D1*
Y493700D1*
X4393700Y743700D2*
X4341700D1*
X4318700Y720700D1*
Y493700D1*
X4593700Y743700D2*
X4489228D1*
X4466228Y720700D1*
Y541228D1*
X4418700Y493700D1*
X4793700Y743700D2*
X4659700D1*
X4636700Y720700D1*
Y611700D1*
X4518700Y493700D1*
X3693700Y1368700D2*
X3736700D1*
Y1393700D1*
X3793700D1*
X3693700Y1493700D2*
X3793700D1*
X3693700Y1618700D2*
X3736700D1*
Y1593700D1*
X3793700D1*
X2493700Y743700D2*
X2536700D1*
Y604791D1*
X2518700Y586791D1*
Y493700D1*
X2693700Y743700D2*
X2641700D1*
X2618700Y720700D1*
Y493700D1*
X2893700Y743700D2*
X2789228D1*
X2766228Y720700D1*
Y541228D1*
X2718700Y493700D1*
X1243700Y918700D2*
Y992133D1*
X1266700Y1015133D1*
X2095113D1*
X2118113Y1038133D1*
Y1166228D1*
X1243700Y918700D2*
D3*
X1221149Y1570228D2*
Y918700D1*
X1243700D1*
X991149Y1319204D2*
X1083968D1*
Y1216251D1*
Y820133D1*
X1106968Y797133D1*
X1243700D1*
Y743700D1*
X953153Y1243700D2*
Y538267D1*
X976153Y515267D1*
X1243700D1*
Y568700D1*
X2525397Y1593700D2*
X2472925Y1541228D1*
X2297228D1*
X2274228Y1518228D1*
Y941700D1*
X2251228Y918700D1*
X1589700D1*
X1493700D1*
X2103153Y791228D2*
X2044114Y850267D1*
X1551700D1*
X2466228Y876440D2*
Y1073129D1*
X2489228Y1096129D1*
X2668228D1*
X2691228Y1119129D1*
Y1641228D1*
X2743700Y1693700D1*
X1551700Y850267D2*
X1493700D1*
Y743700D1*
X1921161Y630228D2*
X1493700D1*
Y568700D1*
X2293708Y1631180D2*
X2345228D1*
X2368228Y1654180D1*
Y1791228D1*
X1921161Y1252306D2*
Y1631180D1*
X1493700Y568700D2*
X1432960D1*
Y833771D1*
X4893700Y2368704D2*
Y1623700D1*
X5218700Y1298700D1*
X4093700Y2460700D2*
X4493700D1*
X3129231Y2720074D2*
X1166700D1*
X1143700Y2697074D1*
Y2543700D1*
X1193700Y2618231D2*
Y2543700D1*
X2891228Y2243700D2*
Y2061175D1*
X2967231Y1985172D1*
Y1616700D1*
X2990231Y1593700D1*
X3043700D1*
X1243700Y2471330D2*
Y2543700D1*
X2696172Y2467464D2*
Y2641228D1*
X2673172Y2664228D1*
X2022145D1*
X1999145Y2641228D1*
Y2475964D1*
X1765409Y2064228D2*
Y2389228D1*
X1742409Y2412228D1*
X1316700D1*
X1293700Y2435228D1*
Y2543700D1*
X1343700D2*
Y2458228D1*
X1366700Y2435228D1*
X1957617D1*
X1980617Y2412228D1*
Y2102228D1*
X2368228D2*
Y1864228D1*
X2391228Y1841228D1*
X2546176D1*
X2646176Y1741228D1*
X2768228D1*
X2791228Y1718228D1*
Y1646172D1*
X2843700Y1593700D1*
X1393700Y2543700D2*
Y2486330D1*
X1589078D1*
X1612078Y2509330D1*
Y2554700D1*
X2098145D2*
Y1866456D1*
X2075143Y1843454D1*
X1788409D1*
X1765409Y1820454D1*
Y1333082D1*
X2591228Y1241228D2*
X2530672Y1180672D1*
X2396228D1*
X2373228Y1203672D1*
Y1351700D1*
X2353228Y1371700D1*
X2335228D1*
X2791228Y1241228D2*
Y1441228D1*
X2843700Y1493700D1*
X2335228Y1371700D2*
D3*
X4093700Y1343700D2*
X3966700D1*
X3943700Y1366700D1*
Y2243700D1*
X2491228Y1234078D2*
Y1346172D1*
X2443700Y1393700D1*
X4332700Y1693700D2*
X4229036Y1590036D1*
Y1566700D1*
X4206036Y1543700D1*
X4161200D1*
X4093700D1*
Y1443700D2*
X4357251D1*
X4380251Y1466700D1*
Y1746149D1*
X4332700Y1793700D1*
X3091228Y2441810D2*
Y2674074D1*
X3068228Y2697074D1*
X1466700D1*
X1443700Y2674074D1*
Y2543700D1*
X2345228Y2181700D2*
Y2370700D1*
X2368228Y2393700D1*
X2443700D1*
X1168700Y2181700D2*
Y1268700D1*
X2487917Y1641228D2*
X2443700D1*
Y1593700D1*
X3384700Y2626704D2*
X3793700D1*
X2269228Y2516700D2*
X2284228Y2501700D1*
Y1884228D1*
X2193700Y1793700D1*
X1114200Y2758074D2*
X1109952Y2753826D1*
Y2412228D1*
X1132952Y2389228D1*
X1526700D1*
X1549700Y2366228D1*
Y1239251D1*
X1526700Y1216251D1*
X1439251D1*
X1416251Y1193251D1*
Y1144149D1*
X1439251Y1121149D1*
X2016381D1*
X2113932Y1218700D1*
X2193700D1*
X1364200Y2793700D2*
X1361826Y2796074D1*
X771818D1*
X515708Y2539964D1*
Y1127381D1*
X655638Y987451D1*
Y515270D1*
X678641Y492267D1*
X1937054D1*
X2088487Y643700D1*
X2193700D1*
D32*
X619708Y2343700D3*
X1094952Y2243700D3*
X1243700Y2143700D3*
X1218739Y2043700D3*
X1343700Y1991228D3*
X3240700Y1104172D3*
X3268700Y2664704D3*
X3076235Y2806704D3*
X5041700Y2041700D3*
X4618700D3*
X1415704Y1386082D3*
Y1618228D3*
X4218700Y1181204D3*
X1393700Y1843700D3*
X1803409Y1053133D3*
X3447228Y1446700D3*
X2335228Y1318700D3*
X3893700Y2626704D3*
X1984113Y1703228D3*
X1511700D3*
X5095228Y2118172D3*
X2335228Y936172D3*
X1043700Y2679082D3*
X3468700Y2493700D3*
X1493700Y2659074D3*
X4993700Y2460700D3*
X4593700Y2314228D3*
X4231700D3*
X3686700Y2284716D3*
X3724700Y2172200D3*
X3981700Y1393700D3*
X2506228Y1493700D3*
X2771653Y2141228D3*
X2256228Y1684180D3*
X2506228Y1993700D3*
X854200Y2096700D3*
X1727409Y1896176D3*
X892200D3*
X1627708Y2219700D3*
Y1231893D3*
Y691228D3*
X3087917Y1741228D3*
X2734172Y2093700D3*
X2929228Y1541228D3*
X3622700Y1641228D3*
X3066228Y771208D3*
X2666231Y826704D3*
X2012157Y1564228D3*
Y1248617D3*
X4843700Y2680204D3*
Y1132235D3*
X5043700Y2659704D3*
X4851700Y708204D3*
X2761700Y824204D3*
X4461700Y2649704D3*
X3341700Y2416700D3*
X4761700Y2649704D3*
Y1132231D3*
X3369228D3*
X4643700Y2697704D3*
X4065700Y2393550D3*
X3762700Y2129200D3*
X3231176Y2115716D3*
Y1843700D3*
X4743700Y2710700D3*
X3284176Y2231700D3*
Y2082716D3*
X4022700Y2659704D3*
X4143700Y2692704D3*
X4546700Y2448625D3*
Y2271228D3*
X4370704Y2144161D3*
X4418700Y2049932D3*
X3571228Y1836700D3*
Y1089231D3*
X3889228Y2185704D3*
X3843700Y2669704D3*
X3846228Y1245357D3*
X3618700Y1241228D3*
X3979700Y2616704D3*
Y2327716D3*
X3584700Y1922700D3*
X2136145Y1841810D3*
X3394700Y2541700D3*
X3129231D3*
X3749483Y2046228D3*
X3266176Y933204D3*
X5047228Y1848700D3*
X3671228Y1046231D3*
X3774483D3*
X5218700Y762133D3*
X4886700Y1466251D3*
X2027153Y977133D3*
X4461700Y1423251D3*
X2118113Y1166228D3*
X1221149Y1570228D3*
X1083968Y1216251D3*
X991149Y1319204D3*
X953153Y1243700D3*
X1589700Y918700D3*
X2525397Y1593700D3*
X1551700Y850267D3*
X2466228Y876440D3*
X2103153Y791228D3*
X1432960Y833771D3*
X2368228Y1791228D3*
X2293708Y1631180D3*
X1921161D3*
Y1252306D3*
Y630228D3*
X4893700Y2368704D3*
X4493700Y2460700D3*
X4093700D3*
X3129231Y2720074D3*
X1193700Y2618231D3*
X2891228Y2243700D3*
X1243700Y2471330D3*
X1999145Y2475964D3*
X2696172Y2467464D3*
X1765409Y2064228D3*
X1980617Y2102228D3*
X2368228D3*
X1612078Y2554700D3*
X2098145D3*
X1765409Y1333082D3*
X2335228Y1371700D3*
X2591228Y1241228D3*
X2791228D3*
X2491228Y1234078D3*
X4161200Y1543700D3*
X3091228Y2441810D3*
X2345228Y2181700D3*
X1168700D3*
X2487917Y1641228D3*
X3793700Y2626704D3*
X3384700D3*
X2269228Y2516700D3*
X1114200Y2758074D3*
X1364200Y2793700D3*
X575815Y2830331D2*
D16*
X1333066D1*
X1395338D2*
X3033690D1*
X4940265D2*
X5211609D1*
X583027Y2805462D2*
X734159D1*
X1411701D2*
X3027267D1*
X4965132D2*
X5204360D1*
X582848Y2780594D2*
X709292D1*
X1411306D2*
X3035269D1*
X4986125D2*
X5204540D1*
X575169Y2755725D2*
X684424D1*
X778524D2*
X1065263D1*
X1163131D2*
X1334861D1*
X1393543D2*
X3096882D1*
X4989713D2*
X5212219D1*
X557262Y2730856D2*
X659556D1*
X753657D2*
X1073983D1*
X4788116D2*
X4847707D1*
X4989713D2*
X5230125D1*
X434718Y2705987D2*
X634688D1*
X728789D2*
X932312D1*
X4554545D2*
X4595441D1*
X4792458D2*
X4802493D1*
X4989713D2*
X5036709D1*
X5050690D2*
X5352705D1*
X434718Y2681119D2*
X609821D1*
X703921D2*
X907444D1*
X1177700D2*
X1410504D1*
X4578767D2*
X4597774D1*
X4689649D2*
X4705319D1*
X4989713D2*
X4999928D1*
X5087462D2*
X5352705D1*
X434718Y2656250D2*
X584953D1*
X679053D2*
X882576D1*
X1222986D2*
X1409715D1*
X1542606D2*
X1968970D1*
X2726354D2*
X3057230D1*
X3125242D2*
X3133233D1*
X4585693D2*
X4604699D1*
X4682688D2*
X4713177D1*
X5101277D2*
X5352705D1*
X434718Y2631381D2*
X560085D1*
X654186D2*
X857709D1*
X980086D2*
X1075956D1*
X1240784D2*
X1409715D1*
X1537690D2*
X1965130D1*
X2545354D2*
X2658987D1*
X2730158D2*
X2999743D1*
X3125242D2*
X3133233D1*
X4585693D2*
X4604699D1*
X4682688D2*
X4716479D1*
X4989713D2*
X5004306D1*
X5126145D2*
X5352705D1*
X434718Y2606512D2*
X535217D1*
X629318D2*
X832805D1*
X955218D2*
X1075956D1*
X1538444D2*
X1965130D1*
X2072472D2*
X2149862D1*
X2548225D2*
X2662181D1*
X2730158D2*
X2986646D1*
X3125242D2*
X3133233D1*
X4061712D2*
X4441965D1*
X4481413D2*
X4507705D1*
X4585693D2*
X4604699D1*
X4682688D2*
X4722687D1*
X5005071D2*
X5042774D1*
X5151012D2*
X5352705D1*
X434718Y2581644D2*
X510350D1*
X604450D2*
X807937D1*
X930350D2*
X1075956D1*
X1538444D2*
X1571696D1*
X1652484D2*
X1965130D1*
X2548225D2*
X2662181D1*
X2730158D2*
X2986502D1*
X3421000D2*
X3779722D1*
X4061712D2*
X4507705D1*
X4585693D2*
X4604699D1*
X4682688D2*
X4722687D1*
X5029939D2*
X5067641D1*
X5175880D2*
X5352705D1*
X434718Y2556775D2*
X486558D1*
X905483D2*
X1075956D1*
X1538444D2*
X1563120D1*
X1661024D2*
X1965130D1*
X2548225D2*
X2662181D1*
X2730158D2*
X2999062D1*
X3441203D2*
X3762569D1*
X3884947D2*
X3897709D1*
X4061712D2*
X4507705D1*
X4585693D2*
X4604699D1*
X4682688D2*
X4722687D1*
X4915684D2*
X4932430D1*
X5054807D2*
X5092509D1*
X5200748D2*
X5352705D1*
X434718Y2531906D2*
X481714D1*
X880579D2*
X1075956D1*
X1538444D2*
X1569041D1*
X1655103D2*
X1965130D1*
X2141190D2*
X2148965D1*
X2315659D2*
X2400226D1*
X2548225D2*
X2662181D1*
X2730158D2*
X3000210D1*
X3860079D2*
X3897709D1*
X4061712D2*
X4507705D1*
X4585693D2*
X4604699D1*
X4682688D2*
X4722687D1*
X4915684D2*
X4957297D1*
X5078598D2*
X5117377D1*
X5225616D2*
X5352705D1*
X434718Y2507037D2*
X481714D1*
X863498D2*
X1075956D1*
X1645989D2*
X1962044D1*
X2132148D2*
X2149683D1*
X2548225D2*
X2662181D1*
X2730158D2*
X2986789D1*
X3835211D2*
X3897709D1*
X4061712D2*
X4087321D1*
X4100087D2*
X4487322D1*
X4500082D2*
X4507684D1*
X4585693D2*
X4604699D1*
X4682688D2*
X4722687D1*
X4915684D2*
X4982165D1*
X5085703D2*
X5142245D1*
X5250483D2*
X5352705D1*
X434718Y2482169D2*
X481714D1*
X851190D2*
X1075956D1*
X1631958D2*
X1950562D1*
X2548225D2*
X2649550D1*
X2742789D2*
X2986359D1*
X3810343D2*
X3897709D1*
X4585693D2*
X4604699D1*
X4682688D2*
X4722687D1*
X5085703D2*
X5167112D1*
X5275351D2*
X5352705D1*
X434718Y2457300D2*
X481714D1*
X592716D2*
X1075956D1*
X1143969D2*
X1196850D1*
X2341245D2*
X2398611D1*
X2548225D2*
X2648294D1*
X2744045D2*
X2998595D1*
X3783143D2*
X3897709D1*
X4594879D2*
X4604699D1*
X4682688D2*
X4722687D1*
X5085703D2*
X5191980D1*
X5300219D2*
X5352705D1*
X434718Y2432431D2*
X481714D1*
X592716D2*
X1075956D1*
X1143969D2*
X1215725D1*
X2132148D2*
X2148499D1*
X2341245D2*
X2400729D1*
X2548225D2*
X2663078D1*
X2729260D2*
X3000712D1*
X3512684D2*
X3897709D1*
X4682688D2*
X4722687D1*
X5085703D2*
X5216848D1*
X5310231D2*
X5352705D1*
X434718Y2407562D2*
X481714D1*
X592716D2*
X1076315D1*
X2132148D2*
X2150831D1*
X2548225D2*
X2986897D1*
X3513330D2*
X3897709D1*
X4677377D2*
X4722687D1*
X4921748D2*
X4997703D1*
X5085703D2*
X5232242D1*
X5310231D2*
X5352705D1*
X434718Y2382693D2*
X481714D1*
X1799394D2*
X1946614D1*
X2548225D2*
X2986251D1*
X3537013D2*
X3897709D1*
X4714338D2*
X4722687D1*
X4940552D2*
X4997703D1*
X5085703D2*
X5232242D1*
X5310231D2*
X5352705D1*
X434718Y2357825D2*
X481714D1*
X1583694D2*
X1731417D1*
X1799394D2*
X1946614D1*
X2547579D2*
X2852188D1*
X3346397D2*
X3355714D1*
X3546379D2*
X3620576D1*
X3795846D2*
X3897709D1*
X4941413D2*
X4997703D1*
X5085703D2*
X5232242D1*
X5310231D2*
X5352705D1*
X434718Y2332956D2*
X481714D1*
X667463D2*
X749518D1*
X862888D2*
X1098958D1*
X1583694D2*
X1731417D1*
X1799394D2*
X1946614D1*
X2132148D2*
X2148068D1*
X2529996D2*
X2827320D1*
X3086165D2*
X3133233D1*
X3346935D2*
X3355700D1*
X3546953D2*
X3605074D1*
X3821575D2*
X3878619D1*
X4927705D2*
X4997703D1*
X5085703D2*
X5232242D1*
X5310231D2*
X5352705D1*
X434718Y2308087D2*
X481714D1*
X652104D2*
X748692D1*
X863713D2*
X1098958D1*
X1583694D2*
X1731417D1*
X1799394D2*
X1946614D1*
X2132148D2*
X2151369D1*
X3338897D2*
X3355714D1*
X3538915D2*
X3604715D1*
X3842173D2*
X3853715D1*
X4024357D2*
X4183096D1*
X4642282D2*
X4679697D1*
X4927705D2*
X4997703D1*
X5085703D2*
X5232242D1*
X5310231D2*
X5352705D1*
X434718Y2283218D2*
X481714D1*
X592716D2*
X760355D1*
X852051D2*
X1067954D1*
X1583694D2*
X1731417D1*
X1799394D2*
X1946614D1*
X3318048D2*
X3355714D1*
X3518031D2*
X3604715D1*
X3735668D2*
X3763072D1*
X3995685D2*
X4194543D1*
X4927705D2*
X4997703D1*
X5085703D2*
X5232242D1*
X5310231D2*
X5352705D1*
X434718Y2258350D2*
X481714D1*
X592716D2*
X1048325D1*
X1583694D2*
X1599363D1*
X1656072D2*
X1731417D1*
X1799394D2*
X1946614D1*
X3089681D2*
X3156773D1*
X3324794D2*
X3360631D1*
X3727487D2*
X3766696D1*
X3995577D2*
X4499523D1*
X4927705D2*
X4997703D1*
X5085703D2*
X5176622D1*
X5310231D2*
X5352705D1*
X434718Y2233481D2*
X481714D1*
X592716D2*
X1047105D1*
X1427705D2*
X1515717D1*
X1674624D2*
X1731417D1*
X1799394D2*
X1946614D1*
X3085662D2*
X3172346D1*
X3333155D2*
X3383812D1*
X3720705D2*
X3766696D1*
X3996690D2*
X4517034D1*
X4927705D2*
X4997703D1*
X5085703D2*
X5162160D1*
X5310231D2*
X5352705D1*
X434718Y2208612D2*
X481714D1*
X602476D2*
X1061926D1*
X1427705D2*
X1515717D1*
X1675378D2*
X1731417D1*
X1799394D2*
X1946614D1*
X2187732D2*
X2207241D1*
X2500212D2*
X2806256D1*
X3756122D2*
X3766696D1*
X3983915D2*
X4561100D1*
X4927705D2*
X4997703D1*
X5085703D2*
X5161084D1*
X5310231D2*
X5352705D1*
X434718Y2183743D2*
X481714D1*
X627344D2*
X1119735D1*
X1427705D2*
X1515717D1*
X1583694D2*
X1593709D1*
X1661706D2*
X1731417D1*
X1799394D2*
X1946614D1*
X2175137D2*
X2207241D1*
X2501324D2*
X2750312D1*
X2792991D2*
X2809701D1*
X3977707D2*
X4343786D1*
X4397624D2*
X4572404D1*
X4927705D2*
X4997703D1*
X5085703D2*
X5172423D1*
X5310231D2*
X5352705D1*
X434718Y2158875D2*
X481714D1*
X652212D2*
X1125692D1*
X1427705D2*
X1515717D1*
X1583694D2*
X1593709D1*
X1661706D2*
X1731417D1*
X1799394D2*
X1946614D1*
X2175137D2*
X2207241D1*
X3977707D2*
X4324085D1*
X4525120D2*
X4632223D1*
X4927705D2*
X4997703D1*
X5310231D2*
X5352705D1*
X434718Y2134006D2*
X481714D1*
X677080D2*
X823942D1*
X884454D2*
X1134699D1*
X1427705D2*
X1515717D1*
X1583694D2*
X1593709D1*
X1661706D2*
X1731417D1*
X1799394D2*
X1944174D1*
X2175137D2*
X2207241D1*
X3977707D2*
X4127763D1*
X4549665D2*
X4632223D1*
X4927705D2*
X4997703D1*
X5310231D2*
X5352705D1*
X434718Y2109137D2*
X481714D1*
X549691D2*
X579570D1*
X701947D2*
X806897D1*
X901499D2*
X1134699D1*
X1427705D2*
X1515717D1*
X1583694D2*
X1593709D1*
X1661706D2*
X1731417D1*
X1799394D2*
X1932117D1*
X2175137D2*
X2207241D1*
X3106188D2*
X3182645D1*
X3977707D2*
X4108098D1*
X4557703D2*
X4632223D1*
X4927705D2*
X4997703D1*
X5310231D2*
X5352705D1*
X434718Y2084268D2*
X481714D1*
X549691D2*
X604438D1*
X726815D2*
X806897D1*
X901499D2*
X1134699D1*
X1427705D2*
X1515717D1*
X1583694D2*
X1593709D1*
X1661706D2*
X1720939D1*
X1809872D2*
X1935239D1*
X2175137D2*
X2207241D1*
X2782190D2*
X2809701D1*
X3101415D2*
X3136139D1*
X3333155D2*
X3720226D1*
X3977707D2*
X4052585D1*
X4557703D2*
X4597487D1*
X4927705D2*
X4997703D1*
X5202147D2*
X5232242D1*
X5310231D2*
X5352705D1*
X434718Y2059400D2*
X481714D1*
X549691D2*
X629306D1*
X751683D2*
X820210D1*
X888186D2*
X1134699D1*
X1281477D2*
X1309706D1*
X1427705D2*
X1515717D1*
X1583694D2*
X1593709D1*
X1661706D2*
X1716668D1*
X1814142D2*
X1959999D1*
X2175137D2*
X2198198D1*
X2490487D2*
X2700290D1*
X2768051D2*
X2809701D1*
X3090507D2*
X3111523D1*
X3582838D2*
X3702392D1*
X3977707D2*
X4037442D1*
X4182498D2*
X4370663D1*
X4557703D2*
X4573193D1*
X4927705D2*
X4996196D1*
X5087210D2*
X5232242D1*
X5310231D2*
X5352705D1*
X434718Y2034531D2*
X481714D1*
X549691D2*
X654174D1*
X776551D2*
X820210D1*
X888186D2*
X1134699D1*
X1266836D2*
X1309706D1*
X1427705D2*
X1515717D1*
X1583694D2*
X1593709D1*
X1661706D2*
X1727111D1*
X1803700D2*
X2003132D1*
X2530964D2*
X2702838D1*
X2784558D2*
X2802847D1*
X3084550D2*
X3103233D1*
X3607705D2*
X3701961D1*
X3977707D2*
X4030409D1*
X4161650D2*
X4191278D1*
X4557703D2*
X4570251D1*
X4927705D2*
X4993253D1*
X5090153D2*
X5232242D1*
X5310231D2*
X5352705D1*
X434718Y2009662D2*
X481714D1*
X549691D2*
X679041D1*
X801418D2*
X820210D1*
X888186D2*
X1134699D1*
X1252913D2*
X1298510D1*
X1427705D2*
X1515717D1*
X1583694D2*
X1593709D1*
X1661706D2*
X2003132D1*
X3208709D2*
X3235179D1*
X3352210D2*
X3538473D1*
X3977707D2*
X4007228D1*
X4140657D2*
X4155968D1*
X4557703D2*
X4574700D1*
X4927705D2*
X5005490D1*
X5077916D2*
X5232242D1*
X5310231D2*
X5352705D1*
X434718Y1984793D2*
X481714D1*
X549691D2*
X703909D1*
X888186D2*
X1134699D1*
X1202711D2*
X1295137D1*
X1427705D2*
X1515717D1*
X1583694D2*
X1593709D1*
X1661706D2*
X2003132D1*
X2901505D2*
X2920547D1*
X3204224D2*
X3235179D1*
X3363801D2*
X3563340D1*
X3977707D2*
X4002204D1*
X4557703D2*
X4574700D1*
X4927705D2*
X5232242D1*
X5310231D2*
X5352705D1*
X434718Y1959924D2*
X481714D1*
X549691D2*
X728777D1*
X888186D2*
X1134699D1*
X1202711D2*
X1306799D1*
X1427705D2*
X1515717D1*
X1583694D2*
X1593709D1*
X1661706D2*
X2003132D1*
X2240913D2*
X2250230D1*
X3090901D2*
X3103233D1*
X3204224D2*
X3235179D1*
X3388668D2*
X3554333D1*
X3615062D2*
X3746493D1*
X3977707D2*
X4002204D1*
X4557703D2*
X4574700D1*
X4927705D2*
X5232242D1*
X5310231D2*
X5352705D1*
X434718Y1935056D2*
X481714D1*
X549691D2*
X736348D1*
X920195D2*
X1134699D1*
X1202711D2*
X1359692D1*
X1427705D2*
X1515717D1*
X1583694D2*
X1593709D1*
X1661706D2*
X1699408D1*
X1755400D2*
X2003132D1*
X2233987D2*
X2250230D1*
X3084012D2*
X3103233D1*
X3204224D2*
X3253409D1*
X3413536D2*
X3537360D1*
X3632035D2*
X3753383D1*
X3977707D2*
X4002204D1*
X4203742D2*
X4292364D1*
X4557703D2*
X4574700D1*
X4927705D2*
X5232242D1*
X5310231D2*
X5352705D1*
X434718Y1910187D2*
X481714D1*
X549691D2*
X712342D1*
X939034D2*
X1134699D1*
X1202711D2*
X1359692D1*
X1427705D2*
X1515717D1*
X1583694D2*
X1593709D1*
X1661706D2*
X1680569D1*
X3204224D2*
X3237655D1*
X3438404D2*
X3518055D1*
X3631999D2*
X3737666D1*
X3977707D2*
X4002204D1*
X4178192D2*
X4276646D1*
X4557703D2*
X4574700D1*
X4927705D2*
X5232242D1*
X5310231D2*
X5352705D1*
X434718Y1885318D2*
X481714D1*
X549691D2*
X704663D1*
X809026D2*
X820210D1*
X939931D2*
X1134699D1*
X1202711D2*
X1359692D1*
X1427705D2*
X1515717D1*
X1583694D2*
X1593709D1*
X1661706D2*
X1679708D1*
X2050332D2*
X2064135D1*
X3463271D2*
X3493187D1*
X3614846D2*
X3735800D1*
X3977707D2*
X4002204D1*
X4133660D2*
X4274780D1*
X4557703D2*
X4573803D1*
X4927705D2*
X5016076D1*
X5078383D2*
X5173787D1*
X5310231D2*
X5352705D1*
X434718Y1860449D2*
X481714D1*
X549691D2*
X704663D1*
X792663D2*
X820210D1*
X926188D2*
X1134699D1*
X1202711D2*
X1347815D1*
X1439583D2*
X1515717D1*
X1583694D2*
X1593709D1*
X1661706D2*
X1695138D1*
X2573990D2*
X2619192D1*
X3091296D2*
X3103233D1*
X3341301D2*
X3365762D1*
X3613698D2*
X3713408D1*
X3977707D2*
X4002204D1*
X4149628D2*
X4285079D1*
X4927705D2*
X4999748D1*
X5310231D2*
X5352705D1*
X434718Y1835581D2*
X481714D1*
X549691D2*
X704663D1*
X792663D2*
X820210D1*
X926188D2*
X1134699D1*
X1202711D2*
X1345411D1*
X1441987D2*
X1515717D1*
X1583694D2*
X1593709D1*
X1661706D2*
X1735292D1*
X2598857D2*
X2644059D1*
X3083401D2*
X3103233D1*
X3333407D2*
X3390630D1*
X3620229D2*
X3688540D1*
X3977707D2*
X4002204D1*
X4151602D2*
X4292938D1*
X4927705D2*
X5000107D1*
X5310231D2*
X5352705D1*
X434718Y1810712D2*
X481714D1*
X549691D2*
X704663D1*
X792663D2*
X820210D1*
X926188D2*
X1134699D1*
X1202711D2*
X1358437D1*
X1428961D2*
X1515717D1*
X1583694D2*
X1593709D1*
X1661706D2*
X1731417D1*
X1802731D2*
X2099086D1*
X2257742D2*
X2273232D1*
X2623725D2*
X2675135D1*
X3349590D2*
X3403225D1*
X3612299D2*
X3663673D1*
X3977707D2*
X4002204D1*
X4171661D2*
X4276790D1*
X4927705D2*
X5017906D1*
X5076553D2*
X5175007D1*
X5310231D2*
X5352705D1*
X434718Y1785843D2*
X481714D1*
X549691D2*
X704663D1*
X926188D2*
X1134699D1*
X1202711D2*
X1515717D1*
X1583694D2*
X1593709D1*
X1661706D2*
X1731417D1*
X1799394D2*
X2135724D1*
X2251678D2*
X2273232D1*
X2501683D2*
X2554528D1*
X2648593D2*
X2685721D1*
X3351672D2*
X3403225D1*
X3610217D2*
X3638805D1*
X3977707D2*
X4003711D1*
X4175214D2*
X4274708D1*
X4617020D2*
X4632223D1*
X4927705D2*
X5232242D1*
X5310231D2*
X5352705D1*
X434718Y1760974D2*
X481714D1*
X549691D2*
X704663D1*
X926188D2*
X1134699D1*
X1202711D2*
X1515717D1*
X1583694D2*
X1593709D1*
X1661706D2*
X1731417D1*
X1799394D2*
X1855863D1*
X2523465D2*
X2579396D1*
X3341660D2*
X3403225D1*
X3708038D2*
X3745740D1*
X3977707D2*
X4022299D1*
X4175214D2*
X4284684D1*
X4600693D2*
X4632223D1*
X4927705D2*
X5232242D1*
X5310231D2*
X5352705D1*
X434718Y1736106D2*
X481714D1*
X549691D2*
X704663D1*
X926188D2*
X1134699D1*
X1202711D2*
X1476316D1*
X1583694D2*
X1593709D1*
X1661706D2*
X1731417D1*
X1799394D2*
X1831713D1*
X2548332D2*
X2604264D1*
X3332832D2*
X3403225D1*
X3683170D2*
X3754567D1*
X3977707D2*
X4035720D1*
X4175214D2*
X4293548D1*
X4600693D2*
X4632223D1*
X4927705D2*
X5232242D1*
X5310231D2*
X5352705D1*
X434718Y1711237D2*
X481714D1*
X549691D2*
X704663D1*
X926188D2*
X1134699D1*
X1202711D2*
X1463398D1*
X1583694D2*
X1593709D1*
X1661706D2*
X1731417D1*
X1799394D2*
X1826151D1*
X2573200D2*
X2634048D1*
X3349411D2*
X3403225D1*
X3658302D2*
X3737989D1*
X4175070D2*
X4276969D1*
X4927705D2*
X5179744D1*
X5310231D2*
X5352705D1*
X434718Y1686368D2*
X481714D1*
X549691D2*
X704663D1*
X792663D2*
X820210D1*
X926188D2*
X1134699D1*
X1202711D2*
X1465874D1*
X1583694D2*
X1593709D1*
X1661706D2*
X1731417D1*
X1799394D2*
X1826151D1*
X1894164D2*
X1938289D1*
X2062173D2*
X2135652D1*
X2594874D2*
X2685649D1*
X3355152D2*
X3403225D1*
X3656687D2*
X3735656D1*
X4160429D2*
X4274637D1*
X4927705D2*
X5163022D1*
X5310231D2*
X5352705D1*
X434718Y1661499D2*
X481714D1*
X549691D2*
X704663D1*
X792663D2*
X820210D1*
X926188D2*
X1134699D1*
X1202711D2*
X1396187D1*
X1435241D2*
X1472692D1*
X1583694D2*
X1593709D1*
X1661706D2*
X1731417D1*
X1799394D2*
X1826151D1*
X2087041D2*
X2145341D1*
X2597386D2*
X2664621D1*
X3380020D2*
X3403225D1*
X3667058D2*
X3745345D1*
X4149305D2*
X4253465D1*
X4927705D2*
X5160653D1*
X5310231D2*
X5352705D1*
X434718Y1636630D2*
X481714D1*
X549691D2*
X704663D1*
X792663D2*
X820210D1*
X926188D2*
X1134699D1*
X1202711D2*
X1370494D1*
X1460898D2*
X1472692D1*
X1583694D2*
X1593709D1*
X1661706D2*
X1731417D1*
X1799394D2*
X1826151D1*
X1969843D2*
X1989532D1*
X2103081D2*
X2154707D1*
X2232695D2*
X2245027D1*
X2396901D2*
X2405214D1*
X2597386D2*
X2657229D1*
X4015709D2*
X4035648D1*
X4151745D2*
X4228597D1*
X4927813D2*
X5170270D1*
X5310231D2*
X5352705D1*
X434718Y1611762D2*
X481714D1*
X549691D2*
X704663D1*
X792663D2*
X820210D1*
X926188D2*
X1134699D1*
X1244552D2*
X1367156D1*
X1464235D2*
X1472690D1*
X1583694D2*
X1593709D1*
X1661706D2*
X1731417D1*
X1799394D2*
X1826151D1*
X1965896D2*
X2014399D1*
X2104158D2*
X2154707D1*
X2232695D2*
X2248974D1*
X2372859D2*
X2388169D1*
X2597386D2*
X2657229D1*
X3204224D2*
X3221508D1*
X4015709D2*
X4045193D1*
X4142200D2*
X4203730D1*
X4600693D2*
X4632223D1*
X4952681D2*
X5232242D1*
X5310231D2*
X5352705D1*
X434718Y1586893D2*
X481714D1*
X549691D2*
X704663D1*
X792663D2*
X820210D1*
X926188D2*
X1134699D1*
X1267052D2*
X1371714D1*
X1459714D2*
X1472692D1*
X1583694D2*
X1593709D1*
X1661706D2*
X1731417D1*
X1799394D2*
X1826151D1*
X1955167D2*
X1969042D1*
X2104158D2*
X2154707D1*
X2232695D2*
X2277036D1*
X2310384D2*
X2385585D1*
X2597386D2*
X2657229D1*
X3204224D2*
X3235574D1*
X4015709D2*
X4055564D1*
X4131830D2*
X4141470D1*
X4180919D2*
X4195046D1*
X4600693D2*
X4632223D1*
X4977548D2*
X5232242D1*
X5310231D2*
X5352705D1*
X434718Y1562024D2*
X481714D1*
X549691D2*
X704663D1*
X792663D2*
X820210D1*
X926188D2*
X1134699D1*
X1269420D2*
X1371714D1*
X1459714D2*
X1472692D1*
X1583694D2*
X1593709D1*
X1661706D2*
X1731417D1*
X1799394D2*
X1826151D1*
X1955167D2*
X1963207D1*
X2111550D2*
X2154707D1*
X2232695D2*
X2270971D1*
X2597386D2*
X2657229D1*
X2973309D2*
X2994971D1*
X4015709D2*
X4038268D1*
X4262699D2*
X4283967D1*
X4600693D2*
X4632223D1*
X4882706D2*
X4908316D1*
X5002416D2*
X5232242D1*
X5310231D2*
X5352705D1*
X434718Y1537155D2*
X481714D1*
X549691D2*
X704663D1*
X792663D2*
X820210D1*
X926188D2*
X1134699D1*
X1256322D2*
X1371714D1*
X1459714D2*
X1472692D1*
X1583694D2*
X1593709D1*
X1661706D2*
X1731417D1*
X1799394D2*
X1826151D1*
X1955167D2*
X1971841D1*
X2136418D2*
X2154778D1*
X2597386D2*
X2657229D1*
X2781580D2*
X2805825D1*
X2978046D2*
X3005844D1*
X3653242D2*
X3755823D1*
X4015709D2*
X4035576D1*
X4246551D2*
X4294804D1*
X4600693D2*
X4632223D1*
X4882706D2*
X4933183D1*
X5027284D2*
X5232242D1*
X5310231D2*
X5352705D1*
X434718Y1512287D2*
X481714D1*
X549691D2*
X704663D1*
X792663D2*
X820210D1*
X926188D2*
X1134699D1*
X1255138D2*
X1371714D1*
X1459714D2*
X1472692D1*
X1583694D2*
X1593709D1*
X1661706D2*
X1731417D1*
X1799394D2*
X1826151D1*
X1955167D2*
X1978156D1*
X2597386D2*
X2657229D1*
X2968141D2*
X2988332D1*
X4015709D2*
X4044834D1*
X4210883D2*
X4277328D1*
X4600693D2*
X4632223D1*
X4895768D2*
X4958051D1*
X5052151D2*
X5232242D1*
X5310231D2*
X5352705D1*
X434718Y1487418D2*
X481714D1*
X549691D2*
X704663D1*
X792663D2*
X820210D1*
X926188D2*
X1134699D1*
X1255138D2*
X1371714D1*
X1459714D2*
X1472692D1*
X1583694D2*
X1593709D1*
X1661706D2*
X1731417D1*
X1799394D2*
X1826151D1*
X1955167D2*
X1978156D1*
X2046169D2*
X2063776D1*
X2308231D2*
X2385514D1*
X2597386D2*
X2657229D1*
X2925224D2*
X2985533D1*
X4015709D2*
X4056210D1*
X4131184D2*
X4274493D1*
X4600693D2*
X4632223D1*
X4930612D2*
X4982919D1*
X5077019D2*
X5232242D1*
X5310231D2*
X5352705D1*
X434718Y1462549D2*
X481714D1*
X549691D2*
X704663D1*
X792663D2*
X820210D1*
X926188D2*
X1134699D1*
X1255138D2*
X1371714D1*
X1459714D2*
X1472692D1*
X1583694D2*
X1593709D1*
X1661706D2*
X1731417D1*
X1799394D2*
X1826151D1*
X1955167D2*
X1978156D1*
X2046169D2*
X2088644D1*
X2597350D2*
X2657229D1*
X2925224D2*
X2988512D1*
X4015709D2*
X4038483D1*
X4600693D2*
X4632223D1*
X4935564D2*
X5007787D1*
X5101887D2*
X5232242D1*
X5310231D2*
X5352705D1*
X434718Y1437680D2*
X481714D1*
X549691D2*
X704663D1*
X798404D2*
X820210D1*
X926188D2*
X1134699D1*
X1255138D2*
X1371714D1*
X1459714D2*
X1472692D1*
X1583694D2*
X1593709D1*
X1661706D2*
X1731417D1*
X1799394D2*
X1826151D1*
X1955167D2*
X1978156D1*
X2046169D2*
X2113547D1*
X2583894D2*
X2657229D1*
X2925224D2*
X2963967D1*
X3747690D2*
X3756505D1*
X4015709D2*
X4035540D1*
X4600693D2*
X4632223D1*
X4925875D2*
X5032654D1*
X5126755D2*
X5232242D1*
X5310231D2*
X5352705D1*
X434718Y1412812D2*
X481714D1*
X549691D2*
X706887D1*
X926188D2*
X1134699D1*
X1255138D2*
X1371714D1*
X1459714D2*
X1472692D1*
X1583694D2*
X1593709D1*
X1661706D2*
X1731417D1*
X1799394D2*
X1826151D1*
X1955167D2*
X1978156D1*
X2046169D2*
X2135473D1*
X2556478D2*
X2657229D1*
X2925224D2*
X2957221D1*
X3098868D2*
X3121140D1*
X3653242D2*
X3709174D1*
X4026581D2*
X4044476D1*
X4600693D2*
X4632223D1*
X4925696D2*
X5057558D1*
X5151622D2*
X5232242D1*
X5310231D2*
X5352705D1*
X434718Y1387943D2*
X481714D1*
X549691D2*
X725762D1*
X926188D2*
X1134699D1*
X1255138D2*
X1366726D1*
X1583694D2*
X1593709D1*
X1661706D2*
X1731417D1*
X1799394D2*
X1826151D1*
X1955167D2*
X1978156D1*
X2046169D2*
X2144372D1*
X2501934D2*
X2657229D1*
X2925224D2*
X2957221D1*
X3101918D2*
X3235179D1*
X4030349D2*
X4056856D1*
X4130538D2*
X4272807D1*
X4600693D2*
X4632223D1*
X4925696D2*
X5082426D1*
X5176490D2*
X5232242D1*
X5310231D2*
X5352705D1*
X434718Y1363074D2*
X481714D1*
X549691D2*
X739398D1*
X926188D2*
X973220D1*
X1009080D2*
X1134699D1*
X1255138D2*
X1372790D1*
X1583694D2*
X1593709D1*
X1661706D2*
X1727362D1*
X1803448D2*
X1826151D1*
X1955167D2*
X1978156D1*
X2046169D2*
X2149683D1*
X2520307D2*
X2657229D1*
X2925224D2*
X2957221D1*
X3121367D2*
X3235179D1*
X4148731D2*
X4247939D1*
X4457694D2*
X4479715D1*
X4600693D2*
X4632223D1*
X4925696D2*
X5107293D1*
X5201358D2*
X5232242D1*
X5310231D2*
X5352705D1*
X434718Y1338205D2*
X481714D1*
X549691D2*
X714674D1*
X926188D2*
X946199D1*
X1111601D2*
X1134699D1*
X1255138D2*
X1424715D1*
X1583694D2*
X1593709D1*
X1661706D2*
X1716704D1*
X1814142D2*
X1826151D1*
X1955167D2*
X1978156D1*
X2046169D2*
X2138666D1*
X2580233D2*
X2607170D1*
X3146235D2*
X3235179D1*
X3462697D2*
X3479694D1*
X4151925D2*
X4223071D1*
X4369275D2*
X4379679D1*
X4457694D2*
X4479715D1*
X4925696D2*
X5132161D1*
X5310231D2*
X5352705D1*
X434718Y1313337D2*
X481714D1*
X549691D2*
X704734D1*
X926188D2*
X942503D1*
X1117953D2*
X1132294D1*
X1305089D2*
X1332313D1*
X1583694D2*
X1593709D1*
X1661706D2*
X1720795D1*
X1810015D2*
X1826151D1*
X1955167D2*
X1978156D1*
X2046169D2*
X2135437D1*
X3171102D2*
X3238732D1*
X3462697D2*
X3479694D1*
X3928223D2*
X3955806D1*
X4143241D2*
X4198203D1*
X4457694D2*
X4479715D1*
X4925696D2*
X5157029D1*
X5310231D2*
X5352705D1*
X434718Y1288468D2*
X481714D1*
X549691D2*
X704663D1*
X792663D2*
X820210D1*
X926188D2*
X938089D1*
X1583694D2*
X1593709D1*
X1661706D2*
X1749789D1*
X1781021D2*
X1826151D1*
X1955167D2*
X1978156D1*
X2046169D2*
X2144013D1*
X3195970D2*
X3235431D1*
X3462697D2*
X3479694D1*
X3707320D2*
X3735405D1*
X3928223D2*
X4057573D1*
X4129856D2*
X4173336D1*
X4457694D2*
X4479715D1*
X4925696D2*
X5161120D1*
X5310231D2*
X5352705D1*
X434718Y1263599D2*
X481714D1*
X549691D2*
X704663D1*
X792663D2*
X820210D1*
X997669D2*
X1049976D1*
X1583694D2*
X1591224D1*
X1664218D2*
X1826151D1*
X2058693D2*
X2157685D1*
X3093449D2*
X3126737D1*
X3219187D2*
X3243935D1*
X3462697D2*
X3479694D1*
X3710226D2*
X3743945D1*
X3928223D2*
X4038842D1*
X4256707D2*
X4282926D1*
X4457694D2*
X4479715D1*
X4925696D2*
X5172531D1*
X5310231D2*
X5352705D1*
X434718Y1238730D2*
X481714D1*
X549691D2*
X704663D1*
X792663D2*
X820210D1*
X1001903D2*
X1040754D1*
X1676203D2*
X1826151D1*
X2060092D2*
X2086921D1*
X2407236D2*
X2430369D1*
X3057027D2*
X3151605D1*
X3223242D2*
X3249713D1*
X3462697D2*
X3479694D1*
X3710226D2*
X3780368D1*
X3928223D2*
X4035433D1*
X4231839D2*
X4288703D1*
X4457694D2*
X4479715D1*
X4557703D2*
X4632223D1*
X4925696D2*
X5232242D1*
X5310231D2*
X5352705D1*
X434718Y1213861D2*
X481714D1*
X549691D2*
X704663D1*
X991318D2*
X1035012D1*
X1571350D2*
X1582354D1*
X1673081D2*
X1826151D1*
X1949820D2*
X1978766D1*
X2045559D2*
X2062054D1*
X2410071D2*
X2446840D1*
X2631332D2*
X2657229D1*
X2725241D2*
X2751138D1*
X2831315D2*
X2857211D1*
X2927628D2*
X2959768D1*
X3050639D2*
X3155230D1*
X3223242D2*
X3249713D1*
X3462697D2*
X3479694D1*
X3710226D2*
X3741290D1*
X3928223D2*
X4043794D1*
X4254302D2*
X4288703D1*
X4457694D2*
X4479715D1*
X4557703D2*
X4632223D1*
X4925696D2*
X5232242D1*
X5310231D2*
X5352705D1*
X434718Y1188993D2*
X481714D1*
X549691D2*
X704663D1*
X987155D2*
X1043804D1*
X1894056D2*
X2037186D1*
X2586047D2*
X2657229D1*
X2725241D2*
X2860620D1*
X2952532D2*
X2981407D1*
X3075507D2*
X3155230D1*
X3223242D2*
X3249713D1*
X3462697D2*
X3479694D1*
X3920687D2*
X4073865D1*
X4267041D2*
X4288703D1*
X4457694D2*
X4479715D1*
X4557703D2*
X4632223D1*
X4925696D2*
X5232242D1*
X5310231D2*
X5352705D1*
X434718Y1164124D2*
X481714D1*
X549691D2*
X704663D1*
X987155D2*
X1049976D1*
X1879631D2*
X2012318D1*
X2561179D2*
X2657229D1*
X2725241D2*
X2883299D1*
X2977400D2*
X3006274D1*
X3100375D2*
X3155230D1*
X3223242D2*
X3239450D1*
X3462697D2*
X3479694D1*
X3896250D2*
X4048997D1*
X4157236D2*
X4172941D1*
X4264458D2*
X4280378D1*
X4457694D2*
X4479715D1*
X4557703D2*
X4632223D1*
X4925696D2*
X5232242D1*
X5310231D2*
X5352705D1*
X434718Y1139255D2*
X481714D1*
X550875D2*
X704663D1*
X987155D2*
X1049976D1*
X2379210D2*
X2657229D1*
X2725241D2*
X2908167D1*
X3002267D2*
X3031142D1*
X3125242D2*
X3155230D1*
X3462697D2*
X3479694D1*
X3766852D2*
X4024129D1*
X4132368D2*
X4174699D1*
X4262699D2*
X4274708D1*
X4457694D2*
X4479715D1*
X4557703D2*
X4632223D1*
X4925696D2*
X5232242D1*
X5310231D2*
X5352705D1*
X434718Y1114386D2*
X484513D1*
X575743D2*
X704663D1*
X822447D2*
X858211D1*
X987155D2*
X1049976D1*
X1117953D2*
X1129711D1*
X1385039D2*
X1398950D1*
X2056683D2*
X2084122D1*
X2379210D2*
X2460440D1*
X2724883D2*
X2933035D1*
X3027135D2*
X3056010D1*
X3312091D2*
X3323778D1*
X3462697D2*
X3479694D1*
X3757701D2*
X3999261D1*
X4107500D2*
X4174699D1*
X4262699D2*
X4274708D1*
X4362709D2*
X4379706D1*
X4457694D2*
X4479715D1*
X4557703D2*
X4632223D1*
X4925696D2*
X5232242D1*
X5310231D2*
X5352705D1*
X434718Y1089518D2*
X506510D1*
X600611D2*
X704663D1*
X792663D2*
X858211D1*
X987155D2*
X1049976D1*
X1117953D2*
X1129711D1*
X1255138D2*
X1282254D1*
X1350267D2*
X1771966D1*
X1834847D2*
X2084122D1*
X2379210D2*
X2436828D1*
X2708663D2*
X2957902D1*
X3052003D2*
X3080877D1*
X3287331D2*
X3348358D1*
X3462697D2*
X3479694D1*
X3793980D2*
X3974394D1*
X4082633D2*
X4174699D1*
X4262699D2*
X4274708D1*
X4362709D2*
X4379706D1*
X4457694D2*
X4479715D1*
X4557703D2*
X4632223D1*
X4782589D2*
X4822839D1*
X4925696D2*
X5232242D1*
X5310231D2*
X5352705D1*
X434718Y1064649D2*
X531378D1*
X625478D2*
X704663D1*
X792663D2*
X858211D1*
X987155D2*
X1049976D1*
X1117953D2*
X1129711D1*
X1255138D2*
X1284407D1*
X1850959D2*
X2084122D1*
X2232695D2*
X2240219D1*
X2379210D2*
X2432235D1*
X2671846D2*
X2982770D1*
X3076871D2*
X3105745D1*
X3284712D2*
X3374697D1*
X3462697D2*
X3479694D1*
X3901884D2*
X3935531D1*
X4057765D2*
X4174699D1*
X4262699D2*
X4274708D1*
X4362709D2*
X4379706D1*
X4457694D2*
X4479715D1*
X4557703D2*
X4612522D1*
X4757686D2*
X4835542D1*
X4925696D2*
X5134135D1*
X5203260D2*
X5232242D1*
X5310231D2*
X5352705D1*
X434718Y1039780D2*
X556246D1*
X650346D2*
X704663D1*
X792663D2*
X858211D1*
X987155D2*
X1049976D1*
X2232695D2*
X2240219D1*
X2653078D2*
X2684321D1*
X2753088D2*
X2784331D1*
X2853061D2*
X2884340D1*
X2953070D2*
X2984313D1*
X4077214D2*
X4174699D1*
X4457694D2*
X4479715D1*
X4557703D2*
X4584317D1*
X4757686D2*
X4784336D1*
X5223104D2*
X5232249D1*
X5310231D2*
X5352705D1*
X434718Y1014911D2*
X581113D1*
X675214D2*
X704663D1*
X792663D2*
X858211D1*
X987155D2*
X1049976D1*
X2232695D2*
X2240219D1*
X4077214D2*
X4164329D1*
X5310231D2*
X5352705D1*
X434718Y990043D2*
X605981D1*
X689532D2*
X704663D1*
X792663D2*
X858211D1*
X987155D2*
X1049976D1*
X2226667D2*
X2240219D1*
X4083530D2*
X4160310D1*
X5219336D2*
X5232242D1*
X5310231D2*
X5352705D1*
X434718Y965174D2*
X621627D1*
X689639D2*
X704663D1*
X792663D2*
X858211D1*
X987155D2*
X1049976D1*
X1304192D2*
X1322983D1*
X2202875D2*
X2240219D1*
X5008875D2*
X5149637D1*
X5187758D2*
X5232242D1*
X5310231D2*
X5352705D1*
X434718Y940305D2*
X621627D1*
X689639D2*
X704663D1*
X792663D2*
X858211D1*
X987155D2*
X1049976D1*
X2384055D2*
X2399221D1*
X2577219D2*
X2599240D1*
X2761951D2*
X2799223D1*
X2838169D2*
X2899232D1*
X2938178D2*
X2979684D1*
X3338179D2*
X3360164D1*
X4377242D2*
X4399227D1*
X4438173D2*
X4499236D1*
X4538182D2*
X4599245D1*
X4638156D2*
X4699218D1*
X4738165D2*
X4779707D1*
X4977225D2*
X5232242D1*
X5310231D2*
X5352705D1*
X434718Y915436D2*
X621627D1*
X689639D2*
X704663D1*
X792663D2*
X858211D1*
X987155D2*
X1049976D1*
X2379354D2*
X2432235D1*
X2500212D2*
X2642839D1*
X2786819D2*
X2979684D1*
X3100231D2*
X3132228D1*
X3311661D2*
X3435772D1*
X4001642D2*
X4035792D1*
X4301634D2*
X4779707D1*
X4857695D2*
X5232242D1*
X5310231D2*
X5352705D1*
X434718Y890567D2*
X621627D1*
X689639D2*
X704663D1*
X792663D2*
X858211D1*
X987155D2*
X1049976D1*
X2346807D2*
X2419424D1*
X2513022D2*
X2668138D1*
X2800455D2*
X2979684D1*
X3100231D2*
X3132228D1*
X3305166D2*
X4777948D1*
X4857695D2*
X5232242D1*
X5310231D2*
X5352705D1*
X434718Y865699D2*
X621627D1*
X689639D2*
X704663D1*
X795390D2*
X858211D1*
X987155D2*
X1049976D1*
X2075738D2*
X2139671D1*
X2247731D2*
X2263220D1*
X2331233D2*
X2418491D1*
X2513955D2*
X2638390D1*
X2694058D2*
X2722717D1*
X2800706D2*
X2979684D1*
X3100231D2*
X3132228D1*
X3305166D2*
X4753081D1*
X4855829D2*
X5135714D1*
X5201717D2*
X5232242D1*
X5310231D2*
X5352705D1*
X434718Y840830D2*
X621627D1*
X689639D2*
X705990D1*
X838989D2*
X858211D1*
X987155D2*
X1049976D1*
X2100605D2*
X2135257D1*
X2252144D2*
X2264512D1*
X2807632D2*
X2979684D1*
X3100231D2*
X3132228D1*
X3305166D2*
X4728213D1*
X4836452D2*
X5114721D1*
X5222673D2*
X5232197D1*
X5310231D2*
X5352705D1*
X434718Y815961D2*
X621627D1*
X689639D2*
X722748D1*
X987155D2*
X1050263D1*
X1271465D2*
X1344478D1*
X1585596D2*
X2031373D1*
X2244896D2*
X2283926D1*
X3100231D2*
X3132228D1*
X4975323D2*
X5110236D1*
X5310231D2*
X5352705D1*
X434718Y791092D2*
X621627D1*
X689639D2*
X747616D1*
X987155D2*
X1065945D1*
X1304192D2*
X1322983D1*
X1554197D2*
X2054159D1*
X2237683D2*
X2258017D1*
X3110745D2*
X3132228D1*
X3223242D2*
X3235431D1*
X5310231D2*
X5352705D1*
X434718Y766224D2*
X621627D1*
X689639D2*
X754865D1*
X987155D2*
X1072978D1*
X1304192D2*
X1322983D1*
X1554197D2*
X2061444D1*
X3114944D2*
X3132228D1*
X3223242D2*
X3260047D1*
X5310231D2*
X5352705D1*
X434718Y741355D2*
X621627D1*
X689639D2*
X783715D1*
X828690D2*
X858211D1*
X987155D2*
X1072978D1*
X1304192D2*
X1322983D1*
X1554197D2*
X2135222D1*
X2316485D2*
X2439699D1*
X2570688D2*
X2592422D1*
X2947687D2*
X3028092D1*
X3104394D2*
X3132228D1*
X3223242D2*
X3366695D1*
X3897685D2*
X4292399D1*
X5310231D2*
X5352705D1*
X434718Y716486D2*
X621627D1*
X689639D2*
X858211D1*
X987155D2*
X1072978D1*
X1304192D2*
X1322983D1*
X1554197D2*
X1586158D1*
X2308231D2*
X2439699D1*
X2570688D2*
X2584707D1*
X2947687D2*
X3132228D1*
X3223242D2*
X3366695D1*
X3897685D2*
X4284684D1*
X5300578D2*
X5352705D1*
X434718Y691617D2*
X621627D1*
X689639D2*
X857063D1*
X987155D2*
X1072978D1*
X1304192D2*
X1322983D1*
X1554197D2*
X1578694D1*
X2308231D2*
X2502711D1*
X2570688D2*
X2584707D1*
X2652684D2*
X2732227D1*
X2800239D2*
X3132228D1*
X3223242D2*
X3366695D1*
X3434708D2*
X3484682D1*
X3552695D2*
X3631987D1*
X3726087D2*
X4284684D1*
X4352697D2*
X4432240D1*
X4500217D2*
X4602690D1*
X4670703D2*
X4805759D1*
X5275746D2*
X5352705D1*
X434718Y666749D2*
X621627D1*
X689639D2*
X832195D1*
X987155D2*
X1094472D1*
X1172461D2*
X1344478D1*
X1466962D2*
X1585655D1*
X2308231D2*
X2502711D1*
X2570688D2*
X2584707D1*
X2652684D2*
X2732227D1*
X2800239D2*
X3132228D1*
X3223242D2*
X3366695D1*
X3434708D2*
X3484682D1*
X3552695D2*
X3607119D1*
X3701220D2*
X4284684D1*
X4352697D2*
X4432240D1*
X4500217D2*
X4602690D1*
X4670703D2*
X4828150D1*
X4875278D2*
X5352705D1*
X434718Y641880D2*
X621627D1*
X689639D2*
X775103D1*
X901428D2*
X919142D1*
X987155D2*
X1095405D1*
X1968695D2*
X2039626D1*
X2308231D2*
X2502711D1*
X2570688D2*
X2584707D1*
X2652684D2*
X2732227D1*
X2800239D2*
X3132228D1*
X3223242D2*
X3366695D1*
X3434708D2*
X3484682D1*
X3552695D2*
X3586522D1*
X3676352D2*
X4284684D1*
X4352697D2*
X4432240D1*
X4500217D2*
X4602690D1*
X4670703D2*
X5352705D1*
X434718Y617011D2*
X621627D1*
X689639D2*
X752747D1*
X876560D2*
X919142D1*
X987155D2*
X1072978D1*
X1968229D2*
X2014758D1*
X2308231D2*
X2501886D1*
X2570688D2*
X2584707D1*
X2652684D2*
X2732227D1*
X2800239D2*
X3132228D1*
X3223242D2*
X3366695D1*
X3436143D2*
X3484682D1*
X3552695D2*
X3584691D1*
X3652704D2*
X4284684D1*
X4352697D2*
X4432240D1*
X4500217D2*
X4594975D1*
X4670703D2*
X5352705D1*
X434718Y592142D2*
X621627D1*
X689639D2*
X747688D1*
X864718D2*
X919142D1*
X987155D2*
X1072978D1*
X1554197D2*
X1891999D1*
X1950322D2*
X1989891D1*
X2083991D2*
X2111359D1*
X2308231D2*
X2485164D1*
X2568033D2*
X2584707D1*
X2652684D2*
X2732227D1*
X2800239D2*
X3132228D1*
X3223242D2*
X3369638D1*
X3452327D2*
X3484682D1*
X3552695D2*
X3584691D1*
X3652704D2*
X4284684D1*
X4352697D2*
X4432240D1*
X4500217D2*
X4570107D1*
X4663885D2*
X5352705D1*
X434718Y567274D2*
X443592D1*
X543806D2*
X621627D1*
X689639D2*
X754290D1*
X858115D2*
X919142D1*
X987155D2*
X1072978D1*
X1304192D2*
X1322983D1*
X1554197D2*
X1965023D1*
X2059123D2*
X2100486D1*
X2308231D2*
X2484698D1*
X2552710D2*
X2584707D1*
X2652684D2*
X2732227D1*
X2800239D2*
X3132228D1*
X3223242D2*
X3384709D1*
X3452686D2*
X3484682D1*
X3552695D2*
X3584691D1*
X3652704D2*
X4284684D1*
X4352697D2*
X4432240D1*
X4500217D2*
X4545239D1*
X4639304D2*
X5243582D1*
X5343818D2*
X5352690D1*
X569032Y542405D2*
X621627D1*
X689639D2*
X781168D1*
X831238D2*
X919142D1*
X1304192D2*
X1322983D1*
X1554197D2*
X1940155D1*
X2034256D2*
X2100486D1*
X2308195D2*
X2388492D1*
X2448897D2*
X2484698D1*
X2552710D2*
X2584707D1*
X2652684D2*
X2688520D1*
X2848898D2*
X2888502D1*
X2948908D2*
X2988512D1*
X3048881D2*
X3088521D1*
X3223242D2*
X3288503D1*
X3348909D2*
X3384709D1*
X3452686D2*
X3484682D1*
X3552695D2*
X3584691D1*
X3652704D2*
X3688504D1*
X3748910D2*
X3788514D1*
X3848883D2*
X3888523D1*
X3948892D2*
X3988496D1*
X4048901D2*
X4188515D1*
X4248884D2*
X4284684D1*
X4352697D2*
X4388497D1*
X4648885D2*
X4688489D1*
X4748894D2*
X4788498D1*
X4848903D2*
X4888507D1*
X4948877D2*
X5218355D1*
X580515Y517536D2*
X621627D1*
X2009388D2*
X2100486D1*
X2297179D2*
X2365490D1*
X3223242D2*
X3265502D1*
X4071903D2*
X4165513D1*
X4971914D2*
X5206872D1*
X583817Y492667D2*
X631208D1*
X1984484D2*
X2100486D1*
X2219310D2*
X2360179D1*
X3223242D2*
X3260191D1*
X4077214D2*
X4160166D1*
X4977225D2*
X5203571D1*
X579905Y467798D2*
X656291D1*
X1959401D2*
X2100486D1*
X4070898D2*
X4166518D1*
X4970874D2*
X5207482D1*
X567633Y442930D2*
X2109205D1*
X3044898D2*
X3092504D1*
X3144907D2*
X3163949D1*
X3944909D2*
X3992515D1*
X4044882D2*
X4192498D1*
X4244901D2*
X4292507D1*
X4344910D2*
X4392516D1*
X4444883D2*
X4492490D1*
X4544893D2*
X4592499D1*
X4644902D2*
X4692508D1*
X4744911D2*
X4792517D1*
X4844884D2*
X4892491D1*
X4944894D2*
X5219790D1*
X2418436Y2543700D2*
X2410768Y2548373D1*
X2406114Y2552204D1*
X2299427Y2552059D1*
X2304587Y2546899D1*
X2308876Y2540996D1*
X2312188Y2534495D1*
X2314443Y2527555D1*
X2315446Y2521524D1*
X2320494Y2523658D1*
X2325300Y2524812D1*
X2330228Y2525200D1*
X2397367D1*
X2401096Y2530087D1*
X2407313Y2536304D1*
X2414426Y2541471D1*
X2418436Y2543700D1*
Y2443700D2*
X2410768Y2448373D1*
X2404083Y2454083D1*
X2398373Y2460768D1*
X2397408Y2462211D1*
X2343260Y2462200D1*
X2338724Y2457648D1*
X2338728Y2408728D1*
X2347770Y2417653D1*
X2351769Y2420558D1*
X2356173Y2422802D1*
X2360874Y2424330D1*
X2365757Y2425103D1*
X2397402Y2425200D1*
X2401096Y2430087D1*
X2407313Y2436304D1*
X2414426Y2441471D1*
X2418436Y2443700D1*
X2499555Y2189304D2*
X2498180Y2180621D1*
X2495635Y2172727D1*
X2737440Y2172728D1*
X2741454Y2176587D1*
X2747357Y2180876D1*
X2753858Y2184188D1*
X2760798Y2186443D1*
X2768005Y2187585D1*
X2775301D1*
X2782508Y2186443D1*
X2789448Y2184188D1*
X2795949Y2180876D1*
X2801852Y2176587D1*
X2807012Y2171427D1*
X2811301Y2165524D1*
X2812200Y2163919D1*
Y2205166D1*
X2807648Y2209732D1*
X2497419Y2209728D1*
X2499038Y2202465D1*
X2499728Y2193700D1*
X2499555Y2189304D1*
X2489992Y2062211D2*
X2486304Y2057313D1*
X2480087Y2051096D1*
X2472974Y2045929D1*
X2469136Y2043621D1*
X2476632Y2039027D1*
X2482750Y2033842D1*
X2488433Y2036660D1*
X2495373Y2038915D1*
X2502580Y2040057D1*
X2509876D1*
X2517083Y2038915D1*
X2524023Y2036660D1*
X2530524Y2033348D1*
X2536427Y2029059D1*
X2540377Y2025208D1*
X2697383Y2025200D1*
X2701096Y2030087D1*
X2707313Y2036304D1*
X2714426Y2041471D1*
X2722259Y2045463D1*
X2728421Y2047559D1*
X2723317Y2048485D1*
X2716377Y2050740D1*
X2709876Y2054052D1*
X2703973Y2058341D1*
X2700023Y2062192D1*
X2490052Y2062200D1*
X2499555Y1789304D2*
X2498699Y1783233D1*
X2587350Y1694461D1*
X2590255Y1690462D1*
X2592499Y1686058D1*
X2594027Y1681357D1*
X2594800Y1676474D1*
X2594897Y1609699D1*
X2594800Y1461757D1*
X2594027Y1456874D1*
X2592499Y1452173D1*
X2590255Y1447769D1*
X2587350Y1443770D1*
X2562671Y1418954D1*
X2558912Y1415744D1*
X2554698Y1413161D1*
X2550131Y1411270D1*
X2545325Y1410116D1*
X2540387Y1409728D1*
X2497372D1*
X2499038Y1402465D1*
X2499728Y1393700D1*
X2499038Y1384935D1*
X2498699Y1383233D1*
X2515181Y1366630D1*
X2518086Y1362631D1*
X2520330Y1358227D1*
X2521858Y1353526D1*
X2522631Y1348643D1*
X2522728Y1346162D1*
X2530621Y1348180D1*
X2539304Y1349555D1*
X2548096D1*
X2556779Y1348180D1*
X2565141Y1345463D1*
X2572974Y1341471D1*
X2580087Y1336304D1*
X2586304Y1330087D1*
X2591471Y1322974D1*
X2593779Y1319136D1*
X2598373Y1326632D1*
X2604083Y1333317D1*
X2610768Y1339027D1*
X2618264Y1343621D1*
X2626387Y1346985D1*
X2634935Y1349038D1*
X2643700Y1349728D1*
X2652465Y1349038D1*
X2659740Y1347345D1*
X2659825Y1643699D1*
X2660598Y1648582D1*
X2662126Y1653283D1*
X2664370Y1657687D1*
X2667275Y1661686D1*
X2688670Y1683217D1*
X2687845Y1689304D1*
Y1698096D1*
X2689220Y1706779D1*
X2690055Y1709740D1*
X2643705Y1709825D1*
X2638822Y1710598D1*
X2634121Y1712126D1*
X2629717Y1714370D1*
X2625718Y1717275D1*
X2578432Y1764424D1*
X2533140Y1809717D1*
X2497409Y1809728D1*
X2499038Y1802465D1*
X2499728Y1793700D1*
X2499555Y1789304D1*
X2412754Y1647046D2*
X2407313Y1651096D1*
X2401096Y1657313D1*
X2399724Y1659054D1*
X2399631Y1651709D1*
X2398858Y1646826D1*
X2397330Y1642125D1*
X2395086Y1637721D1*
X2392181Y1633722D1*
X2367502Y1608906D1*
X2363743Y1605696D1*
X2359529Y1603113D1*
X2354962Y1601222D1*
X2350156Y1600068D1*
X2345218Y1599680D1*
X2327896D1*
X2323907Y1595821D1*
X2318004Y1591532D1*
X2311503Y1588220D1*
X2304563Y1585965D1*
X2297356Y1584823D1*
X2290060D1*
X2282853Y1585965D1*
X2275913Y1588220D1*
X2269412Y1591532D1*
X2263509Y1595821D1*
X2258349Y1600981D1*
X2254060Y1606884D1*
X2250748Y1613385D1*
X2248493Y1620325D1*
X2247351Y1627532D1*
Y1634828D1*
X2247779Y1638440D1*
X2241859Y1639956D1*
X2235117Y1642748D1*
X2230189Y1645697D1*
X2230200Y1554649D1*
X2248461Y1536353D1*
X2251961Y1540508D1*
X2276770Y1565181D1*
X2280769Y1568086D1*
X2285173Y1570330D1*
X2289874Y1571858D1*
X2294757Y1572631D1*
X2361532Y1572728D1*
X2391711D1*
X2389220Y1580621D1*
X2387845Y1589304D1*
Y1598096D1*
X2389220Y1606779D1*
X2391937Y1615141D1*
X2395929Y1622974D1*
X2401096Y1630087D1*
X2407313Y1636304D1*
X2412211Y1639992D1*
X2412590Y1646165D1*
X2391765Y1472727D2*
X2389220Y1480621D1*
X2387845Y1489304D1*
Y1498096D1*
X2389220Y1506779D1*
X2390055Y1509740D1*
X2310262Y1509728D1*
X2305724Y1505176D1*
X2305927Y1469295D1*
X2310494Y1471186D1*
X2315300Y1472340D1*
X2320228Y1472728D1*
X2391745D1*
X2389365Y1380108D2*
X2388362Y1384935D1*
X2387672Y1393700D1*
X2388362Y1402465D1*
X2390055Y1409740D1*
X2362017Y1409728D1*
X2368108Y1404580D1*
X2372847Y1399032D1*
X2376653Y1392823D1*
X2389331Y1380145D1*
X2444885Y1237719D2*
X2439304Y1237845D1*
X2430621Y1239220D1*
X2422259Y1241937D1*
X2414426Y1245929D1*
X2407313Y1251096D1*
X2404726Y1253488D1*
X2404728Y1216740D1*
X2409280Y1212168D1*
X2450234Y1212172D1*
X2448268Y1216283D1*
X2446013Y1223223D1*
X2444871Y1230430D1*
X2444870Y1237684D1*
X3099705Y1293133D2*
X3099038Y1284935D1*
X3096985Y1276387D1*
X3093621Y1268264D1*
X3089027Y1260768D1*
X3083317Y1254083D1*
X3076632Y1248373D1*
X3069136Y1243779D1*
X3061013Y1240415D1*
X3052465Y1238362D1*
X3043700Y1237672D1*
X3034935Y1238362D1*
X3026387Y1240415D1*
X3022727Y1241765D1*
X3026493Y1235513D1*
X3157753Y1104254D1*
X3157728Y1235098D1*
X3099738Y1293114D1*
X3099555Y1389304D2*
X3098699Y1383233D1*
X3213181Y1268630D1*
X3216086Y1264631D1*
X3218330Y1260227D1*
X3219858Y1255526D1*
X3220631Y1250643D1*
X3220728Y1183868D1*
Y1146153D1*
X3226184Y1148342D1*
X3252182Y1174344D1*
X3252200Y1256033D1*
X3248373Y1260768D1*
X3243779Y1268264D1*
X3240415Y1276387D1*
X3238362Y1284935D1*
X3237672Y1293700D1*
X3238362Y1302465D1*
X3240415Y1311013D1*
X3243779Y1319136D1*
X3248373Y1326632D1*
X3254083Y1333317D1*
X3259054Y1337676D1*
X3237673Y1337672D1*
Y1409763D1*
X3134757Y1409825D1*
X3129874Y1410598D1*
X3125173Y1412126D1*
X3120769Y1414370D1*
X3116770Y1417275D1*
X3102749Y1431159D1*
X3092601Y1421054D1*
X3095463Y1415141D1*
X3098180Y1406779D1*
X3099555Y1398096D1*
Y1389304D1*
X2994963Y1466150D2*
X2991937Y1472259D1*
X2989220Y1480621D1*
X2987845Y1489304D1*
Y1498096D1*
X2989220Y1506779D1*
X2991937Y1515141D1*
X2995929Y1522974D1*
X3001096Y1530087D1*
X3007313Y1536304D1*
X3014426Y1541471D1*
X3018264Y1543779D1*
X3010768Y1548373D1*
X3004083Y1554083D1*
X2998373Y1560768D1*
X2997408Y1562211D1*
X2987760Y1562297D1*
X2982877Y1563070D1*
X2978176Y1564598D1*
X2973772Y1566842D1*
X2969773Y1569747D1*
X2960726Y1578658D1*
X2960728Y1575426D1*
X2964587Y1571427D1*
X2968876Y1565524D1*
X2972188Y1559023D1*
X2974443Y1552083D1*
X2975585Y1544876D1*
Y1537580D1*
X2974443Y1530373D1*
X2972188Y1523433D1*
X2968876Y1516932D1*
X2964587Y1511029D1*
X2959427Y1505869D1*
X2953524Y1501580D1*
X2947023Y1498268D1*
X2940083Y1496013D1*
X2932876Y1494871D1*
X2925580D1*
X2922733Y1495208D1*
X2922728Y1345669D1*
X2930621Y1348180D1*
X2939304Y1349555D1*
X2948096D1*
X2956779Y1348180D1*
X2959740Y1347345D1*
X2959825Y1420699D1*
X2960598Y1425582D1*
X2962126Y1430283D1*
X2964370Y1434687D1*
X2967275Y1438686D1*
X2991954Y1463502D1*
X2993778Y1465187D1*
X3099555Y1789304D2*
X3099205Y1786352D1*
X3105725Y1784182D1*
X3105840Y2039092D1*
X3106736Y2044749D1*
X3108506Y2050196D1*
X3111107Y2055299D1*
X3114473Y2059933D1*
X3149419Y2095037D1*
X3153774Y2098757D1*
X3158657Y2101750D1*
X3163949Y2103942D1*
X3169518Y2105279D1*
X3175239Y2105728D1*
X3185742D1*
X3184819Y2112068D1*
Y2119364D1*
X3185786Y2125690D1*
X3120230Y2125700D1*
X3098746Y2104198D1*
X3099555Y2098096D1*
Y2089304D1*
X3098180Y2080621D1*
X3095463Y2072259D1*
X3091471Y2064426D1*
X3086304Y2057313D1*
X3080087Y2051096D1*
X3072974Y2045929D1*
X3069136Y2043621D1*
X3076632Y2039027D1*
X3083317Y2033317D1*
X3089027Y2026632D1*
X3093621Y2019136D1*
X3096985Y2011013D1*
X3099038Y2002465D1*
X3099728Y1993700D1*
X3099038Y1984935D1*
X3096985Y1976387D1*
X3093621Y1968264D1*
X3089027Y1960768D1*
X3083317Y1954083D1*
X3076632Y1948373D1*
X3068964Y1943700D1*
X3076632Y1939027D1*
X3083317Y1933317D1*
X3089027Y1926632D1*
X3093621Y1919136D1*
X3096985Y1911013D1*
X3099038Y1902465D1*
X3099728Y1893700D1*
X3099038Y1884935D1*
X3096985Y1876387D1*
X3093621Y1868264D1*
X3089027Y1860768D1*
X3083317Y1854083D1*
X3076632Y1848373D1*
X3068964Y1843700D1*
X3076632Y1839027D1*
X3083317Y1833317D1*
X3089027Y1826632D1*
X3093621Y1819136D1*
X3096985Y1811013D1*
X3099038Y1802465D1*
X3099728Y1793700D1*
X3099555Y1789304D1*
X3068964Y2243700D2*
X3076632Y2239027D1*
X3083317Y2233317D1*
X3089027Y2226632D1*
X3089992Y2225189D1*
X3182934Y2225378D1*
X3167476Y2240995D1*
X3164110Y2245629D1*
X3161509Y2250732D1*
X3159739Y2256179D1*
X3158843Y2261836D1*
X3158731Y2265741D1*
X3153965Y2263742D1*
X3149159Y2262588D1*
X3144231Y2262200D1*
X3090010D1*
X3086304Y2257313D1*
X3080087Y2251096D1*
X3072974Y2245929D1*
X3068964Y2243700D1*
X3013297Y2340717D2*
X3018436Y2343700D1*
X3010768Y2348373D1*
X3004083Y2354083D1*
X2998373Y2360768D1*
X2993779Y2368264D1*
X2990415Y2376387D1*
X2988362Y2384935D1*
X2987672Y2393700D1*
X2988362Y2402465D1*
X2990415Y2411013D1*
X2993779Y2419136D1*
X2998373Y2426632D1*
X3004083Y2433317D1*
X3010768Y2439027D1*
X3018436Y2443700D1*
X3010768Y2448373D1*
X3004083Y2454083D1*
X2998373Y2460768D1*
X2993779Y2468264D1*
X2990415Y2476387D1*
X2988362Y2484935D1*
X2987672Y2493700D1*
X2988362Y2502465D1*
X2990415Y2511013D1*
X2993779Y2519136D1*
X2998373Y2526632D1*
X3004083Y2533317D1*
X3010768Y2539027D1*
X3018436Y2543700D1*
X3010768Y2548373D1*
X3004083Y2554083D1*
X2998373Y2560768D1*
X2993779Y2568264D1*
X2990415Y2576387D1*
X2988362Y2584935D1*
X2987672Y2593700D1*
X2988362Y2602465D1*
X2990415Y2611013D1*
X2993779Y2619136D1*
X2998373Y2626632D1*
X3004083Y2633317D1*
X3010768Y2639027D1*
X3018264Y2643621D1*
X3026387Y2646985D1*
X3034935Y2649038D1*
X3043700Y2649728D1*
X3052465Y2649038D1*
X3059740Y2647345D1*
X3059728Y2661026D1*
X3055176Y2665578D1*
X2716384Y2665574D1*
X2721656Y2659743D1*
X2724239Y2655529D1*
X2726130Y2650962D1*
X2727284Y2646156D1*
X2727672Y2641218D1*
Y2501674D1*
X2731531Y2497663D1*
X2735820Y2491760D1*
X2739132Y2485259D1*
X2741387Y2478319D1*
X2742529Y2471112D1*
Y2463816D1*
X2741387Y2456609D1*
X2739132Y2449669D1*
X2735820Y2443168D1*
X2731531Y2437265D1*
X2726371Y2432105D1*
X2720468Y2427816D1*
X2713967Y2424504D1*
X2707027Y2422249D1*
X2699820Y2421107D1*
X2692524D1*
X2685317Y2422249D1*
X2678377Y2424504D1*
X2671876Y2427816D1*
X2665973Y2432105D1*
X2660813Y2437265D1*
X2656524Y2443168D1*
X2653212Y2449669D1*
X2650957Y2456609D1*
X2649815Y2463816D1*
Y2471112D1*
X2650957Y2478319D1*
X2653212Y2485259D1*
X2656524Y2491760D1*
X2660813Y2497663D1*
X2664664Y2501613D1*
X2664672Y2628189D1*
X2660120Y2632732D1*
X2542295Y2632529D1*
X2544186Y2627962D1*
X2545340Y2623156D1*
X2545728Y2618228D1*
X2545631Y2361757D1*
X2544858Y2356874D1*
X2543330Y2352173D1*
X2541086Y2347769D1*
X2538181Y2343770D1*
X2519730Y2325182D1*
X2822099Y2325200D1*
X2862191Y2365181D1*
X2866190Y2368086D1*
X2870594Y2370330D1*
X2875295Y2371858D1*
X2880178Y2372631D1*
X2946953Y2372728D1*
X2970699Y2372631D1*
X2975582Y2371858D1*
X2980283Y2370330D1*
X2984687Y2368086D1*
X2988686Y2365181D1*
X3013269Y2340735D1*
X3068964Y2343700D2*
X3076632Y2339027D1*
X3083317Y2333317D1*
X3089027Y2326632D1*
X3089992Y2325189D1*
X3131150Y2325200D1*
X3135735Y2329752D1*
X3135731Y2357213D1*
X3086179Y2357200D1*
X3080087Y2351096D1*
X3072974Y2345929D1*
X3068964Y2343700D1*
X2748591Y2049496D2*
X2756779Y2048180D1*
X2765141Y2045463D1*
X2772974Y2041471D1*
X2780087Y2036304D1*
X2786304Y2030087D1*
X2791471Y2022974D1*
X2793779Y2019136D1*
X2798373Y2026632D1*
X2804083Y2033317D1*
X2810768Y2039027D1*
X2812211Y2039992D1*
X2812200Y2118469D1*
X2809272Y2113896D1*
X2804533Y2108348D1*
X2798985Y2103609D1*
X2792764Y2099796D1*
X2786022Y2097004D1*
X2780620Y2095637D1*
X2780529Y2090052D1*
X2779387Y2082845D1*
X2777132Y2075905D1*
X2773820Y2069404D1*
X2769531Y2063501D1*
X2764371Y2058341D1*
X2758468Y2054052D1*
X2751967Y2050740D1*
X2748635Y2049510D1*
X2691765Y1772727D2*
X2689220Y1780621D1*
X2687845Y1789304D1*
Y1798096D1*
X2689220Y1806779D1*
X2690055Y1809740D1*
X2682992Y1809825D1*
X2678109Y1810598D1*
X2673408Y1812126D1*
X2669004Y1814370D1*
X2665005Y1817275D1*
X2619927Y1862217D1*
X2569727Y1862200D1*
X2659212Y1772739D1*
X2691713Y1772728D1*
X2793700Y1568436D2*
X2789027Y1560768D1*
X2783317Y1554083D1*
X2776632Y1548373D1*
X2768964Y1543700D1*
X2776632Y1539027D1*
X2783317Y1533317D1*
X2789027Y1526632D1*
X2793700Y1518964D1*
X2798373Y1526632D1*
X2804083Y1533317D1*
X2810768Y1539027D1*
X2818436Y1543700D1*
X2810768Y1548373D1*
X2804083Y1554083D1*
X2798373Y1560768D1*
X2793700Y1568436D1*
X2899555Y1989304D2*
X2898180Y1980621D1*
X2895635Y1972727D1*
X2908699Y1972631D1*
X2913582Y1971858D1*
X2918283Y1970330D1*
X2922687Y1968086D1*
X2926686Y1965181D1*
X2935734Y1956270D1*
X2935731Y1972133D1*
X2897076Y2010779D1*
X2899038Y2002465D1*
X2899728Y1993700D1*
X2899555Y1989304D1*
X2659740Y1240055D2*
X2652465Y1238362D1*
X2643700Y1237672D1*
X2637615Y1238045D1*
X2636443Y1230373D1*
X2634188Y1223433D1*
X2630876Y1216932D1*
X2626587Y1211029D1*
X2621427Y1205869D1*
X2615524Y1201580D1*
X2609023Y1198268D1*
X2602083Y1196013D1*
X2594876Y1194871D1*
X2589361Y1194801D1*
X2551130Y1156719D1*
X2547131Y1153814D1*
X2542727Y1151570D1*
X2538026Y1150042D1*
X2533143Y1149269D1*
X2466368Y1149172D1*
X2393757Y1149269D1*
X2388874Y1150042D1*
X2384173Y1151570D1*
X2379769Y1153814D1*
X2377705Y1155194D1*
X2376728Y1153346D1*
Y1030801D1*
X2382313Y1036304D1*
X2389426Y1041471D1*
X2397259Y1045463D1*
X2405621Y1048180D1*
X2414304Y1049555D1*
X2423096D1*
X2431779Y1048180D1*
X2434740Y1047345D1*
X2434825Y1075600D1*
X2435598Y1080483D1*
X2437126Y1085184D1*
X2439370Y1089588D1*
X2442275Y1093587D1*
X2466954Y1118403D1*
X2470713Y1121613D1*
X2474927Y1124196D1*
X2479494Y1126087D1*
X2484300Y1127241D1*
X2489228Y1127629D1*
X2655192D1*
X2659732Y1132181D1*
X2659728Y1240023D1*
X2744850Y1237718D2*
X2739304Y1237845D1*
X2730621Y1239220D1*
X2722727Y1241765D1*
X2722631Y1116658D1*
X2721858Y1111775D1*
X2720330Y1107074D1*
X2718086Y1102670D1*
X2715181Y1098671D1*
X2690502Y1073855D1*
X2686743Y1070645D1*
X2682529Y1068062D1*
X2677962Y1066171D1*
X2673156Y1065017D1*
X2668228Y1064629D1*
X2502264D1*
X2497724Y1060077D1*
X2497728Y1049697D1*
X2574728Y1049727D1*
Y1028448D1*
X2579083Y1033317D1*
X2585768Y1039027D1*
X2593264Y1043621D1*
X2601387Y1046985D1*
X2609935Y1049038D1*
X2618700Y1049728D1*
X2627465Y1049038D1*
X2636013Y1046985D1*
X2644136Y1043621D1*
X2651632Y1039027D1*
X2658317Y1033317D1*
X2664027Y1026632D1*
X2668700Y1018964D1*
X2673373Y1026632D1*
X2679083Y1033317D1*
X2685768Y1039027D1*
X2693264Y1043621D1*
X2701387Y1046985D1*
X2709935Y1049038D1*
X2718700Y1049728D1*
X2727465Y1049038D1*
X2736013Y1046985D1*
X2744136Y1043621D1*
X2751632Y1039027D1*
X2758317Y1033317D1*
X2764027Y1026632D1*
X2768700Y1018964D1*
X2773373Y1026632D1*
X2779083Y1033317D1*
X2785768Y1039027D1*
X2793264Y1043621D1*
X2801387Y1046985D1*
X2809935Y1049038D1*
X2818700Y1049728D1*
X2827465Y1049038D1*
X2836013Y1046985D1*
X2844136Y1043621D1*
X2851632Y1039027D1*
X2858317Y1033317D1*
X2864027Y1026632D1*
X2868700Y1018964D1*
X2873373Y1026632D1*
X2879083Y1033317D1*
X2885768Y1039027D1*
X2893264Y1043621D1*
X2901387Y1046985D1*
X2909935Y1049038D1*
X2918700Y1049728D1*
X2927465Y1049038D1*
X2936013Y1046985D1*
X2944136Y1043621D1*
X2951632Y1039027D1*
X2958317Y1033317D1*
X2964027Y1026632D1*
X2968700Y1018964D1*
X2973373Y1026632D1*
X2979083Y1033317D1*
X2985768Y1039027D1*
X2993264Y1043621D1*
X3001387Y1046985D1*
X3002594Y1047326D1*
X2867275Y1182773D1*
X2864370Y1186772D1*
X2862126Y1191176D1*
X2860598Y1195877D1*
X2859825Y1200760D1*
X2859728Y1240012D1*
X2852465Y1238362D1*
X2843700Y1237672D1*
X2837615Y1238045D1*
X2836443Y1230373D1*
X2834188Y1223433D1*
X2830876Y1216932D1*
X2826587Y1211029D1*
X2821427Y1205869D1*
X2815524Y1201580D1*
X2809023Y1198268D1*
X2802083Y1196013D1*
X2794876Y1194871D1*
X2787580D1*
X2780373Y1196013D1*
X2773433Y1198268D1*
X2766932Y1201580D1*
X2761029Y1205869D1*
X2755869Y1211029D1*
X2751580Y1216932D1*
X2748268Y1223433D1*
X2746013Y1230373D1*
X2744867Y1237679D1*
X2959740Y1240055D2*
X2952465Y1238362D1*
X2943700Y1237672D1*
X2934935Y1238362D1*
X2926387Y1240415D1*
X2922727Y1241765D1*
X2922728Y1216271D1*
X3088508Y1050498D1*
X3090232Y1049727D1*
X3123209D1*
X2967275Y1205773D1*
X2964370Y1209772D1*
X2962126Y1214176D1*
X2960598Y1218877D1*
X2959825Y1223760D1*
X2959728Y1240046D1*
X1151463Y2477830D2*
X1141488D1*
X1141452Y2425306D1*
X1146004Y2420724D1*
X1265633Y2420927D1*
X1263742Y2425494D1*
X1263068Y2427884D1*
X1261495Y2428370D1*
X1254555Y2426115D1*
X1247348Y2424973D1*
X1240052D1*
X1232845Y2426115D1*
X1225905Y2428370D1*
X1219404Y2431682D1*
X1213501Y2435971D1*
X1208341Y2441131D1*
X1204052Y2447034D1*
X1200740Y2453535D1*
X1198485Y2460475D1*
X1197343Y2467682D1*
Y2474978D1*
X1197680Y2477825D1*
X1151452Y2477866D1*
X1239382Y2609570D2*
X1412204D1*
X1412297Y2676545D1*
X1413070Y2681428D1*
X1414598Y2686129D1*
X1415638Y2688383D1*
X1393011Y2688574D1*
X1179751D1*
X1175196Y2684022D1*
X1175200Y2660867D1*
X1179331Y2662455D1*
X1186426Y2664159D1*
X1193700Y2664731D1*
X1200974Y2664159D1*
X1208069Y2662455D1*
X1214811Y2659663D1*
X1221032Y2655850D1*
X1226580Y2651111D1*
X1231319Y2645563D1*
X1235132Y2639342D1*
X1237924Y2632600D1*
X1239628Y2625505D1*
X1240200Y2618231D1*
X1239628Y2610957D1*
X1239352Y2609572D1*
X1535202Y2609570D2*
X1535948D1*
Y2517814D1*
X1576028Y2517830D1*
X1579198Y2521820D1*
X1574459Y2527368D1*
X1570646Y2533589D1*
X1567854Y2540331D1*
X1566150Y2547426D1*
X1565578Y2554700D1*
X1566150Y2561974D1*
X1567854Y2569069D1*
X1570646Y2575811D1*
X1574459Y2582032D1*
X1579198Y2587580D1*
X1584746Y2592319D1*
X1590967Y2596132D1*
X1597709Y2598924D1*
X1604804Y2600628D1*
X1612078Y2601200D1*
X1619352Y2600628D1*
X1626447Y2598924D1*
X1633189Y2596132D1*
X1639410Y2592319D1*
X1644958Y2587580D1*
X1649697Y2582032D1*
X1653510Y2575811D1*
X1656302Y2569069D1*
X1658006Y2561974D1*
X1658578Y2554700D1*
X1658006Y2547426D1*
X1656302Y2540331D1*
X1653510Y2533589D1*
X1649697Y2527368D1*
X1644958Y2521820D1*
X1643586Y2520551D1*
X1643481Y2506859D1*
X1642708Y2501976D1*
X1641180Y2497275D1*
X1638936Y2492871D1*
X1636031Y2488872D1*
X1614028Y2466732D1*
X1953586Y2466728D1*
X1952788Y2472316D1*
Y2479612D1*
X1953930Y2486819D1*
X1956185Y2493759D1*
X1959497Y2500260D1*
X1963786Y2506163D1*
X1967637Y2510113D1*
X1967742Y2643699D1*
X1968515Y2648582D1*
X1970043Y2653283D1*
X1972287Y2657687D1*
X1975192Y2661686D1*
X1976878Y2663508D1*
X1975052Y2665574D1*
X1539741D1*
X1540200Y2659074D1*
X1539628Y2651800D1*
X1537924Y2644705D1*
X1535197Y2638106D1*
X1535200Y2609590D1*
X1518186Y2241609D2*
X1425219D1*
X1425200Y1877910D1*
X1429059Y1873899D1*
X1433348Y1867996D1*
X1436660Y1861495D1*
X1438915Y1854555D1*
X1440057Y1847348D1*
Y1840052D1*
X1438915Y1832845D1*
X1436660Y1825905D1*
X1433348Y1819404D1*
X1429059Y1813501D1*
X1423899Y1808341D1*
X1417996Y1804052D1*
X1411495Y1800740D1*
X1404555Y1798485D1*
X1397348Y1797343D1*
X1390052D1*
X1382845Y1798485D1*
X1375905Y1800740D1*
X1369404Y1804052D1*
X1363501Y1808341D1*
X1358341Y1813501D1*
X1354052Y1819404D1*
X1350740Y1825905D1*
X1348485Y1832845D1*
X1347343Y1840052D1*
Y1847348D1*
X1348485Y1854555D1*
X1350740Y1861495D1*
X1354052Y1867996D1*
X1358341Y1873899D1*
X1362192Y1877849D1*
X1362200Y1948589D1*
X1358069Y1947004D1*
X1350974Y1945300D1*
X1343700Y1944728D1*
X1336426Y1945300D1*
X1329331Y1947004D1*
X1322589Y1949796D1*
X1316368Y1953609D1*
X1310820Y1958348D1*
X1306081Y1963896D1*
X1302268Y1970117D1*
X1299476Y1976859D1*
X1297772Y1983954D1*
X1297200Y1991228D1*
X1297772Y1998502D1*
X1299476Y2005597D1*
X1302268Y2012339D1*
X1306081Y2018560D1*
X1310820Y2024108D1*
X1312192Y2025377D1*
X1312200Y2092601D1*
X1265201Y2045614D1*
X1265096Y2040052D1*
X1263954Y2032845D1*
X1261699Y2025905D1*
X1258387Y2019404D1*
X1254098Y2013501D1*
X1248938Y2008341D1*
X1243035Y2004052D1*
X1236534Y2000740D1*
X1229594Y1998485D1*
X1222387Y1997343D1*
X1215091D1*
X1207884Y1998485D1*
X1200206Y2001080D1*
X1200200Y1611751D1*
X1206780Y1614452D1*
X1213875Y1616156D1*
X1221149Y1616728D1*
X1228423Y1616156D1*
X1235518Y1614452D1*
X1242260Y1611660D1*
X1248481Y1607847D1*
X1254029Y1603108D1*
X1258768Y1597560D1*
X1262581Y1591339D1*
X1265373Y1584597D1*
X1267077Y1577502D1*
X1267649Y1570228D1*
X1267077Y1562954D1*
X1265373Y1555859D1*
X1262581Y1549117D1*
X1258768Y1542896D1*
X1254029Y1537348D1*
X1252657Y1536079D1*
X1252649Y1322376D1*
X1259932Y1324060D1*
X1268700Y1324750D1*
X1277468Y1324060D1*
X1286020Y1322007D1*
X1294146Y1318641D1*
X1301645Y1314045D1*
X1308333Y1308333D1*
X1314045Y1301645D1*
X1318691Y1294037D1*
X1323355Y1301645D1*
X1329067Y1308333D1*
X1335755Y1314045D1*
X1343254Y1318641D1*
X1351380Y1322007D1*
X1359932Y1324060D1*
X1368700Y1324750D1*
X1377468Y1324060D1*
X1386020Y1322007D1*
X1394146Y1318641D1*
X1401645Y1314045D1*
X1408333Y1308333D1*
X1412651Y1303414D1*
X1412650Y1324750D1*
X1427184D1*
X1427200Y1338099D1*
X1426559Y1340867D1*
X1419352Y1339725D1*
X1412056D1*
X1404849Y1340867D1*
X1397909Y1343122D1*
X1391408Y1346434D1*
X1385505Y1350723D1*
X1380345Y1355883D1*
X1376056Y1361786D1*
X1372744Y1368287D1*
X1370489Y1375227D1*
X1369347Y1382434D1*
Y1389730D1*
X1370489Y1396937D1*
X1372744Y1403877D1*
X1374207Y1407050D1*
X1374204Y1597260D1*
X1371480Y1603859D1*
X1369776Y1610954D1*
X1369204Y1618228D1*
X1369776Y1625502D1*
X1371480Y1632597D1*
X1374272Y1639339D1*
X1378085Y1645560D1*
X1382824Y1651108D1*
X1388372Y1655847D1*
X1394593Y1659660D1*
X1401335Y1662452D1*
X1408430Y1664156D1*
X1415704Y1664728D1*
X1422978Y1664156D1*
X1430073Y1662452D1*
X1436815Y1659660D1*
X1443036Y1655847D1*
X1448584Y1651108D1*
X1453323Y1645560D1*
X1457136Y1639339D1*
X1459928Y1632597D1*
X1461632Y1625502D1*
X1462204Y1618228D1*
X1461632Y1610954D1*
X1459928Y1603859D1*
X1457201Y1597260D1*
X1457204Y1407050D1*
X1459928Y1400451D1*
X1461632Y1393356D1*
X1462019Y1390084D1*
X1475208Y1403284D1*
X1475200Y1674415D1*
X1472052Y1678932D1*
X1468740Y1685433D1*
X1466485Y1692373D1*
X1465343Y1699580D1*
Y1706876D1*
X1466485Y1714083D1*
X1468740Y1721023D1*
X1472052Y1727524D1*
X1476341Y1733427D1*
X1481501Y1738587D1*
X1487404Y1742876D1*
X1493905Y1746188D1*
X1500845Y1748443D1*
X1508052Y1749585D1*
X1515348D1*
X1518195Y1749248D1*
X1518200Y2241604D1*
X1101452Y2289730D2*
Y2334729D1*
X859892Y2334728D1*
X861538Y2327465D1*
X862228Y2318700D1*
X861538Y2309935D1*
X859485Y2301387D1*
X856121Y2293264D1*
X851527Y2285768D1*
X845817Y2279083D1*
X839132Y2273373D1*
X831636Y2268779D1*
X823513Y2265415D1*
X814965Y2263362D1*
X806200Y2262672D1*
X797435Y2263362D1*
X788887Y2265415D1*
X780764Y2268779D1*
X773268Y2273373D1*
X766583Y2279083D1*
X760873Y2285768D1*
X756279Y2293264D1*
X752915Y2301387D1*
X750862Y2309935D1*
X750172Y2318700D1*
X750862Y2327465D1*
X752555Y2334740D1*
X665328Y2334728D1*
X663932Y2329331D1*
X661140Y2322589D1*
X657327Y2316368D1*
X652588Y2310820D1*
X647040Y2306081D1*
X640819Y2302268D1*
X634077Y2299476D1*
X626982Y2297772D1*
X619708Y2297200D1*
X612434Y2297772D1*
X605339Y2299476D1*
X598597Y2302268D1*
X592376Y2306081D1*
X590214Y2307785D1*
X590208Y2218374D1*
X808931Y1999659D1*
X814965Y1999038D1*
X822703Y1997214D1*
X822700Y2062526D1*
X818841Y2066501D1*
X814552Y2072404D1*
X811240Y2078905D1*
X808985Y2085845D1*
X807843Y2093052D1*
Y2100348D1*
X808985Y2107555D1*
X811240Y2114495D1*
X814552Y2120996D1*
X818841Y2126899D1*
X824001Y2132059D1*
X829904Y2136348D1*
X836405Y2139660D1*
X843345Y2141915D1*
X850552Y2143057D1*
X857848D1*
X865055Y2141915D1*
X871995Y2139660D1*
X878496Y2136348D1*
X884399Y2132059D1*
X889559Y2126899D1*
X893848Y2120996D1*
X897160Y2114495D1*
X899415Y2107555D1*
X900557Y2100348D1*
Y2093052D1*
X899415Y2085845D1*
X897160Y2078905D1*
X893848Y2072404D1*
X889559Y2066501D1*
X885708Y2062551D1*
X885700Y1942219D1*
X892200Y1942676D1*
X899474Y1942104D1*
X906569Y1940400D1*
X913311Y1937608D1*
X919532Y1933795D1*
X925080Y1929056D1*
X929819Y1923508D1*
X933632Y1917287D1*
X936424Y1910545D1*
X938128Y1903450D1*
X938700Y1896176D1*
X938128Y1888902D1*
X936424Y1881807D1*
X933632Y1875065D1*
X929819Y1868844D1*
X925080Y1863296D1*
X923708Y1862027D1*
X923700Y1279650D1*
X928857Y1283348D1*
X935358Y1286660D1*
X942298Y1288915D1*
X949505Y1290057D1*
X954849Y1290133D1*
X951501Y1294908D1*
X948189Y1301409D1*
X945934Y1308349D1*
X944792Y1315556D1*
Y1322852D1*
X945934Y1330059D1*
X948189Y1336999D1*
X951501Y1343500D1*
X955790Y1349403D1*
X960950Y1354563D1*
X966853Y1358852D1*
X973354Y1362164D1*
X980294Y1364419D1*
X987501Y1365561D1*
X994797D1*
X1002004Y1364419D1*
X1008944Y1362164D1*
X1015445Y1358852D1*
X1021348Y1354563D1*
X1025298Y1350712D1*
X1086439Y1350607D1*
X1091322Y1349834D1*
X1096023Y1348306D1*
X1100427Y1346062D1*
X1104426Y1343157D1*
X1107921Y1339662D1*
X1110826Y1335663D1*
X1113070Y1331259D1*
X1114598Y1326558D1*
X1115371Y1321675D1*
X1115468Y1286226D1*
X1118759Y1294146D1*
X1123355Y1301645D1*
X1129067Y1308333D1*
X1135755Y1314045D1*
X1137198Y1315010D1*
X1137200Y2147468D1*
X1133341Y2151501D1*
X1129052Y2157404D1*
X1125740Y2163905D1*
X1123485Y2170845D1*
X1122343Y2178052D1*
Y2185348D1*
X1123485Y2192555D1*
X1125740Y2199495D1*
X1129052Y2205996D1*
X1133622Y2212203D1*
X1129144Y2212200D1*
X1125151Y2208341D1*
X1119248Y2204052D1*
X1112747Y2200740D1*
X1105807Y2198485D1*
X1098600Y2197343D1*
X1091304D1*
X1084097Y2198485D1*
X1077157Y2200740D1*
X1070656Y2204052D1*
X1064753Y2208341D1*
X1059593Y2213501D1*
X1055304Y2219404D1*
X1051992Y2225905D1*
X1049737Y2232845D1*
X1048595Y2240052D1*
Y2247348D1*
X1049737Y2254555D1*
X1051992Y2261495D1*
X1055304Y2267996D1*
X1059593Y2273899D1*
X1064753Y2279059D1*
X1070656Y2283348D1*
X1077157Y2286660D1*
X1084097Y2288915D1*
X1091304Y2290057D1*
X1098600D1*
X1101447Y2289720D1*
X3134717Y937672D2*
X3097756D1*
X3097728Y805426D1*
X3101587Y801407D1*
X3105876Y795504D1*
X3109188Y789003D1*
X3111443Y782063D1*
X3112585Y774856D1*
Y767560D1*
X3111443Y760353D1*
X3109188Y753413D1*
X3105876Y746912D1*
X3101587Y741009D1*
X3096427Y735849D1*
X3090524Y731560D1*
X3084023Y728248D1*
X3077083Y725993D1*
X3069876Y724851D1*
X3062580D1*
X3055373Y725993D1*
X3048433Y728248D1*
X3041932Y731560D1*
X3036029Y735849D1*
X3030869Y741009D1*
X3026580Y746912D1*
X3023268Y753413D1*
X3021013Y760353D1*
X3020275Y764146D1*
X3009404Y753446D1*
X3004771Y750080D1*
X2999667Y747480D1*
X2994220Y745710D1*
X2988563Y744814D1*
X2945186Y744701D1*
X2945200Y704700D1*
X2842200D1*
Y712200D1*
X2802303D1*
X2797724Y707648D1*
X2797728Y545639D1*
X2805621Y548180D1*
X2814304Y549555D1*
X2823096D1*
X2831779Y548180D1*
X2840141Y545463D1*
X2847974Y541471D1*
X2855087Y536304D1*
X2861304Y530087D1*
X2864992Y525189D1*
X2873373Y526632D1*
X2879083Y533317D1*
X2885768Y539027D1*
X2893264Y543621D1*
X2901387Y546985D1*
X2909935Y549038D1*
X2918700Y549728D1*
X2927465Y549038D1*
X2936013Y546985D1*
X2944136Y543621D1*
X2951632Y539027D1*
X2958317Y533317D1*
X2964027Y526632D1*
X2968700Y518964D1*
X2973373Y526632D1*
X2979083Y533317D1*
X2985768Y539027D1*
X2993264Y543621D1*
X3001387Y546985D1*
X3009935Y549038D1*
X3018700Y549728D1*
X3027465Y549038D1*
X3036013Y546985D1*
X3044136Y543621D1*
X3051632Y539027D1*
X3058317Y533317D1*
X3064027Y526632D1*
X3068700Y518964D1*
X3073373Y526632D1*
X3079083Y533317D1*
X3085768Y539027D1*
X3093264Y543621D1*
X3101387Y546985D1*
X3109935Y549038D1*
X3118700Y549728D1*
X3127465Y549038D1*
X3129167Y548699D1*
X3134728Y559601D1*
Y937641D1*
X2982199Y951201D2*
X2976096Y957313D1*
X2970929Y964426D1*
X2968621Y968264D1*
X2964027Y960768D1*
X2958317Y954083D1*
X2951632Y948373D1*
X2944136Y943779D1*
X2936013Y940415D1*
X2927465Y938362D1*
X2918700Y937672D1*
X2909935Y938362D1*
X2901387Y940415D1*
X2893264Y943779D1*
X2885768Y948373D1*
X2879083Y954083D1*
X2873373Y960768D1*
X2868700Y968436D1*
X2864027Y960768D1*
X2858317Y954083D1*
X2851632Y948373D1*
X2844136Y943779D1*
X2836013Y940415D1*
X2827465Y938362D1*
X2818700Y937672D1*
X2809935Y938362D1*
X2801387Y940415D1*
X2793264Y943779D1*
X2785768Y948373D1*
X2779083Y954083D1*
X2773373Y960768D1*
X2768700Y968436D1*
X2764027Y960768D1*
X2758317Y954083D1*
X2751275Y948134D1*
X2761005Y938754D1*
X2789455Y910145D1*
X2792821Y905511D1*
X2795422Y900408D1*
X2797192Y894961D1*
X2798088Y889304D1*
X2798200Y853032D1*
X2801348Y848500D1*
X2804660Y841999D1*
X2806915Y835059D1*
X2808057Y827852D1*
Y820556D1*
X2807720Y817709D1*
X2842225Y817701D1*
X2842200Y820201D1*
X2945200D1*
Y817725D1*
X2970600Y817701D1*
X2982194Y829314D1*
X2982200Y951172D1*
X2622941Y937839D2*
X2614304Y937845D1*
X2605621Y939220D1*
X2597259Y941937D1*
X2589426Y945929D1*
X2582313Y951096D1*
X2576096Y957313D1*
X2574724Y959054D1*
X2574728Y937672D1*
X2497756D1*
X2497728Y910610D1*
X2501587Y906639D1*
X2505876Y900736D1*
X2509188Y894235D1*
X2511443Y887295D1*
X2512585Y880088D1*
Y872792D1*
X2511443Y865585D1*
X2508979Y858192D1*
X2632026Y858204D1*
X2636032Y862063D1*
X2641935Y866352D1*
X2648436Y869664D1*
X2655376Y871919D1*
X2662583Y873061D1*
X2669879D1*
X2677086Y871919D1*
X2684026Y869664D1*
X2690527Y866352D1*
X2696430Y862063D1*
X2701590Y856903D1*
X2705879Y851000D1*
X2709191Y844499D1*
X2711446Y837559D1*
X2712588Y830352D1*
Y823056D1*
X2712251Y820209D1*
X2715343Y820556D1*
Y827852D1*
X2716485Y835059D1*
X2718740Y841999D1*
X2722052Y848500D1*
X2725202Y852958D1*
X2725200Y871320D1*
X2713587Y882934D1*
X2690096Y883052D1*
X2684439Y883948D1*
X2678992Y885718D1*
X2673889Y888319D1*
X2669255Y891685D1*
X2634672Y926109D1*
X2622924Y937857D1*
X2434740Y940055D2*
X2427465Y938362D1*
X2418700Y937672D1*
X2409935Y938362D1*
X2401387Y940415D1*
X2393264Y943779D1*
X2385768Y948373D1*
X2379083Y954083D1*
X2377274Y956038D1*
X2379452Y950541D1*
X2381156Y943446D1*
X2381728Y936172D1*
X2381156Y928898D1*
X2379452Y921803D1*
X2376660Y915061D1*
X2372847Y908840D1*
X2368108Y903292D1*
X2362560Y898553D1*
X2356339Y894740D1*
X2349597Y891948D1*
X2342502Y890244D1*
X2335228Y889672D1*
X2328733Y890152D1*
X2328728Y862777D1*
X2333280Y858200D1*
X2423467Y858204D1*
X2421013Y865585D1*
X2419871Y872792D1*
Y880088D1*
X2421013Y887295D1*
X2423268Y894235D1*
X2426580Y900736D1*
X2430869Y906639D1*
X2434720Y910589D1*
X2434728Y939991D1*
X2366586Y473210D2*
X2364220Y480621D1*
X2362845Y489304D1*
Y498096D1*
X2364220Y506779D1*
X2366937Y515141D1*
X2370929Y522974D1*
X2376096Y530087D1*
X2382313Y536304D1*
X2389426Y541471D1*
X2397259Y545463D1*
X2405621Y548180D1*
X2414304Y549555D1*
X2423096D1*
X2431779Y548180D1*
X2440141Y545463D1*
X2447974Y541471D1*
X2455087Y536304D1*
X2461304Y530087D1*
X2466471Y522974D1*
X2468779Y519136D1*
X2473373Y526632D1*
X2479083Y533317D1*
X2485768Y539027D1*
X2487211Y539992D1*
X2487297Y589262D1*
X2488070Y594145D1*
X2489598Y598846D1*
X2491842Y603250D1*
X2494747Y607249D1*
X2505180Y617819D1*
X2505200Y704728D1*
X2442200Y704700D1*
Y744711D1*
X2317329Y744701D1*
X2305735Y733088D1*
X2305616Y540836D1*
X2304720Y535179D1*
X2302950Y529732D1*
X2300349Y524629D1*
X2296983Y519995D1*
X2292933Y515945D1*
X2288299Y512579D1*
X2283196Y509978D1*
X2277749Y508208D1*
X2272092Y507312D1*
X2236179Y507200D1*
X2230087Y501096D1*
X2222974Y495929D1*
X2215141Y491937D1*
X2206779Y489220D1*
X2198096Y487845D1*
X2189304D1*
X2180621Y489220D1*
X2172259Y491937D1*
X2166000Y495047D1*
X2165987Y477764D1*
X2170539Y473196D1*
X2366584Y473200D1*
X2550189Y539992D2*
X2555087Y536304D1*
X2561304Y530087D1*
X2566471Y522974D1*
X2568779Y519136D1*
X2573373Y526632D1*
X2579083Y533317D1*
X2585768Y539027D1*
X2587211Y539992D1*
X2587297Y723171D1*
X2588070Y728054D1*
X2589598Y732755D1*
X2591842Y737159D1*
X2594747Y741158D1*
X2596433Y742980D1*
X2592650Y744701D1*
X2568213D1*
X2568103Y602320D1*
X2567330Y597437D1*
X2565802Y592736D1*
X2563558Y588332D1*
X2560653Y584333D1*
X2550220Y573763D1*
X2550200Y540034D1*
X2650189Y539992D2*
X2655087Y536304D1*
X2661304Y530087D1*
X2666471Y522974D1*
X2668779Y519136D1*
X2673373Y526632D1*
X2679083Y533317D1*
X2685768Y539027D1*
X2693264Y543621D1*
X2701387Y546985D1*
X2709935Y549038D1*
X2718700Y549728D1*
X2727465Y549038D1*
X2729167Y548699D1*
X2734728Y559601D1*
Y704680D1*
X2650215Y704700D1*
X2650200Y540023D1*
X3068700Y468436D2*
X3064027Y460768D1*
X3058317Y454083D1*
X3051632Y448373D1*
X3044136Y443779D1*
X3036013Y440415D1*
X3027465Y438362D1*
X3018700Y437672D1*
X3009935Y438362D1*
X3008233Y438701D1*
X3001771Y432223D1*
X3177149Y432200D1*
X3165275Y444242D1*
X3162370Y448241D1*
X3160126Y452645D1*
X3159267Y454975D1*
X3151632Y448373D1*
X3144136Y443779D1*
X3136013Y440415D1*
X3127465Y438362D1*
X3118700Y437672D1*
X3109935Y438362D1*
X3101387Y440415D1*
X3093264Y443779D1*
X3085768Y448373D1*
X3079083Y454083D1*
X3073373Y460768D1*
X3068700Y468436D1*
X3349728Y2009716D2*
Y1996367D1*
X3478785Y1867124D1*
X3482649Y1862410D1*
X3483986Y1867979D1*
X3486178Y1873271D1*
X3489171Y1878154D1*
X3492899Y1882517D1*
X3538538Y1928157D1*
X3539485Y1933555D1*
X3541740Y1940495D1*
X3545052Y1946996D1*
X3549341Y1952899D1*
X3554501Y1958059D1*
X3560404Y1962348D1*
X3566905Y1965660D1*
X3573845Y1967915D1*
X3581835Y1969087D1*
X3572710Y1977922D1*
X3540917Y2009715D1*
X3349735Y2009728D1*
X3258977Y1937672D2*
X3237673D1*
Y2009763D1*
X3206270Y2009728D1*
X3201724Y2005176D1*
X3201728Y1879679D1*
X3206880Y1883348D1*
X3213381Y1886660D1*
X3220321Y1888915D1*
X3227528Y1890057D1*
X3234824D1*
X3237813Y1889703D1*
X3237845Y1898096D1*
X3239220Y1906779D1*
X3241937Y1915141D1*
X3245929Y1922974D1*
X3251096Y1930087D1*
X3257313Y1936304D1*
X3259054Y1937676D1*
X3348156Y1880538D2*
X3345463Y1872259D1*
X3341471Y1864426D1*
X3336304Y1857313D1*
X3330087Y1851096D1*
X3322974Y1845929D1*
X3319136Y1843621D1*
X3326632Y1839027D1*
X3333317Y1833317D1*
X3339027Y1826632D1*
X3343621Y1819136D1*
X3346985Y1811013D1*
X3349038Y1802465D1*
X3349728Y1793700D1*
X3349038Y1784935D1*
X3346985Y1776387D1*
X3343621Y1768264D1*
X3339027Y1760768D1*
X3333317Y1754083D1*
X3326632Y1748373D1*
X3318964Y1743700D1*
X3326632Y1739027D1*
X3333317Y1733317D1*
X3339027Y1726632D1*
X3343621Y1719136D1*
X3346985Y1711013D1*
X3349038Y1702465D1*
X3349728Y1693700D1*
X3349561Y1689459D1*
X3396983Y1641877D1*
X3400350Y1637243D1*
X3402950Y1632140D1*
X3404720Y1626693D1*
X3405616Y1621025D1*
X3405728Y1657986D1*
Y1823017D1*
X3348181Y1880529D1*
X3241765Y1572727D2*
X3239220Y1580621D1*
X3237845Y1589304D1*
X3237839Y1597941D1*
X3203414Y1632528D1*
X3201728Y1632401D1*
Y1577247D1*
X3206280Y1572724D1*
X3241779Y1572728D1*
X3800297Y1238106D2*
X3793700Y1237672D1*
X3784935Y1238362D1*
X3776387Y1240415D1*
X3768264Y1243779D1*
X3760768Y1248373D1*
X3754083Y1254083D1*
X3748373Y1260768D1*
X3743779Y1268264D1*
X3740415Y1276387D1*
X3738362Y1284935D1*
X3737731Y1292206D1*
X3702964Y1292199D1*
X3704950Y1288178D1*
X3706720Y1282731D1*
X3707616Y1277074D1*
X3707728Y1228278D1*
Y1185899D1*
X3727995Y1205983D1*
X3732629Y1209349D1*
X3737732Y1211950D1*
X3743179Y1213720D1*
X3748836Y1214616D1*
X3797632Y1214728D1*
X3811232D1*
X3806580Y1221061D1*
X3803268Y1227562D1*
X3801013Y1234502D1*
X3800303Y1238069D1*
X3747408Y1425189D2*
X3751096Y1430087D1*
X3757313Y1436304D1*
X3764426Y1441471D1*
X3768264Y1443779D1*
X3760768Y1448373D1*
X3754083Y1454083D1*
X3748373Y1460768D1*
X3747408Y1462211D1*
X3745200Y1458453D1*
Y1425189D1*
X3747358Y1425200D1*
X3747408Y1525189D2*
X3751096Y1530087D1*
X3757313Y1536304D1*
X3764426Y1541471D1*
X3768264Y1543779D1*
X3760768Y1548373D1*
X3754083Y1554083D1*
X3748373Y1560768D1*
X3747408Y1562211D1*
X3745200Y1555894D1*
Y1542199D1*
X3650717D1*
X3650739Y1532719D1*
X3745200Y1532700D1*
Y1525200D1*
X3760754Y1639017D2*
X3768436Y1643700D1*
X3760768Y1648373D1*
X3754083Y1654083D1*
X3748373Y1660768D1*
X3743779Y1668264D1*
X3740415Y1676387D1*
X3738362Y1684935D1*
X3737672Y1693700D1*
X3738362Y1702465D1*
X3740415Y1711013D1*
X3743779Y1719136D1*
X3748373Y1726632D1*
X3754083Y1733317D1*
X3760768Y1739027D1*
X3762211Y1739992D1*
X3760768Y1748373D1*
X3754083Y1754083D1*
X3748373Y1760768D1*
X3743779Y1768264D1*
X3740415Y1776387D1*
X3738362Y1784935D1*
X3737695Y1793133D1*
X3654215Y1709667D1*
X3654200Y1675441D1*
X3658059Y1671427D1*
X3662348Y1665524D1*
X3665660Y1659023D1*
X3666149Y1657698D1*
X3745200Y1657700D1*
Y1649052D1*
X3751001Y1646767D1*
X3755215Y1644184D1*
X3758974Y1640974D1*
X3760659Y1639150D1*
X3738701Y1883233D2*
X3737845Y1889304D1*
Y1898096D1*
X3739220Y1906779D1*
X3741937Y1915141D1*
X3745929Y1922974D1*
X3751096Y1930087D1*
X3757313Y1936304D1*
X3764426Y1941471D1*
X3768264Y1943779D1*
X3760768Y1948373D1*
X3754083Y1954083D1*
X3748373Y1960768D1*
X3747408Y1962211D1*
X3609210Y1962200D1*
X3614899Y1958059D1*
X3620059Y1952899D1*
X3624348Y1946996D1*
X3627660Y1940495D1*
X3629915Y1933555D1*
X3631057Y1926348D1*
Y1919052D1*
X3629915Y1911845D1*
X3627660Y1904905D1*
X3624348Y1898404D1*
X3620059Y1892501D1*
X3614899Y1887341D1*
X3608996Y1883052D1*
X3602495Y1879740D1*
X3595555Y1877485D1*
X3594086Y1877193D1*
X3598560Y1874319D1*
X3604108Y1869580D1*
X3608847Y1864032D1*
X3612660Y1857811D1*
X3615452Y1851069D1*
X3617156Y1843974D1*
X3617728Y1836700D1*
X3617156Y1829426D1*
X3615452Y1822331D1*
X3612660Y1815589D1*
X3608847Y1809368D1*
X3607726Y1807946D1*
X3607728Y1752265D1*
X3738638Y1883186D1*
X4921200Y1049728D2*
X4973669D1*
X4979544Y1054085D1*
X4985347Y1057041D1*
X4991540Y1059053D1*
X4997972Y1060072D1*
X5037973Y1060200D1*
X5131093D1*
X5135768Y1064027D1*
X5143264Y1068621D1*
X5151387Y1071985D1*
X5159935Y1074038D1*
X5168700Y1074728D1*
X5177465Y1074038D1*
X5186013Y1071985D1*
X5194136Y1068621D1*
X5201632Y1064027D1*
X5208317Y1058317D1*
X5214027Y1051632D1*
X5218621Y1044136D1*
X5221985Y1036013D1*
X5224038Y1027465D1*
X5224728Y1018700D1*
X5224038Y1009935D1*
X5221985Y1001387D1*
X5218621Y993264D1*
X5214027Y985768D1*
X5208317Y979083D1*
X5201632Y973373D1*
X5194136Y968779D1*
X5186013Y965415D1*
X5177465Y963362D1*
X5168700Y962672D1*
X5159935Y963362D1*
X5151387Y965415D1*
X5143264Y968779D1*
X5135768Y973373D1*
X5131114Y977204D1*
X5018453Y977200D1*
X5003180Y962143D1*
X4997912Y958315D1*
X4992109Y955359D1*
X4985916Y953347D1*
X4979484Y952328D1*
X4976215Y952200D1*
X4974728Y948678D1*
Y937672D1*
X4862672D1*
Y958952D1*
X4858317Y954083D1*
X4855201Y951201D1*
X4855088Y874338D1*
X4854192Y868681D1*
X4852422Y863234D1*
X4849822Y858131D1*
X4846455Y853497D1*
X4813325Y820208D1*
X4845200Y820201D1*
Y817725D1*
X4964554Y817589D1*
X4970211Y816693D1*
X4975659Y814923D1*
X4980762Y812323D1*
X4985396Y808956D1*
X4995899Y798612D1*
X5116365Y798633D1*
X5114220Y805621D1*
X5112845Y814304D1*
Y823096D1*
X5114220Y831779D1*
X5116937Y840141D1*
X5120929Y847974D1*
X5126096Y855087D1*
X5132313Y861304D1*
X5139426Y866471D1*
X5147259Y870463D1*
X5155621Y873180D1*
X5164304Y874555D1*
X5173096D1*
X5181779Y873180D1*
X5190141Y870463D1*
X5197974Y866471D1*
X5205087Y861304D1*
X5211304Y855087D1*
X5216471Y847974D1*
X5220463Y840141D1*
X5223180Y831779D1*
X5224555Y823096D1*
Y814304D1*
X5223726Y808368D1*
X5229555Y807348D1*
X5234715Y805750D1*
X5234728Y1244982D1*
X5227465Y1243362D1*
X5218700Y1242672D1*
X5209935Y1243362D1*
X5201387Y1245415D1*
X5193264Y1248779D1*
X5185768Y1253373D1*
X5179083Y1259083D1*
X5173373Y1265768D1*
X5168779Y1273264D1*
X5165415Y1281387D1*
X5163362Y1289935D1*
X5162672Y1298700D1*
X5163362Y1307465D1*
X5163701Y1309167D1*
X4880191Y1592662D1*
X4880200Y1512281D1*
X4886700Y1512751D1*
X4893974Y1512179D1*
X4901069Y1510475D1*
X4907811Y1507683D1*
X4914032Y1503870D1*
X4919580Y1499131D1*
X4924319Y1493583D1*
X4928132Y1487362D1*
X4930924Y1480620D1*
X4932628Y1473525D1*
X4933200Y1466251D1*
X4932628Y1458977D1*
X4930924Y1451882D1*
X4928132Y1445140D1*
X4924319Y1438919D1*
X4923198Y1437497D1*
X4923088Y1058836D1*
X4922192Y1053179D1*
X4921410Y1050410D1*
X4782199Y951201D2*
X4776096Y957313D1*
X4770929Y964426D1*
X4768621Y968264D1*
X4764027Y960768D1*
X4758317Y954083D1*
X4751632Y948373D1*
X4744136Y943779D1*
X4736013Y940415D1*
X4727465Y938362D1*
X4718700Y937672D1*
X4709935Y938362D1*
X4701387Y940415D1*
X4693264Y943779D1*
X4685768Y948373D1*
X4679083Y954083D1*
X4673373Y960768D1*
X4668700Y968436D1*
X4664027Y960768D1*
X4658317Y954083D1*
X4651632Y948373D1*
X4644136Y943779D1*
X4636013Y940415D1*
X4627465Y938362D1*
X4618700Y937672D1*
X4609935Y938362D1*
X4601387Y940415D1*
X4593264Y943779D1*
X4585768Y948373D1*
X4579083Y954083D1*
X4573373Y960768D1*
X4568700Y968436D1*
X4564027Y960768D1*
X4558317Y954083D1*
X4551632Y948373D1*
X4544136Y943779D1*
X4536013Y940415D1*
X4527465Y938362D1*
X4518700Y937672D1*
X4509935Y938362D1*
X4501387Y940415D1*
X4493264Y943779D1*
X4485768Y948373D1*
X4479083Y954083D1*
X4473373Y960768D1*
X4468700Y968436D1*
X4464027Y960768D1*
X4458317Y954083D1*
X4451632Y948373D1*
X4444136Y943779D1*
X4436013Y940415D1*
X4427465Y938362D1*
X4418700Y937672D1*
X4409935Y938362D1*
X4401387Y940415D1*
X4393264Y943779D1*
X4385768Y948373D1*
X4379083Y954083D1*
X4374724Y959054D1*
X4374728Y937672D1*
X4321368D1*
X4288124Y904615D1*
X4282856Y900787D1*
X4277053Y897831D1*
X4270860Y895819D1*
X4264428Y894800D1*
X4224427Y894672D1*
X4072972Y894800D1*
X4066540Y895818D1*
X4060347Y897831D1*
X4054544Y900787D1*
X4049276Y904615D1*
X4018692Y935017D1*
X3988124Y904615D1*
X3982856Y900787D1*
X3977053Y897831D1*
X3970860Y895819D1*
X3964428Y894800D1*
X3924427Y894672D1*
X3472972Y894800D1*
X3466540Y895819D1*
X3460347Y897831D1*
X3454544Y900787D1*
X3449276Y904615D1*
X3420900Y932810D1*
X3416054Y937656D1*
X3362672Y937672D1*
Y958952D1*
X3358317Y954083D1*
X3351632Y948373D1*
X3344136Y943779D1*
X3336013Y940415D1*
X3327465Y938362D1*
X3318700Y937672D1*
X3312410Y938069D1*
X3312676Y933204D1*
X3312104Y925930D1*
X3310400Y918835D1*
X3307608Y912093D1*
X3303795Y905872D1*
X3302674Y904450D1*
X3302676Y829319D1*
X3314289Y817710D1*
X3392226Y817701D1*
X3392200Y820201D1*
X3495200D1*
Y817725D1*
X3592233Y817701D1*
X3592200Y820201D1*
X3695200D1*
Y817725D1*
X3792233Y817701D1*
X3792200Y820201D1*
X3895200D1*
Y817725D1*
X4342174Y817701D1*
X4342200Y820201D1*
X4445200D1*
Y817725D1*
X4542225Y817701D1*
X4542200Y820201D1*
X4645200D1*
Y818299D1*
X4659023Y831957D1*
X4663657Y835323D1*
X4668760Y837924D1*
X4674207Y839694D1*
X4679864Y840590D1*
X4730562Y840702D1*
X4782184Y892305D1*
X4782200Y951159D1*
X4768700Y1018964D2*
X4773373Y1026632D1*
X4779083Y1033317D1*
X4785768Y1039027D1*
X4793264Y1043621D1*
X4801387Y1046985D1*
X4809935Y1049038D1*
X4818700Y1049728D1*
X4822941Y1049561D1*
X4850210Y1076829D1*
X4850200Y1086209D1*
X4843700Y1085735D1*
X4836426Y1086307D1*
X4829331Y1088011D1*
X4822589Y1090803D1*
X4816368Y1094616D1*
X4810820Y1099355D1*
X4806081Y1104903D1*
X4802721Y1110316D1*
X4799319Y1104899D1*
X4794580Y1099351D1*
X4789032Y1094612D1*
X4782811Y1090799D1*
X4776069Y1088007D1*
X4768974Y1086303D1*
X4761700Y1085731D1*
X4755205Y1086211D1*
X4755200Y1036237D1*
X4761304Y1030087D1*
X4766471Y1022974D1*
X4768700Y1018964D1*
X4568700D2*
X4573373Y1026632D1*
X4579083Y1033317D1*
X4585768Y1039027D1*
X4593264Y1043621D1*
X4594622Y1044247D1*
X4634732Y1084351D1*
X4634728Y1245025D1*
X4627465Y1243362D1*
X4618700Y1242672D1*
X4609935Y1243362D1*
X4601387Y1245415D1*
X4593264Y1248779D1*
X4585768Y1253373D1*
X4581114Y1257204D1*
X4556687Y1257200D1*
X4555200Y1256830D1*
Y1036178D1*
X4561304Y1030087D1*
X4566471Y1022974D1*
X4568700Y1018964D1*
X4468700D2*
X4473373Y1026632D1*
X4479083Y1033317D1*
X4482199Y1036199D1*
X4482200Y1381500D1*
X4476069Y1379027D1*
X4468974Y1377323D1*
X4461700Y1376751D1*
X4455205Y1377231D1*
X4455200Y1036240D1*
X4461304Y1030087D1*
X4466471Y1022974D1*
X4468700Y1018964D1*
X4374724Y1028346D2*
X4379083Y1033317D1*
X4382199Y1036199D1*
X4382200Y1267389D1*
X4378045Y1260755D1*
X4374189Y1256074D1*
X4374072Y1153893D1*
X4373053Y1147461D1*
X4371041Y1141268D1*
X4368085Y1135465D1*
X4364257Y1130197D1*
X4360193Y1125952D1*
X4360200Y1049742D1*
X4374728Y1049728D1*
Y1028448D1*
X4271859Y1049728D2*
X4277206D1*
X4277328Y1146405D1*
X4278347Y1152837D1*
X4280359Y1159030D1*
X4283315Y1164833D1*
X4287143Y1170101D1*
X4289364Y1172503D1*
X4291200Y1175522D1*
Y1256010D1*
X4287355Y1260755D1*
X4282759Y1268254D1*
X4279393Y1276380D1*
X4277340Y1284932D1*
X4277152Y1286520D1*
X4218318Y1227699D1*
X4225974Y1227132D1*
X4233069Y1225428D1*
X4239811Y1222636D1*
X4246032Y1218823D1*
X4251580Y1214084D1*
X4256319Y1208536D1*
X4260132Y1202315D1*
X4262924Y1195573D1*
X4264628Y1188478D1*
X4265200Y1181204D1*
X4264628Y1173930D1*
X4262924Y1166835D1*
X4260197Y1160236D1*
X4260200Y1031316D1*
X4262676Y1028346D1*
X4262672Y1049728D1*
X4271859D1*
X4165055Y977660D2*
X4163362Y984935D1*
X4162672Y993700D1*
X4163362Y1002465D1*
X4165415Y1011013D1*
X4168779Y1019136D1*
X4173373Y1026632D1*
X4177204Y1031286D1*
X4177200Y1160239D1*
X4174476Y1166835D1*
X4172772Y1173930D1*
X4172215Y1181589D1*
X4040345Y1049727D1*
X4074728Y1049728D1*
Y996368D1*
X4093439Y977651D1*
X4165041Y977672D1*
X4268700Y468436D2*
X4264027Y460768D1*
X4258317Y454083D1*
X4251632Y448373D1*
X4244136Y443779D1*
X4236013Y440415D1*
X4227465Y438362D1*
X4218700Y437672D1*
X4209935Y438362D1*
X4201387Y440415D1*
X4193264Y443779D1*
X4185768Y448373D1*
X4179083Y454083D1*
X4173373Y460768D1*
X4168779Y468264D1*
X4165415Y476387D1*
X4163362Y484935D1*
X4162672Y493700D1*
X4163362Y502465D1*
X4165415Y511013D1*
X4168779Y519136D1*
X4173373Y526632D1*
X4179083Y533317D1*
X4185768Y539027D1*
X4193264Y543621D1*
X4201387Y546985D1*
X4209935Y549038D1*
X4218700Y549728D1*
X4227465Y549038D1*
X4236013Y546985D1*
X4244136Y543621D1*
X4251632Y539027D1*
X4258317Y533317D1*
X4264027Y526632D1*
X4268700Y518964D1*
X4273373Y526632D1*
X4279083Y533317D1*
X4285768Y539027D1*
X4287211Y539992D1*
X4287297Y723171D1*
X4288070Y728054D1*
X4289598Y732755D1*
X4291842Y737159D1*
X4294747Y741158D1*
X4296433Y742980D1*
X4292650Y744701D1*
X3895200D1*
Y704700D1*
X3792200D1*
Y712200D1*
X3744121D1*
X3650187Y618230D1*
X3650200Y540038D1*
X3655087Y536304D1*
X3661304Y530087D1*
X3666471Y522974D1*
X3668779Y519136D1*
X3673373Y526632D1*
X3679083Y533317D1*
X3685768Y539027D1*
X3693264Y543621D1*
X3701387Y546985D1*
X3709935Y549038D1*
X3718700Y549728D1*
X3727465Y549038D1*
X3736013Y546985D1*
X3744136Y543621D1*
X3751632Y539027D1*
X3758317Y533317D1*
X3764027Y526632D1*
X3768700Y518964D1*
X3773373Y526632D1*
X3779083Y533317D1*
X3785768Y539027D1*
X3793264Y543621D1*
X3801387Y546985D1*
X3809935Y549038D1*
X3818700Y549728D1*
X3827465Y549038D1*
X3836013Y546985D1*
X3844136Y543621D1*
X3851632Y539027D1*
X3858317Y533317D1*
X3864027Y526632D1*
X3868700Y518964D1*
X3873373Y526632D1*
X3879083Y533317D1*
X3885768Y539027D1*
X3893264Y543621D1*
X3901387Y546985D1*
X3909935Y549038D1*
X3918700Y549728D1*
X3927465Y549038D1*
X3936013Y546985D1*
X3944136Y543621D1*
X3951632Y539027D1*
X3958317Y533317D1*
X3964027Y526632D1*
X3968700Y518964D1*
X3973373Y526632D1*
X3979083Y533317D1*
X3985768Y539027D1*
X3993264Y543621D1*
X4001387Y546985D1*
X4009935Y549038D1*
X4018700Y549728D1*
X4027465Y549038D1*
X4036013Y546985D1*
X4044136Y543621D1*
X4051632Y539027D1*
X4058317Y533317D1*
X4064027Y526632D1*
X4068621Y519136D1*
X4071985Y511013D1*
X4074038Y502465D1*
X4074728Y493700D1*
X4074038Y484935D1*
X4071985Y476387D1*
X4068621Y468264D1*
X4064027Y460768D1*
X4058317Y454083D1*
X4051632Y448373D1*
X4044136Y443779D1*
X4036013Y440415D1*
X4027465Y438362D1*
X4018700Y437672D1*
X4009935Y438362D1*
X4001387Y440415D1*
X3993264Y443779D1*
X3985768Y448373D1*
X3979083Y454083D1*
X3973373Y460768D1*
X3968700Y468436D1*
X3964027Y460768D1*
X3958317Y454083D1*
X3951632Y448373D1*
X3944136Y443779D1*
X3936013Y440415D1*
X3927465Y438362D1*
X3918700Y437672D1*
X3909935Y438362D1*
X3908233Y438701D1*
X3901771Y432223D1*
X5231303Y432200D1*
X5227065Y436788D1*
X5222805Y442192D1*
X5218982Y447913D1*
X5215620Y453916D1*
X5212739Y460165D1*
X5210358Y466620D1*
X5208490Y473243D1*
X5207148Y479991D1*
X5206339Y486825D1*
X5206069Y493700D1*
X5206339Y500575D1*
X5207148Y507409D1*
X5208490Y514157D1*
X5210358Y520780D1*
X5212739Y527235D1*
X5215620Y533484D1*
X5218982Y539487D1*
X5222805Y545208D1*
X5227065Y550612D1*
X5231735Y555665D1*
X5236788Y560335D1*
X5242192Y564595D1*
X5247913Y568418D1*
X5253916Y571780D1*
X5260165Y574661D1*
X5266620Y577042D1*
X5273243Y578910D1*
X5279991Y580252D1*
X5286825Y581061D1*
X5293700Y581331D1*
X5300575Y581061D1*
X5307409Y580252D1*
X5314157Y578910D1*
X5320780Y577042D1*
X5327235Y574661D1*
X5333484Y571780D1*
X5339487Y568418D1*
X5345208Y564595D1*
X5350612Y560335D1*
X5355211Y556084D1*
X5355200Y2731252D1*
X5350612Y2727065D1*
X5345208Y2722805D1*
X5339487Y2718982D1*
X5333484Y2715620D1*
X5327235Y2712739D1*
X5320780Y2710358D1*
X5314157Y2708490D1*
X5307409Y2707148D1*
X5300575Y2706339D1*
X5293700Y2706069D1*
X5286825Y2706339D1*
X5279991Y2707148D1*
X5273243Y2708490D1*
X5266620Y2710358D1*
X5260165Y2712739D1*
X5253916Y2715620D1*
X5247913Y2718982D1*
X5242192Y2722805D1*
X5236788Y2727065D1*
X5231735Y2731735D1*
X5227065Y2736788D1*
X5222805Y2742192D1*
X5218982Y2747913D1*
X5215620Y2753916D1*
X5212739Y2760165D1*
X5210358Y2766620D1*
X5208490Y2773243D1*
X5207148Y2779991D1*
X5206339Y2786825D1*
X5206069Y2793700D1*
X5206339Y2800575D1*
X5207148Y2807409D1*
X5208490Y2814157D1*
X5210358Y2820780D1*
X5212739Y2827235D1*
X5215620Y2833484D1*
X5218982Y2839487D1*
X5222805Y2845208D1*
X5227065Y2850612D1*
X5231316Y2855211D1*
X556097Y2855200D1*
X560335Y2850612D1*
X564595Y2845208D1*
X568418Y2839487D1*
X571780Y2833484D1*
X574661Y2827235D1*
X577042Y2820780D1*
X578910Y2814157D1*
X580252Y2807409D1*
X581061Y2800575D1*
X581331Y2793700D1*
X581061Y2786825D1*
X580252Y2779991D1*
X578910Y2773243D1*
X577042Y2766620D1*
X574661Y2760165D1*
X571780Y2753916D1*
X568418Y2747913D1*
X564595Y2742192D1*
X560335Y2736788D1*
X555665Y2731735D1*
X550612Y2727065D1*
X545208Y2722805D1*
X539487Y2718982D1*
X533484Y2715620D1*
X527235Y2712739D1*
X520780Y2710358D1*
X514157Y2708490D1*
X507409Y2707148D1*
X500575Y2706339D1*
X493700Y2706069D1*
X486825Y2706339D1*
X479991Y2707148D1*
X473243Y2708490D1*
X466620Y2710358D1*
X460165Y2712739D1*
X453916Y2715620D1*
X447913Y2718982D1*
X442192Y2722805D1*
X436788Y2727065D1*
X432189Y2731316D1*
X432200Y556148D1*
X436788Y560335D1*
X442192Y564595D1*
X447913Y568418D1*
X453916Y571780D1*
X460165Y574661D1*
X466620Y577042D1*
X473243Y578910D1*
X479991Y580252D1*
X486825Y581061D1*
X493700Y581331D1*
X500575Y581061D1*
X507409Y580252D1*
X514157Y578910D1*
X520780Y577042D1*
X527235Y574661D1*
X533484Y571780D1*
X539487Y568418D1*
X545208Y564595D1*
X550612Y560335D1*
X555665Y555665D1*
X560335Y550612D1*
X564595Y545208D1*
X568418Y539487D1*
X571780Y533484D1*
X574661Y527235D1*
X577042Y520780D1*
X578910Y514157D1*
X580252Y507409D1*
X581061Y500575D1*
X581331Y493700D1*
X581061Y486825D1*
X580252Y479991D1*
X578910Y473243D1*
X577042Y466620D1*
X574661Y460165D1*
X571780Y453916D1*
X568418Y447913D1*
X564595Y442192D1*
X560335Y436788D1*
X556084Y432189D1*
X2122441Y432200D1*
X2110534Y444242D1*
X2107629Y448241D1*
X2105385Y452645D1*
X2103857Y457346D1*
X2103084Y462229D1*
X2102987Y529004D1*
X2103084Y570699D1*
X2103857Y575582D1*
X2105385Y580283D1*
X2107629Y584687D1*
X2110534Y588686D1*
X2133909Y612198D1*
X2101514Y612200D1*
X1957512Y468314D1*
X1953513Y465409D1*
X1949109Y463165D1*
X1944408Y461637D1*
X1939525Y460864D1*
X1872750Y460767D1*
X676170Y460864D1*
X671287Y461637D1*
X666586Y463165D1*
X662182Y465409D1*
X658183Y468314D1*
X633364Y492996D1*
X630154Y496755D1*
X627571Y500969D1*
X625680Y505536D1*
X624526Y510342D1*
X624138Y515280D1*
Y974408D1*
X491755Y1106923D1*
X488850Y1110922D1*
X486606Y1115326D1*
X485078Y1120027D1*
X484305Y1124910D1*
X484208Y1191685D1*
X484305Y2542435D1*
X485078Y2547318D1*
X486606Y2552019D1*
X488850Y2556423D1*
X491755Y2560422D1*
X538904Y2607708D1*
X751360Y2820027D1*
X755359Y2822932D1*
X759763Y2825176D1*
X764464Y2826704D1*
X769347Y2827477D1*
X836122Y2827574D1*
X1332365D1*
X1336868Y2831319D1*
X1343089Y2835132D1*
X1349831Y2837924D1*
X1356926Y2839628D1*
X1364200Y2840200D1*
X1371474Y2839628D1*
X1378569Y2837924D1*
X1385311Y2835132D1*
X1391532Y2831319D1*
X1397080Y2826580D1*
X1401819Y2821032D1*
X1405632Y2814811D1*
X1408424Y2808069D1*
X1410128Y2800974D1*
X1410700Y2793700D1*
X1410128Y2786426D1*
X1408424Y2779331D1*
X1405632Y2772589D1*
X1401819Y2766368D1*
X1397080Y2760820D1*
X1391532Y2756081D1*
X1385311Y2752268D1*
X1383795Y2751570D1*
X3095009Y2751574D1*
X3099032Y2755433D1*
X3104935Y2759722D1*
X3111436Y2763034D1*
X3118060Y2765200D1*
X3097191Y2765204D1*
X3090604Y2762480D1*
X3083509Y2760776D1*
X3076235Y2760204D1*
X3068961Y2760776D1*
X3061866Y2762480D1*
X3055124Y2765272D1*
X3048903Y2769085D1*
X3043355Y2773824D1*
X3038616Y2779372D1*
X3034803Y2785593D1*
X3032011Y2792335D1*
X3030307Y2799430D1*
X3029735Y2806704D1*
X3030307Y2813978D1*
X3032011Y2821073D1*
X3034803Y2827815D1*
X3038616Y2834036D1*
X3043355Y2839584D1*
X3048903Y2844323D1*
X3055124Y2848136D1*
X3061866Y2850928D1*
X3068961Y2852632D1*
X3076235Y2853204D1*
X3083509Y2852632D1*
X3090604Y2850928D1*
X3097203Y2848201D1*
X4905960Y2848076D1*
X4912392Y2847057D1*
X4918585Y2845045D1*
X4924388Y2842089D1*
X4929656Y2838261D1*
X4958032Y2810066D1*
X4977261Y2790656D1*
X4981089Y2785388D1*
X4984045Y2779585D1*
X4986057Y2773392D1*
X4987076Y2766960D1*
X4987204Y2726959D1*
Y2621854D1*
X5073257Y2535652D1*
X5077085Y2530384D1*
X5080041Y2524581D1*
X5082053Y2518388D1*
X5083072Y2511956D1*
X5083200Y2471955D1*
Y2163099D1*
X5091580Y2164529D1*
X5098876D1*
X5106083Y2163387D1*
X5113023Y2161132D1*
X5116196Y2159669D1*
X5158492Y2159672D1*
X5177184Y2178346D1*
X5177200Y2181088D1*
X5173373Y2185768D1*
X5168779Y2193264D1*
X5165415Y2201387D1*
X5163362Y2209935D1*
X5162672Y2218700D1*
X5163362Y2227465D1*
X5165415Y2236013D1*
X5168779Y2244136D1*
X5173373Y2251632D1*
X5179083Y2258317D1*
X5185768Y2264027D1*
X5193264Y2268621D1*
X5201387Y2271985D1*
X5209935Y2274038D1*
X5218700Y2274728D1*
X5227465Y2274038D1*
X5234740Y2272345D1*
X5234728Y2417031D1*
X5038240Y2613545D1*
X5032845Y2614489D1*
X5025905Y2616744D1*
X5019404Y2620056D1*
X5013501Y2624345D1*
X5008341Y2629505D1*
X5004052Y2635408D1*
X5000740Y2641909D1*
X4998485Y2648849D1*
X4997343Y2656056D1*
Y2663352D1*
X4998485Y2670559D1*
X5000740Y2677499D1*
X5004052Y2684000D1*
X5008341Y2689903D1*
X5013501Y2695063D1*
X5019404Y2699352D1*
X5025905Y2702664D1*
X5032845Y2704919D1*
X5040052Y2706061D1*
X5047348D1*
X5054555Y2704919D1*
X5061495Y2702664D1*
X5067996Y2699352D1*
X5073899Y2695063D1*
X5079059Y2689903D1*
X5083348Y2684000D1*
X5086660Y2677499D1*
X5088915Y2670559D1*
X5089840Y2665179D1*
X5298983Y2455881D1*
X5302349Y2451247D1*
X5304950Y2446144D1*
X5306720Y2440697D1*
X5307616Y2435040D1*
X5307728Y2386244D1*
X5307616Y738340D1*
X5306720Y732683D1*
X5304950Y727236D1*
X5302349Y722133D1*
X5298983Y717499D1*
X5264037Y682395D1*
X5259682Y678675D1*
X5254799Y675682D1*
X5249507Y673490D1*
X5243938Y672153D1*
X5238217Y671704D1*
X4880499D1*
X4875996Y668556D1*
X4869495Y665244D1*
X4862555Y662989D1*
X4855348Y661847D1*
X4848052D1*
X4840845Y662989D1*
X4833905Y665244D1*
X4827404Y668556D1*
X4821501Y672845D1*
X4816341Y678005D1*
X4812052Y683908D1*
X4808740Y690409D1*
X4806485Y697349D1*
X4805337Y704712D1*
X4742200Y704700D1*
Y712200D1*
X4672734D1*
X4668196Y707648D1*
X4668103Y609229D1*
X4667330Y604346D1*
X4665802Y599645D1*
X4663558Y595241D1*
X4660653Y591242D1*
X4619264Y549716D1*
X4627465Y549038D1*
X4636013Y546985D1*
X4644136Y543621D1*
X4651632Y539027D1*
X4658317Y533317D1*
X4664027Y526632D1*
X4664992Y525189D1*
X4673373Y526632D1*
X4679083Y533317D1*
X4685768Y539027D1*
X4693264Y543621D1*
X4701387Y546985D1*
X4709935Y549038D1*
X4718700Y549728D1*
X4727465Y549038D1*
X4736013Y546985D1*
X4744136Y543621D1*
X4751632Y539027D1*
X4758317Y533317D1*
X4764027Y526632D1*
X4768700Y518964D1*
X4773373Y526632D1*
X4779083Y533317D1*
X4785768Y539027D1*
X4793264Y543621D1*
X4801387Y546985D1*
X4809935Y549038D1*
X4818700Y549728D1*
X4827465Y549038D1*
X4836013Y546985D1*
X4844136Y543621D1*
X4851632Y539027D1*
X4858317Y533317D1*
X4864027Y526632D1*
X4868700Y518964D1*
X4873373Y526632D1*
X4879083Y533317D1*
X4885768Y539027D1*
X4893264Y543621D1*
X4901387Y546985D1*
X4909935Y549038D1*
X4918700Y549728D1*
X4927465Y549038D1*
X4936013Y546985D1*
X4944136Y543621D1*
X4951632Y539027D1*
X4958317Y533317D1*
X4964027Y526632D1*
X4968621Y519136D1*
X4971985Y511013D1*
X4974038Y502465D1*
X4974728Y493700D1*
X4974038Y484935D1*
X4971985Y476387D1*
X4968621Y468264D1*
X4964027Y460768D1*
X4958317Y454083D1*
X4951632Y448373D1*
X4944136Y443779D1*
X4936013Y440415D1*
X4927465Y438362D1*
X4918700Y437672D1*
X4909935Y438362D1*
X4901387Y440415D1*
X4893264Y443779D1*
X4885768Y448373D1*
X4879083Y454083D1*
X4873373Y460768D1*
X4868700Y468436D1*
X4864027Y460768D1*
X4858317Y454083D1*
X4851632Y448373D1*
X4844136Y443779D1*
X4836013Y440415D1*
X4827465Y438362D1*
X4818700Y437672D1*
X4809935Y438362D1*
X4801387Y440415D1*
X4793264Y443779D1*
X4785768Y448373D1*
X4779083Y454083D1*
X4773373Y460768D1*
X4768700Y468436D1*
X4764027Y460768D1*
X4758317Y454083D1*
X4751632Y448373D1*
X4744136Y443779D1*
X4736013Y440415D1*
X4727465Y438362D1*
X4718700Y437672D1*
X4709935Y438362D1*
X4701387Y440415D1*
X4693264Y443779D1*
X4685768Y448373D1*
X4679083Y454083D1*
X4673373Y460768D1*
X4672408Y462211D1*
X4664027Y460768D1*
X4658317Y454083D1*
X4651632Y448373D1*
X4644136Y443779D1*
X4636013Y440415D1*
X4627465Y438362D1*
X4618700Y437672D1*
X4609935Y438362D1*
X4601387Y440415D1*
X4593264Y443779D1*
X4585768Y448373D1*
X4579083Y454083D1*
X4573373Y460768D1*
X4568700Y468436D1*
X4564027Y460768D1*
X4558317Y454083D1*
X4551632Y448373D1*
X4544136Y443779D1*
X4536013Y440415D1*
X4527465Y438362D1*
X4518700Y437672D1*
X4509935Y438362D1*
X4501387Y440415D1*
X4493264Y443779D1*
X4485768Y448373D1*
X4479083Y454083D1*
X4473373Y460768D1*
X4468700Y468436D1*
X4464027Y460768D1*
X4458317Y454083D1*
X4451632Y448373D1*
X4444136Y443779D1*
X4436013Y440415D1*
X4427465Y438362D1*
X4418700Y437672D1*
X4409935Y438362D1*
X4401387Y440415D1*
X4393264Y443779D1*
X4385768Y448373D1*
X4379083Y454083D1*
X4373373Y460768D1*
X4368700Y468436D1*
X4364027Y460768D1*
X4358317Y454083D1*
X4351632Y448373D1*
X4344136Y443779D1*
X4336013Y440415D1*
X4327465Y438362D1*
X4318700Y437672D1*
X4309935Y438362D1*
X4301387Y440415D1*
X4293264Y443779D1*
X4285768Y448373D1*
X4279083Y454083D1*
X4273373Y460768D1*
X4268700Y468436D1*
X4350189Y539992D2*
X4355087Y536304D1*
X4361304Y530087D1*
X4366471Y522974D1*
X4368779Y519136D1*
X4373373Y526632D1*
X4379083Y533317D1*
X4385768Y539027D1*
X4393264Y543621D1*
X4401387Y546985D1*
X4409935Y549038D1*
X4418700Y549728D1*
X4427465Y549038D1*
X4429167Y548699D1*
X4434728Y559601D1*
Y704680D1*
X4350215Y704700D1*
X4350200Y540023D1*
X4497727Y545635D2*
X4505621Y548180D1*
X4514304Y549555D1*
X4523096D1*
X4529167Y548699D1*
X4605204Y624752D1*
X4605200Y704676D1*
X4542200Y704700D1*
Y712200D1*
X4502303D1*
X4497724Y707648D1*
X4497728Y545639D1*
X3914459Y1049561D2*
X3922941D1*
X3947526Y1073986D1*
X3952160Y1077352D1*
X3957263Y1079953D1*
X3962710Y1081723D1*
X3968378Y1082619D1*
X3972413Y1085032D1*
X4077487Y1190105D1*
X4072270Y1191963D1*
X4064440Y1195952D1*
X4057331Y1201117D1*
X4051117Y1207331D1*
X4045952Y1214440D1*
X4041963Y1222270D1*
X4039247Y1230627D1*
X4037873Y1239306D1*
Y1248094D1*
X4039247Y1256773D1*
X4041963Y1265130D1*
X4045952Y1272960D1*
X4051117Y1280069D1*
X4057331Y1286283D1*
X4064440Y1291448D1*
X4068277Y1293804D1*
X4060784Y1298395D1*
X4054102Y1304102D1*
X4048395Y1310784D1*
X4047450Y1312198D1*
X3964229Y1312297D1*
X3959346Y1313070D1*
X3954645Y1314598D1*
X3950241Y1316842D1*
X3946242Y1319747D1*
X3925726Y1340127D1*
X3925616Y1208364D1*
X3924720Y1202707D1*
X3922950Y1197260D1*
X3920349Y1192157D1*
X3916983Y1187523D1*
X3882037Y1152419D1*
X3877682Y1148699D1*
X3872799Y1145706D1*
X3867507Y1143514D1*
X3861938Y1142177D1*
X3856228Y1141728D1*
X3766840D1*
X3755206Y1130115D1*
X3755200Y1088567D1*
X3760114Y1090455D1*
X3767209Y1092159D1*
X3774483Y1092731D1*
X3781757Y1092159D1*
X3788852Y1090455D1*
X3795594Y1087663D1*
X3801815Y1083850D1*
X3803237Y1082729D1*
X3869033Y1082618D1*
X3874690Y1081723D1*
X3880137Y1079953D1*
X3885240Y1077352D1*
X3889874Y1073986D1*
X3914434Y1049584D1*
X3474724Y1028346D2*
X3479083Y1033317D1*
X3482199Y1036199D1*
X3482200Y1371381D1*
X3478785Y1366748D1*
X3460207Y1347989D1*
X3460200Y1049714D1*
X3474728Y1049728D1*
Y1028448D1*
X3371859Y1049728D2*
X3377206D1*
X3377200Y1086389D1*
X3369228Y1085731D1*
X3361954Y1086303D1*
X3354859Y1088007D1*
X3348117Y1090799D1*
X3341896Y1094612D1*
X3336348Y1099351D1*
X3331609Y1104899D1*
X3327796Y1111120D1*
X3325004Y1117862D1*
X3323300Y1124957D1*
X3322970Y1127747D1*
X3284857Y1089639D1*
X3282197Y1083204D1*
X3282313Y1036304D1*
X3289426Y1041471D1*
X3297259Y1045463D1*
X3305621Y1048180D1*
X3314304Y1049555D1*
X3323096D1*
X3331779Y1048180D1*
X3340141Y1045463D1*
X3347974Y1041471D1*
X3355087Y1036304D1*
X3361304Y1030087D1*
X3362676Y1028346D1*
X3362672Y1049728D1*
X3371859D1*
X3266586Y473210D2*
X3264220Y480621D1*
X3262845Y489304D1*
Y498096D1*
X3264220Y506779D1*
X3266937Y515141D1*
X3270929Y522974D1*
X3276096Y530087D1*
X3282313Y536304D1*
X3289426Y541471D1*
X3297259Y545463D1*
X3305621Y548180D1*
X3314304Y549555D1*
X3323096D1*
X3331779Y548180D1*
X3340141Y545463D1*
X3347974Y541471D1*
X3355087Y536304D1*
X3361304Y530087D1*
X3366471Y522974D1*
X3368779Y519136D1*
X3373373Y526632D1*
X3379083Y533317D1*
X3385768Y539027D1*
X3387211Y539992D1*
X3387200Y574332D1*
X3376747Y584939D1*
X3373842Y588938D1*
X3371598Y593342D1*
X3370070Y598043D1*
X3369297Y602926D1*
X3369200Y669701D1*
Y743710D1*
X3361023Y744701D1*
X3296315Y744814D1*
X3290658Y745710D1*
X3285211Y747480D1*
X3280107Y750080D1*
X3275474Y753446D1*
X3240367Y788395D1*
X3236647Y792750D1*
X3233654Y797633D1*
X3231462Y802925D1*
X3230125Y808494D1*
X3229676Y814215D1*
Y904381D1*
X3226528Y908908D1*
X3223216Y915409D1*
X3220961Y922349D1*
X3220730Y923510D1*
X3220728Y477774D1*
X3225280Y473196D1*
X3266593Y473200D1*
X3450189Y539992D2*
X3455087Y536304D1*
X3461304Y530087D1*
X3466471Y522974D1*
X3468779Y519136D1*
X3473373Y526632D1*
X3479083Y533317D1*
X3485768Y539027D1*
X3487211Y539992D1*
X3487200Y704735D1*
X3432223Y704700D1*
X3432200Y618428D1*
X3442653Y607855D1*
X3445558Y603856D1*
X3447802Y599452D1*
X3449330Y594751D1*
X3450103Y589868D1*
X3450200Y540066D1*
X3550189Y539992D2*
X3555087Y536304D1*
X3561304Y530087D1*
X3566471Y522974D1*
X3568779Y519136D1*
X3573373Y526632D1*
X3579083Y533317D1*
X3585768Y539027D1*
X3587211Y539992D1*
X3587297Y633762D1*
X3588070Y638645D1*
X3589598Y643346D1*
X3591842Y647750D1*
X3594747Y651749D1*
X3641896Y699035D1*
X3647555Y704693D1*
X3592200Y704700D1*
Y712200D1*
X3554743D1*
X3550196Y707648D1*
X3550200Y540023D1*
X3715739Y1417199D2*
X3650717D1*
X3650739Y1407685D1*
X3708478Y1407700D1*
X3711216Y1412215D1*
X3714433Y1415981D1*
X1276742Y980633D2*
X1301696D1*
Y942990D1*
X1305263Y946455D1*
X1309897Y949821D1*
X1315000Y952422D1*
X1320447Y954192D1*
X1323269Y954752D1*
X1325468Y957817D1*
Y980633D1*
X1347106D1*
X1347415Y982854D1*
X1341832Y983633D1*
X1279717D1*
X1274015Y805633D2*
X1301696D1*
Y681767D1*
X1169965D1*
X1169964Y665221D1*
X1174837Y663633D1*
X1346973D1*
X1346964Y681785D1*
X1325468Y681767D1*
Y805633D1*
X1346963D1*
X1346964Y828494D1*
X1340247Y825553D1*
X1334678Y824216D1*
X1328957Y823767D1*
X1260537D1*
X1264158Y821086D1*
X1267653Y817591D1*
X1270558Y813592D1*
X1272802Y809188D1*
X1273661Y806858D1*
X1096977Y681767D2*
X1075468D1*
Y784073D1*
X1060015Y799675D1*
X1057110Y803674D1*
X1054866Y808078D1*
X1053338Y812779D1*
X1052565Y817662D1*
X1052468Y884437D1*
Y1182025D1*
X1048609Y1186052D1*
X1044320Y1191955D1*
X1041008Y1198456D1*
X1038753Y1205396D1*
X1037611Y1212603D1*
Y1219899D1*
X1038753Y1227106D1*
X1041008Y1234046D1*
X1044320Y1240547D1*
X1048609Y1246450D1*
X1052460Y1250400D1*
X1052468Y1287696D1*
X1025369Y1287704D1*
X1021348Y1283845D1*
X1015445Y1279556D1*
X1008944Y1276244D1*
X1002004Y1273989D1*
X994797Y1272847D1*
X989453Y1272771D1*
X992801Y1267996D1*
X996113Y1261495D1*
X998368Y1254555D1*
X999510Y1247348D1*
Y1240052D1*
X998368Y1232845D1*
X996113Y1225905D1*
X992801Y1219404D1*
X988512Y1213501D1*
X984661Y1209551D1*
X984653Y551315D1*
X989205Y546763D1*
X1075445Y546767D1*
X1075468Y630633D1*
X1097106D1*
X1097972Y635654D1*
X1098750Y638854D1*
X1097413Y644423D1*
X1096964Y650144D1*
Y681747D1*
X1301696Y590622D2*
Y523734D1*
X1325453Y523767D1*
X1325468Y590628D1*
X1301684Y590633D1*
X1525235Y805633D2*
X1538656D1*
X1533905Y807307D1*
X1527404Y810619D1*
X1525210Y812085D1*
X1551696Y803803D2*
Y681767D1*
X1464462D1*
X1464598Y642283D1*
X1466842Y646687D1*
X1469747Y650686D1*
X1473242Y654181D1*
X1477241Y657086D1*
X1481645Y659330D1*
X1486346Y660858D1*
X1491229Y661631D1*
X1558004Y661728D1*
X1591771D1*
X1588060Y666932D1*
X1584748Y673433D1*
X1582493Y680373D1*
X1581351Y687580D1*
Y694876D1*
X1582493Y702083D1*
X1584748Y709023D1*
X1588060Y715524D1*
X1592349Y721427D1*
X1597509Y726587D1*
X1603412Y730876D1*
X1609913Y734188D1*
X1616853Y736443D1*
X1624060Y737585D1*
X1631356D1*
X1638563Y736443D1*
X1645503Y734188D1*
X1652004Y730876D1*
X1657907Y726587D1*
X1661857Y722736D1*
X2141749Y722728D1*
X2139220Y730621D1*
X2137845Y739304D1*
Y748096D1*
X2139220Y756779D1*
X2141937Y765141D1*
X2142650Y766686D1*
X2138512Y761029D1*
X2133352Y755869D1*
X2127449Y751580D1*
X2120948Y748268D1*
X2114008Y746013D1*
X2106801Y744871D1*
X2099505D1*
X2092298Y746013D1*
X2085358Y748268D1*
X2078857Y751580D1*
X2072954Y755869D1*
X2067794Y761029D1*
X2063505Y766932D1*
X2060193Y773433D1*
X2057938Y780373D1*
X2056796Y787580D1*
X2056726Y793095D1*
X2031070Y818763D1*
X1585909Y818767D1*
X1581899Y814908D1*
X1575996Y810619D1*
X1569495Y807307D1*
X1562555Y805052D1*
X1555348Y803910D1*
X1551686Y803768D1*
X1551696Y598732D2*
Y523734D1*
X1924002Y523767D1*
X2059944Y659705D1*
X1957099Y659728D1*
X1960809Y654524D1*
X1964121Y648023D1*
X1966376Y641083D1*
X1967518Y633876D1*
Y626580D1*
X1966376Y619373D1*
X1964121Y612433D1*
X1960809Y605932D1*
X1956520Y600029D1*
X1951360Y594869D1*
X1945457Y590580D1*
X1938956Y587268D1*
X1932016Y585013D1*
X1924809Y583871D1*
X1917513D1*
X1910306Y585013D1*
X1903366Y587268D1*
X1896865Y590580D1*
X1890962Y594869D1*
X1887012Y598720D1*
X1551662Y598728D1*
X4634740Y1615055D2*
X4627465Y1613362D1*
X4618700Y1612672D1*
X4609935Y1613362D1*
X4601387Y1615415D1*
X4598210Y1616586D1*
X4598200Y1350815D1*
X4605621Y1353180D1*
X4614304Y1354555D1*
X4623096D1*
X4631779Y1353180D1*
X4634740Y1352345D1*
X4634728Y1614991D1*
X4598210Y1720814D2*
X4605621Y1723180D1*
X4614304Y1724555D1*
X4623096D1*
X4631779Y1723180D1*
X4634740Y1722345D1*
X4634728Y1794986D1*
X4627465Y1793362D1*
X4621465Y1792781D1*
X4598185Y1769495D1*
X4598200Y1720853D1*
X5234740Y1615055D2*
X5227465Y1613362D1*
X5218700Y1612672D1*
X5209935Y1613362D1*
X5201387Y1615415D1*
X5193264Y1618779D1*
X5185768Y1623373D1*
X5179083Y1629083D1*
X5173373Y1635768D1*
X5168779Y1643264D1*
X5165415Y1651387D1*
X5163362Y1659935D1*
X5162672Y1668700D1*
X5163362Y1677465D1*
X5165415Y1686013D1*
X5168779Y1694136D1*
X5173373Y1701632D1*
X5179083Y1708317D1*
X5185768Y1714027D1*
X5193264Y1718621D1*
X5201387Y1721985D1*
X5209935Y1724038D1*
X5218700Y1724728D1*
X5227465Y1724038D1*
X5234740Y1722345D1*
X5234728Y1795015D1*
X5227465Y1793362D1*
X5218700Y1792672D1*
X5209935Y1793362D1*
X5201387Y1795415D1*
X5193264Y1798779D1*
X5185768Y1803373D1*
X5179083Y1809083D1*
X5176201Y1812199D1*
X5076060Y1812200D1*
X5071524Y1809052D1*
X5065023Y1805740D1*
X5058083Y1803485D1*
X5050876Y1802343D1*
X5043580D1*
X5036373Y1803485D1*
X5029433Y1805740D1*
X5022932Y1809052D1*
X5017029Y1813341D1*
X5011869Y1818501D1*
X5007580Y1824404D1*
X5004268Y1830905D1*
X5002013Y1837845D1*
X5000871Y1845052D1*
Y1852348D1*
X5002013Y1859555D1*
X5004268Y1866495D1*
X5007580Y1872996D1*
X5011869Y1878899D1*
X5017029Y1884059D1*
X5022932Y1888348D1*
X5029433Y1891660D1*
X5036373Y1893915D1*
X5043580Y1895057D1*
X5050876D1*
X5058083Y1893915D1*
X5065023Y1891660D1*
X5071524Y1888348D1*
X5075982Y1885198D1*
X5176160Y1885200D1*
X5182313Y1891304D1*
X5189426Y1896471D1*
X5197259Y1900463D1*
X5205621Y1903180D1*
X5214304Y1904555D1*
X5223096D1*
X5231779Y1903180D1*
X5234740Y1902345D1*
X5234728Y2118475D1*
X5202652Y2086615D1*
X5197384Y2082787D1*
X5191581Y2079831D1*
X5185388Y2077819D1*
X5178956Y2076800D1*
X5138955Y2076672D1*
X5116168D1*
X5109597Y2073948D1*
X5102502Y2072244D1*
X5095228Y2071672D1*
X5087954Y2072244D1*
X5083206Y2073286D1*
X5083200Y2062695D1*
X5085924Y2056069D1*
X5087628Y2048974D1*
X5088200Y2041700D1*
X5087628Y2034426D1*
X5085924Y2027331D1*
X5083132Y2020589D1*
X5079319Y2014368D1*
X5074580Y2008820D1*
X5069032Y2004081D1*
X5062811Y2000268D1*
X5056069Y1997476D1*
X5048974Y1995772D1*
X5041700Y1995200D1*
X5034426Y1995772D1*
X5027331Y1997476D1*
X5020589Y2000268D1*
X5014368Y2004081D1*
X5008820Y2008820D1*
X5004081Y2014368D1*
X5000268Y2020589D1*
X4997476Y2027331D1*
X4995772Y2034426D1*
X4995200Y2041700D1*
X4995772Y2048974D1*
X4997476Y2056069D1*
X5000203Y2062668D1*
X5000200Y2414644D1*
X4993700Y2414200D1*
X4986426Y2414772D1*
X4979331Y2416476D1*
X4972589Y2419268D1*
X4966368Y2423081D1*
X4960820Y2427820D1*
X4959551Y2429192D1*
X4902229Y2429297D1*
X4897346Y2430070D1*
X4892645Y2431598D1*
X4888241Y2433842D1*
X4884242Y2436747D1*
X4880219Y2440634D1*
X4880200Y2413190D1*
X4886426Y2414632D1*
X4893700Y2415204D1*
X4900974Y2414632D1*
X4908069Y2412928D1*
X4914811Y2410136D1*
X4921032Y2406323D1*
X4926580Y2401584D1*
X4931319Y2396036D1*
X4935132Y2389815D1*
X4937924Y2383073D1*
X4939628Y2375978D1*
X4940200Y2368704D1*
X4939628Y2361430D1*
X4937924Y2354335D1*
X4935132Y2347593D1*
X4931319Y2341372D1*
X4926580Y2335824D1*
X4925208Y2334555D1*
X4925200Y1636774D1*
X5208206Y1353742D1*
X5214304Y1354555D1*
X5223096D1*
X5231779Y1353180D1*
X5234740Y1352345D1*
X5234728Y1615020D1*
X4634740Y2165055D2*
X4627465Y2163362D1*
X4618700Y2162672D1*
X4609935Y2163362D1*
X4601387Y2165415D1*
X4593264Y2168779D1*
X4585768Y2173373D1*
X4579083Y2179083D1*
X4573373Y2185768D1*
X4568779Y2193264D1*
X4565415Y2201387D1*
X4563362Y2209935D1*
X4562672Y2218700D1*
X4563439Y2227852D1*
X4557555Y2226013D1*
X4550348Y2224871D1*
X4543052D1*
X4535845Y2226013D1*
X4528905Y2228268D1*
X4522404Y2231580D1*
X4516501Y2235869D1*
X4511341Y2241029D1*
X4507052Y2246932D1*
X4503740Y2253433D1*
X4501485Y2260373D1*
X4500343Y2267580D1*
Y2274876D1*
X4501667Y2282728D1*
X4265898D1*
X4261899Y2278869D1*
X4255996Y2274580D1*
X4249495Y2271268D1*
X4242555Y2269013D1*
X4235348Y2267871D1*
X4228052D1*
X4220845Y2269013D1*
X4213905Y2271268D1*
X4207404Y2274580D1*
X4201501Y2278869D1*
X4196341Y2284029D1*
X4192052Y2289932D1*
X4188740Y2296433D1*
X4186485Y2303373D1*
X4185343Y2310580D1*
Y2317876D1*
X4185680Y2320723D1*
X4126373Y2320728D1*
X4121932Y2318028D1*
X4116640Y2315836D1*
X4111071Y2314499D1*
X4105361Y2314050D1*
X4024169D1*
X4021132Y2306605D1*
X4017319Y2300384D1*
X4012580Y2294836D1*
X4007032Y2290097D1*
X4000811Y2286284D1*
X3994069Y2283492D1*
X3986974Y2281788D1*
X3978945Y2281246D1*
X3982861Y2277147D1*
X3987611Y2270609D1*
X3991280Y2263408D1*
X3993777Y2255722D1*
X3995041Y2247741D1*
Y2239659D1*
X3993777Y2231678D1*
X3991280Y2223992D1*
X3987611Y2216791D1*
X3982861Y2210253D1*
X3977147Y2204539D1*
X3975199Y2203004D1*
X3975200Y1706263D1*
X3984242Y1715153D1*
X3988241Y1718058D1*
X3992645Y1720302D1*
X3997346Y1721830D1*
X4002229Y1722603D1*
X4041768Y1722700D1*
X4039247Y1730627D1*
X4037873Y1739306D1*
X4037865Y1747905D1*
X4013441Y1772499D1*
X4010075Y1777133D1*
X4007474Y1782236D1*
X4005704Y1787683D1*
X4004808Y1793340D1*
X4004696Y1842136D1*
X4004808Y1994060D1*
X4005704Y1999717D1*
X4007474Y2005164D1*
X4010075Y2010267D1*
X4013441Y2014901D1*
X4037843Y2039461D1*
X4037873Y2048094D1*
X4039247Y2056773D1*
X4041963Y2065130D1*
X4045952Y2072960D1*
X4051117Y2080069D1*
X4057331Y2086283D1*
X4064440Y2091448D1*
X4072270Y2095437D1*
X4080627Y2098153D1*
X4089306Y2099527D1*
X4098094D1*
X4106773Y2098153D1*
X4109699Y2097327D1*
X4109812Y2104025D1*
X4110708Y2109682D1*
X4112478Y2115129D1*
X4115079Y2120232D1*
X4118445Y2124866D1*
X4122495Y2128916D1*
X4127129Y2132282D1*
X4132232Y2134883D1*
X4137679Y2136653D1*
X4143336Y2137549D1*
X4192132Y2137661D1*
X4324652D1*
X4324204Y2144161D1*
X4324776Y2151435D1*
X4326480Y2158530D1*
X4329272Y2165272D1*
X4333085Y2171493D1*
X4337824Y2177041D1*
X4343372Y2181780D1*
X4349593Y2185593D1*
X4356335Y2188385D1*
X4363430Y2190089D1*
X4370704Y2190661D1*
X4377978Y2190089D1*
X4385073Y2188385D1*
X4391815Y2185593D1*
X4398036Y2181780D1*
X4399458Y2180659D1*
X4488564Y2180549D1*
X4494221Y2179653D1*
X4499668Y2177883D1*
X4504771Y2175282D1*
X4509405Y2171916D1*
X4544509Y2136970D1*
X4548229Y2132615D1*
X4551222Y2127732D1*
X4553414Y2122440D1*
X4554751Y2116871D1*
X4555200Y2111161D1*
Y1843860D1*
X4562752Y1851442D1*
X4563362Y1857465D1*
X4565415Y1866013D1*
X4568779Y1874136D1*
X4573373Y1881632D1*
X4577204Y1886286D1*
X4577200Y2020693D1*
X4574476Y2027331D1*
X4572772Y2034426D1*
X4572200Y2041700D1*
X4572772Y2048974D1*
X4574476Y2056069D1*
X4577268Y2062811D1*
X4581081Y2069032D1*
X4585820Y2074580D1*
X4591368Y2079319D1*
X4597589Y2083132D1*
X4604331Y2085924D1*
X4611426Y2087628D1*
X4618700Y2088200D1*
X4625974Y2087628D1*
X4633069Y2085924D1*
X4634715Y2085317D1*
X4634728Y2165023D1*
X4382196Y1967459D2*
X4378045Y1960755D1*
X4372333Y1954067D1*
X4365645Y1948355D1*
X4358037Y1943709D1*
X4365645Y1939045D1*
X4372333Y1933333D1*
X4378045Y1926645D1*
X4382196Y1919941D1*
X4382200Y1967417D1*
X4307363Y1943709D2*
X4299755Y1948355D1*
X4295074Y1952211D1*
X4218409Y1952200D1*
X4178152Y1912143D1*
X4172884Y1908315D1*
X4167081Y1905359D1*
X4160888Y1903347D1*
X4154456Y1902328D1*
X4131284Y1902200D1*
X4126616Y1898395D1*
X4118921Y1893710D1*
X4126616Y1889005D1*
X4133298Y1883298D1*
X4139005Y1876616D1*
X4143596Y1869123D1*
X4146959Y1861005D1*
X4149011Y1852460D1*
X4149700Y1843700D1*
X4149011Y1834940D1*
X4148679Y1833272D1*
X4165153Y1816658D1*
X4168058Y1812659D1*
X4170302Y1808255D1*
X4171830Y1803554D1*
X4172603Y1798671D1*
X4172700Y1731896D1*
X4172603Y1711729D1*
X4171830Y1706846D1*
X4170302Y1702145D1*
X4168058Y1697741D1*
X4165153Y1693742D1*
X4142573Y1671026D1*
X4145437Y1665130D1*
X4148153Y1656773D1*
X4149527Y1648094D1*
Y1639306D1*
X4148153Y1630627D1*
X4145437Y1622270D1*
X4141448Y1614440D1*
X4136283Y1607331D1*
X4130069Y1601117D1*
X4122960Y1595952D1*
X4119123Y1593596D1*
X4126616Y1589005D1*
X4133298Y1583298D1*
X4134639Y1581848D1*
X4140089Y1585132D1*
X4146831Y1587924D1*
X4153926Y1589628D1*
X4161200Y1590200D1*
X4168474Y1589628D1*
X4175569Y1587924D1*
X4182311Y1585132D1*
X4188532Y1581319D1*
X4194226Y1576423D1*
X4197540Y1579752D1*
X4197633Y1592507D1*
X4198406Y1597390D1*
X4199934Y1602091D1*
X4202178Y1606495D1*
X4205083Y1610494D1*
X4252232Y1657780D1*
X4277632Y1683179D1*
X4276823Y1689302D1*
Y1698098D1*
X4278199Y1706785D1*
X4280917Y1715149D1*
X4284910Y1722986D1*
X4290079Y1730101D1*
X4296299Y1736321D1*
X4303414Y1741490D1*
X4307254Y1743759D1*
X4299755Y1748355D1*
X4293067Y1754067D1*
X4287355Y1760755D1*
X4282759Y1768254D1*
X4279393Y1776380D1*
X4277340Y1784932D1*
X4276650Y1793700D1*
X4277340Y1802468D1*
X4279393Y1811020D1*
X4282759Y1819146D1*
X4287355Y1826645D1*
X4293067Y1833333D1*
X4299755Y1839045D1*
X4307363Y1843691D1*
X4299755Y1848355D1*
X4293067Y1854067D1*
X4287355Y1860755D1*
X4282759Y1868254D1*
X4279393Y1876380D1*
X4277340Y1884932D1*
X4276650Y1893700D1*
X4277340Y1902468D1*
X4279393Y1911020D1*
X4282759Y1919146D1*
X4287355Y1926645D1*
X4293067Y1933333D1*
X4299755Y1939045D1*
X4307363Y1943691D1*
X4295074Y2035189D2*
X4299755Y2039045D1*
X4307254Y2043641D1*
X4315380Y2047007D1*
X4323932Y2049060D1*
X4332700Y2049750D1*
X4341468Y2049060D1*
X4350020Y2047007D1*
X4358146Y2043641D1*
X4365645Y2039045D1*
X4372333Y2033333D1*
X4378045Y2026645D1*
X4382196Y2019941D1*
X4381081Y2022600D1*
X4377268Y2028821D1*
X4374476Y2035563D1*
X4372772Y2042658D1*
X4372200Y2049932D1*
X4372772Y2057206D1*
X4374609Y2064663D1*
X4181709Y2064661D1*
X4179922Y2059232D1*
X4177321Y2054129D1*
X4173955Y2049495D1*
X4144282Y2019663D1*
X4141448Y2014440D1*
X4136283Y2007331D1*
X4130069Y2001117D1*
X4122960Y1995952D1*
X4119123Y1993596D1*
X4126616Y1989005D1*
X4131242Y1985198D1*
X4134847Y1986036D1*
X4174248Y2025257D1*
X4179516Y2029085D1*
X4185319Y2032041D1*
X4191512Y2034053D1*
X4197944Y2035072D1*
X4237945Y2035200D1*
X4295037D1*
X4382196Y1867459D2*
X4378045Y1860755D1*
X4372333Y1854067D1*
X4365645Y1848355D1*
X4358037Y1843709D1*
X4365645Y1839045D1*
X4372333Y1833333D1*
X4378045Y1826645D1*
X4382196Y1819941D1*
X4382200Y1867372D1*
X4307363Y1543709D2*
X4299755Y1548355D1*
X4293067Y1554067D1*
X4287355Y1560755D1*
X4282759Y1568254D1*
X4279393Y1576380D1*
X4277340Y1584932D1*
X4276672Y1593133D1*
X4260557Y1577010D1*
X4260439Y1564229D1*
X4259666Y1559346D1*
X4258138Y1554645D1*
X4255894Y1550241D1*
X4252989Y1546242D1*
X4228310Y1521426D1*
X4224551Y1518216D1*
X4220337Y1515633D1*
X4215770Y1513742D1*
X4210964Y1512588D1*
X4206036Y1512200D1*
X4195378D1*
X4191399Y1508341D1*
X4185496Y1504052D1*
X4178995Y1500740D1*
X4172055Y1498485D1*
X4164848Y1497343D1*
X4157552D1*
X4150345Y1498485D1*
X4143405Y1500740D1*
X4136904Y1504052D1*
X4134686Y1505534D1*
X4130069Y1501117D1*
X4122960Y1495952D1*
X4119123Y1493596D1*
X4126616Y1489005D1*
X4133298Y1483298D1*
X4139005Y1476616D1*
X4139950Y1475202D1*
X4279760Y1475200D1*
X4278199Y1480615D1*
X4276823Y1489302D1*
Y1498098D1*
X4278199Y1506785D1*
X4280917Y1515149D1*
X4284910Y1522986D1*
X4290079Y1530101D1*
X4296299Y1536321D1*
X4303414Y1541490D1*
X4307363Y1543691D1*
X4382196Y1367459D2*
X4378045Y1360755D1*
X4372333Y1354067D1*
X4365645Y1348355D1*
X4358037Y1343709D1*
X4365645Y1339045D1*
X4372333Y1333333D1*
X4378045Y1326645D1*
X4382196Y1319941D1*
X4382200Y1367434D1*
X4276818Y1389423D2*
X4276823Y1398098D1*
X4278199Y1406785D1*
X4279828Y1412198D1*
X4139972Y1412200D1*
X4136283Y1407331D1*
X4130069Y1401117D1*
X4122960Y1395952D1*
X4119123Y1393596D1*
X4126616Y1389005D1*
X4133298Y1383298D1*
X4139005Y1376616D1*
X4143596Y1369123D1*
X4146959Y1361005D1*
X4149011Y1352460D1*
X4149700Y1343700D1*
X4149011Y1334940D1*
X4146959Y1326395D1*
X4143596Y1318277D1*
X4139005Y1310784D1*
X4133298Y1304102D1*
X4126616Y1298395D1*
X4118921Y1293710D1*
X4126616Y1289005D1*
X4133298Y1283298D1*
X4139005Y1276616D1*
X4143596Y1269123D1*
X4146959Y1261005D1*
X4147272Y1259897D1*
X4276824Y1389443D1*
X4068479Y1593710D2*
X4060784Y1598395D1*
X4054102Y1604102D1*
X4048395Y1610784D1*
X4043804Y1618277D1*
X4040441Y1626395D1*
X4038389Y1634940D1*
X4037700Y1643700D1*
X4038389Y1652460D1*
X4040073Y1659699D1*
X4017760Y1659700D1*
X4013196Y1655148D1*
X4013200Y1427884D1*
X4017059Y1423899D1*
X4021348Y1417996D1*
X4024660Y1411495D1*
X4026915Y1404555D1*
X4028057Y1397348D1*
Y1390052D1*
X4026915Y1382845D1*
X4024332Y1375193D1*
X4047404Y1375200D1*
X4051117Y1380069D1*
X4057331Y1386283D1*
X4064440Y1391448D1*
X4068277Y1393804D1*
X4060784Y1398395D1*
X4054102Y1404102D1*
X4048395Y1410784D1*
X4043804Y1418277D1*
X4040441Y1426395D1*
X4038389Y1434940D1*
X4037700Y1443700D1*
X4038389Y1452460D1*
X4040441Y1461005D1*
X4043804Y1469123D1*
X4048395Y1476616D1*
X4054102Y1483298D1*
X4060784Y1489005D1*
X4068479Y1493690D1*
X4060784Y1498395D1*
X4054102Y1504102D1*
X4048395Y1510784D1*
X4043804Y1518277D1*
X4040441Y1526395D1*
X4038389Y1534940D1*
X4037700Y1543700D1*
X4038389Y1552460D1*
X4040441Y1561005D1*
X4043804Y1569123D1*
X4048395Y1576616D1*
X4054102Y1583298D1*
X4060784Y1589005D1*
X4068479Y1593690D1*
X2152204Y2531114D2*
X2148373Y2535768D1*
X2143779Y2543264D1*
X2143360Y2543845D1*
X2141105Y2536905D1*
X2137793Y2530404D1*
X2133504Y2524501D1*
X2129653Y2520551D1*
X2129823Y2256442D1*
X2137816Y2264434D1*
X2137845Y2273096D1*
X2139220Y2281779D1*
X2141937Y2290141D1*
X2145929Y2297974D1*
X2151096Y2305087D1*
X2157313Y2311304D1*
X2164426Y2316471D1*
X2168264Y2318779D1*
X2160768Y2323373D1*
X2154083Y2329083D1*
X2148373Y2335768D1*
X2143779Y2343264D1*
X2140415Y2351387D1*
X2138362Y2359935D1*
X2137672Y2368700D1*
X2138362Y2377465D1*
X2140415Y2386013D1*
X2143779Y2394136D1*
X2148373Y2401632D1*
X2154083Y2408317D1*
X2160768Y2414027D1*
X2168436Y2418700D1*
X2160768Y2423373D1*
X2154083Y2429083D1*
X2148373Y2435768D1*
X2143779Y2443264D1*
X2140415Y2451387D1*
X2138362Y2459935D1*
X2137672Y2468700D1*
X2138362Y2477465D1*
X2140415Y2486013D1*
X2143779Y2494136D1*
X2148373Y2501632D1*
X2152204Y2506286D1*
X2152200Y2531031D1*
X2138446Y2577886D2*
X2140415Y2586013D1*
X2143779Y2594136D1*
X2148373Y2601632D1*
X2154083Y2608317D1*
X2155609Y2609729D1*
X2073213Y2609728D1*
X2068641Y2605176D1*
X2068645Y2590633D1*
X2073849Y2594348D1*
X2080350Y2597660D1*
X2087290Y2599915D1*
X2094497Y2601057D1*
X2101793D1*
X2109000Y2599915D1*
X2115940Y2597660D1*
X2122441Y2594348D1*
X2128344Y2590059D1*
X2133504Y2584899D1*
X2137793Y2578996D1*
X2138427Y2577864D1*
X2209740Y2215055D2*
X2202465Y2213362D1*
X2193700Y2212672D1*
X2189459Y2212839D1*
X2172644Y2196025D1*
X2172645Y2045611D1*
X2180621Y2048180D1*
X2189304Y2049555D1*
X2190935Y2049619D1*
X2209749Y2068439D1*
X2209728Y2215039D1*
X862119Y2515935D2*
X861538Y2509935D1*
X859485Y2501387D1*
X856121Y2493264D1*
X851527Y2485768D1*
X845817Y2479083D1*
X839132Y2473373D1*
X831636Y2468779D1*
X823513Y2465415D1*
X814965Y2463362D1*
X806200Y2462672D1*
X797435Y2463362D1*
X788887Y2465415D1*
X780764Y2468779D1*
X773268Y2473373D1*
X768614Y2477204D1*
X608873Y2477200D1*
X590224Y2458526D1*
X590208Y2379638D1*
X595412Y2383348D1*
X601913Y2386660D1*
X608853Y2388915D1*
X616060Y2390057D1*
X621778Y2390181D1*
X625777Y2393086D1*
X630181Y2395330D1*
X634882Y2396858D1*
X639765Y2397631D1*
X706540Y2397728D1*
X1081885Y2397927D1*
X1079994Y2402494D1*
X1078840Y2407300D1*
X1078452Y2412238D1*
Y2648167D1*
X1073899Y2643723D1*
X1067996Y2639434D1*
X1061495Y2636122D1*
X1054555Y2633867D1*
X1047348Y2632725D1*
X1040052D1*
X1032845Y2633867D1*
X1025905Y2636122D1*
X1022732Y2637585D1*
X983738Y2637582D1*
X862181Y2515991D1*
X768614Y2560196D2*
X773268Y2564027D1*
X780764Y2568621D1*
X788887Y2571985D1*
X797435Y2574038D1*
X803435Y2574619D1*
X939630Y2710639D1*
X944898Y2714467D1*
X950701Y2717423D1*
X956894Y2719435D1*
X963326Y2720454D1*
X1003327Y2720582D1*
X1022741D1*
X1029331Y2723306D1*
X1036426Y2725010D1*
X1043700Y2725582D1*
X1050974Y2725010D1*
X1058069Y2723306D1*
X1064811Y2720514D1*
X1071032Y2716701D1*
X1076580Y2711962D1*
X1078449Y2709941D1*
X1078452Y2728332D1*
X1074552Y2733778D1*
X1071240Y2740279D1*
X1068985Y2747219D1*
X1067843Y2754426D1*
Y2761722D1*
X1068180Y2764569D1*
X784844Y2764574D1*
X578236Y2557944D1*
X585216Y2559689D1*
X591708Y2560200D1*
X768581D1*
X2249619Y1990935D2*
X2249038Y1984935D1*
X2246985Y1976387D1*
X2243621Y1968264D1*
X2239027Y1960768D1*
X2233317Y1954083D1*
X2226632Y1948373D1*
X2218964Y1943700D1*
X2226632Y1939027D1*
X2233317Y1933317D1*
X2239027Y1926632D1*
X2243621Y1919136D1*
X2246985Y1911013D1*
X2249038Y1902465D1*
X2249705Y1894267D1*
X2252728Y1902601D1*
Y1994069D1*
X2249555Y1789304D2*
X2248180Y1780621D1*
X2245635Y1772727D1*
X2271177Y1772728D1*
X2275732Y1777280D1*
X2275728Y1831152D1*
X2248725Y1804178D1*
X2249555Y1798096D1*
Y1789304D1*
X2141765Y1772727D2*
X2139220Y1780621D1*
X2137845Y1789304D1*
X2137737Y1795331D1*
X2132497Y1795453D1*
X2125290Y1796595D1*
X2118350Y1798850D1*
X2111849Y1802162D1*
X2105946Y1806451D1*
X2100786Y1811611D1*
X2096497Y1817514D1*
X2095459Y1819368D1*
X2091602Y1816596D1*
X2087198Y1814352D1*
X2082497Y1812824D1*
X2077614Y1812051D1*
X2010839Y1811954D1*
X1801454D1*
X1796905Y1807402D1*
X1796909Y1367273D1*
X1800768Y1363281D1*
X1805057Y1357378D1*
X1808369Y1350877D1*
X1810624Y1343937D1*
X1811766Y1336730D1*
Y1329434D1*
X1810624Y1322227D1*
X1808369Y1315287D1*
X1805057Y1308786D1*
X1800768Y1302883D1*
X1795608Y1297723D1*
X1789705Y1293434D1*
X1783204Y1290122D1*
X1776264Y1287867D1*
X1769057Y1286725D1*
X1761761D1*
X1754554Y1287867D1*
X1747614Y1290122D1*
X1741113Y1293434D1*
X1735210Y1297723D1*
X1730050Y1302883D1*
X1725761Y1308786D1*
X1722449Y1315287D1*
X1720194Y1322227D1*
X1719052Y1329434D1*
Y1336730D1*
X1720194Y1343937D1*
X1722449Y1350877D1*
X1725761Y1357378D1*
X1730050Y1363281D1*
X1733901Y1367231D1*
X1734006Y1822925D1*
X1734779Y1827808D1*
X1736307Y1832509D1*
X1738551Y1836913D1*
X1741456Y1840912D1*
X1765078Y1864671D1*
X1760289Y1863296D1*
X1754741Y1858557D1*
X1748520Y1854744D1*
X1741778Y1851952D1*
X1734683Y1850248D1*
X1727409Y1849676D1*
X1720135Y1850248D1*
X1713040Y1851952D1*
X1706298Y1854744D1*
X1700077Y1858557D1*
X1694529Y1863296D1*
X1689790Y1868844D1*
X1685977Y1875065D1*
X1683185Y1881807D1*
X1681481Y1888902D1*
X1680909Y1896176D1*
X1681481Y1903450D1*
X1683185Y1910545D1*
X1685977Y1917287D1*
X1689790Y1923508D1*
X1694529Y1929056D1*
X1700077Y1933795D1*
X1706298Y1937608D1*
X1713040Y1940400D1*
X1720135Y1942104D1*
X1727409Y1942676D1*
X1734683Y1942104D1*
X1741778Y1940400D1*
X1748520Y1937608D1*
X1754741Y1933795D1*
X1760289Y1929056D1*
X1761558Y1927684D1*
X2001098Y1927676D1*
X2005649Y1932228D1*
X2005645Y2063036D1*
X1998412Y2059268D1*
X1991472Y2057013D1*
X1984265Y2055871D1*
X1976969D1*
X1969762Y2057013D1*
X1962822Y2059268D1*
X1956321Y2062580D1*
X1950418Y2066869D1*
X1945258Y2072029D1*
X1940969Y2077932D1*
X1937657Y2084433D1*
X1935402Y2091373D1*
X1934260Y2098580D1*
Y2105876D1*
X1935402Y2113083D1*
X1937657Y2120023D1*
X1940969Y2126524D1*
X1945258Y2132427D1*
X1949109Y2136377D1*
X1949117Y2399170D1*
X1944565Y2403732D1*
X1793476Y2403529D1*
X1795367Y2398962D1*
X1796521Y2394156D1*
X1796909Y2389218D1*
Y2098458D1*
X1800768Y2094427D1*
X1805057Y2088524D1*
X1808369Y2082023D1*
X1810624Y2075083D1*
X1811766Y2067876D1*
Y2060580D1*
X1810624Y2053373D1*
X1808369Y2046433D1*
X1805057Y2039932D1*
X1800768Y2034029D1*
X1795608Y2028869D1*
X1789705Y2024580D1*
X1783204Y2021268D1*
X1776264Y2019013D1*
X1769057Y2017871D1*
X1761761D1*
X1754554Y2019013D1*
X1747614Y2021268D1*
X1741113Y2024580D1*
X1735210Y2028869D1*
X1730050Y2034029D1*
X1725761Y2039932D1*
X1722449Y2046433D1*
X1720194Y2053373D1*
X1719052Y2060580D1*
Y2067876D1*
X1720194Y2075083D1*
X1722449Y2082023D1*
X1725761Y2088524D1*
X1730050Y2094427D1*
X1733901Y2098377D1*
X1733909Y2376169D1*
X1729357Y2380732D1*
X1577767Y2380529D1*
X1579658Y2375962D1*
X1580812Y2371156D1*
X1581200Y2366228D1*
X1581103Y1236780D1*
X1580330Y1231897D1*
X1578802Y1227196D1*
X1576558Y1222792D1*
X1573653Y1218793D1*
X1555202Y1200205D1*
X1593685Y1200200D1*
X1590089Y1204561D1*
X1586276Y1210782D1*
X1583484Y1217524D1*
X1581780Y1224619D1*
X1581208Y1231893D1*
X1581780Y1239167D1*
X1583484Y1246262D1*
X1586276Y1253004D1*
X1590089Y1259225D1*
X1594828Y1264773D1*
X1596200Y1266042D1*
X1596208Y2185515D1*
X1592349Y2189501D1*
X1588060Y2195404D1*
X1584748Y2201905D1*
X1582493Y2208845D1*
X1581351Y2216052D1*
Y2223348D1*
X1582493Y2230555D1*
X1584748Y2237495D1*
X1588060Y2243996D1*
X1592349Y2249899D1*
X1597509Y2255059D1*
X1603412Y2259348D1*
X1609913Y2262660D1*
X1616853Y2264915D1*
X1624060Y2266057D1*
X1631356D1*
X1638563Y2264915D1*
X1645503Y2262660D1*
X1652004Y2259348D1*
X1657907Y2255059D1*
X1663067Y2249899D1*
X1667356Y2243996D1*
X1670668Y2237495D1*
X1672923Y2230555D1*
X1674065Y2223348D1*
Y2216052D1*
X1672923Y2208845D1*
X1670668Y2201905D1*
X1667356Y2195404D1*
X1663067Y2189501D1*
X1659216Y2185551D1*
X1659208Y1266078D1*
X1663067Y1262092D1*
X1667356Y1256189D1*
X1670668Y1249688D1*
X1672923Y1242748D1*
X1674065Y1235541D1*
Y1228245D1*
X1672923Y1221038D1*
X1670668Y1214098D1*
X1667356Y1207597D1*
X1663067Y1201694D1*
X1661682Y1200196D1*
X1824133Y1200200D1*
X1828665Y1204752D1*
X1828758Y1720699D1*
X1829531Y1725582D1*
X1831059Y1730283D1*
X1833303Y1734687D1*
X1836208Y1738686D1*
X1860887Y1763502D1*
X1864646Y1766712D1*
X1868860Y1769295D1*
X1873427Y1771186D1*
X1878233Y1772340D1*
X1883161Y1772728D1*
X2141778D1*
X2157199Y1651201D2*
X2151096Y1657313D1*
X2145929Y1664426D1*
X2141937Y1672259D1*
X2139220Y1680621D1*
X2137845Y1689304D1*
Y1698096D1*
X2139220Y1706779D1*
X2140055Y1709740D1*
X2036304Y1709728D1*
X2091714Y1654136D1*
X2095542Y1648868D1*
X2098498Y1643065D1*
X2100511Y1636872D1*
X2101529Y1630440D1*
X2101657Y1590439D1*
Y1569446D1*
X2196453Y1474637D1*
X2202465Y1474038D1*
X2209045Y1472540D1*
X2165945Y1515790D1*
X2162579Y1520424D1*
X2159978Y1525527D1*
X2158208Y1530974D1*
X2157312Y1536631D1*
X2157200Y1585427D1*
Y1651202D1*
X822703Y1890186D2*
X814965Y1888362D1*
X808965Y1887781D1*
X790151Y1868961D1*
X790172Y1797359D1*
X797435Y1799038D1*
X806200Y1799728D1*
X814965Y1799038D1*
X822703Y1797214D1*
X822700Y1890139D1*
X822703Y1690186D2*
X814965Y1688362D1*
X806200Y1687672D1*
X797435Y1688362D1*
X790160Y1690055D1*
X790172Y1443397D1*
X808948Y1424642D1*
X814965Y1424038D1*
X822703Y1422214D1*
X822700Y1690192D1*
X2152204Y1381114D2*
X2148373Y1385768D1*
X2143779Y1393264D1*
X2140415Y1401387D1*
X2138362Y1409935D1*
X2137781Y1415935D1*
X2043651Y1510059D1*
X2043657Y1282788D1*
X2047516Y1278816D1*
X2051805Y1272913D1*
X2055117Y1266412D1*
X2057372Y1259472D1*
X2058514Y1252265D1*
Y1244969D1*
X2057372Y1237762D1*
X2055117Y1230822D1*
X2051805Y1224321D1*
X2047516Y1218418D1*
X2042356Y1213258D1*
X2036453Y1208969D1*
X2029952Y1205657D1*
X2023012Y1203402D1*
X2015805Y1202260D1*
X2008509D1*
X2001302Y1203402D1*
X1994362Y1205657D1*
X1987861Y1208969D1*
X1981958Y1213258D1*
X1976798Y1218418D1*
X1972509Y1224321D1*
X1969197Y1230822D1*
X1966942Y1237762D1*
X1966282Y1241077D1*
X1964121Y1234511D1*
X1960809Y1228010D1*
X1956520Y1222107D1*
X1951360Y1216947D1*
X1945457Y1212658D1*
X1938956Y1209346D1*
X1932016Y1207091D1*
X1924809Y1205949D1*
X1917513D1*
X1910306Y1207091D1*
X1903366Y1209346D1*
X1896865Y1212658D1*
X1891667Y1216391D1*
X1891564Y1189229D1*
X1890791Y1184346D1*
X1889263Y1179645D1*
X1887019Y1175241D1*
X1884114Y1171242D1*
X1865663Y1152654D1*
X2003315Y1152649D1*
X2093474Y1242653D1*
X2097473Y1245558D1*
X2101877Y1247802D1*
X2106578Y1249330D1*
X2111461Y1250103D1*
X2147340Y1250200D1*
X2151096Y1255087D1*
X2157313Y1261304D1*
X2164426Y1266471D1*
X2168264Y1268779D1*
X2160768Y1273373D1*
X2154083Y1279083D1*
X2148373Y1285768D1*
X2143779Y1293264D1*
X2140415Y1301387D1*
X2138362Y1309935D1*
X2137672Y1318700D1*
X2138362Y1327465D1*
X2140415Y1336013D1*
X2143779Y1344136D1*
X2148373Y1351632D1*
X2152204Y1356286D1*
X2152200Y1381031D1*
X2242722Y1091660D2*
X2239027Y1085768D1*
X2233317Y1079083D1*
X2230201Y1076201D1*
X2230088Y1007269D1*
X2229192Y1001612D1*
X2227422Y996165D1*
X2224821Y991062D1*
X2221455Y986428D1*
X2186501Y951316D1*
X2186813Y950200D1*
X2238163D1*
X2242732Y954752D1*
X2242728Y1091588D1*
X2157199Y1076201D2*
X2151096Y1082313D1*
X2149618Y1084189D1*
X2149516Y1035662D1*
X2148743Y1030779D1*
X2147215Y1026078D1*
X2144971Y1021674D1*
X2142066Y1017675D1*
X2140380Y1015852D1*
X2147882Y1015934D1*
X2157194Y1025246D1*
X2157200Y1076196D1*
X822703Y1315186D2*
X814965Y1313362D1*
X808965Y1312781D1*
X790151Y1293961D1*
X790172Y1222359D1*
X797435Y1224038D1*
X806200Y1224728D1*
X814965Y1224038D1*
X816667Y1223699D1*
X822700Y1235073D1*
Y1315130D1*
X860703Y1155739D2*
X857963Y1147259D1*
X853971Y1139426D1*
X848804Y1132313D1*
X842587Y1126096D1*
X835474Y1120929D1*
X827641Y1116937D1*
X819279Y1114220D1*
X810596Y1112845D1*
X801804D1*
X793121Y1114220D1*
X790160Y1115055D1*
X790172Y868397D1*
X808948Y849642D1*
X814965Y849038D1*
X823513Y846985D1*
X831636Y843621D1*
X839132Y839027D1*
X845817Y833317D1*
X851527Y826632D1*
X856121Y819136D1*
X859485Y811013D1*
X860703Y806661D1*
X860700Y1155704D1*
X2249555Y839304D2*
X2248180Y830621D1*
X2245463Y822259D1*
X2241471Y814426D1*
X2236304Y807313D1*
X2235196Y806114D1*
X2235200Y781369D1*
X2239027Y776632D1*
X2241832Y772330D1*
X2276420Y807011D1*
X2280775Y810731D1*
X2285669Y813728D1*
X2284963Y817422D1*
X2273275Y829246D1*
X2270370Y833245D1*
X2268126Y837649D1*
X2266598Y842350D1*
X2265825Y847233D1*
X2265728Y890720D1*
X2260962Y888742D1*
X2256156Y887588D1*
X2251228Y887200D1*
X2229016D1*
X2233317Y883317D1*
X2239027Y876632D1*
X2243621Y869136D1*
X2246985Y861013D1*
X2249038Y852465D1*
X2249728Y843700D1*
X2249555Y839304D1*
X2152204Y806114D2*
X2148373Y810768D1*
X2143779Y818264D1*
X2140415Y826387D1*
X2138362Y834935D1*
X2137672Y843700D1*
X2138362Y852465D1*
X2140415Y861013D1*
X2143779Y869136D1*
X2148373Y876632D1*
X2154083Y883317D1*
X2158460Y887208D1*
X1623937Y887200D1*
X1617894Y881761D1*
X2046585Y881670D1*
X2051468Y880897D1*
X2056169Y879369D1*
X2060573Y877125D1*
X2064572Y874220D1*
X2101226Y837703D1*
X2106801Y837585D1*
X2114008Y836443D1*
X2120948Y834188D1*
X2127449Y830876D1*
X2133352Y826587D1*
X2138512Y821427D1*
X2142801Y815524D1*
X2146113Y809023D1*
X2148368Y802083D1*
X2149510Y794876D1*
Y787580D1*
X2148368Y780373D1*
X2145821Y772799D1*
X2151096Y780087D1*
X2152204Y781286D1*
X2152200Y806031D1*
X860703Y780739D2*
X857963Y772259D1*
X853971Y764426D1*
X848804Y757313D1*
X842587Y751096D1*
X835474Y745929D1*
X827641Y741937D1*
X819279Y739220D1*
X810596Y737845D1*
X801804D1*
X793121Y739220D1*
X784759Y741937D1*
X776926Y745929D1*
X769813Y751096D1*
X763596Y757313D1*
X758429Y764426D1*
X754437Y772259D1*
X751720Y780621D1*
X750345Y789304D1*
X750281Y790935D1*
X717115Y824276D1*
X713287Y829544D1*
X710331Y835347D1*
X708319Y841540D1*
X707300Y847972D1*
X707172Y887973D1*
X707300Y1314428D1*
X708318Y1320860D1*
X710331Y1327053D1*
X713287Y1332856D1*
X717115Y1338124D1*
X747517Y1368708D1*
X717115Y1399276D1*
X713287Y1404544D1*
X710331Y1410347D1*
X708319Y1416540D1*
X707300Y1422972D1*
X707172Y1462973D1*
X707300Y1889428D1*
X708319Y1895860D1*
X710331Y1902053D1*
X713287Y1907856D1*
X717115Y1913124D1*
X747517Y1943707D1*
X547195Y2144015D1*
X547208Y1140445D1*
X679591Y1007909D1*
X682496Y1003910D1*
X684740Y999506D1*
X686268Y994805D1*
X687041Y989922D1*
X687138Y923147D1*
Y528313D1*
X691690Y523766D1*
X925086Y523966D1*
X923195Y528533D1*
X922041Y533339D1*
X921653Y538277D1*
Y668562D1*
X919058Y663241D1*
X916153Y659242D1*
X869004Y611956D1*
X861214Y604166D1*
X862055Y598096D1*
Y589304D1*
X860680Y580621D1*
X857963Y572259D1*
X853971Y564426D1*
X848804Y557313D1*
X842587Y551096D1*
X835474Y545929D1*
X827641Y541937D1*
X819279Y539220D1*
X810596Y537845D1*
X801804D1*
X793121Y539220D1*
X784759Y541937D1*
X776926Y545929D1*
X769813Y551096D1*
X763596Y557313D1*
X758429Y564426D1*
X754437Y572259D1*
X751720Y580621D1*
X750345Y589304D1*
Y598096D1*
X751720Y606779D1*
X754437Y615141D1*
X758429Y622974D1*
X763596Y630087D1*
X769813Y636304D1*
X776926Y641471D1*
X784759Y645463D1*
X793121Y648180D1*
X801804Y649555D1*
X810596D1*
X816667Y648699D1*
X860682Y692730D1*
X860700Y780714D1*
X1396021Y1119809D2*
X1390149Y1116917D1*
X1381785Y1114199D1*
X1373098Y1112823D1*
X1364302D1*
X1355615Y1114199D1*
X1347751Y1116732D1*
Y1089203D1*
X1352303Y1084629D1*
X1769179Y1084633D1*
X1774677Y1089649D1*
X1436780Y1089746D1*
X1431897Y1090519D1*
X1427196Y1092047D1*
X1422792Y1094291D1*
X1418793Y1097196D1*
X1396077Y1119776D1*
X1284746Y1115034D2*
X1277468Y1113340D1*
X1268700Y1112650D1*
X1259932Y1113340D1*
X1252654Y1115034D1*
X1252649Y1043340D1*
X1256966Y1045091D1*
X1261772Y1046245D1*
X1266700Y1046633D1*
X1301185D1*
X1292298Y1055675D1*
X1289393Y1059674D1*
X1287149Y1064078D1*
X1285621Y1068779D1*
X1284848Y1073662D1*
X1284751Y1114996D1*
X1132210Y1126161D2*
X1126079Y1132299D1*
X1120910Y1139414D1*
X1116917Y1147251D1*
X1115471Y1151170D1*
X1115468Y1035502D1*
X1132191Y1052200D1*
X1132200Y1126190D1*
X3344964Y2337698D2*
X3344258Y2331733D1*
X3343086Y2325841D1*
X3341456Y2320060D1*
X3339377Y2314425D1*
X3336862Y2308970D1*
X3333927Y2303729D1*
X3330590Y2298734D1*
X3326871Y2294017D1*
X3322794Y2289606D1*
X3318383Y2285529D1*
X3313666Y2281810D1*
X3308671Y2278473D1*
X3301747Y2274762D1*
X3308472Y2271348D1*
X3314375Y2267059D1*
X3319535Y2261899D1*
X3323824Y2255996D1*
X3327136Y2249495D1*
X3329391Y2242555D1*
X3330533Y2235348D1*
Y2228052D1*
X3330196Y2225205D1*
X3394611Y2225200D1*
X3366945Y2252995D1*
X3363579Y2257629D1*
X3360978Y2262732D1*
X3359208Y2268179D1*
X3358312Y2273836D1*
X3358200Y2322632D1*
Y2373193D1*
X3352555Y2371485D1*
X3345348Y2370343D1*
X3340432Y2370250D1*
X3343086Y2361559D1*
X3344258Y2355667D1*
X3344964Y2349702D1*
X3345200Y2343700D1*
X3344964Y2337698D1*
X3544964D2*
X3544258Y2331733D1*
X3543086Y2325841D1*
X3541456Y2320060D1*
X3539377Y2314425D1*
X3536862Y2308970D1*
X3533927Y2303729D1*
X3530590Y2298734D1*
X3526871Y2294017D1*
X3522794Y2289606D1*
X3518383Y2285529D1*
X3511266Y2280207D1*
X3607229Y2280200D1*
X3607312Y2330580D1*
X3608208Y2336237D1*
X3609978Y2341684D1*
X3612579Y2346787D1*
X3615945Y2351421D1*
X3619995Y2355471D1*
X3624629Y2358837D1*
X3629732Y2361438D1*
X3635179Y2363208D1*
X3640836Y2364104D1*
X3689632Y2364216D1*
X3775564Y2364104D1*
X3781221Y2363208D1*
X3786668Y2361438D1*
X3791771Y2358837D1*
X3796405Y2355471D1*
X3831509Y2320525D1*
X3835229Y2316170D1*
X3838222Y2311287D1*
X3840414Y2305995D1*
X3841751Y2300426D1*
X3842200Y2294705D1*
X3846402Y2298256D1*
X3900220Y2352074D1*
X3900200Y2574525D1*
X3787648Y2462143D1*
X3782380Y2458315D1*
X3776577Y2455359D1*
X3770384Y2453347D1*
X3763952Y2452328D1*
X3723951Y2452200D1*
X3510188D1*
X3510200Y2407973D1*
X3518383Y2401871D1*
X3522794Y2397794D1*
X3526871Y2393383D1*
X3530590Y2388666D1*
X3533927Y2383671D1*
X3536862Y2378430D1*
X3539377Y2372975D1*
X3541456Y2367340D1*
X3543086Y2361559D1*
X3544258Y2355667D1*
X3544964Y2349702D1*
X3545200Y2343700D1*
X3544964Y2337698D1*
X1229839Y2099333D2*
X1222589Y2102268D1*
X1216368Y2106081D1*
X1210820Y2110820D1*
X1206081Y2116368D1*
X1202268Y2122589D1*
X1200202Y2127364D1*
X1200200Y2086356D1*
X1207884Y2088915D1*
X1215091Y2090057D1*
X1220606Y2090127D1*
X1229832Y2099341D1*
X1849766Y1049485D2*
X1849429Y1046638D1*
X2082096Y1046633D1*
X2086617Y1051185D1*
X2086613Y1132042D1*
X2082754Y1136029D1*
X2079773Y1139975D1*
X2036839Y1097196D1*
X2032840Y1094291D1*
X2028436Y1092047D1*
X2023735Y1090519D1*
X2018852Y1089746D1*
X1952077Y1089649D1*
X1832187D1*
X1836289Y1086013D1*
X1841028Y1080465D1*
X1844841Y1074244D1*
X1847633Y1067502D1*
X1849337Y1060407D1*
X1849909Y1053133D1*
X1849766Y1049485D1*
X1969597Y1659058D2*
X1963002Y1661796D1*
X1956781Y1665609D1*
X1951233Y1670348D1*
X1946494Y1675896D1*
X1942681Y1682117D1*
X1939889Y1688859D1*
X1938185Y1695954D1*
X1937613Y1703228D1*
X1938093Y1709723D1*
X1896212Y1709728D1*
X1891657Y1705176D1*
X1891661Y1667093D1*
X1896865Y1670828D1*
X1903366Y1674140D1*
X1910306Y1676395D1*
X1917513Y1677537D1*
X1924809D1*
X1932016Y1676395D1*
X1938956Y1674140D1*
X1945457Y1670828D1*
X1951360Y1666539D1*
X1956520Y1661379D1*
X1960809Y1655476D1*
X1964121Y1648975D1*
X1966376Y1642035D1*
X1967518Y1634828D1*
Y1627532D1*
X1966376Y1620325D1*
X1964121Y1613385D1*
X1960809Y1606884D1*
X1956520Y1600981D1*
X1952669Y1597031D1*
X1952661Y1286512D1*
X1956520Y1282505D1*
X1960809Y1276602D1*
X1964121Y1270101D1*
X1966376Y1263161D1*
X1967036Y1259846D1*
X1969197Y1266412D1*
X1972509Y1272913D1*
X1976798Y1278816D1*
X1980649Y1282766D1*
X1980657Y1530057D1*
X1976798Y1534029D1*
X1972509Y1539932D1*
X1969197Y1546433D1*
X1966942Y1553373D1*
X1965800Y1560580D1*
Y1567876D1*
X1966942Y1575083D1*
X1969197Y1582023D1*
X1972509Y1588524D1*
X1976798Y1594427D1*
X1981958Y1599587D1*
X1987861Y1603876D1*
X1994362Y1607188D1*
X2001302Y1609443D1*
X2008509Y1610585D1*
X2015805D1*
X2018369Y1610281D1*
X1969585Y1659066D1*
X3439699Y2530004D2*
X3444404Y2533348D1*
X3450905Y2536660D1*
X3457845Y2538915D1*
X3465052Y2540057D1*
X3472348D1*
X3479555Y2538915D1*
X3486495Y2536660D1*
X3489668Y2535197D1*
X3743537Y2535200D1*
X3788772Y2580466D1*
X3782845Y2581489D1*
X3775905Y2583744D1*
X3769404Y2587056D1*
X3763501Y2591345D1*
X3759551Y2595196D1*
X3418890Y2595204D1*
X3414899Y2591345D1*
X3408996Y2587056D1*
X3407714Y2586338D1*
X3412495Y2584660D1*
X3418996Y2581348D1*
X3424899Y2577059D1*
X3430059Y2571899D1*
X3434348Y2565996D1*
X3437660Y2559495D1*
X3439915Y2552555D1*
X3441057Y2545348D1*
Y2538052D1*
X3439915Y2530845D1*
X3439687Y2530035D1*
X4959551Y2492208D2*
X4963501Y2496059D1*
X4969404Y2500348D1*
X4975905Y2503660D1*
X4982845Y2505915D1*
X4985293Y2506402D1*
X4914139Y2577754D1*
X4913200Y2576163D1*
Y2496752D1*
X4917752Y2492196D1*
X4959495Y2492200D1*
X4640057Y2310580D2*
X4639720Y2307733D1*
X4674092Y2307616D1*
X4679760Y2306717D1*
X4682200Y2307348D1*
Y2309107D1*
X4670587Y2320722D1*
X4639732Y2320728D1*
X4640200Y2314228D1*
X4640057Y2310580D1*
X3733057Y2281068D2*
X3731915Y2273861D1*
X3729660Y2266921D1*
X3726348Y2260420D1*
X3722059Y2254517D1*
X3718208Y2250567D1*
X3718200Y2218251D1*
X3724700Y2218700D1*
X3731974Y2218128D1*
X3739069Y2216424D1*
X3745811Y2213632D1*
X3752032Y2209819D1*
X3757580Y2205080D1*
X3762319Y2199532D1*
X3766132Y2193311D1*
X3768924Y2186569D1*
X3769199Y2185595D1*
X3769200Y2279605D1*
X3757587Y2291210D1*
X3732761Y2291216D1*
X3733200Y2284716D1*
X3733057Y2281068D1*
X4797220Y2679705D2*
X4797772Y2687478D1*
X4799476Y2694573D1*
X4802268Y2701315D1*
X4806081Y2707536D1*
X4810820Y2713084D1*
X4816368Y2717823D1*
X4822589Y2721636D1*
X4829331Y2724428D1*
X4836426Y2726132D1*
X4843700Y2726704D1*
X4850195Y2726224D1*
X4850200Y2737652D1*
X4845648Y2742208D1*
X4777925Y2742204D1*
X4781319Y2738032D1*
X4785132Y2731811D1*
X4787924Y2725069D1*
X4789628Y2717974D1*
X4790200Y2710700D1*
X4789628Y2703426D1*
X4787924Y2696331D1*
X4785233Y2689810D1*
X4791899Y2685063D1*
X4797209Y2679713D1*
X4802707Y1154130D2*
X4806081Y1159567D1*
X4807202Y1160989D1*
X4807200Y2640124D1*
X4805924Y2635335D1*
X4803132Y2628593D1*
X4799319Y2622372D1*
X4798198Y2620950D1*
X4798200Y1161049D1*
X4801348Y1156527D1*
X4802679Y1154150D1*
X4508082Y2646697D2*
X4506915Y2638849D1*
X4504660Y2631909D1*
X4501348Y2625408D1*
X4497059Y2619505D1*
X4491899Y2614345D1*
X4485996Y2610056D1*
X4479495Y2606744D1*
X4472555Y2604489D1*
X4465348Y2603347D1*
X4458052D1*
X4450845Y2604489D1*
X4443905Y2606744D1*
X4437404Y2610056D1*
X4432946Y2613206D1*
X4094336Y2613316D1*
X4088679Y2614212D1*
X4083232Y2615982D1*
X4078129Y2618583D1*
X4073495Y2621949D1*
X4061368Y2633917D1*
X4059198Y2630950D1*
X4059200Y2491874D1*
X4063501Y2496059D1*
X4069404Y2500348D1*
X4075905Y2503660D1*
X4082845Y2505915D1*
X4090052Y2507057D1*
X4097348D1*
X4104555Y2505915D1*
X4111495Y2503660D1*
X4117996Y2500348D1*
X4123899Y2496059D1*
X4127849Y2492208D1*
X4459468Y2492200D1*
X4463501Y2496059D1*
X4469404Y2500348D1*
X4475905Y2503660D1*
X4482845Y2505915D1*
X4490052Y2507057D1*
X4497348D1*
X4504555Y2505915D1*
X4510197Y2504139D1*
X4510200Y2644589D1*
X4725202Y2620950D2*
X4722052Y2625408D1*
X4718740Y2631909D1*
X4716485Y2638849D1*
X4715343Y2646056D1*
Y2653352D1*
X4716485Y2660559D1*
X4718740Y2667499D1*
X4720167Y2670594D1*
X4713501Y2675341D1*
X4708341Y2680501D1*
X4704052Y2686404D1*
X4700740Y2692905D1*
X4698485Y2699845D1*
X4697560Y2705225D1*
X4690323Y2709204D1*
X4688780D1*
X4690057Y2701352D1*
Y2694056D1*
X4688915Y2686849D1*
X4686660Y2679909D1*
X4683348Y2673408D1*
X4680198Y2668950D1*
X4680087Y2423686D1*
X4679192Y2418029D1*
X4677422Y2412582D1*
X4674821Y2407479D1*
X4671455Y2402845D1*
X4662481Y2393712D1*
X4688564Y2393615D1*
X4694221Y2392720D1*
X4699668Y2390950D1*
X4704771Y2388349D1*
X4709405Y2384983D1*
X4725186Y2369361D1*
X4725200Y2620886D1*
X4607202Y2668950D2*
X4604052Y2673408D1*
X4600740Y2679909D1*
X4598485Y2686849D1*
X4597343Y2694056D1*
Y2701352D1*
X4598667Y2709204D1*
X4548832D1*
X4574455Y2683409D1*
X4577821Y2678775D1*
X4580422Y2673672D1*
X4582192Y2668225D1*
X4583088Y2662568D1*
X4583200Y2613772D1*
Y2477448D1*
X4586348Y2472921D1*
X4589660Y2466420D1*
X4591915Y2459480D1*
X4593057Y2452273D1*
Y2444977D1*
X4591915Y2437770D1*
X4589660Y2430830D1*
X4589296Y2430040D1*
X4597882Y2432351D1*
X4607194Y2441663D1*
X4607200Y2668876D1*
X3736447Y2090860D2*
X3733946Y2092702D1*
X3329614Y2092700D1*
X3330533Y2086364D1*
Y2079068D1*
X3329566Y2072742D1*
X3556423Y2072631D1*
X3561306Y2071858D1*
X3566007Y2070330D1*
X3570411Y2068086D1*
X3574410Y2065181D1*
X3614515Y2025213D1*
X3708020Y2025200D1*
X3705259Y2031859D1*
X3703555Y2038954D1*
X3702983Y2046228D1*
X3703555Y2053502D1*
X3705259Y2060597D1*
X3708051Y2067339D1*
X3711864Y2073560D1*
X3716603Y2079108D1*
X3722151Y2083847D1*
X3728372Y2087660D1*
X3735114Y2090452D1*
X3736445Y2090828D1*
X3797332Y2673053D2*
X3797680Y2676199D1*
X3389828Y2676204D1*
X3386782Y2673167D1*
X3391974Y2672632D1*
X3399069Y2670928D1*
X3405811Y2668136D1*
X3412032Y2664323D1*
X3417580Y2659584D1*
X3418849Y2658212D1*
X3759510Y2658204D1*
X3763501Y2662063D1*
X3769404Y2666352D1*
X3775905Y2669664D1*
X3782845Y2671919D1*
X3790052Y2673061D1*
X3797334D1*
X3122736Y2587720D2*
X3129231Y2588200D1*
X3135726Y2587720D1*
X3135731Y2673999D1*
X3129231Y2673574D1*
X3122736Y2674054D1*
X3122728Y2587773D1*
X3220730Y942898D2*
X3221952Y947573D1*
X3224744Y954315D1*
X3225239Y955198D1*
X3221848Y956729D1*
X3220728Y954209D1*
Y943049D1*
X1160557Y2754426D2*
X1160136Y2750871D1*
X1164229Y2751477D1*
X1231004Y2751574D1*
X1344506D1*
X1339904Y2754052D1*
X1334001Y2758341D1*
X1328841Y2763501D1*
X1328002Y2764565D1*
X1160265Y2764574D1*
X1160700Y2758074D1*
X1160557Y2754426D1*
X2059393Y1896877D2*
X2037475Y1874959D1*
X2062098Y1874954D1*
X2066647Y1879506D1*
X2066645Y1908118D1*
X2064003Y1902717D1*
X2061098Y1898718D1*
X2059412Y1896896D1*
D17*
X2443700Y2593700D3*
Y2493700D3*
Y2393700D3*
Y2293700D3*
Y2193700D3*
Y2093700D3*
Y1993700D3*
Y1893700D3*
Y1793700D3*
Y1693700D3*
Y1593700D3*
Y1493700D3*
Y1393700D3*
Y1293700D3*
X3043700D3*
Y1393700D3*
Y1493700D3*
Y1593700D3*
Y1693700D3*
Y1793700D3*
Y1893700D3*
Y1993700D3*
Y2093700D3*
Y2193700D3*
Y2293700D3*
Y2393700D3*
Y2493700D3*
Y2593700D3*
X2743700Y1993700D3*
Y1893700D3*
Y1793700D3*
Y1693700D3*
Y1593700D3*
Y1493700D3*
Y1393700D3*
X2843700D3*
Y1493700D3*
Y1593700D3*
Y1693700D3*
Y1793700D3*
Y1893700D3*
Y1993700D3*
X2543700Y1293700D3*
X2643700D3*
X2743700D3*
X2843700D3*
X2943700D3*
Y2093700D3*
Y2193700D3*
Y2293700D3*
D18*
X1143700Y2543700D3*
X1193700D3*
X1243700D3*
X1293700D3*
X1343700D3*
X1393700D3*
X1443700D3*
X1493700D3*
Y2307480D3*
X1443700D3*
X1393700D3*
X1343700D3*
X1293700D3*
X1243700D3*
X1193700D3*
X1143700D3*
D19*
X3118700Y993700D3*
D20*
X3018700D3*
X2918700D3*
X2818700D3*
X2718700D3*
X2618700D3*
D19*
X2518700D3*
D20*
X2418700D3*
Y493700D3*
X2518700D3*
X2618700D3*
X2718700D3*
X2818700D3*
X2918700D3*
X3018700D3*
X3118700D3*
D19*
X3293700Y1993700D3*
D20*
Y1893700D3*
Y1793700D3*
Y1693700D3*
Y1593700D3*
Y1493700D3*
D19*
Y1393700D3*
D20*
Y1293700D3*
X3793700D3*
Y1393700D3*
Y1493700D3*
Y1593700D3*
Y1693700D3*
Y1793700D3*
Y1893700D3*
Y1993700D3*
D19*
X4918700Y993700D3*
D20*
X4818700D3*
X4718700D3*
X4618700D3*
X4518700D3*
X4418700D3*
D19*
X4318700D3*
D20*
X4218700D3*
Y493700D3*
X4318700D3*
X4418700D3*
X4518700D3*
X4618700D3*
X4718700D3*
X4818700D3*
X4918700D3*
D19*
X4018700Y993700D3*
D20*
X3918700D3*
X3818700D3*
X3718700D3*
X3618700D3*
X3518700D3*
D19*
X3418700D3*
D20*
X3318700D3*
Y493700D3*
X3418700D3*
X3518700D3*
X3618700D3*
X3718700D3*
X3818700D3*
X3918700D3*
X4018700D3*
D22*
X3693700Y1618700D3*
Y1581199D3*
Y1493700D3*
Y1456199D3*
Y1368700D3*
Y1331199D3*
X2893700Y743700D3*
Y781201D3*
X2693700Y743700D3*
Y781201D3*
X2493700Y743700D3*
Y781201D3*
X4793700Y743700D3*
Y781201D3*
X4593700Y743700D3*
Y781201D3*
X4393700Y743700D3*
Y781201D3*
X3843700Y743700D3*
Y781201D3*
X3643700Y743700D3*
Y781201D3*
X3443700Y743700D3*
Y781201D3*
D24*
X1243700Y918700D3*
X1133464D3*
X1243700Y743700D3*
X1133464D3*
X1243700Y568700D3*
X1133464D3*
X1493700Y918700D3*
X1383464D3*
X1493700Y743700D3*
X1383464D3*
X1493700Y568700D3*
X1383464D3*
D20*
X4618700Y1668700D3*
Y1298700D3*
X5218700Y1668700D3*
Y1298700D3*
X4618700Y2218700D3*
Y1848700D3*
X5218700Y2218700D3*
Y1848700D3*
D25*
X4332700Y1993700D3*
Y1893700D3*
Y1793700D3*
Y1693700D3*
Y1593700D3*
Y1493700D3*
Y1393700D3*
Y1293700D3*
D26*
X4093700Y2043700D3*
Y1943700D3*
Y1843700D3*
Y1743700D3*
Y1643700D3*
Y1543700D3*
Y1443700D3*
Y1343700D3*
Y1243700D3*
D27*
X3643700Y2243700D3*
D28*
X3943700D3*
D17*
X2193700Y2568700D3*
Y2468700D3*
Y2368700D3*
Y2268700D3*
X806200Y2518700D3*
Y2318700D3*
X2193700Y1993700D3*
Y1893700D3*
Y1793700D3*
Y1693700D3*
X806200Y1943700D3*
Y1743700D3*
X2193700Y1418700D3*
Y1318700D3*
Y1218700D3*
Y1118700D3*
X806200Y1368700D3*
Y1168700D3*
X2193700Y843700D3*
Y743700D3*
Y643700D3*
Y543700D3*
X806200Y793700D3*
Y593700D3*
D29*
X1468700Y1268700D3*
D30*
X1368700D3*
X1268700D3*
X1168700D3*
X1468700Y1168700D3*
X1368700D3*
X1268700D3*
X1168700D3*
D31*
X3268700Y2343700D3*
X3468700D3*
D20*
X5168700Y818700D3*
Y1018700D3*
M02*
