G04 DipTrace 3.3.1.3*
G04 BottomPaste.gbr*
%MOIN*%
G04 #@! TF.FileFunction,Paste,Bot*
G04 #@! TF.Part,Single*
%ADD56R,0.055112X0.062986*%
%ADD60R,0.04212X0.01712*%
%ADD68R,0.023616X0.07086*%
%FSLAX26Y26*%
G04*
G70*
G90*
G75*
G01*
G04 BotPaste*
%LPD*%
D68*
X1143700Y2543700D3*
X1193700D3*
X1243700D3*
X1293700D3*
X1343700D3*
X1393700D3*
X1443700D3*
X1493700D3*
Y2307480D3*
X1443700D3*
X1393700D3*
X1343700D3*
X1293700D3*
X1243700D3*
X1193700D3*
X1143700D3*
D60*
X3693700Y1618700D3*
Y1581199D3*
Y1493700D3*
Y1456199D3*
Y1368700D3*
Y1331199D3*
X2893700Y743700D3*
Y781201D3*
X2693700Y743700D3*
Y781201D3*
X2493700Y743700D3*
Y781201D3*
X4793700Y743700D3*
Y781201D3*
X4593700Y743700D3*
Y781201D3*
X4393700Y743700D3*
Y781201D3*
X3843700Y743700D3*
Y781201D3*
X3643700Y743700D3*
Y781201D3*
X3443700Y743700D3*
Y781201D3*
D56*
X1243700Y918700D3*
X1133464D3*
X1243700Y743700D3*
X1133464D3*
X1243700Y568700D3*
X1133464D3*
X1493700Y918700D3*
X1383464D3*
X1493700Y743700D3*
X1383464D3*
X1493700Y568700D3*
X1383464D3*
M02*
