G04 DipTrace 3.3.1.3*
G04 BottomSilk.gbr*
%MOIN*%
G04 #@! TF.FileFunction,Legend,Bot*
G04 #@! TF.Part,Single*
%ADD10C,0.009843*%
%ADD71C,0.00772*%
%ADD73C,0.016983*%
%ADD74C,0.012351*%
%FSLAX26Y26*%
G04*
G70*
G90*
G75*
G01*
G04 BotSilk*
%LPD*%
X1121865Y2488991D2*
D10*
X1515535D1*
Y2362220D1*
X1121865Y2362188D1*
Y2488960D2*
Y2442661D1*
Y2362220D2*
Y2408519D1*
Y2442661D2*
G02X1121865Y2408519I-1380J-17071D01*
G01*
X3662450Y1574949D2*
Y1624950D1*
X3724950D2*
Y1574949D1*
X3662450Y1449949D2*
Y1499950D1*
X3724950D2*
Y1449949D1*
X3662450Y1324949D2*
Y1374950D1*
X3724950D2*
Y1324949D1*
X2924950Y787451D2*
Y737450D1*
X2862450D2*
Y787451D1*
X2724950D2*
Y737450D1*
X2662450D2*
Y787451D1*
X2524950D2*
Y737450D1*
X2462450D2*
Y787451D1*
X4824950D2*
Y737450D1*
X4762450D2*
Y787451D1*
X4624950D2*
Y737450D1*
X4562450D2*
Y787451D1*
X4424950D2*
Y737450D1*
X4362450D2*
Y787451D1*
X3874950D2*
Y737450D1*
X3812450D2*
Y787451D1*
X3674950D2*
Y737450D1*
X3612450D2*
Y787451D1*
X3474950D2*
Y737450D1*
X3412450D2*
Y787451D1*
X1200361Y887235D2*
X1176802D1*
X1200361Y950165D2*
X1176802D1*
X1200361Y712235D2*
X1176802D1*
X1200361Y775165D2*
X1176802D1*
X1200361Y537235D2*
X1176802D1*
X1200361Y600165D2*
X1176802D1*
X1450361Y887235D2*
X1426802D1*
X1450361Y950165D2*
X1426802D1*
X1450361Y712235D2*
X1426802D1*
X1450361Y775165D2*
X1426802D1*
X1450361Y537235D2*
X1426802D1*
X1450361Y600165D2*
X1426802D1*
X1618700Y1118700D2*
X1018700D1*
Y2118700D1*
X1618700D1*
Y1118700D1*
X1118720Y2068700D2*
X1268720D1*
Y1968700D1*
X1318700D1*
Y2068700D1*
X1368680D1*
Y1968700D1*
X1418720D1*
Y2068700D1*
X1468700D1*
Y1968700D1*
X1518680D1*
Y2068700D1*
X1568720D1*
Y1868700D1*
X1168700D1*
X1568720D2*
Y1818700D1*
X1337197Y2656293D2*
D71*
X1341950Y2653972D1*
X1346759Y2649163D1*
X1349135Y2644355D1*
X1351567Y2637170D1*
Y2625232D1*
X1349135Y2618047D1*
X1346759Y2613293D1*
X1341950Y2608485D1*
X1337197Y2606108D1*
X1327636D1*
X1322827Y2608485D1*
X1318074Y2613293D1*
X1315697Y2618047D1*
X1313265Y2625232D1*
Y2637170D1*
X1315697Y2644355D1*
X1318074Y2649163D1*
X1322827Y2653972D1*
X1327636Y2656293D1*
X1337197D1*
X1330012Y2615670D2*
X1315697Y2601300D1*
X1297826Y2646676D2*
X1293018Y2649108D1*
X1285833Y2656238D1*
Y2606053D1*
X3589227Y1601700D2*
X3627474D1*
X3634659Y1604076D1*
X3637035Y1606508D1*
X3639467Y1611262D1*
Y1616070D1*
X3637035Y1620823D1*
X3634659Y1623200D1*
X3627473Y1625632D1*
X3622720D1*
X3598844Y1586261D2*
X3596412Y1581452D1*
X3589282Y1574267D1*
X3639467D1*
X3589227Y1487450D2*
X3627474D1*
X3634659Y1489826D1*
X3637035Y1492258D1*
X3639467Y1497011D1*
Y1501820D1*
X3637035Y1506573D1*
X3634659Y1508950D1*
X3627473Y1511382D1*
X3622720D1*
X3601220Y1469579D2*
X3598844D1*
X3594035Y1467202D1*
X3591659Y1464826D1*
X3589282Y1460017D1*
Y1450456D1*
X3591659Y1445702D1*
X3594035Y1443326D1*
X3598844Y1440894D1*
X3603597D1*
X3608405Y1443326D1*
X3615535Y1448079D1*
X3639467Y1472011D1*
Y1438517D1*
X3589227Y1362450D2*
X3627474D1*
X3634659Y1364826D1*
X3637035Y1367258D1*
X3639467Y1372011D1*
Y1376820D1*
X3637035Y1381573D1*
X3634659Y1383950D1*
X3627473Y1386382D1*
X3622720D1*
X3589282Y1342202D2*
Y1315949D1*
X3608405Y1330264D1*
Y1323079D1*
X3610782Y1318326D1*
X3613159Y1315949D1*
X3620344Y1313517D1*
X3625097D1*
X3632282Y1315949D1*
X3637090Y1320702D1*
X3639467Y1327887D1*
Y1335072D1*
X3637090Y1342202D1*
X3634659Y1344579D1*
X3629905Y1347011D1*
X2789227Y776139D2*
X2827473D1*
X2834659Y778516D1*
X2837035Y780948D1*
X2839467Y785701D1*
Y790509D1*
X2837035Y795263D1*
X2834659Y797639D1*
X2827473Y800071D1*
X2822720D1*
X2839467Y736769D2*
X2789282D1*
X2822720Y760700D1*
Y724830D1*
X2589227Y774951D2*
X2627474D1*
X2634659Y777328D1*
X2637035Y779760D1*
X2639467Y784513D1*
Y789321D1*
X2637035Y794074D1*
X2634659Y796451D1*
X2627473Y798883D1*
X2622720D1*
X2589282Y730827D2*
Y754704D1*
X2610782Y757080D1*
X2608406Y754703D1*
X2605974Y747518D1*
Y740389D1*
X2608405Y733204D1*
X2613159Y728395D1*
X2620344Y726019D1*
X2625097D1*
X2632282Y728395D1*
X2637090Y733204D1*
X2639467Y740389D1*
Y747518D1*
X2637090Y754703D1*
X2634659Y757080D1*
X2629905Y759512D1*
X2389227Y773735D2*
X2427474D1*
X2434659Y776112D1*
X2437035Y778544D1*
X2439467Y783297D1*
Y788105D1*
X2437035Y792858D1*
X2434659Y795235D1*
X2427473Y797667D1*
X2422720D1*
X2396412Y729611D2*
X2391659Y731988D1*
X2389282Y739173D1*
Y743926D1*
X2391659Y751111D1*
X2398844Y755919D1*
X2410782Y758296D1*
X2422720D1*
X2432282Y755919D1*
X2437090Y751111D1*
X2439467Y743926D1*
Y741549D1*
X2437090Y734420D1*
X2432282Y729611D1*
X2425097Y727235D1*
X2422720D1*
X2415535Y729611D1*
X2410782Y734420D1*
X2408405Y741549D1*
Y743926D1*
X2410782Y751111D1*
X2415535Y755919D1*
X2422720Y758296D1*
X4689227Y774951D2*
X4727474D1*
X4734659Y777328D1*
X4737035Y779760D1*
X4739467Y784513D1*
Y789321D1*
X4737035Y794074D1*
X4734659Y796451D1*
X4727473Y798883D1*
X4722720D1*
X4739467Y749950D2*
X4689282Y726019D1*
Y759512D1*
X4489227Y774924D2*
X4527474Y774923D1*
X4534659Y777300D1*
X4537035Y779732D1*
X4539467Y784485D1*
Y789294D1*
X4537035Y794047D1*
X4534659Y796423D1*
X4527473Y798855D1*
X4522720D1*
X4489282Y747546D2*
X4491659Y754676D1*
X4496412Y757108D1*
X4501220D1*
X4505974Y754676D1*
X4508406Y749923D1*
X4510782Y740361D1*
X4513159Y733176D1*
X4517967Y728423D1*
X4522720Y726046D1*
X4529905D1*
X4534658Y728423D1*
X4537090Y730799D1*
X4539467Y737984D1*
Y747546D1*
X4537090Y754676D1*
X4534659Y757108D1*
X4529905Y759484D1*
X4522720D1*
X4517967Y757108D1*
X4513159Y752299D1*
X4510782Y745170D1*
X4508405Y735608D1*
X4505974Y730799D1*
X4501220Y728423D1*
X4496412D1*
X4491659Y730799D1*
X4489282Y737984D1*
Y747546D1*
X4289227Y773763D2*
X4327474D1*
X4334659Y776139D1*
X4337035Y778571D1*
X4339467Y783324D1*
Y788133D1*
X4337035Y792886D1*
X4334659Y795263D1*
X4327473Y797695D1*
X4322720D1*
X4305974Y727207D2*
X4313159Y729639D1*
X4317967Y734392D1*
X4320344Y741577D1*
Y743954D1*
X4317967Y751139D1*
X4313159Y755892D1*
X4305974Y758324D1*
X4303597D1*
X4296412Y755892D1*
X4291659Y751139D1*
X4289282Y743954D1*
Y741577D1*
X4291659Y734392D1*
X4296412Y729639D1*
X4305974Y727207D1*
X4317967D1*
X4329905Y729639D1*
X4337090Y734392D1*
X4339467Y741577D1*
Y746330D1*
X4337090Y753515D1*
X4332282Y755892D1*
X3739227Y788668D2*
X3777473Y788667D1*
X3784659Y791044D1*
X3787035Y793476D1*
X3789467Y798229D1*
Y803038D1*
X3787035Y807791D1*
X3784659Y810167D1*
X3777473Y812599D1*
X3772720D1*
X3748844Y773228D2*
X3746412Y768420D1*
X3739282Y761235D1*
X3789467D1*
X3739282Y731426D2*
X3741659Y738611D1*
X3748844Y743419D1*
X3760782Y745796D1*
X3767967D1*
X3779905Y743419D1*
X3787090Y738610D1*
X3789467Y731425D1*
Y726672D1*
X3787090Y719487D1*
X3779905Y714734D1*
X3767967Y712302D1*
X3760782D1*
X3748844Y714734D1*
X3741659Y719487D1*
X3739282Y726672D1*
Y731426D1*
X3748844Y714734D2*
X3779905Y743419D1*
X3539227Y777918D2*
X3577473D1*
X3584659Y780294D1*
X3587035Y782726D1*
X3589467Y787479D1*
Y792288D1*
X3587035Y797041D1*
X3584659Y799417D1*
X3577473Y801849D1*
X3572720D1*
X3548844Y762478D2*
X3546412Y757670D1*
X3539282Y750485D1*
X3589467D1*
X3548844Y735046D2*
X3546412Y730237D1*
X3539282Y723052D1*
X3589467D1*
X3339227Y788668D2*
X3377473Y788667D1*
X3384659Y791044D1*
X3387035Y793476D1*
X3389467Y798229D1*
Y803038D1*
X3387035Y807791D1*
X3384659Y810167D1*
X3377473Y812599D1*
X3372720D1*
X3348844Y773228D2*
X3346412Y768420D1*
X3339282Y761235D1*
X3389467D1*
X3351220Y743364D2*
X3348844D1*
X3344035Y740987D1*
X3341659Y738611D1*
X3339282Y733802D1*
Y724240D1*
X3341659Y719487D1*
X3344035Y717111D1*
X3348844Y714679D1*
X3353597D1*
X3358405Y717111D1*
X3365535Y721864D1*
X3389467Y745796D1*
Y712302D1*
X1229795Y1003424D2*
X1208295D1*
X1201110Y1005856D1*
X1198678Y1008233D1*
X1196302Y1012986D1*
Y1017795D1*
X1198678Y1022548D1*
X1201110Y1024980D1*
X1208295Y1027356D1*
X1229795D1*
Y977116D1*
X1213048Y1003424D2*
X1196302Y977116D1*
X1171301D2*
X1147369Y1027301D1*
X1180862D1*
X1229767Y828424D2*
X1208267D1*
X1201082Y830856D1*
X1198650Y833233D1*
X1196274Y837986D1*
Y842795D1*
X1198650Y847548D1*
X1201082Y849980D1*
X1208267Y852356D1*
X1229767D1*
Y802116D1*
X1213021Y828424D2*
X1196274Y802116D1*
X1168896Y852301D2*
X1176026Y849924D1*
X1178458Y845171D1*
Y840363D1*
X1176026Y835609D1*
X1171273Y833178D1*
X1161711Y830801D1*
X1154526Y828424D1*
X1149773Y823616D1*
X1147397Y818863D1*
Y811678D1*
X1149773Y806925D1*
X1152150Y804493D1*
X1159335Y802116D1*
X1168896D1*
X1176026Y804493D1*
X1178458Y806925D1*
X1180835Y811678D1*
Y818863D1*
X1178458Y823616D1*
X1173650Y828424D1*
X1166520Y830801D1*
X1156958Y833178D1*
X1152150Y835609D1*
X1149773Y840363D1*
Y845171D1*
X1152150Y849924D1*
X1159335Y852301D1*
X1168896D1*
X1228607Y653424D2*
X1207107D1*
X1199922Y655856D1*
X1197490Y658233D1*
X1195113Y662986D1*
Y667795D1*
X1197490Y672548D1*
X1199922Y674980D1*
X1207107Y677356D1*
X1228607D1*
Y627116D1*
X1211860Y653424D2*
X1195113Y627116D1*
X1148557Y660609D2*
X1150989Y653424D1*
X1155742Y648616D1*
X1162927Y646239D1*
X1165304D1*
X1172489Y648616D1*
X1177242Y653424D1*
X1179674Y660609D1*
Y662986D1*
X1177242Y670171D1*
X1172489Y674924D1*
X1165304Y677301D1*
X1162927D1*
X1155742Y674924D1*
X1150989Y670171D1*
X1148557Y660609D1*
Y648616D1*
X1150989Y636678D1*
X1155742Y629493D1*
X1162927Y627116D1*
X1167680D1*
X1174866Y629493D1*
X1177242Y634301D1*
X1493511Y1003424D2*
X1472011D1*
X1464826Y1005856D1*
X1462394Y1008233D1*
X1460018Y1012986D1*
Y1017795D1*
X1462394Y1022548D1*
X1464826Y1024980D1*
X1472011Y1027356D1*
X1493511D1*
Y977116D1*
X1476765Y1003424D2*
X1460018Y977116D1*
X1444579Y1017739D2*
X1439770Y1020171D1*
X1432585Y1027301D1*
Y977116D1*
X1402776Y1027301D2*
X1409961Y1024924D1*
X1414769Y1017739D1*
X1417146Y1005801D1*
Y998616D1*
X1414769Y986678D1*
X1409961Y979493D1*
X1402776Y977116D1*
X1398023D1*
X1390838Y979493D1*
X1386084Y986678D1*
X1383653Y998616D1*
Y1005801D1*
X1386084Y1017739D1*
X1390838Y1024924D1*
X1398023Y1027301D1*
X1402776D1*
X1386084Y1017739D2*
X1414769Y986678D1*
X1482761Y828424D2*
X1461261D1*
X1454076Y830856D1*
X1451645Y833233D1*
X1449268Y837986D1*
Y842795D1*
X1451645Y847548D1*
X1454076Y849980D1*
X1461261Y852356D1*
X1482761D1*
Y802116D1*
X1466015Y828424D2*
X1449268Y802116D1*
X1433829Y842739D2*
X1429020Y845171D1*
X1421835Y852301D1*
Y802116D1*
X1406396Y842739D2*
X1401588Y845171D1*
X1394402Y852301D1*
Y802116D1*
X1493511Y653424D2*
X1472011D1*
X1464826Y655856D1*
X1462394Y658233D1*
X1460018Y662986D1*
Y667795D1*
X1462394Y672548D1*
X1464826Y674980D1*
X1472011Y677356D1*
X1493511D1*
Y627116D1*
X1476765Y653424D2*
X1460018Y627116D1*
X1444579Y667739D2*
X1439770Y670171D1*
X1432585Y677301D1*
Y627116D1*
X1414714Y665363D2*
Y667739D1*
X1412337Y672548D1*
X1409961Y674924D1*
X1405152Y677301D1*
X1395591D1*
X1390838Y674924D1*
X1388461Y672548D1*
X1386029Y667739D1*
Y662986D1*
X1388461Y658178D1*
X1393214Y651048D1*
X1417146Y627116D1*
X1383653D1*
X1373629Y2191923D2*
Y2156053D1*
X1371253Y2148868D1*
X1366444Y2144115D1*
X1359259Y2141683D1*
X1354506D1*
X1347321Y2144115D1*
X1342513Y2148868D1*
X1340136Y2156053D1*
Y2191923D1*
X1324697Y2182306D2*
X1319888Y2184738D1*
X1312703Y2191868D1*
Y2141683D1*
X1282894Y2191868D2*
X1290079Y2189491D1*
X1294887Y2182306D1*
X1297264Y2170368D1*
Y2163183D1*
X1294887Y2151245D1*
X1290079Y2144060D1*
X1282894Y2141683D1*
X1278141D1*
X1270956Y2144060D1*
X1266203Y2151245D1*
X1263771Y2163183D1*
Y2170368D1*
X1266203Y2182306D1*
X1270956Y2189491D1*
X1278141Y2191868D1*
X1282894D1*
X1266203Y2182306D2*
X1294887Y2151245D1*
X4993583Y2603582D2*
D73*
Y2714110D1*
X5035654Y2603582D1*
X5077726Y2714110D1*
Y2603582D1*
X4891282Y2714110D2*
X4959617D1*
Y2603582D1*
X4891282D1*
X4959617Y2661460D2*
X4917546D1*
X4857315Y2714110D2*
Y2603582D1*
X4794209D1*
X4728628Y2714110D2*
X4739207Y2708882D1*
X4749664Y2698303D1*
X4755014Y2687846D1*
X4760242Y2672039D1*
Y2645653D1*
X4755014Y2629968D1*
X4749664Y2619389D1*
X4739207Y2608932D1*
X4728628Y2603582D1*
X4707592D1*
X4697135Y2608932D1*
X4686557Y2619389D1*
X4681328Y2629968D1*
X4676100Y2645653D1*
Y2672039D1*
X4681328Y2687846D1*
X4686557Y2698303D1*
X4697135Y2708882D1*
X4707592Y2714110D1*
X4728628D1*
X4642134D2*
Y2603582D1*
X4605291D1*
X4589484Y2608932D1*
X4578905Y2619389D1*
X4573677Y2629968D1*
X4568448Y2645653D1*
Y2672039D1*
X4573677Y2687846D1*
X4578905Y2698303D1*
X4589484Y2708882D1*
X4605291Y2714110D1*
X4642134D1*
X4534482D2*
Y2603582D1*
X4421602Y2687846D2*
X4426830Y2698303D1*
X4437409Y2708882D1*
X4447866Y2714110D1*
X4468901D1*
X4479480Y2708882D1*
X4489937Y2698303D1*
X4495287Y2687846D1*
X4500515Y2672039D1*
Y2645653D1*
X4495287Y2629968D1*
X4489937Y2619389D1*
X4479480Y2608932D1*
X4468901Y2603582D1*
X4447866D1*
X4437409Y2608932D1*
X4426830Y2619389D1*
X4421602Y2629968D1*
X4201799Y2687846D2*
X4207028Y2698303D1*
X4217606Y2708882D1*
X4228063Y2714110D1*
X4249099D1*
X4259678Y2708882D1*
X4270135Y2698303D1*
X4275485Y2687846D1*
X4280713Y2672039D1*
Y2645653D1*
X4275485Y2629968D1*
X4270135Y2619389D1*
X4259678Y2608932D1*
X4249099Y2603582D1*
X4228063D1*
X4217606Y2608932D1*
X4207028Y2619389D1*
X4201799Y2629968D1*
X4167833Y2714110D2*
Y2603582D1*
X4094148Y2714110D2*
Y2603582D1*
X4167833Y2661460D2*
X4094148D1*
X4060181Y2714110D2*
Y2603582D1*
X3942073D2*
Y2714110D1*
X3984144Y2603582D1*
X4026215Y2714110D1*
Y2603582D1*
X3839771Y2714110D2*
X3908106D1*
Y2603582D1*
X3839771D1*
X3908106Y2661460D2*
X3866035D1*
X3698883Y2714110D2*
X3656811Y2603582D1*
X3614740Y2714110D1*
X3580774Y2692953D2*
X3570195Y2698303D1*
X3554388Y2713988D1*
Y2603582D1*
X3515193Y2614161D2*
X3520422Y2608811D1*
X3515193Y2603582D1*
X3509843Y2608811D1*
X3515193Y2614161D1*
X3444263Y2713988D2*
X3460070Y2708760D1*
X3470648Y2692953D1*
X3475877Y2666689D1*
Y2650882D1*
X3470648Y2624618D1*
X3460070Y2608811D1*
X3444263Y2603582D1*
X3433806D1*
X3417999Y2608811D1*
X3407542Y2624618D1*
X3402192Y2650882D1*
Y2666689D1*
X3407542Y2692953D1*
X3417999Y2708760D1*
X3433806Y2713988D1*
X3444263D1*
X3407542Y2692953D2*
X3470648Y2624618D1*
X4751715Y2514110D2*
X4725329Y2403582D1*
X4699065Y2514110D1*
X4672801Y2403582D1*
X4646415Y2514110D1*
X4612449D2*
Y2403582D1*
X4504797Y2514110D2*
Y2403582D1*
X4578483Y2514110D1*
Y2403582D1*
X4433988Y2514110D2*
Y2403582D1*
X4470831Y2514110D2*
X4397146D1*
X4294844D2*
X4363179D1*
Y2403582D1*
X4294844D1*
X4363179Y2461460D2*
X4321108D1*
X4260878D2*
X4213578D1*
X4197771Y2466810D1*
X4192421Y2472039D1*
X4187192Y2482496D1*
Y2493074D1*
X4192421Y2503531D1*
X4197771Y2508882D1*
X4213578Y2514110D1*
X4260878D1*
Y2403582D1*
X4224035Y2461460D2*
X4187192Y2403582D1*
X4040954Y2487724D2*
Y2492953D1*
X4035725Y2503531D1*
X4030497Y2508760D1*
X4019918Y2513988D1*
X3998883D1*
X3988426Y2508760D1*
X3983197Y2503531D1*
X3977847Y2492953D1*
Y2482496D1*
X3983197Y2471917D1*
X3993654Y2456232D1*
X4046304Y2403582D1*
X3972618D1*
X3907038Y2513988D2*
X3922845Y2508760D1*
X3933424Y2492953D1*
X3938652Y2466689D1*
Y2450882D1*
X3933424Y2424618D1*
X3922845Y2408811D1*
X3907038Y2403582D1*
X3896581D1*
X3880774Y2408811D1*
X3870317Y2424618D1*
X3864967Y2450882D1*
Y2466689D1*
X3870317Y2492953D1*
X3880774Y2508760D1*
X3896581Y2513988D1*
X3907038D1*
X3870317Y2492953D2*
X3933424Y2424618D1*
X3831000Y2492953D2*
X3820422Y2498303D1*
X3804615Y2513988D1*
Y2403582D1*
X3702192Y2477267D2*
X3707542Y2461460D1*
X3717999Y2450882D1*
X3733806Y2445653D1*
X3739034D1*
X3754841Y2450882D1*
X3765298Y2461460D1*
X3770648Y2477267D1*
Y2482496D1*
X3765298Y2498303D1*
X3754841Y2508760D1*
X3739034Y2513988D1*
X3733806D1*
X3717999Y2508760D1*
X3707542Y2498303D1*
X3702192Y2477267D1*
Y2450882D1*
X3707542Y2424618D1*
X3717999Y2408811D1*
X3733806Y2403582D1*
X3744263D1*
X3760070Y2408811D1*
X3765298Y2419389D1*
X1512858Y1616566D2*
D74*
X1562556D1*
Y1536182D1*
X1512858D1*
X1562556Y1578275D2*
X1531959D1*
X1434566Y1605070D2*
X1442171Y1612764D1*
X1453667Y1616566D1*
X1468966D1*
X1480462Y1612764D1*
X1488155Y1605070D1*
Y1597465D1*
X1484264Y1589771D1*
X1480462Y1585969D1*
X1472857Y1582166D1*
X1449865Y1574473D1*
X1442171Y1570670D1*
X1438369Y1566779D1*
X1434566Y1559174D1*
Y1547678D1*
X1442171Y1540073D1*
X1453667Y1536182D1*
X1468966D1*
X1480462Y1540073D1*
X1488155Y1547678D1*
X1409863Y1574473D2*
X1375375D1*
X1363967Y1578275D1*
X1360076Y1582166D1*
X1356274Y1589771D1*
Y1601267D1*
X1360076Y1608873D1*
X1363967Y1612764D1*
X1375375Y1616566D1*
X1409863D1*
Y1536182D1*
X1312470Y1616478D2*
X1323878Y1612675D1*
X1327769Y1605070D1*
Y1597377D1*
X1323878Y1589771D1*
X1316272Y1585880D1*
X1300974Y1582078D1*
X1289478Y1578275D1*
X1281873Y1570582D1*
X1278070Y1562977D1*
Y1551481D1*
X1281873Y1543876D1*
X1285675Y1539985D1*
X1297171Y1536182D1*
X1312470D1*
X1323878Y1539985D1*
X1327769Y1543876D1*
X1331571Y1551481D1*
Y1562977D1*
X1327769Y1570582D1*
X1320075Y1578275D1*
X1308667Y1582078D1*
X1293369Y1585880D1*
X1285675Y1589771D1*
X1281873Y1597377D1*
Y1605070D1*
X1285675Y1612675D1*
X1297171Y1616478D1*
X1312470D1*
X1249476Y1597377D2*
Y1601179D1*
X1245674Y1608873D1*
X1241871Y1612675D1*
X1234178Y1616478D1*
X1218879D1*
X1211274Y1612675D1*
X1207472Y1608873D1*
X1203581Y1601179D1*
Y1593574D1*
X1207472Y1585880D1*
X1215077Y1574473D1*
X1253367Y1536182D1*
X1199778D1*
X1129179Y1605070D2*
X1132982Y1612675D1*
X1144478Y1616478D1*
X1152083D1*
X1163579Y1612675D1*
X1171273Y1601179D1*
X1175075Y1582078D1*
Y1562977D1*
X1171273Y1547678D1*
X1163579Y1539985D1*
X1152083Y1536182D1*
X1148281D1*
X1136873Y1539985D1*
X1129179Y1547678D1*
X1125377Y1559174D1*
Y1562977D1*
X1129179Y1574473D1*
X1136873Y1582078D1*
X1148281Y1585880D1*
X1152083D1*
X1163579Y1582078D1*
X1171273Y1574473D1*
X1175075Y1562977D1*
X1054778Y1605070D2*
X1058581Y1612675D1*
X1070077Y1616478D1*
X1077682D1*
X1089178Y1612675D1*
X1096872Y1601179D1*
X1100674Y1582078D1*
Y1562977D1*
X1096872Y1547678D1*
X1089178Y1539985D1*
X1077682Y1536182D1*
X1073879D1*
X1062472Y1539985D1*
X1054778Y1547678D1*
X1050976Y1559174D1*
Y1562977D1*
X1054778Y1574473D1*
X1062472Y1582078D1*
X1073879Y1585880D1*
X1077682D1*
X1089178Y1582078D1*
X1096872Y1574473D1*
X1100674Y1562977D1*
X1462803Y1491566D2*
X1512501D1*
Y1411182D1*
X1462803D1*
X1512501Y1453275D2*
X1481904D1*
X1384511Y1480070D2*
X1392116Y1487764D1*
X1403612Y1491566D1*
X1418911D1*
X1430407Y1487764D1*
X1438100Y1480070D1*
Y1472465D1*
X1434209Y1464771D1*
X1430407Y1460969D1*
X1422801Y1457166D1*
X1399809Y1449473D1*
X1392116Y1445670D1*
X1388313Y1441779D1*
X1384511Y1434174D1*
Y1422678D1*
X1392116Y1415073D1*
X1403612Y1411182D1*
X1418911D1*
X1430407Y1415073D1*
X1438100Y1422678D1*
X1359808Y1449473D2*
X1325320D1*
X1313912Y1453275D1*
X1310021Y1457166D1*
X1306219Y1464771D1*
Y1476267D1*
X1310021Y1483873D1*
X1313912Y1487764D1*
X1325320Y1491566D1*
X1359808D1*
Y1411182D1*
X1281516Y1451330D2*
X1237300D1*
X1189605Y1491478D2*
X1201101Y1487675D1*
X1208795Y1476179D1*
X1212597Y1457078D1*
Y1445582D1*
X1208795Y1426481D1*
X1201101Y1414985D1*
X1189605Y1411182D1*
X1182000D1*
X1170504Y1414985D1*
X1162899Y1426481D1*
X1159008Y1445582D1*
Y1457078D1*
X1162899Y1476179D1*
X1170504Y1487675D1*
X1182000Y1491478D1*
X1189605D1*
X1162899Y1476179D2*
X1208795Y1426481D1*
X1134305Y1476179D2*
X1126612Y1480070D1*
X1115116Y1491478D1*
Y1411182D1*
M02*
