M48
INCH
T01C0.0191
T02C0.022
T03C0.0354
T04C0.045
T05C0.1
%
T01
X+006197Y+023437
X+008542Y+020967
X+008922Y+018962
X+012187Y+020437
X+012437Y+021437
X+011687Y+021817
X+010950Y+022437
X+012437Y+024713
X+011937Y+026182
X+011142Y+027581
X+010437Y+026791
X+013642Y+027937
X+014937Y+026591
X+016121Y+025547
X+016277Y+022197
X+017654Y+020642
X+017274Y+018962
X+015117Y+017032
X+014157Y+016182
X+012211Y+015702
X+014157Y+013861
X+016277Y+012319
X+017654Y+013331
X+019212Y+012523
X+020122Y+012486
X+021181Y+011662
X+020272Y+009771
X+021032Y+007912
X+019212Y+006302
X+016277Y+006912
X+015517Y+008503
X+015897Y+009187
X+014330Y+008338
X+018034Y+010531
X+023352Y+009362
X+024662Y+008764
X+026662Y+008267
X+027617Y+008242
X+030662Y+007712
X+032662Y+009332
X+032407Y+011042
X+033692Y+011322
X+035712Y+010892
X+036712Y+010462
X+037745Y+010462
X+038462Y+012454
X+039817Y+013937
X+041612Y+015437
X+044617Y+014233
X+042187Y+011812
X+047617Y+011322
X+048437Y+011322
X+048867Y+014663
X+050472Y+018487
X+050417Y+020417
X+050952Y+021182
X+048937Y+023687
X+049937Y+024607
X+050437Y+026597
X+048437Y+026802
X+047617Y+026497
X+047437Y+027107
X+046437Y+026977
X+044617Y+026497
X+044937Y+024607
X+045467Y+024486
X+045937Y+023142
X+045467Y+022712
X+043707Y+021442
X+044187Y+020499
X+046187Y+020417
X+042317Y+023142
X+040657Y+023936
X+040937Y+024607
X+039797Y+023277
X+038892Y+021857
X+037627Y+021292
X+037247Y+021722
X+036867Y+022847
X+037495Y+020462
X+035847Y+019227
X+035712Y+018367
X+036227Y+016412
X+034472Y+014467
X+036187Y+012412
X+032312Y+018437
X+030879Y+017412
X+029292Y+015412
X+027912Y+012412
X+025912Y+012412
X+024912Y+012341
X+023352Y+013187
X+023352Y+013717
X+025062Y+014937
X+025254Y+015937
X+024879Y+016412
X+023682Y+017912
X+022562Y+016842
X+022937Y+016312
X+021361Y+018418
X+019841Y+017032
X+019212Y+016312
X+020122Y+015642
X+019806Y+021022
X+023452Y+021817
X+023682Y+021022
X+025062Y+019937
X+027342Y+020937
X+027717Y+021412
X+028912Y+022437
X+030912Y+024418
X+031292Y+025417
X+031292Y+027201
X+030762Y+028067
X+032687Y+026647
X+033847Y+026267
X+033947Y+025417
X+034687Y+024937
X+033417Y+024167
X+032842Y+022317
X+032312Y+021157
X+032842Y+020827
X+026962Y+024675
X+022692Y+025167
X+020981Y+025547
X+019991Y+024760
X+013437Y+019912
X+013937Y+018437
X+009911Y+013192
X+009532Y+012437
X+010840Y+012163
X+037937Y+026267
X+038437Y+026697
X+038937Y+026267
X+039797Y+026167
X+040227Y+026597
X+041437Y+026927
X+048517Y+007082
X+052187Y+007621
T02
X+036437Y+022437
X+039437Y+022437
T03
X+024437Y+025937
X+024437Y+024937
X+024437Y+023937
X+024437Y+022937
X+024437Y+021937
X+024437Y+020937
X+024437Y+019937
X+024437Y+018937
X+024437Y+017937
X+024437Y+016937
X+024437Y+015937
X+024437Y+014937
X+024437Y+013937
X+024437Y+012937
X+025437Y+012937
X+026437Y+012937
X+027437Y+012937
X+027437Y+013937
X+028437Y+013937
X+028437Y+012937
X+029437Y+012937
X+030437Y+012937
X+030437Y+013937
X+030437Y+014937
X+030437Y+015937
X+030437Y+016937
X+030437Y+017937
X+030437Y+018937
X+030437Y+019937
X+030437Y+020937
X+029437Y+020937
X+029437Y+021937
X+030437Y+021937
X+030437Y+022937
X+030437Y+023937
X+030437Y+024937
X+030437Y+025937
X+029437Y+022937
X+028437Y+019937
X+028437Y+018937
X+027437Y+018937
X+027437Y+019937
X+027437Y+017937
X+028437Y+017937
X+028437Y+016937
X+027437Y+016937
X+027437Y+015937
X+027437Y+014937
X+028437Y+014937
X+028437Y+015937
X+032937Y+015937
X+032937Y+016937
X+032937Y+017937
X+032937Y+018937
X+032937Y+019937
X+032937Y+014937
X+032937Y+013937
X+032937Y+012937
X+033187Y+009937
X+034187Y+009937
X+035187Y+009937
X+036187Y+009937
X+037187Y+009937
X+038187Y+009937
X+039187Y+009937
X+040187Y+009937
X+042187Y+009937
X+043187Y+009937
X+044187Y+009937
X+045187Y+009937
X+046187Y+009937
X+047187Y+009937
X+048187Y+009937
X+049187Y+009937
X+051687Y+010187
X+051687Y+008187
X+049187Y+004937
X+048187Y+004937
X+047187Y+004937
X+046187Y+004937
X+045187Y+004937
X+044187Y+004937
X+043187Y+004937
X+042187Y+004937
X+040187Y+004937
X+039187Y+004937
X+038187Y+004937
X+037187Y+004937
X+036187Y+004937
X+035187Y+004937
X+034187Y+004937
X+033187Y+004937
X+031187Y+004937
X+030187Y+004937
X+029187Y+004937
X+028187Y+004937
X+027187Y+004937
X+026187Y+004937
X+025187Y+004937
X+024187Y+004937
X+021937Y+005437
X+021937Y+006437
X+021937Y+007437
X+021937Y+008437
X+024187Y+009937
X+025187Y+009937
X+026187Y+009937
X+027187Y+009937
X+028187Y+009937
X+029187Y+009937
X+030187Y+009937
X+031187Y+009937
X+037937Y+012937
X+037937Y+013937
X+037937Y+014937
X+037937Y+015937
X+037937Y+016937
X+037937Y+017937
X+037937Y+018937
X+037937Y+019937
X+040937Y+020437
X+040937Y+019437
X+040937Y+018437
X+040937Y+017437
X+040937Y+016437
X+040937Y+015437
X+040937Y+014437
X+040937Y+013437
X+040937Y+012437
X+043327Y+012937
X+043327Y+013937
X+043327Y+014937
X+043327Y+015937
X+043327Y+016937
X+043327Y+017937
X+043327Y+018937
X+043327Y+019937
X+046187Y+018487
X+046187Y+016687
X+046187Y+012987
X+052187Y+012987
X+052187Y+016687
X+052187Y+018487
X+052187Y+022187
X+046187Y+022187
X+021937Y+022687
X+021937Y+023687
X+021937Y+024687
X+021937Y+025687
X+021937Y+019937
X+021937Y+018937
X+021937Y+017937
X+021937Y+016937
X+021937Y+014187
X+021937Y+013187
X+021937Y+012187
X+021937Y+011187
X+014687Y+011687
X+014687Y+012687
X+013687Y+012687
X+012687Y+012687
X+011687Y+012687
X+011687Y+011687
X+012687Y+011687
X+013687Y+011687
X+008062Y+011687
X+008062Y+013687
X+008062Y+017437
X+008062Y+019437
X+008062Y+023187
X+008062Y+025187
X+008062Y+007937
X+008062Y+005937
T04
X+032687Y+023437
X+034687Y+023437
T05
X+052937Y+027937
X+052937Y+004937
X+004937Y+004937
X+004937Y+027937
T00
M30
