G04 DipTrace 3.3.1.3*
G04 TopMask.gbr*
%MOIN*%
G04 #@! TF.FileFunction,Soldermask,Top*
G04 #@! TF.Part,Single*
%ADD31C,0.1*%
%ADD41C,0.10788*%
%ADD43C,0.06698*%
%ADD45R,0.06698X0.06698*%
%ADD47C,0.05788*%
%ADD49C,0.05788*%
%ADD51C,0.06688*%
%ADD53C,0.06698*%
%ADD55R,0.070872X0.078746*%
%ADD57R,0.10788X0.08288*%
%ADD61R,0.08288X0.10788*%
%ADD63C,0.066935*%
%ADD65R,0.066935X0.066935*%
%ADD69C,0.066935*%
%FSLAX26Y26*%
G04*
G70*
G90*
G75*
G01*
G04 TopMask*
%LPD*%
D69*
X2443700Y2593700D3*
Y2493700D3*
Y2393700D3*
Y2293700D3*
Y2193700D3*
Y2093700D3*
Y1993700D3*
Y1893700D3*
Y1793700D3*
Y1693700D3*
Y1593700D3*
Y1493700D3*
Y1393700D3*
Y1293700D3*
X3043700D3*
Y1393700D3*
Y1493700D3*
Y1593700D3*
Y1693700D3*
Y1793700D3*
Y1893700D3*
Y1993700D3*
Y2093700D3*
Y2193700D3*
Y2293700D3*
Y2393700D3*
Y2493700D3*
Y2593700D3*
X2743700Y1993700D3*
Y1893700D3*
Y1793700D3*
Y1693700D3*
Y1593700D3*
Y1493700D3*
Y1393700D3*
X2843700D3*
Y1493700D3*
Y1593700D3*
Y1693700D3*
Y1793700D3*
Y1893700D3*
Y1993700D3*
X2543700Y1293700D3*
X2643700D3*
X2743700D3*
X2843700D3*
X2943700D3*
Y2093700D3*
Y2193700D3*
Y2293700D3*
D65*
X3118700Y993700D3*
D63*
X3018700D3*
X2918700D3*
X2818700D3*
X2718700D3*
X2618700D3*
D65*
X2518700D3*
D63*
X2418700D3*
Y493700D3*
X2518700D3*
X2618700D3*
X2718700D3*
X2818700D3*
X2918700D3*
X3018700D3*
X3118700D3*
D65*
X3293700Y1993700D3*
D63*
Y1893700D3*
Y1793700D3*
Y1693700D3*
Y1593700D3*
Y1493700D3*
D65*
Y1393700D3*
D63*
Y1293700D3*
X3793700D3*
Y1393700D3*
Y1493700D3*
Y1593700D3*
Y1693700D3*
Y1793700D3*
Y1893700D3*
Y1993700D3*
D65*
X4918700Y993700D3*
D63*
X4818700D3*
X4718700D3*
X4618700D3*
X4518700D3*
X4418700D3*
D65*
X4318700D3*
D63*
X4218700D3*
Y493700D3*
X4318700D3*
X4418700D3*
X4518700D3*
X4618700D3*
X4718700D3*
X4818700D3*
X4918700D3*
D65*
X4018700Y993700D3*
D63*
X3918700D3*
X3818700D3*
X3718700D3*
X3618700D3*
X3518700D3*
D65*
X3418700D3*
D63*
X3318700D3*
Y493700D3*
X3418700D3*
X3518700D3*
X3618700D3*
X3718700D3*
X3818700D3*
X3918700D3*
X4018700D3*
D61*
X4843700Y2793700D3*
X4943700D3*
X5043700D3*
X5143700D3*
X4443700D3*
X4543700D3*
X4643700D3*
X4743700D3*
X4043700D3*
X4143700D3*
X4243700D3*
X4343700D3*
X3643700D3*
X3743700D3*
X3843700D3*
X3943700D3*
X4893700Y2543700D3*
X4993700D3*
X5093700D3*
X4493700D3*
X4593700D3*
X4693700D3*
X4093700D3*
X4193700D3*
X4293700D3*
X3693700D3*
X3793700D3*
X3893700D3*
X693700Y2793700D3*
X793700D3*
X943700D3*
X1043700D3*
X1193700D3*
X1293700D3*
X1443700D3*
X1543700D3*
D57*
X493700Y2343700D3*
Y2243700D3*
Y2143700D3*
Y2043700D3*
Y1943700D3*
Y1843700D3*
Y1743700D3*
D63*
X4618700Y1668700D3*
Y1298700D3*
X5218700Y1668700D3*
Y1298700D3*
X4618700Y2218700D3*
Y1848700D3*
X5218700Y2218700D3*
Y1848700D3*
D53*
X4332700Y1993700D3*
Y1893700D3*
Y1793700D3*
Y1693700D3*
Y1593700D3*
Y1493700D3*
Y1393700D3*
Y1293700D3*
D51*
X4093700Y2043700D3*
Y1943700D3*
Y1843700D3*
Y1743700D3*
Y1643700D3*
Y1543700D3*
Y1443700D3*
Y1343700D3*
Y1243700D3*
D49*
X3643700Y2243700D3*
D47*
X3943700D3*
D69*
X2193700Y2568700D3*
Y2468700D3*
Y2368700D3*
Y2268700D3*
X806200Y2518700D3*
Y2318700D3*
X2193700Y1993700D3*
Y1893700D3*
Y1793700D3*
Y1693700D3*
X806200Y1943700D3*
Y1743700D3*
X2193700Y1418700D3*
Y1318700D3*
Y1218700D3*
Y1118700D3*
X806200Y1368700D3*
Y1168700D3*
X2193700Y843700D3*
Y743700D3*
Y643700D3*
Y543700D3*
X806200Y793700D3*
Y593700D3*
D57*
X493700Y1443700D3*
Y1343700D3*
Y1243700D3*
Y1143700D3*
Y1043700D3*
Y943700D3*
Y843700D3*
D45*
X1468700Y1268700D3*
D43*
X1368700D3*
X1268700D3*
X1168700D3*
X1468700Y1168700D3*
X1368700D3*
X1268700D3*
X1168700D3*
D41*
X3268700Y2343700D3*
X3468700D3*
D63*
X5168700Y818700D3*
Y1018700D3*
D55*
X5108464Y693700D3*
X5218700D3*
D31*
X5293700Y2793700D3*
Y493700D3*
X493700Y2793700D3*
Y493700D3*
M02*
