G04 DipTrace 3.3.1.3*
G04 TopSilk.gbr*
%MOIN*%
G04 #@! TF.FileFunction,Legend,Top*
G04 #@! TF.Part,Single*
%ADD10C,0.009843*%
%ADD71C,0.00772*%
%ADD72C,0.009264*%
%ADD74C,0.012351*%
%ADD75C,0.006176*%
%ADD76C,0.003088*%
%ADD77C,0.015439*%
%FSLAX26Y26*%
G04*
G70*
G90*
G75*
G01*
G04 TopSilk*
%LPD*%
X2393700Y2643762D2*
D10*
X3093700D1*
Y1243700D1*
X2393700D1*
Y2643762D1*
X2618680Y2668700D2*
X2868720D1*
Y2643762D1*
X2618680D1*
Y2668700D1*
X3168700Y1043700D2*
X2368700D1*
Y443700D1*
X3168700D1*
Y1043700D1*
X3056220Y749940D2*
G02X3056220Y749940I43760J0D01*
G01*
X3143740D2*
X3056220D1*
X3099900Y793680D2*
X3099980Y706200D1*
X3243700Y2043700D2*
X3843700D1*
Y1243700D1*
X3243700D1*
Y2043700D1*
X3493720Y1974980D2*
G02X3493720Y1974980I43740J0D01*
G01*
X3537460Y2018740D2*
Y1931220D1*
X3493720Y1974900D2*
X3581200Y1974980D1*
X4968700Y1043700D2*
X4168700D1*
Y443700D1*
X4968700D1*
Y1043700D1*
X4856220Y749940D2*
G02X4856220Y749940I43760J0D01*
G01*
X4943740D2*
X4856220D1*
X4899900Y793680D2*
X4899980Y706200D1*
X4068700Y1043700D2*
X3268700D1*
Y443700D1*
X4068700D1*
Y1043700D1*
X3956220Y749940D2*
G02X3956220Y749940I43760J0D01*
G01*
X4043740D2*
X3956220D1*
X3999900Y793680D2*
X3999980Y706200D1*
X4806200Y2856202D2*
X5181200D1*
X4406200D2*
X4781200D1*
X4006200D2*
X4381200D1*
X3606200D2*
X3981200D1*
X4856200Y2606201D2*
X5131200D1*
X4456200D2*
X4731200D1*
X4056200D2*
X4331200D1*
X3656200D2*
X3931200D1*
X656200Y2731200D2*
X831200D1*
X656200Y2856200D2*
X831200D1*
X906200Y2731200D2*
X1081200D1*
X906200Y2856200D2*
X1081200D1*
X1156200Y2731200D2*
X1331200D1*
X1156200Y2856200D2*
X1331200D1*
X1406200Y2731200D2*
X1581200D1*
X1406200Y2856200D2*
X1581200D1*
X556201Y2368712D2*
Y1718688D1*
X4543700Y1731205D2*
X5293700D1*
Y1231196D1*
X4543700D1*
Y1731205D1*
X4693700Y1481201D2*
X4993700D1*
X4918700Y1556207D1*
X4993700Y1481201D2*
X4918700Y1406194D1*
X4981175Y1618695D2*
G02X4981175Y1618695I37500J0D01*
G01*
X5018675Y1656198D2*
Y1581192D1*
X4981175Y1618695D2*
X5056175D1*
X4543700Y2281205D2*
X5293700D1*
Y1781196D1*
X4543700D1*
Y2281205D1*
X4693700Y2031201D2*
X4993700D1*
X4918700Y2106207D1*
X4993700Y2031201D2*
X4918700Y1956194D1*
X4981175Y2168695D2*
G02X4981175Y2168695I37500J0D01*
G01*
X5018675Y2206198D2*
Y2131192D1*
X4981175Y2168695D2*
X5056175D1*
X4395199Y2018709D2*
Y1268692D1*
X4143696Y2068714D2*
Y1218633D1*
X3713550Y2273700D2*
Y2213700D1*
X3873850Y2273700D2*
X3713550D1*
X3873850D2*
Y2213700D1*
X3713550D1*
X2243700Y2693700D2*
X643700D1*
Y2143700D1*
X2243700D1*
Y2693700D1*
Y2118700D2*
X643700D1*
Y1568700D1*
X2243700D1*
Y2118700D1*
Y1543700D2*
X643700D1*
Y993700D1*
X2243700D1*
Y1543700D1*
Y968700D2*
X643700D1*
Y418700D1*
X2243700D1*
Y968700D1*
X556201Y1468712D2*
Y818688D1*
X3168700Y2479949D2*
X3568700D1*
Y2174899D1*
X3168700D1*
Y2479949D1*
X5043700Y793706D2*
X5293700D1*
Y1043694D1*
X5043700D1*
Y793706D1*
X5151802Y662235D2*
X5175361D1*
X5151802Y725165D2*
X5175361D1*
X2713237Y2741923D2*
D71*
Y2706053D1*
X2715614Y2698868D1*
X2720422Y2694115D1*
X2727607Y2691683D1*
X2732360D1*
X2739545Y2694115D1*
X2744354Y2698868D1*
X2746730Y2706053D1*
Y2741923D1*
X2762170Y2732306D2*
X2766978Y2734738D1*
X2774163Y2741868D1*
Y2691683D1*
X2713771Y1116923D2*
Y1066683D1*
X2730517D1*
X2737702Y1069115D1*
X2742511Y1073868D1*
X2744887Y1078677D1*
X2747264Y1085806D1*
Y1097800D1*
X2744887Y1104985D1*
X2742511Y1109738D1*
X2737702Y1114546D1*
X2730517Y1116923D1*
X2713771D1*
X2762703Y1092991D2*
X2784203D1*
X2791388Y1095423D1*
X2793820Y1097800D1*
X2796197Y1102553D1*
Y1107361D1*
X2793820Y1112115D1*
X2791388Y1114546D1*
X2784203Y1116923D1*
X2762703D1*
Y1066683D1*
X2779450Y1092991D2*
X2796197Y1066683D1*
X2811636Y1107306D2*
X2816444Y1109738D1*
X2823629Y1116868D1*
Y1066683D1*
X3478021Y2116923D2*
Y2066683D1*
X3494767D1*
X3501952Y2069115D1*
X3506761Y2073868D1*
X3509137Y2078677D1*
X3511514Y2085806D1*
Y2097800D1*
X3509137Y2104985D1*
X3506761Y2109738D1*
X3501952Y2114546D1*
X3494767Y2116923D1*
X3478021D1*
X3526953Y2092991D2*
X3548453D1*
X3555638Y2095423D1*
X3558070Y2097800D1*
X3560447Y2102553D1*
Y2107361D1*
X3558070Y2112115D1*
X3555638Y2114546D1*
X3548453Y2116923D1*
X3526953D1*
Y2066683D1*
X3543700Y2092991D2*
X3560447Y2066683D1*
X3578318Y2104930D2*
Y2107306D1*
X3580694Y2112115D1*
X3583071Y2114491D1*
X3587879Y2116868D1*
X3597441D1*
X3602194Y2114491D1*
X3604571Y2112115D1*
X3607003Y2107306D1*
Y2102553D1*
X3604571Y2097745D1*
X3599818Y2090615D1*
X3575886Y2066683D1*
X3609379D1*
X4503021Y1116923D2*
Y1066683D1*
X4519767D1*
X4526952Y1069115D1*
X4531761Y1073868D1*
X4534137Y1078677D1*
X4536514Y1085806D1*
Y1097800D1*
X4534137Y1104985D1*
X4531761Y1109738D1*
X4526952Y1114546D1*
X4519767Y1116923D1*
X4503021D1*
X4551953Y1092991D2*
X4573453D1*
X4580638Y1095423D1*
X4583070Y1097800D1*
X4585447Y1102553D1*
Y1107361D1*
X4583070Y1112115D1*
X4580638Y1114546D1*
X4573453Y1116923D1*
X4551953D1*
Y1066683D1*
X4568700Y1092991D2*
X4585447Y1066683D1*
X4605694Y1116868D2*
X4631947D1*
X4617633Y1097745D1*
X4624818D1*
X4629571Y1095368D1*
X4631947Y1092991D1*
X4634379Y1085806D1*
Y1081053D1*
X4631947Y1073868D1*
X4627194Y1069060D1*
X4620009Y1066683D1*
X4612824D1*
X4605694Y1069060D1*
X4603318Y1071492D1*
X4600886Y1076245D1*
X3601832Y1116923D2*
Y1066683D1*
X3618579D1*
X3625764Y1069115D1*
X3630573Y1073868D1*
X3632949Y1078677D1*
X3635326Y1085806D1*
Y1097800D1*
X3632949Y1104985D1*
X3630573Y1109738D1*
X3625764Y1114546D1*
X3618579Y1116923D1*
X3601832D1*
X3650765Y1092991D2*
X3672265D1*
X3679450Y1095423D1*
X3681882Y1097800D1*
X3684258Y1102553D1*
Y1107361D1*
X3681882Y1112115D1*
X3679450Y1114546D1*
X3672265Y1116923D1*
X3650765D1*
Y1066683D1*
X3667512Y1092991D2*
X3684258Y1066683D1*
X3723629D2*
Y1116868D1*
X3699698Y1083430D1*
X3735568D1*
X3499107Y2779185D2*
Y2829425D1*
X3479984Y2779185D1*
X3460860Y2829425D1*
Y2779185D1*
X3514546Y2819808D2*
X3519355Y2822240D1*
X3526540Y2829370D1*
Y2779185D1*
X3338357D2*
Y2829425D1*
X3319234Y2779185D1*
X3300110Y2829425D1*
Y2779185D1*
X3356228Y2817432D2*
Y2819808D1*
X3358605Y2824617D1*
X3360981Y2826993D1*
X3365790Y2829370D1*
X3375351D1*
X3380105Y2826993D1*
X3382481Y2824617D1*
X3384913Y2819808D1*
Y2815055D1*
X3382481Y2810247D1*
X3377728Y2803117D1*
X3353796Y2779185D1*
X3387290D1*
X3188357D2*
Y2829425D1*
X3169234Y2779185D1*
X3150110Y2829425D1*
Y2779185D1*
X3208605Y2829370D2*
X3234858D1*
X3220543Y2810247D1*
X3227728D1*
X3232481Y2807870D1*
X3234858Y2805493D1*
X3237290Y2798308D1*
Y2793555D1*
X3234858Y2786370D1*
X3230105Y2781562D1*
X3222919Y2779185D1*
X3215734D1*
X3208605Y2781562D1*
X3206228Y2783993D1*
X3203796Y2788747D1*
X3037169Y2779185D2*
Y2829425D1*
X3018045Y2779185D1*
X2998922Y2829425D1*
Y2779185D1*
X3076540D2*
Y2829370D1*
X3052608Y2795932D1*
X3088478D1*
X5096730Y2422239D2*
X5091977Y2427047D1*
X5084792Y2429424D1*
X5075230D1*
X5068045Y2427047D1*
X5063237Y2422239D1*
Y2417486D1*
X5065669Y2412677D1*
X5068045Y2410300D1*
X5072799Y2407924D1*
X5087169Y2403115D1*
X5091977Y2400739D1*
X5094354Y2398307D1*
X5096730Y2393554D1*
Y2386369D1*
X5091977Y2381616D1*
X5084792Y2379184D1*
X5075230D1*
X5068045Y2381616D1*
X5063237Y2386369D1*
X5112170Y2419807D2*
X5116978Y2422239D1*
X5124163Y2429368D1*
Y2379184D1*
X4685980Y2422239D2*
X4681227Y2427047D1*
X4674042Y2429424D1*
X4664481D1*
X4657295Y2427047D1*
X4652487Y2422239D1*
Y2417486D1*
X4654919Y2412677D1*
X4657295Y2410300D1*
X4662049Y2407924D1*
X4676419Y2403115D1*
X4681227Y2400739D1*
X4683604Y2398307D1*
X4685980Y2393554D1*
Y2386369D1*
X4681227Y2381616D1*
X4674042Y2379184D1*
X4664481D1*
X4657295Y2381616D1*
X4652487Y2386369D1*
X4703851Y2417430D2*
Y2419807D1*
X4706228Y2424615D1*
X4708605Y2426992D1*
X4713413Y2429368D1*
X4722975D1*
X4727728Y2426992D1*
X4730105Y2424615D1*
X4732536Y2419807D1*
Y2415054D1*
X4730105Y2410245D1*
X4725351Y2403115D1*
X4701420Y2379184D1*
X4734913D1*
X4260980Y2422239D2*
X4256227Y2427047D1*
X4249042Y2429424D1*
X4239481D1*
X4232295Y2427047D1*
X4227487Y2422239D1*
Y2417486D1*
X4229919Y2412677D1*
X4232295Y2410300D1*
X4237049Y2407924D1*
X4251419Y2403115D1*
X4256227Y2400739D1*
X4258604Y2398307D1*
X4260980Y2393554D1*
Y2386369D1*
X4256227Y2381616D1*
X4249042Y2379184D1*
X4239481D1*
X4232295Y2381616D1*
X4227487Y2386369D1*
X4281228Y2429368D2*
X4307481D1*
X4293166Y2410245D1*
X4300351D1*
X4305105Y2407869D1*
X4307481Y2405492D1*
X4309913Y2398307D1*
Y2393554D1*
X4307481Y2386369D1*
X4302728Y2381560D1*
X4295543Y2379184D1*
X4288358D1*
X4281228Y2381560D1*
X4278851Y2383992D1*
X4276420Y2388745D1*
X3884792Y2422239D2*
X3880039Y2427047D1*
X3872854Y2429424D1*
X3863292D1*
X3856107Y2427047D1*
X3851299Y2422239D1*
Y2417486D1*
X3853731Y2412677D1*
X3856107Y2410300D1*
X3860860Y2407924D1*
X3875230Y2403115D1*
X3880039Y2400739D1*
X3882415Y2398307D1*
X3884792Y2393554D1*
Y2386369D1*
X3880039Y2381616D1*
X3872854Y2379184D1*
X3863292D1*
X3856107Y2381616D1*
X3851299Y2386369D1*
X3924163Y2379184D2*
Y2429368D1*
X3900231Y2395930D1*
X3936101D1*
X1672919Y2817485D2*
X1670542Y2822238D1*
X1665734Y2827046D1*
X1660980Y2829423D1*
X1651419D1*
X1646610Y2827046D1*
X1641857Y2822238D1*
X1639425Y2817485D1*
X1637049Y2810300D1*
Y2798306D1*
X1639425Y2791177D1*
X1641857Y2786368D1*
X1646610Y2781615D1*
X1651419Y2779183D1*
X1660980D1*
X1665734Y2781615D1*
X1670542Y2786368D1*
X1672919Y2791177D1*
X1688358Y2819806D2*
X1693166Y2822238D1*
X1700351Y2829368D1*
Y2779183D1*
X1812169Y2817485D2*
X1809792Y2822238D1*
X1804984Y2827046D1*
X1800230Y2829423D1*
X1790669D1*
X1785860Y2827046D1*
X1781107Y2822238D1*
X1778675Y2817485D1*
X1776299Y2810300D1*
Y2798306D1*
X1778675Y2791177D1*
X1781107Y2786368D1*
X1785860Y2781615D1*
X1790669Y2779183D1*
X1800230D1*
X1804984Y2781615D1*
X1809792Y2786368D1*
X1812169Y2791177D1*
X1830040Y2817430D2*
Y2819806D1*
X1832416Y2824615D1*
X1834793Y2826991D1*
X1839601Y2829368D1*
X1849163D1*
X1853916Y2826991D1*
X1856293Y2824615D1*
X1858725Y2819806D1*
Y2815053D1*
X1856293Y2810245D1*
X1851540Y2803115D1*
X1827608Y2779183D1*
X1861101D1*
X1962169Y2817485D2*
X1959792Y2822238D1*
X1954984Y2827046D1*
X1950230Y2829423D1*
X1940669D1*
X1935860Y2827046D1*
X1931107Y2822238D1*
X1928675Y2817485D1*
X1926299Y2810300D1*
Y2798306D1*
X1928675Y2791177D1*
X1931107Y2786368D1*
X1935860Y2781615D1*
X1940669Y2779183D1*
X1950230D1*
X1954984Y2781615D1*
X1959792Y2786368D1*
X1962169Y2791177D1*
X1982416Y2829368D2*
X2008669D1*
X1994355Y2810245D1*
X2001540D1*
X2006293Y2807868D1*
X2008669Y2805491D1*
X2011101Y2798306D1*
Y2793553D1*
X2008669Y2786368D1*
X2003916Y2781560D1*
X1996731Y2779183D1*
X1989546D1*
X1982416Y2781560D1*
X1980040Y2783992D1*
X1977608Y2788745D1*
X2110980Y2817485D2*
X2108604Y2822238D1*
X2103795Y2827046D1*
X2099042Y2829423D1*
X2089481D1*
X2084672Y2827046D1*
X2079919Y2822238D1*
X2077487Y2817485D1*
X2075110Y2810300D1*
Y2798306D1*
X2077487Y2791177D1*
X2079919Y2786368D1*
X2084672Y2781615D1*
X2089481Y2779183D1*
X2099042D1*
X2103795Y2781615D1*
X2108604Y2786368D1*
X2110980Y2791177D1*
X2150351Y2779183D2*
Y2829368D1*
X2126420Y2795930D1*
X2162290D1*
X458738Y2454423D2*
Y2404183D1*
X492231Y2454423D2*
Y2404183D1*
X458738Y2430491D2*
X492231D1*
X510102Y2442430D2*
Y2444806D1*
X512479Y2449615D1*
X514855Y2451991D1*
X519664Y2454368D1*
X529225D1*
X533979Y2451991D1*
X536355Y2449615D1*
X538787Y2444806D1*
Y2440053D1*
X536355Y2435245D1*
X531602Y2428115D1*
X507670Y2404183D1*
X541164D1*
X4877487Y1804428D2*
Y1768558D1*
X4879864Y1761373D1*
X4884672Y1756620D1*
X4891857Y1754188D1*
X4896610D1*
X4903795Y1756620D1*
X4908604Y1761373D1*
X4910980Y1768558D1*
Y1804428D1*
X4928851Y1792434D2*
Y1794811D1*
X4931228Y1799619D1*
X4933605Y1801996D1*
X4938413Y1804372D1*
X4947975D1*
X4952728Y1801996D1*
X4955105Y1799619D1*
X4957536Y1794811D1*
Y1790058D1*
X4955105Y1785249D1*
X4950351Y1778119D1*
X4926420Y1754188D1*
X4959913D1*
X4877487Y2354428D2*
Y2318558D1*
X4879864Y2311373D1*
X4884672Y2306620D1*
X4891857Y2304188D1*
X4896610D1*
X4903795Y2306620D1*
X4908604Y2311373D1*
X4910980Y2318558D1*
Y2354428D1*
X4931228Y2354372D2*
X4957481D1*
X4943166Y2335249D1*
X4950351D1*
X4955105Y2332873D1*
X4957481Y2330496D1*
X4959913Y2323311D1*
Y2318558D1*
X4957481Y2311373D1*
X4952728Y2306564D1*
X4945543Y2304188D1*
X4938358D1*
X4931228Y2306564D1*
X4928851Y2308996D1*
X4926420Y2313749D1*
X4226147Y2096473D2*
Y2060603D1*
X4228523Y2053418D1*
X4233332Y2048665D1*
X4240517Y2046233D1*
X4245270D1*
X4252455Y2048665D1*
X4257263Y2053418D1*
X4259640Y2060603D1*
Y2096473D1*
X4299011Y2046233D2*
Y2096418D1*
X4275079Y2062980D1*
X4310949D1*
X3984030Y2146459D2*
Y2110589D1*
X3986407Y2103404D1*
X3991215Y2098650D1*
X3998400Y2096219D1*
X4003154D1*
X4010339Y2098650D1*
X4015147Y2103404D1*
X4017524Y2110589D1*
Y2146459D1*
X4061648Y2146403D2*
X4037771D1*
X4035395Y2124903D1*
X4037771Y2127280D1*
X4044956Y2129712D1*
X4052086D1*
X4059271Y2127280D1*
X4064080Y2122527D1*
X4066456Y2115342D1*
Y2110589D1*
X4064080Y2103404D1*
X4059271Y2098595D1*
X4052086Y2096219D1*
X4044956D1*
X4037771Y2098595D1*
X4035395Y2101027D1*
X4032963Y2105780D1*
X3737582Y2322991D2*
X3759082D1*
X3766267Y2325423D1*
X3768699Y2327800D1*
X3771076Y2332553D1*
Y2337361D1*
X3768699Y2342115D1*
X3766267Y2344546D1*
X3759082Y2346923D1*
X3737582D1*
Y2296683D1*
X3754329Y2322991D2*
X3771076Y2296683D1*
X3786515Y2337306D2*
X3791323Y2339738D1*
X3798508Y2346868D1*
Y2296683D1*
X3837879D2*
Y2346868D1*
X3813948Y2313430D1*
X3849818D1*
X469488Y1554423D2*
Y1504183D1*
X502981Y1554423D2*
Y1504183D1*
X469488Y1530491D2*
X502981D1*
X518420Y1544806D2*
X523229Y1547238D1*
X530414Y1554368D1*
Y1504183D1*
X3230517Y2153172D2*
Y2102932D1*
X3213771Y2153172D2*
X3247264D1*
X3262703D2*
Y2102932D1*
X3284258D1*
X3291443Y2105364D1*
X3293820Y2107741D1*
X3296197Y2112494D1*
Y2119679D1*
X3293820Y2124488D1*
X3291443Y2126864D1*
X3284258Y2129241D1*
X3291443Y2131673D1*
X3293820Y2134049D1*
X3296197Y2138802D1*
Y2143611D1*
X3293820Y2148364D1*
X3291443Y2150796D1*
X3284258Y2153172D1*
X3262703D1*
Y2129241D2*
X3284258D1*
X3311636Y2143556D2*
X3316444Y2145987D1*
X3323629Y2153117D1*
Y2102932D1*
X5160980Y1114266D2*
X5156227Y1119074D1*
X5149042Y1121451D1*
X5139481D1*
X5132295Y1119074D1*
X5127487Y1114266D1*
Y1109512D1*
X5129919Y1104704D1*
X5132295Y1102327D1*
X5137049Y1099951D1*
X5151419Y1095142D1*
X5156227Y1092766D1*
X5158604Y1090334D1*
X5160980Y1085581D1*
Y1078396D1*
X5156227Y1073642D1*
X5149042Y1071211D1*
X5139481D1*
X5132295Y1073642D1*
X5127487Y1078396D1*
X5205105Y1121395D2*
X5181228D1*
X5178851Y1099896D1*
X5181228Y1102272D1*
X5188413Y1104704D1*
X5195543D1*
X5202728Y1102272D1*
X5207536Y1097519D1*
X5209913Y1090334D1*
Y1085581D1*
X5207536Y1078396D1*
X5202728Y1073587D1*
X5195543Y1071211D1*
X5188413D1*
X5181228Y1073587D1*
X5178851Y1076019D1*
X5176420Y1080772D1*
X5133119Y778424D2*
X5154619D1*
X5161804Y780856D1*
X5164236Y783233D1*
X5166612Y787986D1*
Y792795D1*
X5164236Y797548D1*
X5161804Y799980D1*
X5154619Y802356D1*
X5133119D1*
Y752116D1*
X5149866Y778424D2*
X5166612Y752116D1*
X5182051Y792739D2*
X5186860Y795171D1*
X5194045Y802301D1*
Y752116D1*
X598841Y1768340D2*
Y1725285D1*
X577341Y1746785D2*
X620396D1*
X578113Y838392D2*
D72*
X611274D1*
X589841Y2362344D2*
D71*
X594649Y2364775D1*
X601834Y2371905D1*
Y2321720D1*
X579773Y2259967D2*
Y2262344D1*
X582149Y2267152D1*
X584526Y2269529D1*
X589334Y2271905D1*
X598896D1*
X603649Y2269529D1*
X606026Y2267152D1*
X608457Y2262344D1*
Y2257590D1*
X606026Y2252782D1*
X601272Y2245652D1*
X577341Y2221720D1*
X610834D1*
X582149Y2171905D2*
X608402D1*
X594087Y2152782D1*
X601272D1*
X606026Y2150405D1*
X608402Y2148029D1*
X610834Y2140844D1*
Y2136091D1*
X608402Y2128906D1*
X603649Y2124097D1*
X596464Y2121720D1*
X589279D1*
X582149Y2124097D1*
X579773Y2126529D1*
X577341Y2131282D1*
X601272Y2034220D2*
Y2084405D1*
X577341Y2050967D1*
X613211D1*
X606026Y1971905D2*
X582149D1*
X579773Y1950405D1*
X582149Y1952782D1*
X589334Y1955214D1*
X596464D1*
X603649Y1952782D1*
X608457Y1948029D1*
X610834Y1940844D1*
Y1936091D1*
X608457Y1928906D1*
X603649Y1924097D1*
X596464Y1921720D1*
X589334D1*
X582149Y1924097D1*
X579773Y1926529D1*
X577341Y1931282D1*
X606026Y1864775D2*
X603649Y1869529D1*
X596464Y1871905D1*
X591711D1*
X584526Y1869529D1*
X579717Y1862344D1*
X577341Y1850405D1*
Y1838467D1*
X579717Y1828906D1*
X584526Y1824097D1*
X591711Y1821720D1*
X594087D1*
X601217Y1824097D1*
X606026Y1828906D1*
X608402Y1836091D1*
Y1838467D1*
X606026Y1845652D1*
X601217Y1850405D1*
X594087Y1852782D1*
X591711D1*
X584526Y1850405D1*
X579717Y1845652D1*
X577341Y1838467D1*
X589841Y1462344D2*
X594649Y1464775D1*
X601834Y1471905D1*
Y1421720D1*
X579773Y1359967D2*
Y1362344D1*
X582149Y1367152D1*
X584526Y1369529D1*
X589334Y1371905D1*
X598896D1*
X603649Y1369529D1*
X606026Y1367152D1*
X608457Y1362344D1*
Y1357590D1*
X606026Y1352782D1*
X601272Y1345652D1*
X577341Y1321720D1*
X610834D1*
X582149Y1271905D2*
X608402D1*
X594087Y1252782D1*
X601272D1*
X606026Y1250405D1*
X608402Y1248029D1*
X610834Y1240844D1*
Y1236091D1*
X608402Y1228906D1*
X603649Y1224097D1*
X596464Y1221720D1*
X589279D1*
X582149Y1224097D1*
X579773Y1226529D1*
X577341Y1231282D1*
X601272Y1134220D2*
Y1184405D1*
X577341Y1150967D1*
X613211D1*
X606026Y1071905D2*
X582149D1*
X579773Y1050405D1*
X582149Y1052782D1*
X589334Y1055214D1*
X596464D1*
X603649Y1052782D1*
X608457Y1048029D1*
X610834Y1040844D1*
Y1036091D1*
X608457Y1028906D1*
X603649Y1024097D1*
X596464Y1021720D1*
X589334D1*
X582149Y1024097D1*
X579773Y1026529D1*
X577341Y1031282D1*
X606026Y964775D2*
X603649Y969529D1*
X596464Y971905D1*
X591711D1*
X584526Y969529D1*
X579717Y962344D1*
X577341Y950405D1*
Y938467D1*
X579717Y928906D1*
X584526Y924097D1*
X591711Y921720D1*
X594087D1*
X601217Y924097D1*
X606026Y928906D1*
X608402Y936091D1*
Y938467D1*
X606026Y945652D1*
X601217Y950405D1*
X594087Y952782D1*
X591711D1*
X584526Y950405D1*
X579717Y945652D1*
X577341Y938467D1*
X2551690Y2516594D2*
D74*
Y2436210D1*
X2524896Y2516594D2*
X2578485D1*
X2652886D2*
X2603188D1*
Y2436210D1*
X2652886D1*
X2603188Y2478303D2*
X2633785D1*
X2727287Y2516594D2*
X2677589D1*
Y2436210D1*
X2727287D1*
X2677589Y2478303D2*
X2708186D1*
X2805579Y2516594D2*
Y2436210D1*
X2751990Y2516594D1*
Y2436210D1*
X2883872Y2505098D2*
X2876267Y2512791D1*
X2864770Y2516594D1*
X2849472D1*
X2837976Y2512791D1*
X2830282Y2505098D1*
Y2497492D1*
X2834173Y2489799D1*
X2837976Y2485996D1*
X2845581Y2482194D1*
X2868573Y2474500D1*
X2876267Y2470698D1*
X2880069Y2466807D1*
X2883872Y2459202D1*
Y2447706D1*
X2876267Y2440101D1*
X2864770Y2436210D1*
X2849472D1*
X2837976Y2440101D1*
X2830282Y2447706D1*
X2908574Y2516594D2*
X2939172Y2478303D1*
Y2436210D1*
X2969769Y2516594D2*
X2939172Y2478303D1*
X2657539Y2391533D2*
X2699544D1*
X2676640Y2360935D1*
X2688136D1*
X2695742Y2357133D1*
X2699544Y2353330D1*
X2703435Y2341834D1*
Y2334229D1*
X2699544Y2322733D1*
X2691939Y2315040D1*
X2680443Y2311237D1*
X2668947D1*
X2657539Y2315040D1*
X2653737Y2318931D1*
X2649846Y2326536D1*
X2731940Y2318931D2*
X2728138Y2315040D1*
X2731940Y2311237D1*
X2735831Y2315040D1*
X2731940Y2318931D1*
X2764425Y2372432D2*
Y2376234D1*
X2768228Y2383928D1*
X2772030Y2387730D1*
X2779724Y2391533D1*
X2795022D1*
X2802627Y2387730D1*
X2806430Y2383928D1*
X2810321Y2376234D1*
Y2368629D1*
X2806430Y2360935D1*
X2798825Y2349528D1*
X2760534Y2311237D1*
X2814123D1*
X3133102Y924436D2*
D75*
X3136905Y926337D1*
X3140752Y930184D1*
X3142653Y933987D1*
Y941636D1*
X3140752Y945483D1*
X3136905Y949285D1*
X3133102Y951231D1*
X3127354Y953132D1*
X3117760D1*
X3112056Y951231D1*
X3108209Y949285D1*
X3104406Y945483D1*
X3102461Y941636D1*
Y933987D1*
X3104406Y930184D1*
X3108209Y926337D1*
X3112056Y924436D1*
X3117760D1*
Y933987D1*
X3142653Y885290D2*
X3102461D1*
X3142653Y912085D1*
X3102461D1*
X3142653Y872939D2*
X3102461D1*
Y859541D1*
X3104407Y853793D1*
X3108209Y849947D1*
X3112056Y848045D1*
X3117760Y846144D1*
X3127354D1*
X3133102Y848045D1*
X3136905Y849947D1*
X3140752Y853793D1*
X3142653Y859541D1*
Y872939D1*
X3036877Y792136D2*
D76*
X3016780Y784487D1*
X3036876Y776837D1*
X3027304Y770662D2*
Y762062D1*
X3028277Y759188D1*
X3029227Y758215D1*
X3031128Y757264D1*
X3033052D1*
X3034953Y758215D1*
X3035926Y759188D1*
X3036876Y762062D1*
Y770662D1*
X3016780D1*
X3027304Y763963D2*
X3016780Y757264D1*
X3036876Y738664D2*
Y751089D1*
X3016780D1*
X3016781Y738664D1*
X3027304Y751089D2*
Y743439D1*
X3036876Y720042D2*
Y732488D1*
X3016781D1*
X3027304D2*
Y724839D1*
X3042653Y953132D2*
D75*
X3002461Y937833D1*
X3042653Y922535D1*
Y910183D2*
X3002461Y910184D1*
Y896786D1*
X3004406Y891038D1*
X3008209Y887191D1*
X3012056Y885290D1*
X3017760Y883389D1*
X3027354D1*
X3033102Y885290D1*
X3036905Y887191D1*
X3040752Y891038D1*
X3042653Y896786D1*
Y910183D1*
Y871037D2*
X3002461D1*
Y857640D1*
X3004407Y851892D1*
X3008209Y848045D1*
X3012056Y846144D1*
X3017760Y844243D1*
X3027354D1*
X3033102Y846144D1*
X3036905Y848045D1*
X3040752Y851892D1*
X3042653Y857640D1*
Y871037D1*
X2932978Y951187D2*
X2934880D1*
X2938726Y949285D1*
X2940628Y947384D1*
X2942529Y943537D1*
Y935888D1*
X2940628Y932085D1*
X2938726Y930184D1*
X2934879Y928239D1*
X2931077D1*
X2927230Y930184D1*
X2921526Y933987D1*
X2902381Y953132D1*
Y926337D1*
X2942573Y913986D2*
X2902381D1*
Y896742D1*
X2904326Y890994D1*
X2906228Y889093D1*
X2910030Y887191D1*
X2915778D1*
X2919625Y889093D1*
X2921526Y890994D1*
X2923428Y896742D1*
X2925373Y890994D1*
X2927274Y889093D1*
X2931077Y887191D1*
X2934924D1*
X2938726Y889093D1*
X2940672Y890994D1*
X2942573Y896742D1*
Y913986D1*
X2923428D2*
Y896742D1*
X2832978Y951187D2*
X2834880D1*
X2838726Y949285D1*
X2840628Y947384D1*
X2842529Y943537D1*
Y935888D1*
X2840628Y932085D1*
X2838726Y930184D1*
X2834879Y928239D1*
X2831077D1*
X2827230Y930184D1*
X2821526Y933987D1*
X2802381Y953132D1*
Y926337D1*
Y883345D2*
X2842573Y898687D1*
X2802381Y913986D1*
X2815778Y908238D2*
Y889093D1*
X2533102Y924436D2*
X2536905Y926337D1*
X2540752Y930184D1*
X2542653Y933987D1*
Y941636D1*
X2540752Y945483D1*
X2536905Y949285D1*
X2533102Y951231D1*
X2527354Y953132D1*
X2517760D1*
X2512056Y951231D1*
X2508209Y949285D1*
X2504406Y945483D1*
X2502461Y941636D1*
Y933987D1*
X2504406Y930184D1*
X2508209Y926337D1*
X2512056Y924436D1*
X2517760D1*
Y933987D1*
X2542653Y885290D2*
X2502461D1*
X2542653Y912085D1*
X2502461D1*
X2542653Y872939D2*
X2502461D1*
Y859541D1*
X2504407Y853793D1*
X2508209Y849947D1*
X2512056Y848045D1*
X2517760Y846144D1*
X2527354D1*
X2533102Y848045D1*
X2536905Y849947D1*
X2540752Y853793D1*
X2542653Y859541D1*
Y872939D1*
X2442653Y953132D2*
X2402461Y937833D1*
X2442653Y922535D1*
X2402461Y879586D2*
X2442653D1*
X2402461Y894885D1*
X2442653Y910183D1*
X2402461Y910184D1*
X2442653Y855739D2*
X2440752Y859586D1*
X2436905Y863388D1*
X2433102Y865334D1*
X2427354Y867235D1*
X2417760D1*
X2412056Y865334D1*
X2408209Y863388D1*
X2404407Y859586D1*
X2402461Y855739D1*
Y848090D1*
X2404407Y844287D1*
X2408209Y840440D1*
X2412056Y838539D1*
X2417760Y836638D1*
X2427354D1*
X2433102Y838539D1*
X2436905Y840440D1*
X2440752Y844287D1*
X2442653Y848090D1*
Y855739D1*
Y810889D2*
X2402461D1*
X2442653Y824286D2*
Y797492D1*
X2734880Y953132D2*
X2736825Y949285D1*
X2742529Y943537D1*
X2702381D1*
Y900545D2*
X2742573Y915887D1*
X2702381Y931186D1*
X2715778Y925438D2*
Y906293D1*
X2634880Y953132D2*
X2636825Y949285D1*
X2642529Y943537D1*
X2602381D1*
X2642573Y931186D2*
X2602381D1*
Y913942D1*
X2604326Y908194D1*
X2606228Y906293D1*
X2610030Y904391D1*
X2615778D1*
X2619625Y906293D1*
X2621526Y908194D1*
X2623428Y913942D1*
X2625373Y908194D1*
X2627274Y906293D1*
X2631077Y904391D1*
X2634924D1*
X2638726Y906292D1*
X2640672Y908194D1*
X2642573Y913942D1*
Y931186D1*
X2623428D2*
Y913942D1*
X2442653Y590783D2*
Y615632D1*
X2402461D1*
Y590783D1*
X2423508Y615632D2*
Y600333D1*
X2442653Y551637D2*
X2402461D1*
X2442653Y578431D1*
X2402461Y578432D1*
X2502461Y610055D2*
X2542653D1*
X2502461Y625353D1*
X2542653Y640652D1*
X2502461D1*
X2536905Y570909D2*
X2540752Y574711D1*
X2542653Y580459D1*
Y588109D1*
X2540752Y593857D1*
X2536905Y597703D1*
X2533102D1*
X2529256Y595758D1*
X2527354Y593857D1*
X2525453Y590054D1*
X2521606Y578558D1*
X2519705Y574711D1*
X2517760Y572810D1*
X2513957Y570909D1*
X2508209D1*
X2504406Y574711D1*
X2502461Y580459D1*
Y588109D1*
X2504406Y593857D1*
X2508209Y597704D1*
X2534959Y558557D2*
X2536905Y554711D1*
X2542609Y548963D1*
X2502461D1*
X2823508Y640652D2*
Y623452D1*
X2825453Y617704D1*
X2827354Y615759D1*
X2831157Y613857D1*
X2835004D1*
X2838806Y615759D1*
X2840752Y617704D1*
X2842653Y623452D1*
Y640652D1*
X2802461D1*
X2823508Y627255D2*
X2802461Y613857D1*
X2836905Y574711D2*
X2840752Y578514D1*
X2842653Y584262D1*
Y591911D1*
X2840752Y597659D1*
X2836905Y601506D1*
X2833102D1*
X2829256Y599561D1*
X2827354Y597659D1*
X2825453Y593857D1*
X2821606Y582361D1*
X2819705Y578514D1*
X2817760Y576613D1*
X2813957Y574711D1*
X2808209D1*
X2804406Y578514D1*
X2802461Y584262D1*
Y591911D1*
X2804406Y597659D1*
X2808209Y601506D1*
X2842653Y548963D2*
X2802461D1*
X2842653Y562360D2*
Y535565D1*
X2702461Y622535D2*
X2742653D1*
X2702461Y637833D1*
X2742653Y653132D1*
X2702461D1*
X2736905Y583389D2*
X2740752Y587191D1*
X2742653Y592939D1*
Y600589D1*
X2740752Y606337D1*
X2736905Y610183D1*
X2733102D1*
X2729256Y608238D1*
X2727354Y606337D1*
X2725453Y602534D1*
X2721606Y591038D1*
X2719705Y587191D1*
X2717760Y585290D1*
X2713957Y583389D1*
X2708209D1*
X2704406Y587191D1*
X2702461Y592939D1*
Y600589D1*
X2704406Y606337D1*
X2708209Y610184D1*
X2742609Y567191D2*
Y546188D1*
X2727310Y557640D1*
Y551892D1*
X2725409Y548090D1*
X2723508Y546188D1*
X2717760Y544243D1*
X2713957D1*
X2708209Y546188D1*
X2704362Y549991D1*
X2702461Y555739D1*
Y561487D1*
X2704362Y567191D1*
X2706308Y569092D1*
X2710110Y571037D1*
X2602461Y622535D2*
X2642653D1*
X2602461Y637833D1*
X2642653Y653132D1*
X2602461D1*
X2636905Y583389D2*
X2640752Y587191D1*
X2642653Y592939D1*
Y600589D1*
X2640752Y606337D1*
X2636905Y610183D1*
X2633102D1*
X2629256Y608238D1*
X2627354Y606337D1*
X2625453Y602534D1*
X2621606Y591038D1*
X2619705Y587191D1*
X2617760Y585290D1*
X2613957Y583389D1*
X2608209D1*
X2604406Y587191D1*
X2602461Y592939D1*
Y600589D1*
X2604406Y606337D1*
X2608209Y610184D1*
X2633058Y569092D2*
X2634959D1*
X2638806Y567191D1*
X2640708Y565289D1*
X2642609Y561443D1*
Y553793D1*
X2640708Y549991D1*
X2638806Y548090D1*
X2634959Y546144D1*
X2631157D1*
X2627310Y548090D1*
X2621606Y551892D1*
X2602461Y571037D1*
Y544243D1*
X3142653Y615632D2*
X3102461D1*
Y602235D1*
X3104406Y596487D1*
X3108209Y592640D1*
X3112056Y590739D1*
X3117760Y588837D1*
X3127354D1*
X3133102Y590739D1*
X3136905Y592640D1*
X3140752Y596487D1*
X3142653Y602235D1*
Y615632D1*
Y576486D2*
X3102461D1*
X3123508Y564135D2*
Y546935D1*
X3125453Y541187D1*
X3127354Y539241D1*
X3131157Y537340D1*
X3135004D1*
X3138806Y539241D1*
X3140752Y541187D1*
X3142653Y546935D1*
Y564135D1*
X3102461D1*
X3123508Y550737D2*
X3102461Y537340D1*
X3036905Y651297D2*
X3040752Y655100D1*
X3042653Y660848D1*
Y668497D1*
X3040752Y674245D1*
X3036905Y678092D1*
X3033102D1*
X3029256Y676147D1*
X3027354Y674245D1*
X3025453Y670443D1*
X3021606Y658947D1*
X3019705Y655100D1*
X3017760Y653199D1*
X3013957Y651297D1*
X3008209D1*
X3004406Y655100D1*
X3002461Y660848D1*
Y668497D1*
X3004407Y674245D1*
X3008209Y678092D1*
X3042653Y625549D2*
X3002461D1*
X3042653Y638946D2*
Y612151D1*
Y574951D2*
Y599800D1*
X3002461D1*
Y574951D1*
X3023508Y599800D2*
Y584501D1*
X3021606Y562599D2*
Y545355D1*
X3023508Y539652D1*
X3025453Y537706D1*
X3029256Y535805D1*
X3035004D1*
X3038806Y537706D1*
X3040752Y539652D1*
X3042653Y545355D1*
Y562599D1*
X3002461D1*
X2936905Y613857D2*
X2940752Y617660D1*
X2942653Y623408D1*
Y631057D1*
X2940752Y636805D1*
X2936905Y640652D1*
X2933102D1*
X2929256Y638707D1*
X2927354Y636805D1*
X2925453Y633003D1*
X2921606Y621507D1*
X2919705Y617660D1*
X2917760Y615759D1*
X2913957Y613857D1*
X2908209D1*
X2904406Y617660D1*
X2902461Y623408D1*
Y631057D1*
X2904407Y636805D1*
X2908209Y640652D1*
X2942653Y601506D2*
X2902461D1*
Y578558D1*
X2921606Y566207D2*
Y548963D1*
X2923508Y543259D1*
X2925453Y541313D1*
X2929256Y539412D1*
X2935004D1*
X2938806Y541313D1*
X2940752Y543259D1*
X2942653Y548963D1*
Y566207D1*
X2902461D1*
X2481143Y754085D2*
X2477340Y757932D1*
X2471592Y759833D1*
X2463943D1*
X2458195Y757932D1*
X2454348Y754085D1*
Y750282D1*
X2456293Y746436D1*
X2458195Y744534D1*
X2461997Y742633D1*
X2473493Y738786D1*
X2477340Y736885D1*
X2479241Y734940D1*
X2481143Y731137D1*
Y725389D1*
X2477340Y721587D1*
X2471592Y719641D1*
X2463943D1*
X2458195Y721587D1*
X2454348Y725389D1*
X2506891Y759833D2*
Y719641D1*
X2493494Y759833D2*
X2520289D1*
X2557489D2*
X2532640D1*
Y719641D1*
X2557489D1*
X2532640Y740688D2*
X2547939D1*
X2569841Y738786D2*
X2587085D1*
X2592788Y740688D1*
X2594734Y742633D1*
X2596635Y746436D1*
Y752184D1*
X2594734Y755986D1*
X2592788Y757932D1*
X2587085Y759833D1*
X2569841D1*
Y719641D1*
X2608987Y738786D2*
X2626231D1*
X2631935Y740688D1*
X2633880Y742633D1*
X2635781Y746436D1*
Y752184D1*
X2633880Y755986D1*
X2631935Y757932D1*
X2626231Y759833D1*
X2608987D1*
Y719641D1*
X2672982Y759833D2*
X2648133D1*
Y719641D1*
X2672982D1*
X2648133Y740688D2*
X2663431D1*
X2685333D2*
X2702533D1*
X2708281Y742633D1*
X2710227Y744534D1*
X2712128Y748337D1*
Y752184D1*
X2710227Y755986D1*
X2708281Y757932D1*
X2702533Y759833D1*
X2685333D1*
Y719641D1*
X2698731Y740688D2*
X2712128Y719641D1*
X2763360Y759833D2*
Y719641D1*
X2776757D1*
X2782505Y721587D1*
X2786352Y725389D1*
X2788254Y729236D1*
X2790155Y734940D1*
Y744534D1*
X2788254Y750282D1*
X2786352Y754085D1*
X2782505Y757932D1*
X2776757Y759833D1*
X2763360D1*
X2802506Y740688D2*
X2819706D1*
X2825454Y742633D1*
X2827400Y744534D1*
X2829301Y748337D1*
Y752184D1*
X2827400Y755986D1*
X2825454Y757932D1*
X2819706Y759833D1*
X2802506D1*
Y719641D1*
X2815904Y740688D2*
X2829301Y719641D1*
X2841652Y759833D2*
Y719641D1*
X2854004Y759833D2*
X2869302Y719641D1*
X2884601Y759833D1*
X2921801D2*
X2896952D1*
Y719641D1*
X2921801D1*
X2896952Y740688D2*
X2912251D1*
X2934153D2*
X2951353D1*
X2957101Y742633D1*
X2959046Y744534D1*
X2960948Y748337D1*
Y752184D1*
X2959046Y755986D1*
X2957101Y757932D1*
X2951353Y759833D1*
X2934153D1*
Y719641D1*
X2947550Y740688D2*
X2960948Y719641D1*
X3362964Y2008102D2*
X3361063Y2011905D1*
X3357216Y2015752D1*
X3353413Y2017653D1*
X3345764D1*
X3341917Y2015752D1*
X3338115Y2011905D1*
X3336169Y2008102D1*
X3334268Y2002354D1*
Y1992760D1*
X3336169Y1987056D1*
X3338115Y1983209D1*
X3341917Y1979407D1*
X3345764Y1977461D1*
X3353413D1*
X3357216Y1979407D1*
X3361063Y1983209D1*
X3362964Y1987056D1*
Y1992760D1*
X3353413D1*
X3402110Y2017653D2*
Y1977461D1*
X3375315Y2017653D1*
Y1977461D1*
X3414461Y2017653D2*
Y1977461D1*
X3427859D1*
X3433607Y1979407D1*
X3437453Y1983209D1*
X3439355Y1987056D1*
X3441256Y1992760D1*
Y2002354D1*
X3439355Y2008102D1*
X3437453Y2011905D1*
X3433607Y2015752D1*
X3427859Y2017653D1*
X3414461D1*
X3495264Y1911877D2*
D76*
X3502913Y1891781D1*
X3510563Y1911877D1*
X3516738Y1902304D2*
X3525338D1*
X3528212Y1903277D1*
X3529185Y1904227D1*
X3530136Y1906128D1*
Y1908052D1*
X3529185Y1909953D1*
X3528212Y1910926D1*
X3525338Y1911877D1*
X3516738D1*
Y1891781D1*
X3523437Y1902304D2*
X3530136Y1891781D1*
X3548736Y1911877D2*
X3536311D1*
Y1891781D1*
X3548736D1*
X3536311Y1902304D2*
X3543961D1*
X3567358Y1911877D2*
X3554912D1*
Y1891781D1*
Y1902304D2*
X3562561D1*
X3334268Y1917653D2*
D75*
X3349566Y1877461D1*
X3364865Y1917653D1*
X3377216D2*
Y1877461D1*
X3390614D1*
X3396362Y1879407D1*
X3400209Y1883209D1*
X3402110Y1887056D1*
X3404011Y1892760D1*
Y1902354D1*
X3402110Y1908102D1*
X3400209Y1911905D1*
X3396362Y1915752D1*
X3390614Y1917653D1*
X3377216D1*
X3416363D2*
Y1877461D1*
X3429760D1*
X3435508Y1879407D1*
X3439355Y1883209D1*
X3441256Y1887056D1*
X3443157Y1892760D1*
Y1902354D1*
X3441256Y1908102D1*
X3439355Y1911905D1*
X3435508Y1915752D1*
X3429760Y1917653D1*
X3416363D1*
X3336213Y1807978D2*
Y1809880D1*
X3338115Y1813726D1*
X3340016Y1815628D1*
X3343863Y1817529D1*
X3351512D1*
X3355314Y1815628D1*
X3357216Y1813726D1*
X3359161Y1809880D1*
Y1806077D1*
X3357216Y1802230D1*
X3353413Y1796526D1*
X3334268Y1777381D1*
X3361063D1*
X3373414Y1817573D2*
Y1777381D1*
X3390658D1*
X3396406Y1779327D1*
X3398307Y1781228D1*
X3400209Y1785030D1*
Y1790778D1*
X3398307Y1794625D1*
X3396406Y1796526D1*
X3390658Y1798428D1*
X3396406Y1800373D1*
X3398307Y1802274D1*
X3400209Y1806077D1*
Y1809924D1*
X3398307Y1813726D1*
X3396406Y1815672D1*
X3390658Y1817573D1*
X3373414D1*
Y1798428D2*
X3390658D1*
X3336213Y1707978D2*
Y1709880D1*
X3338115Y1713726D1*
X3340016Y1715628D1*
X3343863Y1717529D1*
X3351512D1*
X3355314Y1715628D1*
X3357216Y1713726D1*
X3359161Y1709880D1*
Y1706077D1*
X3357216Y1702230D1*
X3353413Y1696526D1*
X3334268Y1677381D1*
X3361063D1*
X3404055D2*
X3388713Y1717573D1*
X3373414Y1677381D1*
X3379162Y1690778D2*
X3398307D1*
X3362964Y1408102D2*
X3361063Y1411905D1*
X3357216Y1415752D1*
X3353413Y1417653D1*
X3345764D1*
X3341917Y1415752D1*
X3338115Y1411905D1*
X3336169Y1408102D1*
X3334268Y1402354D1*
Y1392760D1*
X3336169Y1387056D1*
X3338115Y1383209D1*
X3341917Y1379407D1*
X3345764Y1377461D1*
X3353413D1*
X3357216Y1379407D1*
X3361063Y1383209D1*
X3362964Y1387056D1*
Y1392760D1*
X3353413D1*
X3402110Y1417653D2*
Y1377461D1*
X3375315Y1417653D1*
Y1377461D1*
X3414461Y1417653D2*
Y1377461D1*
X3427859D1*
X3433607Y1379407D1*
X3437453Y1383209D1*
X3439355Y1387056D1*
X3441256Y1392760D1*
Y1402354D1*
X3439355Y1408102D1*
X3437453Y1411905D1*
X3433607Y1415752D1*
X3427859Y1417653D1*
X3414461D1*
X3334268Y1317653D2*
X3349566Y1277461D1*
X3364865Y1317653D1*
X3407814Y1277461D2*
Y1317653D1*
X3392515Y1277461D1*
X3377216Y1317653D1*
Y1277461D1*
X3431661Y1317653D2*
X3427814Y1315752D1*
X3424012Y1311905D1*
X3422066Y1308102D1*
X3420165Y1302354D1*
Y1292760D1*
X3422066Y1287056D1*
X3424012Y1283209D1*
X3427814Y1279407D1*
X3431661Y1277461D1*
X3439310D1*
X3443113Y1279407D1*
X3446960Y1283209D1*
X3448861Y1287056D1*
X3450762Y1292760D1*
Y1302354D1*
X3448861Y1308102D1*
X3446960Y1311905D1*
X3443113Y1315752D1*
X3439310Y1317653D1*
X3431661D1*
X3476511D2*
Y1277461D1*
X3463114Y1317653D2*
X3489908D1*
X3334268Y1609880D2*
X3338115Y1611825D1*
X3343863Y1617529D1*
Y1577381D1*
X3386855D2*
X3371513Y1617573D1*
X3356214Y1577381D1*
X3361962Y1590778D2*
X3381107D1*
X3334268Y1509880D2*
X3338115Y1511825D1*
X3343863Y1517529D1*
Y1477381D1*
X3356214Y1517573D2*
Y1477381D1*
X3373458D1*
X3379206Y1479327D1*
X3381107Y1481228D1*
X3383009Y1485030D1*
Y1490778D1*
X3381107Y1494625D1*
X3379206Y1496526D1*
X3373458Y1498428D1*
X3379206Y1500373D1*
X3381107Y1502274D1*
X3383009Y1506077D1*
Y1509924D1*
X3381107Y1513726D1*
X3379206Y1515672D1*
X3373458Y1517573D1*
X3356214D1*
Y1498428D2*
X3373458D1*
X3696617Y1317653D2*
X3671768D1*
Y1277461D1*
X3696617D1*
X3671768Y1298508D2*
X3687066D1*
X3735763Y1317653D2*
Y1277461D1*
X3708968Y1317653D1*
Y1277461D1*
X3677345Y1377461D2*
Y1417653D1*
X3662046Y1377461D1*
X3646748Y1417653D1*
Y1377461D1*
X3716491Y1411905D2*
X3712689Y1415752D1*
X3706941Y1417653D1*
X3699291D1*
X3693543Y1415752D1*
X3689696Y1411905D1*
Y1408102D1*
X3691642Y1404256D1*
X3693543Y1402354D1*
X3697346Y1400453D1*
X3708842Y1396606D1*
X3712689Y1394705D1*
X3714590Y1392760D1*
X3716491Y1388957D1*
Y1383209D1*
X3712689Y1379407D1*
X3706941Y1377461D1*
X3699291D1*
X3693543Y1379407D1*
X3689696Y1383209D1*
X3728843Y1409960D2*
X3732689Y1411905D1*
X3738437Y1417609D1*
Y1377461D1*
X3646748Y1698508D2*
X3663948D1*
X3669696Y1700453D1*
X3671641Y1702354D1*
X3673543Y1706157D1*
Y1710004D1*
X3671641Y1713806D1*
X3669696Y1715752D1*
X3663948Y1717653D1*
X3646748D1*
Y1677461D1*
X3660145Y1698508D2*
X3673543Y1677461D1*
X3712689Y1711905D2*
X3708886Y1715752D1*
X3703138Y1717653D1*
X3695489D1*
X3689741Y1715752D1*
X3685894Y1711905D1*
Y1708102D1*
X3687839Y1704256D1*
X3689741Y1702354D1*
X3693543Y1700453D1*
X3705039Y1696606D1*
X3708886Y1694705D1*
X3710787Y1692760D1*
X3712689Y1688957D1*
Y1683209D1*
X3708886Y1679407D1*
X3703138Y1677461D1*
X3695489D1*
X3689741Y1679407D1*
X3685894Y1683209D1*
X3738437Y1717653D2*
Y1677461D1*
X3725040Y1717653D2*
X3751835D1*
X3664865Y1577461D2*
Y1617653D1*
X3649566Y1577461D1*
X3634268Y1617653D1*
Y1577461D1*
X3704011Y1611905D2*
X3700209Y1615752D1*
X3694461Y1617653D1*
X3686811D1*
X3681063Y1615752D1*
X3677216Y1611905D1*
Y1608102D1*
X3679162Y1604256D1*
X3681063Y1602354D1*
X3684866Y1600453D1*
X3696362Y1596606D1*
X3700209Y1594705D1*
X3702110Y1592760D1*
X3704011Y1588957D1*
Y1583209D1*
X3700209Y1579407D1*
X3694461Y1577461D1*
X3686811D1*
X3681063Y1579407D1*
X3677216Y1583209D1*
X3720209Y1617609D2*
X3741212D1*
X3729760Y1602310D1*
X3735508D1*
X3739310Y1600409D1*
X3741212Y1598508D1*
X3743157Y1592760D1*
Y1588957D1*
X3741212Y1583209D1*
X3737409Y1579362D1*
X3731661Y1577461D1*
X3725913D1*
X3720209Y1579362D1*
X3718308Y1581308D1*
X3716363Y1585110D1*
X3664865Y1477461D2*
Y1517653D1*
X3649566Y1477461D1*
X3634268Y1517653D1*
Y1477461D1*
X3704011Y1511905D2*
X3700209Y1515752D1*
X3694461Y1517653D1*
X3686811D1*
X3681063Y1515752D1*
X3677216Y1511905D1*
Y1508102D1*
X3679162Y1504256D1*
X3681063Y1502354D1*
X3684866Y1500453D1*
X3696362Y1496606D1*
X3700209Y1494705D1*
X3702110Y1492760D1*
X3704011Y1488957D1*
Y1483209D1*
X3700209Y1479407D1*
X3694461Y1477461D1*
X3686811D1*
X3681063Y1479407D1*
X3677216Y1483209D1*
X3718308Y1508058D2*
Y1509960D1*
X3720209Y1513806D1*
X3722111Y1515708D1*
X3725957Y1517609D1*
X3733607D1*
X3737409Y1515708D1*
X3739310Y1513806D1*
X3741256Y1509960D1*
Y1506157D1*
X3739310Y1502310D1*
X3735508Y1496606D1*
X3716363Y1477461D1*
X3743157D1*
X3671768Y2017653D2*
Y1977461D1*
X3685165D1*
X3690913Y1979407D1*
X3694760Y1983209D1*
X3696661Y1987056D1*
X3698563Y1992760D1*
Y2002354D1*
X3696661Y2008102D1*
X3694760Y2011905D1*
X3690913Y2015752D1*
X3685165Y2017653D1*
X3671768D1*
X3710914D2*
Y1977461D1*
X3723265Y1998508D2*
X3740465D1*
X3746213Y2000453D1*
X3748159Y2002354D1*
X3750060Y2006157D1*
Y2010004D1*
X3748159Y2013806D1*
X3746213Y2015752D1*
X3740465Y2017653D1*
X3723265D1*
Y1977461D1*
X3736663Y1998508D2*
X3750060Y1977461D1*
X3636103Y1911905D2*
X3632300Y1915752D1*
X3626552Y1917653D1*
X3618903D1*
X3613155Y1915752D1*
X3609308Y1911905D1*
Y1908102D1*
X3611253Y1904256D1*
X3613155Y1902354D1*
X3616957Y1900453D1*
X3628453Y1896606D1*
X3632300Y1894705D1*
X3634201Y1892760D1*
X3636103Y1888957D1*
Y1883209D1*
X3632300Y1879407D1*
X3626552Y1877461D1*
X3618903D1*
X3613155Y1879407D1*
X3609308Y1883209D1*
X3661851Y1917653D2*
Y1877461D1*
X3648454Y1917653D2*
X3675249D1*
X3712449D2*
X3687600D1*
Y1877461D1*
X3712449D1*
X3687600Y1898508D2*
X3702899D1*
X3724801Y1896606D2*
X3742045D1*
X3747748Y1898508D1*
X3749694Y1900453D1*
X3751595Y1904256D1*
Y1910004D1*
X3749694Y1913806D1*
X3747748Y1915752D1*
X3742045Y1917653D1*
X3724801D1*
Y1877461D1*
X3673543Y1811905D2*
X3669740Y1815752D1*
X3663992Y1817653D1*
X3656343D1*
X3650595Y1815752D1*
X3646748Y1811905D1*
Y1808102D1*
X3648693Y1804256D1*
X3650595Y1802354D1*
X3654397Y1800453D1*
X3665893Y1796606D1*
X3669740Y1794705D1*
X3671641Y1792760D1*
X3673543Y1788957D1*
Y1783209D1*
X3669740Y1779407D1*
X3663992Y1777461D1*
X3656343D1*
X3650595Y1779407D1*
X3646748Y1783209D1*
X3685894Y1817653D2*
Y1777461D1*
X3708842D1*
X3721193Y1796606D2*
X3738437D1*
X3744141Y1798508D1*
X3746087Y1800453D1*
X3747988Y1804256D1*
Y1810004D1*
X3746087Y1813806D1*
X3744141Y1815752D1*
X3738437Y1817653D1*
X3721193D1*
Y1777461D1*
X3533315Y1356143D2*
X3529468Y1352340D1*
X3527567Y1346592D1*
Y1338943D1*
X3529468Y1333195D1*
X3533315Y1329348D1*
X3537118D1*
X3540964Y1331293D1*
X3542866Y1333195D1*
X3544767Y1336997D1*
X3548614Y1348493D1*
X3550515Y1352340D1*
X3552460Y1354241D1*
X3556263Y1356143D1*
X3562011D1*
X3565814Y1352340D1*
X3567759Y1346592D1*
Y1338943D1*
X3565813Y1333195D1*
X3562011Y1329348D1*
X3527567Y1381891D2*
X3567759D1*
X3527567Y1368494D2*
Y1395289D1*
Y1432489D2*
Y1407640D1*
X3567759D1*
Y1432489D1*
X3546712Y1407640D2*
Y1422939D1*
X3548614Y1444841D2*
Y1462085D1*
X3546712Y1467788D1*
X3544767Y1469734D1*
X3540964Y1471635D1*
X3535216D1*
X3531414Y1469734D1*
X3529468Y1467788D1*
X3527567Y1462085D1*
Y1444841D1*
X3567759D1*
X3548614Y1483987D2*
Y1501231D1*
X3546712Y1506935D1*
X3544767Y1508880D1*
X3540964Y1510781D1*
X3535216D1*
X3531414Y1508880D1*
X3529468Y1506935D1*
X3527567Y1501231D1*
Y1483987D1*
X3567759D1*
X3527567Y1547982D2*
Y1523133D1*
X3567759D1*
Y1547982D1*
X3546712Y1523133D2*
Y1538431D1*
Y1560333D2*
Y1577533D1*
X3544767Y1583281D1*
X3542866Y1585227D1*
X3539063Y1587128D1*
X3535216D1*
X3531414Y1585227D1*
X3529468Y1583281D1*
X3527567Y1577533D1*
Y1560333D1*
X3567759D1*
X3546712Y1573731D2*
X3567759Y1587128D1*
X3527567Y1638360D2*
X3567759D1*
Y1651757D1*
X3565813Y1657505D1*
X3562011Y1661352D1*
X3558164Y1663254D1*
X3552460Y1665155D1*
X3542866D1*
X3537118Y1663254D1*
X3533315Y1661352D1*
X3529468Y1657505D1*
X3527567Y1651757D1*
Y1638360D1*
X3546712Y1677506D2*
Y1694706D1*
X3544767Y1700454D1*
X3542866Y1702400D1*
X3539063Y1704301D1*
X3535216D1*
X3531414Y1702400D1*
X3529468Y1700454D1*
X3527567Y1694706D1*
Y1677506D1*
X3567759D1*
X3546712Y1690904D2*
X3567759Y1704301D1*
X3527567Y1716652D2*
X3567759D1*
X3527567Y1729004D2*
X3567759Y1744302D1*
X3527567Y1759601D1*
Y1796801D2*
Y1771952D1*
X3567759D1*
Y1796801D1*
X3546712Y1771952D2*
Y1787251D1*
Y1809153D2*
Y1826353D1*
X3544767Y1832101D1*
X3542866Y1834046D1*
X3539063Y1835948D1*
X3535216D1*
X3531414Y1834046D1*
X3529468Y1832101D1*
X3527567Y1826353D1*
Y1809153D1*
X3567759D1*
X3546712Y1822550D2*
X3567759Y1835948D1*
X4933102Y924436D2*
X4936905Y926337D1*
X4940752Y930184D1*
X4942653Y933987D1*
Y941636D1*
X4940752Y945483D1*
X4936905Y949285D1*
X4933102Y951231D1*
X4927354Y953132D1*
X4917760D1*
X4912056Y951231D1*
X4908209Y949285D1*
X4904406Y945483D1*
X4902461Y941636D1*
Y933987D1*
X4904406Y930184D1*
X4908209Y926337D1*
X4912056Y924436D1*
X4917760D1*
Y933987D1*
X4942653Y885290D2*
X4902461D1*
X4942653Y912085D1*
X4902461D1*
X4942653Y872939D2*
X4902461D1*
Y859541D1*
X4904407Y853793D1*
X4908209Y849947D1*
X4912056Y848045D1*
X4917760Y846144D1*
X4927354D1*
X4933102Y848045D1*
X4936905Y849947D1*
X4940752Y853793D1*
X4942653Y859541D1*
Y872939D1*
X4836877Y792136D2*
D76*
X4816780Y784487D1*
X4836876Y776837D1*
X4827304Y770662D2*
Y762062D1*
X4828277Y759188D1*
X4829227Y758215D1*
X4831128Y757264D1*
X4833052D1*
X4834953Y758215D1*
X4835926Y759188D1*
X4836876Y762062D1*
Y770662D1*
X4816780D1*
X4827304Y763963D2*
X4816780Y757264D1*
X4836876Y738664D2*
Y751089D1*
X4816780D1*
X4816781Y738664D1*
X4827304Y751089D2*
Y743439D1*
X4836876Y720042D2*
Y732488D1*
X4816781D1*
X4827304D2*
Y724839D1*
X4842653Y953132D2*
D75*
X4802461Y937833D1*
X4842653Y922535D1*
Y910183D2*
X4802461Y910184D1*
Y896786D1*
X4804406Y891038D1*
X4808209Y887191D1*
X4812056Y885290D1*
X4817760Y883389D1*
X4827354D1*
X4833102Y885290D1*
X4836905Y887191D1*
X4840752Y891038D1*
X4842653Y896786D1*
Y910183D1*
Y871037D2*
X4802461D1*
Y857640D1*
X4804407Y851892D1*
X4808209Y848045D1*
X4812056Y846144D1*
X4817760Y844243D1*
X4827354D1*
X4833102Y846144D1*
X4836905Y848045D1*
X4840752Y851892D1*
X4842653Y857640D1*
Y871037D1*
X4732978Y951187D2*
X4734880D1*
X4738726Y949285D1*
X4740628Y947384D1*
X4742529Y943537D1*
Y935888D1*
X4740628Y932085D1*
X4738726Y930184D1*
X4734879Y928239D1*
X4731077D1*
X4727230Y930184D1*
X4721526Y933987D1*
X4702381Y953132D1*
Y926337D1*
X4742573Y913986D2*
X4702381D1*
Y896742D1*
X4704326Y890994D1*
X4706228Y889093D1*
X4710030Y887191D1*
X4715778D1*
X4719625Y889093D1*
X4721526Y890994D1*
X4723428Y896742D1*
X4725373Y890994D1*
X4727274Y889093D1*
X4731077Y887191D1*
X4734924D1*
X4738726Y889093D1*
X4740672Y890994D1*
X4742573Y896742D1*
Y913986D1*
X4723428D2*
Y896742D1*
X4632978Y951187D2*
X4634880D1*
X4638726Y949285D1*
X4640628Y947384D1*
X4642529Y943537D1*
Y935888D1*
X4640628Y932085D1*
X4638726Y930184D1*
X4634879Y928239D1*
X4631077D1*
X4627230Y930184D1*
X4621526Y933987D1*
X4602381Y953132D1*
Y926337D1*
Y883345D2*
X4642573Y898687D1*
X4602381Y913986D1*
X4615778Y908238D2*
Y889093D1*
X4333102Y924436D2*
X4336905Y926337D1*
X4340752Y930184D1*
X4342653Y933987D1*
Y941636D1*
X4340752Y945483D1*
X4336905Y949285D1*
X4333102Y951231D1*
X4327354Y953132D1*
X4317760D1*
X4312056Y951231D1*
X4308209Y949285D1*
X4304406Y945483D1*
X4302461Y941636D1*
Y933987D1*
X4304406Y930184D1*
X4308209Y926337D1*
X4312056Y924436D1*
X4317760D1*
Y933987D1*
X4342653Y885290D2*
X4302461D1*
X4342653Y912085D1*
X4302461D1*
X4342653Y872939D2*
X4302461D1*
Y859541D1*
X4304407Y853793D1*
X4308209Y849947D1*
X4312056Y848045D1*
X4317760Y846144D1*
X4327354D1*
X4333102Y848045D1*
X4336905Y849947D1*
X4340752Y853793D1*
X4342653Y859541D1*
Y872939D1*
X4242653Y953132D2*
X4202461Y937833D1*
X4242653Y922535D1*
X4202461Y879586D2*
X4242653D1*
X4202461Y894885D1*
X4242653Y910183D1*
X4202461Y910184D1*
X4242653Y855739D2*
X4240752Y859586D1*
X4236905Y863388D1*
X4233102Y865334D1*
X4227354Y867235D1*
X4217760D1*
X4212056Y865334D1*
X4208209Y863388D1*
X4204407Y859586D1*
X4202461Y855739D1*
Y848090D1*
X4204407Y844287D1*
X4208209Y840440D1*
X4212056Y838539D1*
X4217760Y836638D1*
X4227354D1*
X4233102Y838539D1*
X4236905Y840440D1*
X4240752Y844287D1*
X4242653Y848090D1*
Y855739D1*
Y810889D2*
X4202461D1*
X4242653Y824286D2*
Y797492D1*
X4534880Y953132D2*
X4536825Y949285D1*
X4542529Y943537D1*
X4502381D1*
Y900545D2*
X4542573Y915887D1*
X4502381Y931186D1*
X4515778Y925438D2*
Y906293D1*
X4434880Y953132D2*
X4436825Y949285D1*
X4442529Y943537D1*
X4402381D1*
X4442573Y931186D2*
X4402381D1*
Y913942D1*
X4404326Y908194D1*
X4406228Y906293D1*
X4410030Y904391D1*
X4415778D1*
X4419625Y906293D1*
X4421526Y908194D1*
X4423428Y913942D1*
X4425373Y908194D1*
X4427274Y906293D1*
X4431077Y904391D1*
X4434924D1*
X4438726Y906292D1*
X4440672Y908194D1*
X4442573Y913942D1*
Y931186D1*
X4423428D2*
Y913942D1*
X4242653Y590783D2*
Y615632D1*
X4202461D1*
Y590783D1*
X4223508Y615632D2*
Y600333D1*
X4242653Y551637D2*
X4202461D1*
X4242653Y578431D1*
X4202461Y578432D1*
X4302461Y610055D2*
X4342653D1*
X4302461Y625353D1*
X4342653Y640652D1*
X4302461D1*
X4336905Y570909D2*
X4340752Y574711D1*
X4342653Y580459D1*
Y588109D1*
X4340752Y593857D1*
X4336905Y597703D1*
X4333102D1*
X4329256Y595758D1*
X4327354Y593857D1*
X4325453Y590054D1*
X4321606Y578558D1*
X4319705Y574711D1*
X4317760Y572810D1*
X4313957Y570909D1*
X4308209D1*
X4304406Y574711D1*
X4302461Y580459D1*
Y588109D1*
X4304406Y593857D1*
X4308209Y597704D1*
X4334959Y558557D2*
X4336905Y554711D1*
X4342609Y548963D1*
X4302461D1*
X4623508Y640652D2*
Y623452D1*
X4625453Y617704D1*
X4627354Y615759D1*
X4631157Y613857D1*
X4635004D1*
X4638806Y615759D1*
X4640752Y617704D1*
X4642653Y623452D1*
Y640652D1*
X4602461D1*
X4623508Y627255D2*
X4602461Y613857D1*
X4636905Y574711D2*
X4640752Y578514D1*
X4642653Y584262D1*
Y591911D1*
X4640752Y597659D1*
X4636905Y601506D1*
X4633102D1*
X4629256Y599561D1*
X4627354Y597659D1*
X4625453Y593857D1*
X4621606Y582361D1*
X4619705Y578514D1*
X4617760Y576613D1*
X4613957Y574711D1*
X4608209D1*
X4604406Y578514D1*
X4602461Y584262D1*
Y591911D1*
X4604406Y597659D1*
X4608209Y601506D1*
X4642653Y548963D2*
X4602461D1*
X4642653Y562360D2*
Y535565D1*
X4502461Y622535D2*
X4542653D1*
X4502461Y637833D1*
X4542653Y653132D1*
X4502461D1*
X4536905Y583389D2*
X4540752Y587191D1*
X4542653Y592939D1*
Y600589D1*
X4540752Y606337D1*
X4536905Y610183D1*
X4533102D1*
X4529256Y608238D1*
X4527354Y606337D1*
X4525453Y602534D1*
X4521606Y591038D1*
X4519705Y587191D1*
X4517760Y585290D1*
X4513957Y583389D1*
X4508209D1*
X4504406Y587191D1*
X4502461Y592939D1*
Y600589D1*
X4504406Y606337D1*
X4508209Y610184D1*
X4542609Y567191D2*
Y546188D1*
X4527310Y557640D1*
Y551892D1*
X4525409Y548090D1*
X4523508Y546188D1*
X4517760Y544243D1*
X4513957D1*
X4508209Y546188D1*
X4504362Y549991D1*
X4502461Y555739D1*
Y561487D1*
X4504362Y567191D1*
X4506308Y569092D1*
X4510110Y571037D1*
X4402461Y622535D2*
X4442653D1*
X4402461Y637833D1*
X4442653Y653132D1*
X4402461D1*
X4436905Y583389D2*
X4440752Y587191D1*
X4442653Y592939D1*
Y600589D1*
X4440752Y606337D1*
X4436905Y610183D1*
X4433102D1*
X4429256Y608238D1*
X4427354Y606337D1*
X4425453Y602534D1*
X4421606Y591038D1*
X4419705Y587191D1*
X4417760Y585290D1*
X4413957Y583389D1*
X4408209D1*
X4404406Y587191D1*
X4402461Y592939D1*
Y600589D1*
X4404406Y606337D1*
X4408209Y610184D1*
X4433058Y569092D2*
X4434959D1*
X4438806Y567191D1*
X4440708Y565289D1*
X4442609Y561443D1*
Y553793D1*
X4440708Y549991D1*
X4438806Y548090D1*
X4434959Y546144D1*
X4431157D1*
X4427310Y548090D1*
X4421606Y551892D1*
X4402461Y571037D1*
Y544243D1*
X4942653Y615632D2*
X4902461D1*
Y602235D1*
X4904406Y596487D1*
X4908209Y592640D1*
X4912056Y590739D1*
X4917760Y588837D1*
X4927354D1*
X4933102Y590739D1*
X4936905Y592640D1*
X4940752Y596487D1*
X4942653Y602235D1*
Y615632D1*
Y576486D2*
X4902461D1*
X4923508Y564135D2*
Y546935D1*
X4925453Y541187D1*
X4927354Y539241D1*
X4931157Y537340D1*
X4935004D1*
X4938806Y539241D1*
X4940752Y541187D1*
X4942653Y546935D1*
Y564135D1*
X4902461D1*
X4923508Y550737D2*
X4902461Y537340D1*
X4836905Y651297D2*
X4840752Y655100D1*
X4842653Y660848D1*
Y668497D1*
X4840752Y674245D1*
X4836905Y678092D1*
X4833102D1*
X4829256Y676147D1*
X4827354Y674245D1*
X4825453Y670443D1*
X4821606Y658947D1*
X4819705Y655100D1*
X4817760Y653199D1*
X4813957Y651297D1*
X4808209D1*
X4804406Y655100D1*
X4802461Y660848D1*
Y668497D1*
X4804407Y674245D1*
X4808209Y678092D1*
X4842653Y625549D2*
X4802461D1*
X4842653Y638946D2*
Y612151D1*
Y574951D2*
Y599800D1*
X4802461D1*
Y574951D1*
X4823508Y599800D2*
Y584501D1*
X4821606Y562599D2*
Y545355D1*
X4823508Y539652D1*
X4825453Y537706D1*
X4829256Y535805D1*
X4835004D1*
X4838806Y537706D1*
X4840752Y539652D1*
X4842653Y545355D1*
Y562599D1*
X4802461D1*
X4736905Y613857D2*
X4740752Y617660D1*
X4742653Y623408D1*
Y631057D1*
X4740752Y636805D1*
X4736905Y640652D1*
X4733102D1*
X4729256Y638707D1*
X4727354Y636805D1*
X4725453Y633003D1*
X4721606Y621507D1*
X4719705Y617660D1*
X4717760Y615759D1*
X4713957Y613857D1*
X4708209D1*
X4704406Y617660D1*
X4702461Y623408D1*
Y631057D1*
X4704407Y636805D1*
X4708209Y640652D1*
X4742653Y601506D2*
X4702461D1*
Y578558D1*
X4721606Y566207D2*
Y548963D1*
X4723508Y543259D1*
X4725453Y541313D1*
X4729256Y539412D1*
X4735004D1*
X4738806Y541313D1*
X4740752Y543259D1*
X4742653Y548963D1*
Y566207D1*
X4702461D1*
X4281143Y754085D2*
X4277340Y757932D1*
X4271592Y759833D1*
X4263943D1*
X4258195Y757932D1*
X4254348Y754085D1*
Y750282D1*
X4256293Y746436D1*
X4258195Y744534D1*
X4261997Y742633D1*
X4273493Y738786D1*
X4277340Y736885D1*
X4279241Y734940D1*
X4281143Y731137D1*
Y725389D1*
X4277340Y721587D1*
X4271592Y719641D1*
X4263943D1*
X4258195Y721587D1*
X4254348Y725389D1*
X4306891Y759833D2*
Y719641D1*
X4293494Y759833D2*
X4320289D1*
X4357489D2*
X4332640D1*
Y719641D1*
X4357489D1*
X4332640Y740688D2*
X4347939D1*
X4369841Y738786D2*
X4387085D1*
X4392788Y740688D1*
X4394734Y742633D1*
X4396635Y746436D1*
Y752184D1*
X4394734Y755986D1*
X4392788Y757932D1*
X4387085Y759833D1*
X4369841D1*
Y719641D1*
X4408987Y738786D2*
X4426231D1*
X4431935Y740688D1*
X4433880Y742633D1*
X4435781Y746436D1*
Y752184D1*
X4433880Y755986D1*
X4431935Y757932D1*
X4426231Y759833D1*
X4408987D1*
Y719641D1*
X4472982Y759833D2*
X4448133D1*
Y719641D1*
X4472982D1*
X4448133Y740688D2*
X4463431D1*
X4485333D2*
X4502533D1*
X4508281Y742633D1*
X4510227Y744534D1*
X4512128Y748337D1*
Y752184D1*
X4510227Y755986D1*
X4508281Y757932D1*
X4502533Y759833D1*
X4485333D1*
Y719641D1*
X4498731Y740688D2*
X4512128Y719641D1*
X4563360Y759833D2*
Y719641D1*
X4576757D1*
X4582505Y721587D1*
X4586352Y725389D1*
X4588254Y729236D1*
X4590155Y734940D1*
Y744534D1*
X4588254Y750282D1*
X4586352Y754085D1*
X4582505Y757932D1*
X4576757Y759833D1*
X4563360D1*
X4602506Y740688D2*
X4619706D1*
X4625454Y742633D1*
X4627400Y744534D1*
X4629301Y748337D1*
Y752184D1*
X4627400Y755986D1*
X4625454Y757932D1*
X4619706Y759833D1*
X4602506D1*
Y719641D1*
X4615904Y740688D2*
X4629301Y719641D1*
X4641652Y759833D2*
Y719641D1*
X4654004Y759833D2*
X4669302Y719641D1*
X4684601Y759833D1*
X4721801D2*
X4696952D1*
Y719641D1*
X4721801D1*
X4696952Y740688D2*
X4712251D1*
X4734153D2*
X4751353D1*
X4757101Y742633D1*
X4759046Y744534D1*
X4760948Y748337D1*
Y752184D1*
X4759046Y755986D1*
X4757101Y757932D1*
X4751353Y759833D1*
X4734153D1*
Y719641D1*
X4747550Y740688D2*
X4760948Y719641D1*
X4033102Y924436D2*
X4036905Y926337D1*
X4040752Y930184D1*
X4042653Y933987D1*
Y941636D1*
X4040752Y945483D1*
X4036905Y949285D1*
X4033102Y951231D1*
X4027354Y953132D1*
X4017760D1*
X4012056Y951231D1*
X4008209Y949285D1*
X4004406Y945483D1*
X4002461Y941636D1*
Y933987D1*
X4004406Y930184D1*
X4008209Y926337D1*
X4012056Y924436D1*
X4017760D1*
Y933987D1*
X4042653Y885290D2*
X4002461D1*
X4042653Y912085D1*
X4002461D1*
X4042653Y872939D2*
X4002461D1*
Y859541D1*
X4004407Y853793D1*
X4008209Y849947D1*
X4012056Y848045D1*
X4017760Y846144D1*
X4027354D1*
X4033102Y848045D1*
X4036905Y849947D1*
X4040752Y853793D1*
X4042653Y859541D1*
Y872939D1*
X3936877Y792136D2*
D76*
X3916780Y784487D1*
X3936876Y776837D1*
X3927304Y770662D2*
Y762062D1*
X3928277Y759188D1*
X3929227Y758215D1*
X3931128Y757264D1*
X3933052D1*
X3934953Y758215D1*
X3935926Y759188D1*
X3936876Y762062D1*
Y770662D1*
X3916780D1*
X3927304Y763963D2*
X3916780Y757264D1*
X3936876Y738664D2*
Y751089D1*
X3916780D1*
X3916781Y738664D1*
X3927304Y751089D2*
Y743439D1*
X3936876Y720042D2*
Y732488D1*
X3916781D1*
X3927304D2*
Y724839D1*
X3942653Y953132D2*
D75*
X3902461Y937833D1*
X3942653Y922535D1*
Y910183D2*
X3902461Y910184D1*
Y896786D1*
X3904406Y891038D1*
X3908209Y887191D1*
X3912056Y885290D1*
X3917760Y883389D1*
X3927354D1*
X3933102Y885290D1*
X3936905Y887191D1*
X3940752Y891038D1*
X3942653Y896786D1*
Y910183D1*
Y871037D2*
X3902461D1*
Y857640D1*
X3904407Y851892D1*
X3908209Y848045D1*
X3912056Y846144D1*
X3917760Y844243D1*
X3927354D1*
X3933102Y846144D1*
X3936905Y848045D1*
X3940752Y851892D1*
X3942653Y857640D1*
Y871037D1*
X3832978Y951187D2*
X3834880D1*
X3838726Y949285D1*
X3840628Y947384D1*
X3842529Y943537D1*
Y935888D1*
X3840628Y932085D1*
X3838726Y930184D1*
X3834879Y928239D1*
X3831077D1*
X3827230Y930184D1*
X3821526Y933987D1*
X3802381Y953132D1*
Y926337D1*
X3842573Y913986D2*
X3802381D1*
Y896742D1*
X3804326Y890994D1*
X3806228Y889093D1*
X3810030Y887191D1*
X3815778D1*
X3819625Y889093D1*
X3821526Y890994D1*
X3823428Y896742D1*
X3825373Y890994D1*
X3827274Y889093D1*
X3831077Y887191D1*
X3834924D1*
X3838726Y889093D1*
X3840672Y890994D1*
X3842573Y896742D1*
Y913986D1*
X3823428D2*
Y896742D1*
X3732978Y951187D2*
X3734880D1*
X3738726Y949285D1*
X3740628Y947384D1*
X3742529Y943537D1*
Y935888D1*
X3740628Y932085D1*
X3738726Y930184D1*
X3734879Y928239D1*
X3731077D1*
X3727230Y930184D1*
X3721526Y933987D1*
X3702381Y953132D1*
Y926337D1*
Y883345D2*
X3742573Y898687D1*
X3702381Y913986D1*
X3715778Y908238D2*
Y889093D1*
X3433102Y924436D2*
X3436905Y926337D1*
X3440752Y930184D1*
X3442653Y933987D1*
Y941636D1*
X3440752Y945483D1*
X3436905Y949285D1*
X3433102Y951231D1*
X3427354Y953132D1*
X3417760D1*
X3412056Y951231D1*
X3408209Y949285D1*
X3404406Y945483D1*
X3402461Y941636D1*
Y933987D1*
X3404406Y930184D1*
X3408209Y926337D1*
X3412056Y924436D1*
X3417760D1*
Y933987D1*
X3442653Y885290D2*
X3402461D1*
X3442653Y912085D1*
X3402461D1*
X3442653Y872939D2*
X3402461D1*
Y859541D1*
X3404407Y853793D1*
X3408209Y849947D1*
X3412056Y848045D1*
X3417760Y846144D1*
X3427354D1*
X3433102Y848045D1*
X3436905Y849947D1*
X3440752Y853793D1*
X3442653Y859541D1*
Y872939D1*
X3342653Y953132D2*
X3302461Y937833D1*
X3342653Y922535D1*
X3302461Y879586D2*
X3342653D1*
X3302461Y894885D1*
X3342653Y910183D1*
X3302461Y910184D1*
X3342653Y855739D2*
X3340752Y859586D1*
X3336905Y863388D1*
X3333102Y865334D1*
X3327354Y867235D1*
X3317760D1*
X3312056Y865334D1*
X3308209Y863388D1*
X3304407Y859586D1*
X3302461Y855739D1*
Y848090D1*
X3304407Y844287D1*
X3308209Y840440D1*
X3312056Y838539D1*
X3317760Y836638D1*
X3327354D1*
X3333102Y838539D1*
X3336905Y840440D1*
X3340752Y844287D1*
X3342653Y848090D1*
Y855739D1*
Y810889D2*
X3302461D1*
X3342653Y824286D2*
Y797492D1*
X3634880Y953132D2*
X3636825Y949285D1*
X3642529Y943537D1*
X3602381D1*
Y900545D2*
X3642573Y915887D1*
X3602381Y931186D1*
X3615778Y925438D2*
Y906293D1*
X3534880Y953132D2*
X3536825Y949285D1*
X3542529Y943537D1*
X3502381D1*
X3542573Y931186D2*
X3502381D1*
Y913942D1*
X3504326Y908194D1*
X3506228Y906293D1*
X3510030Y904391D1*
X3515778D1*
X3519625Y906293D1*
X3521526Y908194D1*
X3523428Y913942D1*
X3525373Y908194D1*
X3527274Y906293D1*
X3531077Y904391D1*
X3534924D1*
X3538726Y906292D1*
X3540672Y908194D1*
X3542573Y913942D1*
Y931186D1*
X3523428D2*
Y913942D1*
X3342653Y590783D2*
Y615632D1*
X3302461D1*
Y590783D1*
X3323508Y615632D2*
Y600333D1*
X3342653Y551637D2*
X3302461D1*
X3342653Y578431D1*
X3302461Y578432D1*
X3402461Y610055D2*
X3442653D1*
X3402461Y625353D1*
X3442653Y640652D1*
X3402461D1*
X3436905Y570909D2*
X3440752Y574711D1*
X3442653Y580459D1*
Y588109D1*
X3440752Y593857D1*
X3436905Y597703D1*
X3433102D1*
X3429256Y595758D1*
X3427354Y593857D1*
X3425453Y590054D1*
X3421606Y578558D1*
X3419705Y574711D1*
X3417760Y572810D1*
X3413957Y570909D1*
X3408209D1*
X3404406Y574711D1*
X3402461Y580459D1*
Y588109D1*
X3404406Y593857D1*
X3408209Y597704D1*
X3434959Y558557D2*
X3436905Y554711D1*
X3442609Y548963D1*
X3402461D1*
X3723508Y640652D2*
Y623452D1*
X3725453Y617704D1*
X3727354Y615759D1*
X3731157Y613857D1*
X3735004D1*
X3738806Y615759D1*
X3740752Y617704D1*
X3742653Y623452D1*
Y640652D1*
X3702461D1*
X3723508Y627255D2*
X3702461Y613857D1*
X3736905Y574711D2*
X3740752Y578514D1*
X3742653Y584262D1*
Y591911D1*
X3740752Y597659D1*
X3736905Y601506D1*
X3733102D1*
X3729256Y599561D1*
X3727354Y597659D1*
X3725453Y593857D1*
X3721606Y582361D1*
X3719705Y578514D1*
X3717760Y576613D1*
X3713957Y574711D1*
X3708209D1*
X3704406Y578514D1*
X3702461Y584262D1*
Y591911D1*
X3704406Y597659D1*
X3708209Y601506D1*
X3742653Y548963D2*
X3702461D1*
X3742653Y562360D2*
Y535565D1*
X3602461Y622535D2*
X3642653D1*
X3602461Y637833D1*
X3642653Y653132D1*
X3602461D1*
X3636905Y583389D2*
X3640752Y587191D1*
X3642653Y592939D1*
Y600589D1*
X3640752Y606337D1*
X3636905Y610183D1*
X3633102D1*
X3629256Y608238D1*
X3627354Y606337D1*
X3625453Y602534D1*
X3621606Y591038D1*
X3619705Y587191D1*
X3617760Y585290D1*
X3613957Y583389D1*
X3608209D1*
X3604406Y587191D1*
X3602461Y592939D1*
Y600589D1*
X3604406Y606337D1*
X3608209Y610184D1*
X3642609Y567191D2*
Y546188D1*
X3627310Y557640D1*
Y551892D1*
X3625409Y548090D1*
X3623508Y546188D1*
X3617760Y544243D1*
X3613957D1*
X3608209Y546188D1*
X3604362Y549991D1*
X3602461Y555739D1*
Y561487D1*
X3604362Y567191D1*
X3606308Y569092D1*
X3610110Y571037D1*
X3502461Y622535D2*
X3542653D1*
X3502461Y637833D1*
X3542653Y653132D1*
X3502461D1*
X3536905Y583389D2*
X3540752Y587191D1*
X3542653Y592939D1*
Y600589D1*
X3540752Y606337D1*
X3536905Y610183D1*
X3533102D1*
X3529256Y608238D1*
X3527354Y606337D1*
X3525453Y602534D1*
X3521606Y591038D1*
X3519705Y587191D1*
X3517760Y585290D1*
X3513957Y583389D1*
X3508209D1*
X3504406Y587191D1*
X3502461Y592939D1*
Y600589D1*
X3504406Y606337D1*
X3508209Y610184D1*
X3533058Y569092D2*
X3534959D1*
X3538806Y567191D1*
X3540708Y565289D1*
X3542609Y561443D1*
Y553793D1*
X3540708Y549991D1*
X3538806Y548090D1*
X3534959Y546144D1*
X3531157D1*
X3527310Y548090D1*
X3521606Y551892D1*
X3502461Y571037D1*
Y544243D1*
X4042653Y615632D2*
X4002461D1*
Y602235D1*
X4004406Y596487D1*
X4008209Y592640D1*
X4012056Y590739D1*
X4017760Y588837D1*
X4027354D1*
X4033102Y590739D1*
X4036905Y592640D1*
X4040752Y596487D1*
X4042653Y602235D1*
Y615632D1*
Y576486D2*
X4002461D1*
X4023508Y564135D2*
Y546935D1*
X4025453Y541187D1*
X4027354Y539241D1*
X4031157Y537340D1*
X4035004D1*
X4038806Y539241D1*
X4040752Y541187D1*
X4042653Y546935D1*
Y564135D1*
X4002461D1*
X4023508Y550737D2*
X4002461Y537340D1*
X3936905Y651297D2*
X3940752Y655100D1*
X3942653Y660848D1*
Y668497D1*
X3940752Y674245D1*
X3936905Y678092D1*
X3933102D1*
X3929256Y676147D1*
X3927354Y674245D1*
X3925453Y670443D1*
X3921606Y658947D1*
X3919705Y655100D1*
X3917760Y653199D1*
X3913957Y651297D1*
X3908209D1*
X3904406Y655100D1*
X3902461Y660848D1*
Y668497D1*
X3904407Y674245D1*
X3908209Y678092D1*
X3942653Y625549D2*
X3902461D1*
X3942653Y638946D2*
Y612151D1*
Y574951D2*
Y599800D1*
X3902461D1*
Y574951D1*
X3923508Y599800D2*
Y584501D1*
X3921606Y562599D2*
Y545355D1*
X3923508Y539652D1*
X3925453Y537706D1*
X3929256Y535805D1*
X3935004D1*
X3938806Y537706D1*
X3940752Y539652D1*
X3942653Y545355D1*
Y562599D1*
X3902461D1*
X3836905Y613857D2*
X3840752Y617660D1*
X3842653Y623408D1*
Y631057D1*
X3840752Y636805D1*
X3836905Y640652D1*
X3833102D1*
X3829256Y638707D1*
X3827354Y636805D1*
X3825453Y633003D1*
X3821606Y621507D1*
X3819705Y617660D1*
X3817760Y615759D1*
X3813957Y613857D1*
X3808209D1*
X3804406Y617660D1*
X3802461Y623408D1*
Y631057D1*
X3804407Y636805D1*
X3808209Y640652D1*
X3842653Y601506D2*
X3802461D1*
Y578558D1*
X3821606Y566207D2*
Y548963D1*
X3823508Y543259D1*
X3825453Y541313D1*
X3829256Y539412D1*
X3835004D1*
X3838806Y541313D1*
X3840752Y543259D1*
X3842653Y548963D1*
Y566207D1*
X3802461D1*
X3381143Y754085D2*
X3377340Y757932D1*
X3371592Y759833D1*
X3363943D1*
X3358195Y757932D1*
X3354348Y754085D1*
Y750282D1*
X3356293Y746436D1*
X3358195Y744534D1*
X3361997Y742633D1*
X3373493Y738786D1*
X3377340Y736885D1*
X3379241Y734940D1*
X3381143Y731137D1*
Y725389D1*
X3377340Y721587D1*
X3371592Y719641D1*
X3363943D1*
X3358195Y721587D1*
X3354348Y725389D1*
X3406891Y759833D2*
Y719641D1*
X3393494Y759833D2*
X3420289D1*
X3457489D2*
X3432640D1*
Y719641D1*
X3457489D1*
X3432640Y740688D2*
X3447939D1*
X3469841Y738786D2*
X3487085D1*
X3492788Y740688D1*
X3494734Y742633D1*
X3496635Y746436D1*
Y752184D1*
X3494734Y755986D1*
X3492788Y757932D1*
X3487085Y759833D1*
X3469841D1*
Y719641D1*
X3508987Y738786D2*
X3526231D1*
X3531935Y740688D1*
X3533880Y742633D1*
X3535781Y746436D1*
Y752184D1*
X3533880Y755986D1*
X3531935Y757932D1*
X3526231Y759833D1*
X3508987D1*
Y719641D1*
X3572982Y759833D2*
X3548133D1*
Y719641D1*
X3572982D1*
X3548133Y740688D2*
X3563431D1*
X3585333D2*
X3602533D1*
X3608281Y742633D1*
X3610227Y744534D1*
X3612128Y748337D1*
Y752184D1*
X3610227Y755986D1*
X3608281Y757932D1*
X3602533Y759833D1*
X3585333D1*
Y719641D1*
X3598731Y740688D2*
X3612128Y719641D1*
X3663360Y759833D2*
Y719641D1*
X3676757D1*
X3682505Y721587D1*
X3686352Y725389D1*
X3688254Y729236D1*
X3690155Y734940D1*
Y744534D1*
X3688254Y750282D1*
X3686352Y754085D1*
X3682505Y757932D1*
X3676757Y759833D1*
X3663360D1*
X3702506Y740688D2*
X3719706D1*
X3725454Y742633D1*
X3727400Y744534D1*
X3729301Y748337D1*
Y752184D1*
X3727400Y755986D1*
X3725454Y757932D1*
X3719706Y759833D1*
X3702506D1*
Y719641D1*
X3715904Y740688D2*
X3729301Y719641D1*
X3741652Y759833D2*
Y719641D1*
X3754004Y759833D2*
X3769302Y719641D1*
X3784601Y759833D1*
X3821801D2*
X3796952D1*
Y719641D1*
X3821801D1*
X3796952Y740688D2*
X3812251D1*
X3834153D2*
X3851353D1*
X3857101Y742633D1*
X3859046Y744534D1*
X3860948Y748337D1*
Y752184D1*
X3859046Y755986D1*
X3857101Y757932D1*
X3851353Y759833D1*
X3834153D1*
Y719641D1*
X3847550Y740688D2*
X3860948Y719641D1*
X4821775Y2722434D2*
X4825622Y2724380D1*
X4831370Y2730084D1*
Y2689936D1*
X4874363D2*
X4859020Y2730128D1*
X4843722Y2689936D1*
X4849470Y2703333D2*
X4868615D1*
X4921788Y2722434D2*
X4925635Y2724380D1*
X4931383Y2730084D1*
Y2689936D1*
X4943734Y2730128D2*
Y2689936D1*
X4960978D1*
X4966726Y2691881D1*
X4968627Y2693783D1*
X4970529Y2697585D1*
Y2703333D1*
X4968627Y2707180D1*
X4966726Y2709081D1*
X4960978Y2710983D1*
X4966726Y2712928D1*
X4968627Y2714829D1*
X4970529Y2718632D1*
Y2722479D1*
X4968627Y2726281D1*
X4966726Y2728227D1*
X4960978Y2730128D1*
X4943734D1*
Y2710983D2*
X4960978D1*
X5011221Y2720533D2*
Y2722434D1*
X5013122Y2726281D1*
X5015023Y2728183D1*
X5018870Y2730084D1*
X5026519D1*
X5030322Y2728183D1*
X5032223Y2726281D1*
X5034169Y2722434D1*
Y2718632D1*
X5032223Y2714785D1*
X5028421Y2709081D1*
X5009275Y2689936D1*
X5036070D1*
X5079063D2*
X5063720Y2730128D1*
X5048421Y2689936D1*
X5054169Y2703333D2*
X5073315D1*
X5111233Y2720533D2*
Y2722434D1*
X5113135Y2726281D1*
X5115036Y2728183D1*
X5118883Y2730084D1*
X5126532D1*
X5130334Y2728183D1*
X5132236Y2726281D1*
X5134181Y2722434D1*
Y2718632D1*
X5132236Y2714785D1*
X5128433Y2709081D1*
X5109288Y2689936D1*
X5136083D1*
X5148434Y2730128D2*
Y2689936D1*
X5165678D1*
X5171426Y2691881D1*
X5173327Y2693783D1*
X5175229Y2697585D1*
Y2703333D1*
X5173327Y2707180D1*
X5171426Y2709081D1*
X5165678Y2710983D1*
X5171426Y2712928D1*
X5173327Y2714829D1*
X5175229Y2718632D1*
Y2722479D1*
X5173327Y2726281D1*
X5171426Y2728227D1*
X5165678Y2730128D1*
X5148434D1*
Y2710983D2*
X5165678D1*
X4421775Y2722434D2*
X4425622Y2724380D1*
X4431370Y2730084D1*
Y2689936D1*
X4474363D2*
X4459020Y2730128D1*
X4443722Y2689936D1*
X4449470Y2703333D2*
X4468615D1*
X4521788Y2722434D2*
X4525635Y2724380D1*
X4531383Y2730084D1*
Y2689936D1*
X4543734Y2730128D2*
Y2689936D1*
X4560978D1*
X4566726Y2691881D1*
X4568627Y2693783D1*
X4570529Y2697585D1*
Y2703333D1*
X4568627Y2707180D1*
X4566726Y2709081D1*
X4560978Y2710983D1*
X4566726Y2712928D1*
X4568627Y2714829D1*
X4570529Y2718632D1*
Y2722479D1*
X4568627Y2726281D1*
X4566726Y2728227D1*
X4560978Y2730128D1*
X4543734D1*
Y2710983D2*
X4560978D1*
X4611221Y2720533D2*
Y2722434D1*
X4613122Y2726281D1*
X4615023Y2728183D1*
X4618870Y2730084D1*
X4626519D1*
X4630322Y2728183D1*
X4632223Y2726281D1*
X4634169Y2722434D1*
Y2718632D1*
X4632223Y2714785D1*
X4628421Y2709081D1*
X4609275Y2689936D1*
X4636070D1*
X4679063D2*
X4663720Y2730128D1*
X4648421Y2689936D1*
X4654169Y2703333D2*
X4673315D1*
X4711233Y2720533D2*
Y2722434D1*
X4713135Y2726281D1*
X4715036Y2728183D1*
X4718883Y2730084D1*
X4726532D1*
X4730334Y2728183D1*
X4732236Y2726281D1*
X4734181Y2722434D1*
Y2718632D1*
X4732236Y2714785D1*
X4728433Y2709081D1*
X4709288Y2689936D1*
X4736083D1*
X4748434Y2730128D2*
Y2689936D1*
X4765678D1*
X4771426Y2691881D1*
X4773327Y2693783D1*
X4775229Y2697585D1*
Y2703333D1*
X4773327Y2707180D1*
X4771426Y2709081D1*
X4765678Y2710983D1*
X4771426Y2712928D1*
X4773327Y2714829D1*
X4775229Y2718632D1*
Y2722479D1*
X4773327Y2726281D1*
X4771426Y2728227D1*
X4765678Y2730128D1*
X4748434D1*
Y2710983D2*
X4765678D1*
X4021775Y2722434D2*
X4025622Y2724380D1*
X4031370Y2730084D1*
Y2689936D1*
X4074363D2*
X4059020Y2730128D1*
X4043722Y2689936D1*
X4049470Y2703333D2*
X4068615D1*
X4121788Y2722434D2*
X4125635Y2724380D1*
X4131383Y2730084D1*
Y2689936D1*
X4143734Y2730128D2*
Y2689936D1*
X4160978D1*
X4166726Y2691881D1*
X4168627Y2693783D1*
X4170529Y2697585D1*
Y2703333D1*
X4168627Y2707180D1*
X4166726Y2709081D1*
X4160978Y2710983D1*
X4166726Y2712928D1*
X4168627Y2714829D1*
X4170529Y2718632D1*
Y2722479D1*
X4168627Y2726281D1*
X4166726Y2728227D1*
X4160978Y2730128D1*
X4143734D1*
Y2710983D2*
X4160978D1*
X4211221Y2720533D2*
Y2722434D1*
X4213122Y2726281D1*
X4215023Y2728183D1*
X4218870Y2730084D1*
X4226519D1*
X4230322Y2728183D1*
X4232223Y2726281D1*
X4234169Y2722434D1*
Y2718632D1*
X4232223Y2714785D1*
X4228421Y2709081D1*
X4209275Y2689936D1*
X4236070D1*
X4279063D2*
X4263720Y2730128D1*
X4248421Y2689936D1*
X4254169Y2703333D2*
X4273315D1*
X4311233Y2720533D2*
Y2722434D1*
X4313135Y2726281D1*
X4315036Y2728183D1*
X4318883Y2730084D1*
X4326532D1*
X4330334Y2728183D1*
X4332236Y2726281D1*
X4334181Y2722434D1*
Y2718632D1*
X4332236Y2714785D1*
X4328433Y2709081D1*
X4309288Y2689936D1*
X4336083D1*
X4348434Y2730128D2*
Y2689936D1*
X4365678D1*
X4371426Y2691881D1*
X4373327Y2693783D1*
X4375229Y2697585D1*
Y2703333D1*
X4373327Y2707180D1*
X4371426Y2709081D1*
X4365678Y2710983D1*
X4371426Y2712928D1*
X4373327Y2714829D1*
X4375229Y2718632D1*
Y2722479D1*
X4373327Y2726281D1*
X4371426Y2728227D1*
X4365678Y2730128D1*
X4348434D1*
Y2710983D2*
X4365678D1*
X3621775Y2722434D2*
X3625622Y2724380D1*
X3631370Y2730084D1*
Y2689936D1*
X3674363D2*
X3659020Y2730128D1*
X3643722Y2689936D1*
X3649470Y2703333D2*
X3668615D1*
X3721788Y2722434D2*
X3725635Y2724380D1*
X3731383Y2730084D1*
Y2689936D1*
X3743734Y2730128D2*
Y2689936D1*
X3760978D1*
X3766726Y2691881D1*
X3768627Y2693783D1*
X3770529Y2697585D1*
Y2703333D1*
X3768627Y2707180D1*
X3766726Y2709081D1*
X3760978Y2710983D1*
X3766726Y2712928D1*
X3768627Y2714829D1*
X3770529Y2718632D1*
Y2722479D1*
X3768627Y2726281D1*
X3766726Y2728227D1*
X3760978Y2730128D1*
X3743734D1*
Y2710983D2*
X3760978D1*
X3811221Y2720533D2*
Y2722434D1*
X3813122Y2726281D1*
X3815023Y2728183D1*
X3818870Y2730084D1*
X3826519D1*
X3830322Y2728183D1*
X3832223Y2726281D1*
X3834169Y2722434D1*
Y2718632D1*
X3832223Y2714785D1*
X3828421Y2709081D1*
X3809275Y2689936D1*
X3836070D1*
X3879063D2*
X3863720Y2730128D1*
X3848421Y2689936D1*
X3854169Y2703333D2*
X3873315D1*
X3911233Y2720533D2*
Y2722434D1*
X3913135Y2726281D1*
X3915036Y2728183D1*
X3918883Y2730084D1*
X3926532D1*
X3930334Y2728183D1*
X3932236Y2726281D1*
X3934181Y2722434D1*
Y2718632D1*
X3932236Y2714785D1*
X3928433Y2709081D1*
X3909288Y2689936D1*
X3936083D1*
X3948434Y2730128D2*
Y2689936D1*
X3965678D1*
X3971426Y2691881D1*
X3973327Y2693783D1*
X3975229Y2697585D1*
Y2703333D1*
X3973327Y2707180D1*
X3971426Y2709081D1*
X3965678Y2710983D1*
X3971426Y2712928D1*
X3973327Y2714829D1*
X3975229Y2718632D1*
Y2722479D1*
X3973327Y2726281D1*
X3971426Y2728227D1*
X3965678Y2730128D1*
X3948434D1*
Y2710983D2*
X3965678D1*
X4888973Y2477229D2*
Y2442785D1*
X4871773Y2459985D2*
X4906217D1*
X4986073Y2474377D2*
X4982270Y2478224D1*
X4976522Y2480125D1*
X4968873D1*
X4963125Y2478224D1*
X4959278Y2474377D1*
Y2470575D1*
X4961223Y2466728D1*
X4963125Y2464826D1*
X4966927Y2462925D1*
X4978423Y2459078D1*
X4982270Y2457177D1*
X4984171Y2455232D1*
X4986073Y2451429D1*
Y2445681D1*
X4982270Y2441879D1*
X4976522Y2439933D1*
X4968873D1*
X4963125Y2441879D1*
X4959278Y2445681D1*
X4998424Y2480125D2*
Y2439933D1*
X5039471Y2470575D2*
X5037570Y2474377D1*
X5033723Y2478224D1*
X5029921Y2480125D1*
X5022271D1*
X5018425Y2478224D1*
X5014622Y2474377D1*
X5012677Y2470575D1*
X5010775Y2464826D1*
Y2455232D1*
X5012677Y2449528D1*
X5014622Y2445681D1*
X5018425Y2441879D1*
X5022271Y2439933D1*
X5029921D1*
X5033723Y2441879D1*
X5037570Y2445681D1*
X5039471Y2449528D1*
Y2455232D1*
X5029921D1*
X5084265Y2460007D2*
X5106373D1*
X4488973Y2477229D2*
Y2442785D1*
X4471773Y2459985D2*
X4506217D1*
X4586073Y2474377D2*
X4582270Y2478224D1*
X4576522Y2480125D1*
X4568873D1*
X4563125Y2478224D1*
X4559278Y2474377D1*
Y2470575D1*
X4561223Y2466728D1*
X4563125Y2464826D1*
X4566927Y2462925D1*
X4578423Y2459078D1*
X4582270Y2457177D1*
X4584171Y2455232D1*
X4586073Y2451429D1*
Y2445681D1*
X4582270Y2441879D1*
X4576522Y2439933D1*
X4568873D1*
X4563125Y2441879D1*
X4559278Y2445681D1*
X4598424Y2480125D2*
Y2439933D1*
X4639471Y2470575D2*
X4637570Y2474377D1*
X4633723Y2478224D1*
X4629921Y2480125D1*
X4622271D1*
X4618425Y2478224D1*
X4614622Y2474377D1*
X4612677Y2470575D1*
X4610775Y2464826D1*
Y2455232D1*
X4612677Y2449528D1*
X4614622Y2445681D1*
X4618425Y2441879D1*
X4622271Y2439933D1*
X4629921D1*
X4633723Y2441879D1*
X4637570Y2445681D1*
X4639471Y2449528D1*
Y2455232D1*
X4629921D1*
X4684265Y2460007D2*
X4706373D1*
X4088973Y2477229D2*
Y2442785D1*
X4071773Y2459985D2*
X4106217D1*
X4186073Y2474377D2*
X4182270Y2478224D1*
X4176522Y2480125D1*
X4168873D1*
X4163125Y2478224D1*
X4159278Y2474377D1*
Y2470575D1*
X4161223Y2466728D1*
X4163125Y2464826D1*
X4166927Y2462925D1*
X4178423Y2459078D1*
X4182270Y2457177D1*
X4184171Y2455232D1*
X4186073Y2451429D1*
Y2445681D1*
X4182270Y2441879D1*
X4176522Y2439933D1*
X4168873D1*
X4163125Y2441879D1*
X4159278Y2445681D1*
X4198424Y2480125D2*
Y2439933D1*
X4239471Y2470575D2*
X4237570Y2474377D1*
X4233723Y2478224D1*
X4229921Y2480125D1*
X4222271D1*
X4218425Y2478224D1*
X4214622Y2474377D1*
X4212677Y2470575D1*
X4210775Y2464826D1*
Y2455232D1*
X4212677Y2449528D1*
X4214622Y2445681D1*
X4218425Y2441879D1*
X4222271Y2439933D1*
X4229921D1*
X4233723Y2441879D1*
X4237570Y2445681D1*
X4239471Y2449528D1*
Y2455232D1*
X4229921D1*
X4284265Y2460007D2*
X4306373D1*
X3688973Y2477229D2*
Y2442785D1*
X3671773Y2459985D2*
X3706217D1*
X3786073Y2474377D2*
X3782270Y2478224D1*
X3776522Y2480125D1*
X3768873D1*
X3763125Y2478224D1*
X3759278Y2474377D1*
Y2470575D1*
X3761223Y2466728D1*
X3763125Y2464826D1*
X3766927Y2462925D1*
X3778423Y2459078D1*
X3782270Y2457177D1*
X3784171Y2455232D1*
X3786073Y2451429D1*
Y2445681D1*
X3782270Y2441879D1*
X3776522Y2439933D1*
X3768873D1*
X3763125Y2441879D1*
X3759278Y2445681D1*
X3798424Y2480125D2*
Y2439933D1*
X3839471Y2470575D2*
X3837570Y2474377D1*
X3833723Y2478224D1*
X3829921Y2480125D1*
X3822271D1*
X3818425Y2478224D1*
X3814622Y2474377D1*
X3812677Y2470575D1*
X3810775Y2464826D1*
Y2455232D1*
X3812677Y2449528D1*
X3814622Y2445681D1*
X3818425Y2441879D1*
X3822271Y2439933D1*
X3829921D1*
X3833723Y2441879D1*
X3837570Y2445681D1*
X3839471Y2449528D1*
Y2455232D1*
X3829921D1*
X3884265Y2460007D2*
X3906373D1*
X4587376Y1529073D2*
D74*
Y1448689D1*
X4665668Y1529073D2*
Y1448689D1*
X4612078Y1529073D1*
Y1448689D1*
X5060368Y1529073D2*
X5052674Y1525270D1*
X5045069Y1517577D1*
X5041178Y1509972D1*
X5037376Y1498476D1*
Y1479286D1*
X5041178Y1467878D1*
X5045069Y1460185D1*
X5052674Y1452580D1*
X5060368Y1448689D1*
X5075666D1*
X5083272Y1452580D1*
X5090965Y1460185D1*
X5094768Y1467878D1*
X5098570Y1479286D1*
Y1498476D1*
X5094768Y1509972D1*
X5090965Y1517577D1*
X5083272Y1525270D1*
X5075666Y1529073D1*
X5060368D1*
X5123273D2*
Y1471681D1*
X5127075Y1460185D1*
X5134769Y1452580D1*
X5146265Y1448689D1*
X5153870D1*
X5165366Y1452580D1*
X5173060Y1460185D1*
X5176862Y1471681D1*
Y1529073D1*
X5228360D2*
Y1448689D1*
X5201565Y1529073D2*
X5255154D1*
X4687351Y1663834D2*
X4731566D1*
X4709300Y1335765D2*
Y1266877D1*
X4674901Y1301277D2*
X4743789D1*
X5134250Y1335765D2*
Y1266877D1*
X5099851Y1301277D2*
X5168739D1*
X5099851Y1663834D2*
X5144066D1*
X4587376Y2079073D2*
Y1998689D1*
X4665668Y2079073D2*
Y1998689D1*
X4612078Y2079073D1*
Y1998689D1*
X5060368Y2079073D2*
X5052674Y2075270D1*
X5045069Y2067577D1*
X5041178Y2059972D1*
X5037376Y2048476D1*
Y2029286D1*
X5041178Y2017878D1*
X5045069Y2010185D1*
X5052674Y2002580D1*
X5060368Y1998689D1*
X5075666D1*
X5083272Y2002580D1*
X5090965Y2010185D1*
X5094768Y2017878D1*
X5098570Y2029286D1*
Y2048476D1*
X5094768Y2059972D1*
X5090965Y2067577D1*
X5083272Y2075270D1*
X5075666Y2079073D1*
X5060368D1*
X5123273D2*
Y2021681D1*
X5127075Y2010185D1*
X5134769Y2002580D1*
X5146265Y1998689D1*
X5153870D1*
X5165366Y2002580D1*
X5173060Y2010185D1*
X5176862Y2021681D1*
Y2079073D1*
X5228360D2*
Y1998689D1*
X5201565Y2079073D2*
X5255154D1*
X4687351Y2213834D2*
X4731566D1*
X4709300Y1885765D2*
Y1816877D1*
X4674901Y1851277D2*
X4743789D1*
X5134250Y1885765D2*
Y1816877D1*
X5099851Y1851277D2*
X5168739D1*
X5099851Y2213834D2*
X5144066D1*
X4247960Y1986495D2*
D75*
X4249861Y1982693D1*
X4253708Y1978846D1*
X4257510Y1976945D1*
X4265160D1*
X4269006Y1978846D1*
X4272809Y1982693D1*
X4274754Y1986495D1*
X4276656Y1992243D1*
Y2001838D1*
X4274754Y2007542D1*
X4272809Y2011389D1*
X4269006Y2015191D1*
X4265160Y2017137D1*
X4257510D1*
X4253708Y2015191D1*
X4249861Y2011389D1*
X4247960Y2007542D1*
Y2001838D1*
X4257510D1*
X4208814Y1976945D2*
Y2017137D1*
X4235608Y1976945D1*
X4235609Y2017137D1*
X4196462Y1976945D2*
Y2017137D1*
X4183065D1*
X4177317Y2015191D1*
X4173470Y2011389D1*
X4171569Y2007542D1*
X4169668Y2001838D1*
Y1992243D1*
X4171569Y1986495D1*
X4173470Y1982693D1*
X4177317Y1978846D1*
X4183065Y1976945D1*
X4196462D1*
X4243323Y1907474D2*
Y1867282D1*
X4258622Y1907474D1*
X4273920Y1867282D1*
Y1907474D1*
X4230972Y1867282D2*
Y1907474D1*
X4191825Y1873030D2*
X4195628Y1869183D1*
X4201376Y1867282D1*
X4209025D1*
X4214773Y1869183D1*
X4218620Y1873030D1*
Y1876832D1*
X4216675Y1880679D1*
X4214773Y1882580D1*
X4210971Y1884482D1*
X4199475Y1888328D1*
X4195628Y1890230D1*
X4193727Y1892175D1*
X4191826Y1895978D1*
Y1901726D1*
X4195628Y1905528D1*
X4201376Y1907474D1*
X4209025D1*
X4214773Y1905528D1*
X4218620Y1901726D1*
X4167978Y1867282D2*
X4171825Y1869183D1*
X4175627Y1873030D1*
X4177573Y1876832D1*
X4179474Y1882580D1*
Y1892175D1*
X4177573Y1897879D1*
X4175627Y1901726D1*
X4171825Y1905528D1*
X4167978Y1907474D1*
X4160329D1*
X4156526Y1905528D1*
X4152679Y1901726D1*
X4150778Y1897879D1*
X4148877Y1892175D1*
Y1882580D1*
X4150778Y1876832D1*
X4152679Y1873030D1*
X4156526Y1869183D1*
X4160329Y1867282D1*
X4167978D1*
X4247125Y1772987D2*
X4250928Y1769140D1*
X4256676Y1767238D1*
X4264325D1*
X4270073Y1769140D1*
X4273920Y1772986D1*
Y1776789D1*
X4271975Y1780636D1*
X4270073Y1782537D1*
X4266271Y1784438D1*
X4254775Y1788285D1*
X4250928Y1790186D1*
X4249027Y1792132D1*
X4247125Y1795934D1*
Y1801682D1*
X4250928Y1805485D1*
X4256676Y1807431D1*
X4264325D1*
X4270073Y1805485D1*
X4273920Y1801682D1*
X4206078Y1776789D2*
X4207979Y1772987D1*
X4211826Y1769140D1*
X4215629Y1767239D1*
X4223278D1*
X4227125Y1769140D1*
X4230927Y1772987D1*
X4232873Y1776789D1*
X4234774Y1782537D1*
Y1792132D1*
X4232873Y1797836D1*
X4230927Y1801682D1*
X4227125Y1805485D1*
X4223278Y1807430D1*
X4215629D1*
X4211826Y1805485D1*
X4207979Y1801682D1*
X4206078Y1797836D1*
X4193727Y1767239D2*
Y1807430D1*
X4166932Y1767238D2*
X4193727Y1794033D1*
X4184176Y1784438D2*
X4166932Y1807430D1*
X4243323Y1707464D2*
Y1667272D1*
X4258622Y1707464D1*
X4273920Y1667272D1*
Y1707464D1*
X4219475Y1667272D2*
X4223322Y1669173D1*
X4227125Y1673020D1*
X4229070Y1676823D1*
X4230972Y1682571D1*
Y1692166D1*
X4229070Y1697869D1*
X4227125Y1701716D1*
X4223322Y1705519D1*
X4219476Y1707464D1*
X4211826D1*
X4208024Y1705519D1*
X4204177Y1701716D1*
X4202276Y1697869D1*
X4200374Y1692165D1*
Y1682571D1*
X4202276Y1676823D1*
X4204177Y1673020D1*
X4208024Y1669173D1*
X4211826Y1667272D1*
X4219475D1*
X4161228Y1673020D2*
X4165031Y1669173D1*
X4170779Y1667272D1*
X4178428D1*
X4184176Y1669173D1*
X4188023Y1673020D1*
Y1676823D1*
X4186077Y1680669D1*
X4184176Y1682571D1*
X4180374Y1684472D1*
X4168878Y1688319D1*
X4165031Y1690220D1*
X4163130Y1692165D1*
X4161228Y1695968D1*
Y1701716D1*
X4165031Y1705519D1*
X4170779Y1707464D1*
X4178428D1*
X4184176Y1705519D1*
X4188023Y1701716D1*
X4148877Y1667272D2*
Y1707464D1*
X4245224Y1576779D2*
X4247125Y1572977D1*
X4250972Y1569130D1*
X4254775Y1567229D1*
X4262424D1*
X4266271Y1569130D1*
X4270073Y1572977D1*
X4272019Y1576779D1*
X4273920Y1582527D1*
Y1592122D1*
X4272019Y1597826D1*
X4270073Y1601673D1*
X4266271Y1605475D1*
X4262424Y1607421D1*
X4254775D1*
X4250972Y1605475D1*
X4247125Y1601673D1*
X4245224Y1597826D1*
X4206078Y1572977D2*
X4209881Y1569130D1*
X4215629Y1567229D1*
X4223278D1*
X4229026Y1569130D1*
X4232873Y1572977D1*
Y1576779D1*
X4230927Y1580626D1*
X4229026Y1582527D1*
X4225224Y1584429D1*
X4213727Y1588275D1*
X4209881Y1590177D1*
X4207979Y1592122D1*
X4206078Y1595925D1*
Y1601673D1*
X4209881Y1605475D1*
X4215629Y1607421D1*
X4223278D1*
X4229026Y1605475D1*
X4232873Y1601673D1*
X4256720Y1470158D2*
Y1504602D1*
X4273920Y1487402D2*
X4239476Y1487403D1*
X4204177Y1467307D2*
X4223278D1*
X4225179Y1484506D1*
X4223278Y1482605D1*
X4217530Y1480660D1*
X4211826D1*
X4206078Y1482605D1*
X4202231Y1486408D1*
X4200330Y1492156D1*
Y1495958D1*
X4202231Y1501706D1*
X4206078Y1505553D1*
X4211826Y1507454D1*
X4217530D1*
X4223278Y1505553D1*
X4225179Y1503608D1*
X4227125Y1499805D1*
X4256720Y1370115D2*
Y1404559D1*
X4273920Y1387359D2*
X4239476D1*
X4223278Y1367263D2*
X4202276D1*
X4213727Y1382562D1*
X4207979D1*
X4204177Y1384463D1*
X4202276Y1386364D1*
X4200330Y1392112D1*
Y1395915D1*
X4202276Y1401663D1*
X4206078Y1405510D1*
X4211826Y1407411D1*
X4217574D1*
X4223278Y1405510D1*
X4225179Y1403564D1*
X4227125Y1399762D1*
X4186077Y1403564D2*
X4187979Y1405510D1*
X4186077Y1407411D1*
X4184132Y1405510D1*
X4186077Y1403564D1*
X4167934Y1367263D2*
X4146931D1*
X4158383Y1382562D1*
X4152635D1*
X4148833Y1384463D1*
X4146931Y1386364D1*
X4144986Y1392112D1*
Y1395915D1*
X4146931Y1401663D1*
X4150734Y1405510D1*
X4156482Y1407411D1*
X4162230D1*
X4167934Y1405510D1*
X4169835Y1403564D1*
X4171781Y1399762D1*
X4245224Y1276803D2*
X4247125Y1273001D1*
X4250972Y1269154D1*
X4254775Y1267253D1*
X4262424D1*
X4266271Y1269154D1*
X4270073Y1273001D1*
X4272019Y1276803D1*
X4273920Y1282551D1*
Y1292146D1*
X4272019Y1297850D1*
X4270073Y1301697D1*
X4266271Y1305499D1*
X4262424Y1307445D1*
X4254775D1*
X4250972Y1305499D1*
X4247125Y1301697D1*
X4245224Y1297850D1*
Y1292146D1*
X4254775D1*
X4206078Y1267253D2*
Y1307445D1*
X4232873Y1267253D1*
Y1307445D1*
X4193727Y1267253D2*
Y1307445D1*
X4180329D1*
X4174581Y1305499D1*
X4170735Y1301697D1*
X4168833Y1297850D1*
X4166932Y1292146D1*
Y1282551D1*
X4168833Y1276803D1*
X4170735Y1273001D1*
X4174581Y1269154D1*
X4180329Y1267253D1*
X4193727D1*
X4037649Y2026977D2*
X4022350Y2067169D1*
X4007052Y2026977D1*
X3966004Y2036527D2*
X3967906Y2032725D1*
X3971753Y2028878D1*
X3975555Y2026977D1*
X3983204D1*
X3987051Y2028878D1*
X3990854Y2032725D1*
X3992799Y2036527D1*
X3994700Y2042275D1*
Y2051870D1*
X3992799Y2057574D1*
X3990854Y2061421D1*
X3987051Y2065223D1*
X3983204Y2067169D1*
X3975555D1*
X3971753Y2065223D1*
X3967906Y2061421D1*
X3966005Y2057574D1*
X3924957Y2036527D2*
X3926858Y2032725D1*
X3930705Y2028878D1*
X3934508Y2026977D1*
X3942157D1*
X3946004Y2028878D1*
X3949806Y2032725D1*
X3951752Y2036527D1*
X3953653Y2042275D1*
Y2051870D1*
X3951752Y2057574D1*
X3949806Y2061421D1*
X3946004Y2065223D1*
X3942157Y2067169D1*
X3934508D1*
X3930705Y2065223D1*
X3926858Y2061421D1*
X3924957Y2057574D1*
X4006229Y1926789D2*
X4008130Y1922986D1*
X4011977Y1919140D1*
X4015779Y1917238D1*
X4023428D1*
X4027275Y1919140D1*
X4031078Y1922986D1*
X4033023Y1926789D1*
X4034925Y1932537D1*
Y1942132D1*
X4033023Y1947836D1*
X4031078Y1951682D1*
X4027275Y1955485D1*
X4023429Y1957430D1*
X4015779D1*
X4011977Y1955485D1*
X4008130Y1951682D1*
X4006229Y1947836D1*
Y1942132D1*
X4015779D1*
X3967083Y1917238D2*
Y1957430D1*
X3993877Y1917238D1*
Y1957430D1*
X3954731Y1917238D2*
Y1957430D1*
X3941334D1*
X3935586Y1955485D1*
X3931739Y1951682D1*
X3929838Y1947836D1*
X3927937Y1942132D1*
Y1932537D1*
X3929838Y1926789D1*
X3931739Y1922986D1*
X3935586Y1919140D1*
X3941334Y1917238D1*
X3954731D1*
X4006229Y1826790D2*
X4008130Y1822987D1*
X4011977Y1819140D1*
X4015779Y1817239D1*
X4023428D1*
X4027275Y1819140D1*
X4031078Y1822987D1*
X4033023Y1826790D1*
X4034925Y1832538D1*
Y1842132D1*
X4033023Y1847836D1*
X4031078Y1851683D1*
X4027275Y1855486D1*
X4023429Y1857431D1*
X4015779D1*
X4011977Y1855486D1*
X4008130Y1851683D1*
X4006229Y1847836D1*
X3967083Y1822987D2*
X3970885Y1819140D1*
X3976633Y1817239D1*
X3984282D1*
X3990030Y1819140D1*
X3993877Y1822987D1*
Y1826790D1*
X3991932Y1830636D1*
X3990031Y1832538D1*
X3986228Y1834439D1*
X3974732Y1838286D1*
X3970885Y1840187D1*
X3968984Y1842133D1*
X3967083Y1845935D1*
Y1851683D1*
X3970885Y1855486D1*
X3976633Y1857431D1*
X3984283D1*
X3990031Y1855486D1*
X3993877Y1851683D1*
X4034925Y1736472D2*
X4017725D1*
X4011977Y1734527D1*
X4010031Y1732625D1*
X4008130Y1728823D1*
Y1724976D1*
X4010031Y1721174D1*
X4011977Y1719228D1*
X4017725Y1717327D1*
X4034925D1*
Y1757519D1*
X4021527Y1736472D2*
X4008130Y1757519D1*
X3968984Y1723075D2*
X3972786Y1719228D1*
X3978534Y1717327D1*
X3986184D1*
X3991932Y1719228D1*
X3995779Y1723075D1*
Y1726877D1*
X3993833Y1730724D1*
X3991932Y1732625D1*
X3988129Y1734527D1*
X3976633Y1738373D1*
X3972786Y1740275D1*
X3970885Y1742220D1*
X3968984Y1746023D1*
Y1751771D1*
X3972786Y1755573D1*
X3978534Y1757519D1*
X3986184D1*
X3991932Y1755573D1*
X3995779Y1751771D1*
X3943235Y1717327D2*
Y1757519D1*
X3956632Y1717327D2*
X3929838D1*
X4034925Y1617240D2*
Y1657433D1*
X4021527D1*
X4015779Y1655487D1*
X4011932Y1651685D1*
X4010031Y1647838D1*
X4008130Y1642134D1*
Y1632539D1*
X4010031Y1626791D1*
X4011932Y1622989D1*
X4015779Y1619142D1*
X4021527Y1617241D1*
X4034925Y1617240D1*
X3967083Y1626791D2*
X3968984Y1622989D1*
X3972831Y1619142D1*
X3976633Y1617241D1*
X3984282D1*
X3988129Y1619142D1*
X3991932Y1622989D1*
X3993877Y1626791D1*
X3995779Y1632539D1*
Y1642134D1*
X3993877Y1647838D1*
X3991932Y1651685D1*
X3988129Y1655487D1*
X3984283Y1657433D1*
X3976633D1*
X3972831Y1655487D1*
X3968984Y1651685D1*
X3967083Y1647838D1*
X4004327Y1557433D2*
Y1517241D1*
X4019626Y1557433D1*
X4034925Y1517241D1*
Y1557433D1*
X3980480Y1517241D2*
X3984327Y1519143D1*
X3988129Y1522989D1*
X3990075Y1526792D1*
X3991976Y1532540D1*
Y1542135D1*
X3990075Y1547838D1*
X3988129Y1551685D1*
X3984327Y1555488D1*
X3980480Y1557433D1*
X3972831D1*
X3969028Y1555488D1*
X3965181Y1551685D1*
X3963280Y1547838D1*
X3961379Y1542135D1*
Y1532540D1*
X3963280Y1526792D1*
X3965181Y1522989D1*
X3969028Y1519143D1*
X3972831Y1517241D1*
X3980480D1*
X3922233Y1522989D2*
X3926035Y1519143D1*
X3931783Y1517241D1*
X3939433D1*
X3945181Y1519143D1*
X3949027Y1522989D1*
Y1526792D1*
X3947082Y1530639D1*
X3945181Y1532540D1*
X3941378Y1534441D1*
X3929882Y1538288D1*
X3926035Y1540189D1*
X3924134Y1542135D1*
X3922233Y1545937D1*
Y1551685D1*
X3926035Y1555488D1*
X3931783Y1557433D1*
X3939433D1*
X3945181Y1555488D1*
X3949027Y1551685D1*
X3909881Y1517241D2*
Y1557433D1*
X4008130Y1422990D2*
X4011932Y1419143D1*
X4017680Y1417242D1*
X4025330D1*
X4031078Y1419143D1*
X4034925Y1422990D1*
Y1426792D1*
X4032979Y1430639D1*
X4031078Y1432541D1*
X4027275Y1434442D1*
X4015779Y1438289D1*
X4011932Y1440190D1*
X4010031Y1442135D1*
X4008130Y1445938D1*
Y1451686D1*
X4011932Y1455488D1*
X4017681Y1457434D1*
X4025330D1*
X4031078Y1455488D1*
X4034925Y1451686D1*
X3967083Y1426793D2*
X3968984Y1422990D1*
X3972831Y1419143D1*
X3976633Y1417242D1*
X3984282D1*
X3988129Y1419143D1*
X3991932Y1422990D1*
X3993877Y1426793D1*
X3995779Y1432541D1*
Y1442135D1*
X3993877Y1447839D1*
X3991932Y1451686D1*
X3988129Y1455488D1*
X3984283Y1457434D1*
X3976633D1*
X3972831Y1455488D1*
X3968984Y1451686D1*
X3967083Y1447839D1*
X3954731Y1417242D2*
Y1457434D1*
X3927937Y1417242D2*
X3954731Y1444037D1*
X3945181Y1434442D2*
X3927937Y1457434D1*
X4034925Y1317243D2*
Y1357435D1*
X4011977D1*
X3974776Y1317243D2*
X3999625D1*
Y1357435D1*
X3974776D1*
X3999625Y1336388D2*
X3984327D1*
X3962425Y1317243D2*
Y1357435D1*
X3949027D1*
X3943279Y1355489D1*
X3939433Y1351687D1*
X3937531Y1347840D1*
X3935630Y1342136D1*
Y1332541D1*
X3937531Y1326793D1*
X3939433Y1322991D1*
X3943279Y1319144D1*
X3949027Y1317243D1*
X3962425D1*
X4004327Y1257435D2*
Y1217243D1*
X4019626Y1257435D1*
X4034925Y1217243D1*
Y1257435D1*
X3991976Y1217243D2*
Y1257435D1*
X3952830Y1222991D2*
X3956632Y1219145D1*
X3962381Y1217243D1*
X3970030D1*
X3975778Y1219145D1*
X3979625Y1222991D1*
Y1226794D1*
X3977679Y1230641D1*
X3975778Y1232542D1*
X3971975Y1234443D1*
X3960479Y1238290D1*
X3956633Y1240191D1*
X3954731Y1242137D1*
X3952830Y1245939D1*
Y1251687D1*
X3956633Y1255490D1*
X3962381Y1257435D1*
X3970030D1*
X3975778Y1255490D1*
X3979625Y1251687D1*
X3928982Y1217243D2*
X3932829Y1219145D1*
X3936632Y1222991D1*
X3938577Y1226794D1*
X3940479Y1232542D1*
Y1242137D1*
X3938577Y1247841D1*
X3936632Y1251687D1*
X3932829Y1255490D1*
X3928983Y1257435D1*
X3921333D1*
X3917531Y1255490D1*
X3913684Y1251687D1*
X3911783Y1247841D1*
X3909881Y1242137D1*
Y1232542D1*
X3911783Y1226794D1*
X3913684Y1222991D1*
X3917531Y1219145D1*
X3921333Y1217243D1*
X3928982D1*
X1251900Y2465578D2*
D77*
Y2365098D1*
X1309269D1*
X1416641D2*
Y2465578D1*
X1378394Y2365098D1*
X1340148Y2465578D1*
Y2365098D1*
X1457136Y2465467D2*
X1509642D1*
X1481013Y2427221D1*
X1495383D1*
X1504889Y2422467D1*
X1509642Y2417714D1*
X1514506Y2403344D1*
Y2393838D1*
X1509642Y2379468D1*
X1500136Y2369851D1*
X1485766Y2365098D1*
X1471396D1*
X1457136Y2369851D1*
X1452383Y2374715D1*
X1447519Y2384221D1*
X1569261Y2465467D2*
X1555001Y2460714D1*
X1550138Y2451208D1*
Y2441591D1*
X1555001Y2432084D1*
X1564508Y2427221D1*
X1583631Y2422467D1*
X1598001Y2417714D1*
X1607508Y2408097D1*
X1612261Y2398591D1*
Y2384221D1*
X1607508Y2374715D1*
X1602754Y2369851D1*
X1588384Y2365098D1*
X1569261D1*
X1555001Y2369851D1*
X1550138Y2374715D1*
X1545385Y2384221D1*
Y2398591D1*
X1550138Y2408097D1*
X1559755Y2417714D1*
X1574014Y2422467D1*
X1593137Y2427221D1*
X1602754Y2432084D1*
X1607508Y2441591D1*
Y2451208D1*
X1602754Y2460714D1*
X1588384Y2465467D1*
X1569261D1*
X1700509Y2451208D2*
X1695756Y2460714D1*
X1681386Y2465467D1*
X1671879D1*
X1657509Y2460714D1*
X1647892Y2446344D1*
X1643139Y2422467D1*
Y2398591D1*
X1647892Y2379468D1*
X1657509Y2369851D1*
X1671879Y2365098D1*
X1676633D1*
X1690892Y2369851D1*
X1700509Y2379468D1*
X1705262Y2393838D1*
Y2398591D1*
X1700509Y2412961D1*
X1690892Y2422467D1*
X1676633Y2427221D1*
X1671879D1*
X1657509Y2422467D1*
X1647892Y2412961D1*
X1643139Y2398591D1*
X1251900Y1890578D2*
Y1790098D1*
X1309269D1*
X1416641D2*
Y1890578D1*
X1378394Y1790098D1*
X1340148Y1890578D1*
Y1790098D1*
X1457136Y1890467D2*
X1509642D1*
X1481013Y1852221D1*
X1495383D1*
X1504889Y1847467D1*
X1509642Y1842714D1*
X1514506Y1828344D1*
Y1818838D1*
X1509642Y1804468D1*
X1500136Y1794851D1*
X1485766Y1790098D1*
X1471396D1*
X1457136Y1794851D1*
X1452383Y1799715D1*
X1447519Y1809221D1*
X1569261Y1890467D2*
X1555001Y1885714D1*
X1550138Y1876208D1*
Y1866591D1*
X1555001Y1857084D1*
X1564508Y1852221D1*
X1583631Y1847467D1*
X1598001Y1842714D1*
X1607508Y1833097D1*
X1612261Y1823591D1*
Y1809221D1*
X1607508Y1799715D1*
X1602754Y1794851D1*
X1588384Y1790098D1*
X1569261D1*
X1555001Y1794851D1*
X1550138Y1799715D1*
X1545385Y1809221D1*
Y1823591D1*
X1550138Y1833097D1*
X1559755Y1842714D1*
X1574014Y1847467D1*
X1593137Y1852221D1*
X1602754Y1857084D1*
X1607508Y1866591D1*
Y1876208D1*
X1602754Y1885714D1*
X1588384Y1890467D1*
X1569261D1*
X1700509Y1876208D2*
X1695756Y1885714D1*
X1681386Y1890467D1*
X1671879D1*
X1657509Y1885714D1*
X1647892Y1871344D1*
X1643139Y1847467D1*
Y1823591D1*
X1647892Y1804468D1*
X1657509Y1794851D1*
X1671879Y1790098D1*
X1676633D1*
X1690892Y1794851D1*
X1700509Y1804468D1*
X1705262Y1818838D1*
Y1823591D1*
X1700509Y1837961D1*
X1690892Y1847467D1*
X1676633Y1852221D1*
X1671879D1*
X1657509Y1847467D1*
X1647892Y1837961D1*
X1643139Y1823591D1*
X1251900Y1315578D2*
Y1215098D1*
X1309269D1*
X1416641D2*
Y1315578D1*
X1378394Y1215098D1*
X1340148Y1315578D1*
Y1215098D1*
X1457136Y1315467D2*
X1509642D1*
X1481013Y1277221D1*
X1495383D1*
X1504889Y1272467D1*
X1509642Y1267714D1*
X1514506Y1253344D1*
Y1243838D1*
X1509642Y1229468D1*
X1500136Y1219851D1*
X1485766Y1215098D1*
X1471396D1*
X1457136Y1219851D1*
X1452383Y1224715D1*
X1447519Y1234221D1*
X1569261Y1315467D2*
X1555001Y1310714D1*
X1550138Y1301208D1*
Y1291591D1*
X1555001Y1282084D1*
X1564508Y1277221D1*
X1583631Y1272467D1*
X1598001Y1267714D1*
X1607508Y1258097D1*
X1612261Y1248591D1*
Y1234221D1*
X1607508Y1224715D1*
X1602754Y1219851D1*
X1588384Y1215098D1*
X1569261D1*
X1555001Y1219851D1*
X1550138Y1224715D1*
X1545385Y1234221D1*
Y1248591D1*
X1550138Y1258097D1*
X1559755Y1267714D1*
X1574014Y1272467D1*
X1593137Y1277221D1*
X1602754Y1282084D1*
X1607508Y1291591D1*
Y1301208D1*
X1602754Y1310714D1*
X1588384Y1315467D1*
X1569261D1*
X1700509Y1301208D2*
X1695756Y1310714D1*
X1681386Y1315467D1*
X1671879D1*
X1657509Y1310714D1*
X1647892Y1296344D1*
X1643139Y1272467D1*
Y1248591D1*
X1647892Y1229468D1*
X1657509Y1219851D1*
X1671879Y1215098D1*
X1676633D1*
X1690892Y1219851D1*
X1700509Y1229468D1*
X1705262Y1243838D1*
Y1248591D1*
X1700509Y1262961D1*
X1690892Y1272467D1*
X1676633Y1277221D1*
X1671879D1*
X1657509Y1272467D1*
X1647892Y1262961D1*
X1643139Y1248591D1*
X1251900Y740578D2*
Y640098D1*
X1309269D1*
X1416641D2*
Y740578D1*
X1378394Y640098D1*
X1340148Y740578D1*
Y640098D1*
X1457136Y740467D2*
X1509642D1*
X1481013Y702221D1*
X1495383D1*
X1504889Y697467D1*
X1509642Y692714D1*
X1514506Y678344D1*
Y668838D1*
X1509642Y654468D1*
X1500136Y644851D1*
X1485766Y640098D1*
X1471396D1*
X1457136Y644851D1*
X1452383Y649715D1*
X1447519Y659221D1*
X1569261Y740467D2*
X1555001Y735714D1*
X1550138Y726208D1*
Y716591D1*
X1555001Y707084D1*
X1564508Y702221D1*
X1583631Y697467D1*
X1598001Y692714D1*
X1607508Y683097D1*
X1612261Y673591D1*
Y659221D1*
X1607508Y649715D1*
X1602754Y644851D1*
X1588384Y640098D1*
X1569261D1*
X1555001Y644851D1*
X1550138Y649715D1*
X1545385Y659221D1*
Y673591D1*
X1550138Y683097D1*
X1559755Y692714D1*
X1574014Y697467D1*
X1593137Y702221D1*
X1602754Y707084D1*
X1607508Y716591D1*
Y726208D1*
X1602754Y735714D1*
X1588384Y740467D1*
X1569261D1*
X1700509Y726208D2*
X1695756Y735714D1*
X1681386Y740467D1*
X1671879D1*
X1657509Y735714D1*
X1647892Y721344D1*
X1643139Y697467D1*
Y673591D1*
X1647892Y654468D1*
X1657509Y644851D1*
X1671879Y640098D1*
X1676633D1*
X1690892Y644851D1*
X1700509Y654468D1*
X1705262Y668838D1*
Y673591D1*
X1700509Y687961D1*
X1690892Y697467D1*
X1676633Y702221D1*
X1671879D1*
X1657509Y697467D1*
X1647892Y687961D1*
X1643139Y673591D1*
M02*
